<?xml version="1.0" encoding="utf-8" ?>
<svg baseProfile="full" height="120.0" version="1.1" width="126.0" xmlns="http://www.w3.org/2000/svg" xmlns:ev="http://www.w3.org/2001/xml-events" xmlns:xlink="http://www.w3.org/1999/xlink"><defs /><polyline fill="none" points="90.0,87.0 90.0,84.0 84.0,84.0 84.0,90.0 93.0,90.0" stroke="rgb(68,1,84)" stroke-width="3.5999999999999996" /><polyline fill="none" points="99.0,90.0 102.0,90.0 102.0,78.0 81.0,78.0" stroke="rgb(71,18,101)" stroke-width="3.5999999999999996" /><polyline fill="none" points="75.0,78.0 12.0,78.0 12.0,108.0 30.0,108.0 30.0,96.0 18.0,96.0 18.0,102.0 24.0,102.0 24.0,99.0" stroke="rgb(72,35,116)" stroke-width="3.5999999999999996" /><polyline fill="none" points="24.0,93.0 24.0,81.0" stroke="rgb(69,52,127)" stroke-width="3.5999999999999996" /><polyline fill="none" points="24.0,75.0 24.0,72.0 6.0,72.0 6.0,114.0 54.0,114.0 54.0,81.0" stroke="rgb(64,67,135)" stroke-width="3.5999999999999996" /><polyline fill="none" points="54.0,75.0 54.0,69.0" stroke="rgb(58,82,139)" stroke-width="3.5999999999999996" /><polyline fill="none" points="54.0,63.0 54.0,60.0 60.0,60.0 60.0,66.0 36.0,66.0 36.0,18.0 57.0,18.0" stroke="rgb(52,94,141)" stroke-width="3.5999999999999996" /><polyline fill="none" points="63.0,18.0 66.0,18.0 66.0,30.0 63.0,30.0" stroke="rgb(46,107,142)" stroke-width="3.5999999999999996" /><polyline fill="none" points="57.0,30.0 51.0,30.0" stroke="rgb(41,120,142)" stroke-width="3.5999999999999996" /><polyline fill="none" points="45.0,30.0 42.0,30.0 42.0,24.0 48.0,24.0 48.0,63.0" stroke="rgb(36,132,141)" stroke-width="3.5999999999999996" /><polyline fill="none" points="48.0,69.0 48.0,72.0 30.0,72.0 30.0,6.0 120.0,6.0 120.0,54.0 60.0,54.0 60.0,12.0 108.0,12.0 108.0,48.0 114.0,48.0 114.0,42.0 111.0,42.0" stroke="rgb(32,144,140)" stroke-width="3.5999999999999996" /><polyline fill="none" points="105.0,42.0 99.0,42.0" stroke="rgb(30,155,137)" stroke-width="3.5999999999999996" /><polyline fill="none" points="93.0,42.0 90.0,42.0 90.0,36.0 93.0,36.0" stroke="rgb(34,167,132)" stroke-width="3.5999999999999996" /><polyline fill="none" points="99.0,36.0 102.0,36.0 102.0,30.0 96.0,30.0 96.0,51.0" stroke="rgb(47,179,123)" stroke-width="3.5999999999999996" /><polyline fill="none" points="96.0,57.0 96.0,75.0" stroke="rgb(68,190,112)" stroke-width="3.5999999999999996" /><polyline fill="none" points="96.0,81.0 96.0,96.0 93.0,96.0" stroke="rgb(94,201,97)" stroke-width="3.5999999999999996" /><polyline fill="none" points="87.0,96.0 84.0,96.0 84.0,114.0 60.0,114.0 60.0,81.0" stroke="rgb(121,209,81)" stroke-width="3.5999999999999996" /><polyline fill="none" points="60.0,75.0 60.0,72.0 78.0,72.0 78.0,108.0 72.0,108.0 72.0,105.0" stroke="rgb(154,216,60)" stroke-width="3.5999999999999996" /><polyline fill="none" points="72.0,99.0 72.0,96.0 66.0,96.0 66.0,102.0 75.0,102.0" stroke="rgb(189,222,38)" stroke-width="3.5999999999999996" /><polyline fill="none" points="81.0,102.0 81.0,102.0" stroke="rgb(223,227,24)" stroke-width="3.5999999999999996" /><polyline fill="none" points="87.0,102.0 90.0,102.0 90.0,93.0" stroke="rgb(253,231,36)" stroke-width="3.5999999999999996" /></svg>