<?xml version="1.0" encoding="utf-8" ?>
<svg baseProfile="full" height="96.0" version="1.1" width="102.0" xmlns="http://www.w3.org/2000/svg" xmlns:ev="http://www.w3.org/2001/xml-events" xmlns:xlink="http://www.w3.org/1999/xlink"><defs /><polyline fill="none" points="36.0,39.0 36.0,36.0 30.0,36.0 30.0,42.0 39.0,42.0" stroke="rgb(68,1,84)" stroke-width="3.5999999999999996" /><polyline fill="none" points="45.0,42.0 96.0,42.0 96.0,6.0 12.0,6.0 12.0,84.0 6.0,84.0 6.0,78.0 9.0,78.0" stroke="rgb(72,26,108)" stroke-width="3.5999999999999996" /><polyline fill="none" points="15.0,78.0 57.0,78.0" stroke="rgb(70,49,126)" stroke-width="3.5999999999999996" /><polyline fill="none" points="63.0,78.0 66.0,78.0 66.0,72.0 60.0,72.0 60.0,84.0 69.0,84.0" stroke="rgb(63,71,136)" stroke-width="3.5999999999999996" /><polyline fill="none" points="75.0,84.0 78.0,84.0 78.0,90.0 72.0,90.0 72.0,69.0" stroke="rgb(54,91,140)" stroke-width="3.5999999999999996" /><polyline fill="none" points="72.0,63.0 72.0,48.0 48.0,48.0 48.0,60.0 51.0,60.0" stroke="rgb(46,109,142)" stroke-width="3.5999999999999996" /><polyline fill="none" points="57.0,60.0 60.0,60.0 60.0,54.0 54.0,54.0 54.0,75.0" stroke="rgb(39,126,142)" stroke-width="3.5999999999999996" /><polyline fill="none" points="54.0,81.0 54.0,84.0 42.0,84.0 42.0,81.0" stroke="rgb(32,144,140)" stroke-width="3.5999999999999996" /><polyline fill="none" points="42.0,75.0 42.0,69.0" stroke="rgb(31,161,135)" stroke-width="3.5999999999999996" /><polyline fill="none" points="42.0,63.0 42.0,30.0 24.0,30.0 24.0,66.0 33.0,66.0" stroke="rgb(44,177,125)" stroke-width="3.5999999999999996" /><polyline fill="none" points="39.0,66.0 51.0,66.0" stroke="rgb(73,193,109)" stroke-width="3.5999999999999996" /><polyline fill="none" points="57.0,66.0 78.0,66.0 78.0,45.0" stroke="rgb(114,207,85)" stroke-width="3.5999999999999996" /><polyline fill="none" points="78.0,39.0 78.0,27.0" stroke="rgb(159,217,56)" stroke-width="3.5999999999999996" /><polyline fill="none" points="78.0,21.0 78.0,18.0 84.0,18.0 84.0,24.0 72.0,24.0 72.0,30.0 75.0,30.0" stroke="rgb(207,225,28)" stroke-width="3.5999999999999996" /><polyline fill="none" points="81.0,30.0 90.0,30.0 90.0,12.0 18.0,12.0 18.0,72.0 36.0,72.0 36.0,45.0" stroke="rgb(253,231,36)" stroke-width="3.5999999999999996" /></svg>