<?xml version="1.0" encoding="utf-8" ?>
<svg baseProfile="full" height="240.0" version="1.1" width="270.0" xmlns="http://www.w3.org/2000/svg" xmlns:ev="http://www.w3.org/2001/xml-events" xmlns:xlink="http://www.w3.org/1999/xlink"><defs /><polyline fill="none" points="48.0,213.0 48.0,6.0 6.0,6.0 6.0,210.0 42.0,210.0 42.0,18.0 30.0,18.0 30.0,204.0 36.0,204.0 36.0,198.0 33.0,198.0" stroke="rgb(68,1,84)" stroke-width="3.5999999999999996" /><polyline fill="none" points="27.0,198.0 27.0,198.0" stroke="rgb(69,6,90)" stroke-width="3.5999999999999996" /><polyline fill="none" points="21.0,198.0 12.0,198.0 12.0,18.0 15.0,18.0" stroke="rgb(70,14,97)" stroke-width="3.5999999999999996" /><polyline fill="none" points="21.0,18.0 24.0,18.0 24.0,12.0 18.0,12.0 18.0,195.0" stroke="rgb(71,21,103)" stroke-width="3.5999999999999996" /><polyline fill="none" points="18.0,201.0 18.0,204.0 24.0,204.0 24.0,24.0 27.0,24.0" stroke="rgb(72,28,110)" stroke-width="3.5999999999999996" /><polyline fill="none" points="33.0,24.0 39.0,24.0" stroke="rgb(72,34,115)" stroke-width="3.5999999999999996" /><polyline fill="none" points="45.0,24.0 45.0,24.0" stroke="rgb(71,40,120)" stroke-width="3.5999999999999996" /><polyline fill="none" points="51.0,24.0 165.0,24.0" stroke="rgb(70,47,124)" stroke-width="3.5999999999999996" /><polyline fill="none" points="171.0,24.0 174.0,24.0 174.0,18.0 168.0,18.0 168.0,33.0" stroke="rgb(69,53,128)" stroke-width="3.5999999999999996" /><polyline fill="none" points="168.0,39.0 168.0,63.0" stroke="rgb(67,59,131)" stroke-width="3.5999999999999996" /><polyline fill="none" points="168.0,69.0 168.0,72.0 162.0,72.0 162.0,66.0 225.0,66.0" stroke="rgb(65,65,134)" stroke-width="3.5999999999999996" /><polyline fill="none" points="231.0,66.0 240.0,66.0 240.0,156.0 234.0,156.0 234.0,150.0 237.0,150.0" stroke="rgb(63,71,136)" stroke-width="3.5999999999999996" /><polyline fill="none" points="243.0,150.0 258.0,150.0 258.0,84.0 255.0,84.0" stroke="rgb(61,76,137)" stroke-width="3.5999999999999996" /><polyline fill="none" points="249.0,84.0 243.0,84.0" stroke="rgb(58,82,139)" stroke-width="3.5999999999999996" /><polyline fill="none" points="237.0,84.0 231.0,84.0" stroke="rgb(56,86,139)" stroke-width="3.5999999999999996" /><polyline fill="none" points="225.0,84.0 159.0,84.0" stroke="rgb(54,91,140)" stroke-width="3.5999999999999996" /><polyline fill="none" points="153.0,84.0 144.0,84.0 144.0,78.0 150.0,78.0 150.0,81.0" stroke="rgb(51,96,141)" stroke-width="3.5999999999999996" /><polyline fill="none" points="150.0,87.0 150.0,90.0 138.0,90.0 138.0,72.0 156.0,72.0 156.0,147.0" stroke="rgb(49,101,141)" stroke-width="3.5999999999999996" /><polyline fill="none" points="156.0,153.0 156.0,180.0 162.0,180.0 162.0,174.0 159.0,174.0" stroke="rgb(47,106,141)" stroke-width="3.5999999999999996" /><polyline fill="none" points="153.0,174.0 150.0,174.0 150.0,186.0 186.0,186.0 186.0,165.0" stroke="rgb(45,111,142)" stroke-width="3.5999999999999996" /><polyline fill="none" points="186.0,159.0 186.0,153.0" stroke="rgb(43,116,142)" stroke-width="3.5999999999999996" /><polyline fill="none" points="186.0,147.0 186.0,105.0" stroke="rgb(41,121,142)" stroke-width="3.5999999999999996" /><polyline fill="none" points="186.0,99.0 186.0,96.0 180.0,96.0 180.0,102.0 210.0,102.0 210.0,114.0 198.0,114.0 198.0,108.0 204.0,108.0 204.0,111.0" stroke="rgb(39,125,142)" stroke-width="3.5999999999999996" /><polyline fill="none" points="204.0,117.0 204.0,129.0" stroke="rgb(37,130,142)" stroke-width="3.5999999999999996" /><polyline fill="none" points="204.0,135.0 204.0,138.0 192.0,138.0 192.0,144.0 198.0,144.0 198.0,141.0" stroke="rgb(35,135,141)" stroke-width="3.5999999999999996" /><polyline fill="none" points="198.0,135.0 198.0,126.0 192.0,126.0 192.0,132.0 195.0,132.0" stroke="rgb(34,139,141)" stroke-width="3.5999999999999996" /><polyline fill="none" points="201.0,132.0 216.0,132.0 216.0,138.0 210.0,138.0 210.0,135.0" stroke="rgb(32,144,140)" stroke-width="3.5999999999999996" /><polyline fill="none" points="210.0,129.0 210.0,120.0 207.0,120.0" stroke="rgb(31,148,139)" stroke-width="3.5999999999999996" /><polyline fill="none" points="201.0,120.0 189.0,120.0" stroke="rgb(30,153,138)" stroke-width="3.5999999999999996" /><polyline fill="none" points="183.0,120.0 168.0,120.0 168.0,102.0 174.0,102.0 174.0,117.0" stroke="rgb(30,157,136)" stroke-width="3.5999999999999996" /><polyline fill="none" points="174.0,123.0 174.0,126.0 162.0,126.0 162.0,90.0 222.0,90.0 222.0,150.0 102.0,150.0 102.0,192.0 192.0,192.0 192.0,162.0 159.0,162.0" stroke="rgb(31,162,134)" stroke-width="3.5999999999999996" /><polyline fill="none" points="153.0,162.0 129.0,162.0" stroke="rgb(33,167,132)" stroke-width="3.5999999999999996" /><polyline fill="none" points="123.0,162.0 123.0,162.0" stroke="rgb(37,171,129)" stroke-width="3.5999999999999996" /><polyline fill="none" points="117.0,162.0 114.0,162.0 114.0,168.0 120.0,168.0 120.0,156.0 108.0,156.0 108.0,174.0 126.0,174.0 126.0,153.0" stroke="rgb(42,176,126)" stroke-width="3.5999999999999996" /><polyline fill="none" points="126.0,147.0 126.0,63.0" stroke="rgb(48,180,122)" stroke-width="3.5999999999999996" /><polyline fill="none" points="126.0,57.0 126.0,54.0 132.0,54.0 132.0,72.0 129.0,72.0" stroke="rgb(56,185,118)" stroke-width="3.5999999999999996" /><polyline fill="none" points="123.0,72.0 90.0,72.0 90.0,66.0 96.0,66.0 96.0,69.0" stroke="rgb(64,189,114)" stroke-width="3.5999999999999996" /><polyline fill="none" points="96.0,75.0 96.0,195.0" stroke="rgb(73,193,109)" stroke-width="3.5999999999999996" /><polyline fill="none" points="96.0,201.0 96.0,234.0 54.0,234.0 54.0,219.0" stroke="rgb(83,197,103)" stroke-width="3.5999999999999996" /><polyline fill="none" points="54.0,213.0 54.0,204.0 81.0,204.0" stroke="rgb(94,201,97)" stroke-width="3.5999999999999996" /><polyline fill="none" points="87.0,204.0 90.0,204.0 90.0,210.0 84.0,210.0 84.0,63.0" stroke="rgb(103,204,92)" stroke-width="3.5999999999999996" /><polyline fill="none" points="84.0,57.0 84.0,54.0 78.0,54.0 78.0,60.0 129.0,60.0" stroke="rgb(114,207,85)" stroke-width="3.5999999999999996" /><polyline fill="none" points="135.0,60.0 162.0,60.0 162.0,48.0 72.0,48.0 72.0,198.0 81.0,198.0" stroke="rgb(126,210,78)" stroke-width="3.5999999999999996" /><polyline fill="none" points="87.0,198.0 252.0,198.0 252.0,165.0" stroke="rgb(139,213,70)" stroke-width="3.5999999999999996" /><polyline fill="none" points="252.0,159.0 252.0,153.0" stroke="rgb(151,216,62)" stroke-width="3.5999999999999996" /><polyline fill="none" points="252.0,147.0 252.0,72.0 258.0,72.0 258.0,78.0 255.0,78.0" stroke="rgb(165,218,53)" stroke-width="3.5999999999999996" /><polyline fill="none" points="249.0,78.0 246.0,78.0 246.0,66.0 264.0,66.0 264.0,162.0 228.0,162.0 228.0,42.0 174.0,42.0 174.0,60.0 186.0,60.0 186.0,48.0 180.0,48.0 180.0,54.0 183.0,54.0" stroke="rgb(178,221,44)" stroke-width="3.5999999999999996" /><polyline fill="none" points="189.0,54.0 225.0,54.0" stroke="rgb(191,223,36)" stroke-width="3.5999999999999996" /><polyline fill="none" points="231.0,54.0 234.0,54.0 234.0,39.0" stroke="rgb(205,224,29)" stroke-width="3.5999999999999996" /><polyline fill="none" points="234.0,33.0 234.0,30.0 240.0,30.0 240.0,36.0 66.0,36.0 66.0,201.0" stroke="rgb(218,226,24)" stroke-width="3.5999999999999996" /><polyline fill="none" points="66.0,207.0 66.0,213.0" stroke="rgb(231,228,25)" stroke-width="3.5999999999999996" /><polyline fill="none" points="66.0,219.0 66.0,228.0 60.0,228.0 60.0,222.0 63.0,222.0" stroke="rgb(243,229,30)" stroke-width="3.5999999999999996" /><polyline fill="none" points="69.0,222.0 84.0,222.0 84.0,216.0 42.0,216.0 42.0,222.0 48.0,222.0 48.0,219.0" stroke="rgb(253,231,36)" stroke-width="3.5999999999999996" /></svg>