<?xml version="1.0" encoding="utf-8" ?>
<svg baseProfile="full" height="276.0" version="1.1" width="300.0" xmlns="http://www.w3.org/2000/svg" xmlns:ev="http://www.w3.org/2001/xml-events" xmlns:xlink="http://www.w3.org/1999/xlink"><defs /><polyline fill="none" points="192.0,27.0 192.0,24.0 186.0,24.0 186.0,30.0 282.0,30.0 282.0,96.0 273.0,96.0" stroke="rgb(68,1,84)" stroke-width="3.5999999999999996" /><polyline fill="none" points="267.0,96.0 249.0,96.0" stroke="rgb(69,6,90)" stroke-width="3.5999999999999996" /><polyline fill="none" points="243.0,96.0 240.0,96.0 240.0,102.0 246.0,102.0 246.0,81.0" stroke="rgb(70,14,97)" stroke-width="3.5999999999999996" /><polyline fill="none" points="246.0,75.0 246.0,69.0" stroke="rgb(71,20,102)" stroke-width="3.5999999999999996" /><polyline fill="none" points="246.0,63.0 246.0,36.0 204.0,36.0 204.0,96.0 222.0,96.0 222.0,87.0" stroke="rgb(72,26,108)" stroke-width="3.5999999999999996" /><polyline fill="none" points="222.0,81.0 222.0,63.0" stroke="rgb(72,33,114)" stroke-width="3.5999999999999996" /><polyline fill="none" points="222.0,57.0 222.0,57.0" stroke="rgb(71,38,118)" stroke-width="3.5999999999999996" /><polyline fill="none" points="222.0,51.0 222.0,48.0 228.0,48.0 228.0,54.0 216.0,54.0 216.0,60.0 234.0,60.0 234.0,42.0 210.0,42.0 210.0,66.0 219.0,66.0" stroke="rgb(71,44,123)" stroke-width="3.5999999999999996" /><polyline fill="none" points="225.0,66.0 258.0,66.0 258.0,60.0 252.0,60.0 252.0,63.0" stroke="rgb(69,50,127)" stroke-width="3.5999999999999996" /><polyline fill="none" points="252.0,69.0 252.0,84.0 258.0,84.0 258.0,78.0 255.0,78.0" stroke="rgb(68,55,129)" stroke-width="3.5999999999999996" /><polyline fill="none" points="249.0,78.0 228.0,78.0 228.0,72.0 234.0,72.0 234.0,75.0" stroke="rgb(66,61,132)" stroke-width="3.5999999999999996" /><polyline fill="none" points="234.0,81.0 234.0,90.0 240.0,90.0 240.0,84.0 237.0,84.0" stroke="rgb(64,67,135)" stroke-width="3.5999999999999996" /><polyline fill="none" points="231.0,84.0 207.0,84.0" stroke="rgb(62,72,136)" stroke-width="3.5999999999999996" /><polyline fill="none" points="201.0,84.0 198.0,84.0 198.0,105.0" stroke="rgb(60,77,138)" stroke-width="3.5999999999999996" /><polyline fill="none" points="198.0,111.0 198.0,111.0" stroke="rgb(58,83,139)" stroke-width="3.5999999999999996" /><polyline fill="none" points="198.0,117.0 198.0,138.0 174.0,138.0 174.0,129.0" stroke="rgb(56,87,140)" stroke-width="3.5999999999999996" /><polyline fill="none" points="174.0,123.0 174.0,120.0 162.0,120.0 162.0,144.0 168.0,144.0 168.0,138.0 165.0,138.0" stroke="rgb(53,92,140)" stroke-width="3.5999999999999996" /><polyline fill="none" points="159.0,138.0 120.0,138.0 120.0,153.0" stroke="rgb(51,97,141)" stroke-width="3.5999999999999996" /><polyline fill="none" points="120.0,159.0 120.0,171.0" stroke="rgb(49,101,141)" stroke-width="3.5999999999999996" /><polyline fill="none" points="120.0,177.0 120.0,180.0 150.0,180.0 150.0,141.0" stroke="rgb(47,106,141)" stroke-width="3.5999999999999996" /><polyline fill="none" points="150.0,135.0 150.0,15.0" stroke="rgb(45,111,142)" stroke-width="3.5999999999999996" /><polyline fill="none" points="150.0,9.0 150.0,6.0 156.0,6.0 156.0,12.0 90.0,12.0 90.0,240.0 84.0,240.0 84.0,234.0 87.0,234.0" stroke="rgb(43,115,142)" stroke-width="3.5999999999999996" /><polyline fill="none" points="93.0,234.0 273.0,234.0" stroke="rgb(41,120,142)" stroke-width="3.5999999999999996" /><polyline fill="none" points="279.0,234.0 282.0,234.0 282.0,252.0 288.0,252.0 288.0,240.0 294.0,240.0 294.0,246.0 291.0,246.0" stroke="rgb(39,124,142)" stroke-width="3.5999999999999996" /><polyline fill="none" points="285.0,246.0 285.0,246.0" stroke="rgb(38,128,142)" stroke-width="3.5999999999999996" /><polyline fill="none" points="279.0,246.0 27.0,246.0" stroke="rgb(36,133,141)" stroke-width="3.5999999999999996" /><polyline fill="none" points="21.0,246.0 18.0,246.0 18.0,240.0 24.0,240.0 24.0,249.0" stroke="rgb(34,137,141)" stroke-width="3.5999999999999996" /><polyline fill="none" points="24.0,255.0 24.0,255.0" stroke="rgb(33,141,140)" stroke-width="3.5999999999999996" /><polyline fill="none" points="24.0,261.0 24.0,264.0 30.0,264.0 30.0,258.0 18.0,258.0 18.0,252.0 30.0,252.0 30.0,249.0" stroke="rgb(31,146,140)" stroke-width="3.5999999999999996" /><polyline fill="none" points="30.0,243.0 30.0,219.0" stroke="rgb(31,150,139)" stroke-width="3.5999999999999996" /><polyline fill="none" points="30.0,213.0 30.0,195.0" stroke="rgb(30,154,137)" stroke-width="3.5999999999999996" /><polyline fill="none" points="30.0,189.0 30.0,186.0 36.0,186.0 36.0,189.0" stroke="rgb(30,159,136)" stroke-width="3.5999999999999996" /><polyline fill="none" points="36.0,195.0 36.0,198.0 48.0,198.0 48.0,201.0" stroke="rgb(31,163,134)" stroke-width="3.5999999999999996" /><polyline fill="none" points="48.0,207.0 48.0,213.0" stroke="rgb(34,167,132)" stroke-width="3.5999999999999996" /><polyline fill="none" points="48.0,219.0 48.0,234.0 78.0,234.0 78.0,180.0 24.0,180.0 24.0,192.0 42.0,192.0 42.0,195.0" stroke="rgb(38,172,129)" stroke-width="3.5999999999999996" /><polyline fill="none" points="42.0,201.0 42.0,201.0" stroke="rgb(42,176,126)" stroke-width="3.5999999999999996" /><polyline fill="none" points="42.0,207.0 42.0,210.0 36.0,210.0 36.0,204.0 72.0,204.0 72.0,222.0 63.0,222.0" stroke="rgb(48,180,122)" stroke-width="3.5999999999999996" /><polyline fill="none" points="57.0,222.0 54.0,222.0 54.0,228.0 60.0,228.0 60.0,210.0 66.0,210.0 66.0,216.0 63.0,216.0" stroke="rgb(56,185,118)" stroke-width="3.5999999999999996" /><polyline fill="none" points="57.0,216.0 15.0,216.0" stroke="rgb(62,188,115)" stroke-width="3.5999999999999996" /><polyline fill="none" points="9.0,216.0 6.0,216.0 6.0,174.0 9.0,174.0" stroke="rgb(71,192,110)" stroke-width="3.5999999999999996" /><polyline fill="none" points="15.0,174.0 87.0,174.0" stroke="rgb(81,196,104)" stroke-width="3.5999999999999996" /><polyline fill="none" points="93.0,174.0 144.0,174.0 144.0,150.0 126.0,150.0 126.0,144.0 132.0,144.0 132.0,147.0" stroke="rgb(89,199,100)" stroke-width="3.5999999999999996" /><polyline fill="none" points="132.0,153.0 132.0,162.0 138.0,162.0 138.0,156.0 135.0,156.0" stroke="rgb(100,203,93)" stroke-width="3.5999999999999996" /><polyline fill="none" points="129.0,156.0 105.0,156.0" stroke="rgb(112,206,86)" stroke-width="3.5999999999999996" /><polyline fill="none" points="99.0,156.0 96.0,156.0 96.0,150.0 102.0,150.0 102.0,159.0" stroke="rgb(121,209,81)" stroke-width="3.5999999999999996" /><polyline fill="none" points="102.0,165.0 102.0,168.0 96.0,168.0 96.0,162.0 114.0,162.0 114.0,168.0 108.0,168.0 108.0,165.0" stroke="rgb(134,212,73)" stroke-width="3.5999999999999996" /><polyline fill="none" points="108.0,159.0 108.0,159.0" stroke="rgb(146,215,65)" stroke-width="3.5999999999999996" /><polyline fill="none" points="108.0,153.0 108.0,15.0" stroke="rgb(157,217,58)" stroke-width="3.5999999999999996" /><polyline fill="none" points="108.0,9.0 108.0,6.0 12.0,6.0 12.0,270.0 276.0,270.0 276.0,249.0" stroke="rgb(170,219,50)" stroke-width="3.5999999999999996" /><polyline fill="none" points="276.0,243.0 276.0,99.0" stroke="rgb(183,221,41)" stroke-width="3.5999999999999996" /><polyline fill="none" points="276.0,93.0 276.0,90.0 270.0,90.0 270.0,114.0 156.0,114.0 156.0,126.0 159.0,126.0" stroke="rgb(194,223,34)" stroke-width="3.5999999999999996" /><polyline fill="none" points="165.0,126.0 186.0,126.0 186.0,132.0 180.0,132.0 180.0,129.0" stroke="rgb(207,225,28)" stroke-width="3.5999999999999996" /><polyline fill="none" points="180.0,123.0 180.0,117.0" stroke="rgb(220,226,24)" stroke-width="3.5999999999999996" /><polyline fill="none" points="180.0,111.0 180.0,18.0 264.0,18.0 264.0,27.0" stroke="rgb(231,228,25)" stroke-width="3.5999999999999996" /><polyline fill="none" points="264.0,33.0 264.0,93.0" stroke="rgb(243,229,30)" stroke-width="3.5999999999999996" /><polyline fill="none" points="264.0,99.0 264.0,108.0 192.0,108.0 192.0,33.0" stroke="rgb(253,231,36)" stroke-width="3.5999999999999996" /></svg>