<?xml version="1.0" encoding="utf-8" ?>
<svg baseProfile="full" height="198.0" version="1.1" width="204.0" xmlns="http://www.w3.org/2000/svg" xmlns:ev="http://www.w3.org/2001/xml-events" xmlns:xlink="http://www.w3.org/1999/xlink"><defs /><polyline fill="none" points="57.0,162.0 60.0,162.0 60.0,156.0 54.0,156.0 54.0,180.0 78.0,180.0 78.0,147.0" stroke="rgb(68,1,84)" stroke-width="3.5999999999999996" /><polyline fill="none" points="78.0,141.0 78.0,138.0 66.0,138.0 66.0,141.0" stroke="rgb(70,9,92)" stroke-width="3.5999999999999996" /><polyline fill="none" points="66.0,147.0 66.0,165.0" stroke="rgb(71,20,102)" stroke-width="3.5999999999999996" /><polyline fill="none" points="66.0,171.0 66.0,174.0 60.0,174.0 60.0,168.0 72.0,168.0 72.0,150.0 69.0,150.0" stroke="rgb(72,29,111)" stroke-width="3.5999999999999996" /><polyline fill="none" points="63.0,150.0 51.0,150.0" stroke="rgb(71,38,118)" stroke-width="3.5999999999999996" /><polyline fill="none" points="45.0,150.0 42.0,150.0 42.0,144.0 90.0,144.0 90.0,150.0 84.0,150.0 84.0,147.0" stroke="rgb(70,47,124)" stroke-width="3.5999999999999996" /><polyline fill="none" points="84.0,141.0 84.0,123.0" stroke="rgb(68,55,129)" stroke-width="3.5999999999999996" /><polyline fill="none" points="84.0,117.0 84.0,90.0 90.0,90.0 90.0,96.0 87.0,96.0" stroke="rgb(66,64,133)" stroke-width="3.5999999999999996" /><polyline fill="none" points="81.0,96.0 72.0,96.0 72.0,102.0 78.0,102.0 78.0,99.0" stroke="rgb(62,72,136)" stroke-width="3.5999999999999996" /><polyline fill="none" points="78.0,93.0 78.0,72.0 54.0,72.0 54.0,120.0 90.0,120.0 90.0,108.0 87.0,108.0" stroke="rgb(59,80,138)" stroke-width="3.5999999999999996" /><polyline fill="none" points="81.0,108.0 60.0,108.0 60.0,114.0 66.0,114.0 66.0,111.0" stroke="rgb(56,87,140)" stroke-width="3.5999999999999996" /><polyline fill="none" points="66.0,105.0 66.0,87.0" stroke="rgb(52,94,141)" stroke-width="3.5999999999999996" /><polyline fill="none" points="66.0,81.0 66.0,78.0 60.0,78.0 60.0,84.0 75.0,84.0" stroke="rgb(49,101,141)" stroke-width="3.5999999999999996" /><polyline fill="none" points="81.0,84.0 198.0,84.0 198.0,12.0 189.0,12.0" stroke="rgb(46,107,142)" stroke-width="3.5999999999999996" /><polyline fill="none" points="183.0,12.0 15.0,12.0" stroke="rgb(44,114,142)" stroke-width="3.5999999999999996" /><polyline fill="none" points="9.0,12.0 6.0,12.0 6.0,192.0 24.0,192.0 24.0,60.0 30.0,60.0 30.0,66.0 27.0,66.0" stroke="rgb(41,121,142)" stroke-width="3.5999999999999996" /><polyline fill="none" points="21.0,66.0 18.0,66.0 18.0,132.0 21.0,132.0" stroke="rgb(38,127,142)" stroke-width="3.5999999999999996" /><polyline fill="none" points="27.0,132.0 81.0,132.0" stroke="rgb(36,134,141)" stroke-width="3.5999999999999996" /><polyline fill="none" points="87.0,132.0 102.0,132.0 102.0,144.0 96.0,144.0 96.0,135.0" stroke="rgb(33,140,141)" stroke-width="3.5999999999999996" /><polyline fill="none" points="96.0,129.0 96.0,126.0 108.0,126.0 108.0,186.0 27.0,186.0" stroke="rgb(31,147,139)" stroke-width="3.5999999999999996" /><polyline fill="none" points="21.0,186.0 12.0,186.0 12.0,6.0 42.0,6.0 42.0,9.0" stroke="rgb(30,153,138)" stroke-width="3.5999999999999996" /><polyline fill="none" points="42.0,15.0 42.0,63.0" stroke="rgb(30,160,135)" stroke-width="3.5999999999999996" /><polyline fill="none" points="42.0,69.0 42.0,72.0 36.0,72.0 36.0,66.0 114.0,66.0 114.0,81.0" stroke="rgb(33,167,132)" stroke-width="3.5999999999999996" /><polyline fill="none" points="114.0,87.0 114.0,90.0 144.0,90.0 144.0,87.0" stroke="rgb(39,173,128)" stroke-width="3.5999999999999996" /><polyline fill="none" points="144.0,81.0 144.0,63.0" stroke="rgb(47,179,123)" stroke-width="3.5999999999999996" /><polyline fill="none" points="144.0,57.0 144.0,45.0" stroke="rgb(56,185,118)" stroke-width="3.5999999999999996" /><polyline fill="none" points="144.0,39.0 144.0,36.0 138.0,36.0 138.0,42.0 168.0,42.0 168.0,36.0 162.0,36.0 162.0,39.0" stroke="rgb(68,190,112)" stroke-width="3.5999999999999996" /><polyline fill="none" points="162.0,45.0 162.0,48.0 174.0,48.0 174.0,30.0 156.0,30.0 156.0,39.0" stroke="rgb(81,196,104)" stroke-width="3.5999999999999996" /><polyline fill="none" points="156.0,45.0 156.0,54.0 180.0,54.0 180.0,24.0 132.0,24.0 132.0,54.0 141.0,54.0" stroke="rgb(96,201,96)" stroke-width="3.5999999999999996" /><polyline fill="none" points="147.0,54.0 150.0,54.0 150.0,60.0 120.0,60.0 120.0,66.0 126.0,66.0 126.0,63.0" stroke="rgb(112,206,86)" stroke-width="3.5999999999999996" /><polyline fill="none" points="126.0,57.0 126.0,18.0 192.0,18.0 192.0,60.0 189.0,60.0" stroke="rgb(129,211,76)" stroke-width="3.5999999999999996" /><polyline fill="none" points="183.0,60.0 180.0,60.0 180.0,66.0 186.0,66.0 186.0,21.0" stroke="rgb(146,215,65)" stroke-width="3.5999999999999996" /><polyline fill="none" points="186.0,15.0 186.0,6.0 48.0,6.0 48.0,9.0" stroke="rgb(165,218,53)" stroke-width="3.5999999999999996" /><polyline fill="none" points="48.0,15.0 48.0,63.0" stroke="rgb(183,221,41)" stroke-width="3.5999999999999996" /><polyline fill="none" points="48.0,69.0 48.0,129.0" stroke="rgb(202,224,30)" stroke-width="3.5999999999999996" /><polyline fill="none" points="48.0,135.0 48.0,141.0" stroke="rgb(220,226,24)" stroke-width="3.5999999999999996" /><polyline fill="none" points="48.0,147.0 48.0,159.0" stroke="rgb(238,229,27)" stroke-width="3.5999999999999996" /><polyline fill="none" points="48.0,165.0 48.0,168.0 42.0,168.0 42.0,162.0 51.0,162.0" stroke="rgb(253,231,36)" stroke-width="3.5999999999999996" /></svg>