<?xml version="1.0" encoding="utf-8" ?>
<svg baseProfile="full" height="48.0" version="1.1" width="54.0" xmlns="http://www.w3.org/2000/svg" xmlns:ev="http://www.w3.org/2001/xml-events" xmlns:xlink="http://www.w3.org/1999/xlink"><defs /><polyline fill="none" points="15.0,18.0 27.0,18.0" stroke="rgb(68,1,84)" stroke-width="3.5999999999999996" /><polyline fill="none" points="33.0,18.0 33.0,18.0" stroke="rgb(70,49,126)" stroke-width="3.5999999999999996" /><polyline fill="none" points="39.0,18.0 42.0,18.0 42.0,30.0 24.0,30.0 24.0,24.0 27.0,24.0" stroke="rgb(54,91,140)" stroke-width="3.5999999999999996" /><polyline fill="none" points="33.0,24.0 36.0,24.0 36.0,6.0 30.0,6.0 30.0,9.0" stroke="rgb(39,126,142)" stroke-width="3.5999999999999996" /><polyline fill="none" points="30.0,15.0 30.0,27.0" stroke="rgb(31,161,135)" stroke-width="3.5999999999999996" /><polyline fill="none" points="30.0,33.0 30.0,36.0 18.0,36.0 18.0,21.0" stroke="rgb(73,193,109)" stroke-width="3.5999999999999996" /><polyline fill="none" points="18.0,15.0 18.0,12.0 33.0,12.0" stroke="rgb(159,217,56)" stroke-width="3.5999999999999996" /><polyline fill="none" points="39.0,12.0 48.0,12.0 48.0,42.0 12.0,42.0 12.0,12.0 6.0,12.0 6.0,18.0 9.0,18.0" stroke="rgb(253,231,36)" stroke-width="3.5999999999999996" /></svg>