<?xml version="1.0" encoding="utf-8" ?>
<svg baseProfile="full" height="294.0" version="1.1" width="324.0" xmlns="http://www.w3.org/2000/svg" xmlns:ev="http://www.w3.org/2001/xml-events" xmlns:xlink="http://www.w3.org/1999/xlink"><defs /><polyline fill="none" points="219.0,96.0 312.0,96.0 312.0,102.0 306.0,102.0 306.0,99.0" stroke="rgb(68,1,84)" stroke-width="3.5999999999999996" /><polyline fill="none" points="306.0,93.0 306.0,87.0" stroke="rgb(69,5,88)" stroke-width="3.5999999999999996" /><polyline fill="none" points="306.0,81.0 306.0,12.0 312.0,12.0 312.0,18.0 309.0,18.0" stroke="rgb(70,11,94)" stroke-width="3.5999999999999996" /><polyline fill="none" points="303.0,18.0 15.0,18.0" stroke="rgb(71,17,99)" stroke-width="3.5999999999999996" /><polyline fill="none" points="9.0,18.0 6.0,18.0 6.0,12.0 12.0,12.0 12.0,54.0 27.0,54.0" stroke="rgb(71,22,105)" stroke-width="3.5999999999999996" /><polyline fill="none" points="33.0,54.0 42.0,54.0 42.0,60.0 36.0,60.0 36.0,57.0" stroke="rgb(72,28,110)" stroke-width="3.5999999999999996" /><polyline fill="none" points="36.0,51.0 36.0,48.0 48.0,48.0 48.0,90.0 30.0,90.0 30.0,21.0" stroke="rgb(72,33,114)" stroke-width="3.5999999999999996" /><polyline fill="none" points="30.0,15.0 30.0,6.0 318.0,6.0 318.0,84.0 135.0,84.0" stroke="rgb(71,38,118)" stroke-width="3.5999999999999996" /><polyline fill="none" points="129.0,84.0 120.0,84.0 120.0,120.0 252.0,120.0 252.0,147.0" stroke="rgb(71,43,122)" stroke-width="3.5999999999999996" /><polyline fill="none" points="252.0,153.0 252.0,246.0 21.0,246.0" stroke="rgb(70,48,125)" stroke-width="3.5999999999999996" /><polyline fill="none" points="15.0,246.0 12.0,246.0 12.0,288.0 300.0,288.0 300.0,150.0 219.0,150.0" stroke="rgb(69,53,128)" stroke-width="3.5999999999999996" /><polyline fill="none" points="213.0,150.0 171.0,150.0" stroke="rgb(67,58,131)" stroke-width="3.5999999999999996" /><polyline fill="none" points="165.0,150.0 147.0,150.0" stroke="rgb(66,62,133)" stroke-width="3.5999999999999996" /><polyline fill="none" points="141.0,150.0 93.0,150.0" stroke="rgb(64,67,135)" stroke-width="3.5999999999999996" /><polyline fill="none" points="87.0,150.0 6.0,150.0 6.0,174.0 15.0,174.0" stroke="rgb(62,72,136)" stroke-width="3.5999999999999996" /><polyline fill="none" points="21.0,174.0 30.0,174.0 30.0,156.0 12.0,156.0 12.0,168.0 15.0,168.0" stroke="rgb(61,76,137)" stroke-width="3.5999999999999996" /><polyline fill="none" points="21.0,168.0 24.0,168.0 24.0,162.0 18.0,162.0 18.0,282.0 96.0,282.0 96.0,267.0" stroke="rgb(59,81,138)" stroke-width="3.5999999999999996" /><polyline fill="none" points="96.0,261.0 96.0,258.0 246.0,258.0 246.0,264.0 93.0,264.0" stroke="rgb(57,84,139)" stroke-width="3.5999999999999996" /><polyline fill="none" points="87.0,264.0 39.0,264.0" stroke="rgb(55,88,140)" stroke-width="3.5999999999999996" /><polyline fill="none" points="33.0,264.0 30.0,264.0 30.0,270.0 36.0,270.0 36.0,258.0 24.0,258.0 24.0,276.0 90.0,276.0 90.0,249.0" stroke="rgb(53,92,140)" stroke-width="3.5999999999999996" /><polyline fill="none" points="90.0,243.0 90.0,87.0" stroke="rgb(51,96,141)" stroke-width="3.5999999999999996" /><polyline fill="none" points="90.0,81.0 90.0,60.0 99.0,60.0" stroke="rgb(49,100,141)" stroke-width="3.5999999999999996" /><polyline fill="none" points="105.0,60.0 108.0,60.0 108.0,66.0 102.0,66.0 102.0,51.0" stroke="rgb(48,104,141)" stroke-width="3.5999999999999996" /><polyline fill="none" points="102.0,45.0 102.0,36.0 108.0,36.0 108.0,42.0 105.0,42.0" stroke="rgb(46,108,142)" stroke-width="3.5999999999999996" /><polyline fill="none" points="99.0,42.0 33.0,42.0" stroke="rgb(44,112,142)" stroke-width="3.5999999999999996" /><polyline fill="none" points="27.0,42.0 18.0,42.0 18.0,36.0 24.0,36.0 24.0,39.0" stroke="rgb(43,116,142)" stroke-width="3.5999999999999996" /><polyline fill="none" points="24.0,45.0 24.0,51.0" stroke="rgb(41,120,142)" stroke-width="3.5999999999999996" /><polyline fill="none" points="24.0,57.0 24.0,102.0 84.0,102.0 84.0,90.0 81.0,90.0" stroke="rgb(40,123,142)" stroke-width="3.5999999999999996" /><polyline fill="none" points="75.0,90.0 72.0,90.0 72.0,96.0 78.0,96.0 78.0,87.0" stroke="rgb(38,127,142)" stroke-width="3.5999999999999996" /><polyline fill="none" points="78.0,81.0 78.0,60.0 72.0,60.0 72.0,63.0" stroke="rgb(37,131,141)" stroke-width="3.5999999999999996" /><polyline fill="none" points="72.0,69.0 72.0,72.0 60.0,72.0 60.0,78.0 66.0,78.0 66.0,75.0" stroke="rgb(35,135,141)" stroke-width="3.5999999999999996" /><polyline fill="none" points="66.0,69.0 66.0,60.0 60.0,60.0 60.0,66.0 63.0,66.0" stroke="rgb(34,138,141)" stroke-width="3.5999999999999996" /><polyline fill="none" points="69.0,66.0 75.0,66.0" stroke="rgb(33,142,140)" stroke-width="3.5999999999999996" /><polyline fill="none" points="81.0,66.0 87.0,66.0" stroke="rgb(32,145,140)" stroke-width="3.5999999999999996" /><polyline fill="none" points="93.0,66.0 96.0,66.0 96.0,63.0" stroke="rgb(31,149,139)" stroke-width="3.5999999999999996" /><polyline fill="none" points="96.0,57.0 96.0,54.0 54.0,54.0 54.0,84.0 114.0,84.0 114.0,48.0 96.0,48.0 96.0,45.0" stroke="rgb(30,153,138)" stroke-width="3.5999999999999996" /><polyline fill="none" points="96.0,39.0 96.0,30.0 129.0,30.0" stroke="rgb(30,156,137)" stroke-width="3.5999999999999996" /><polyline fill="none" points="135.0,30.0 138.0,30.0 138.0,24.0 132.0,24.0 132.0,105.0" stroke="rgb(30,160,135)" stroke-width="3.5999999999999996" /><polyline fill="none" points="132.0,111.0 132.0,114.0 138.0,114.0 138.0,108.0 126.0,108.0 126.0,102.0 129.0,102.0" stroke="rgb(32,164,133)" stroke-width="3.5999999999999996" /><polyline fill="none" points="135.0,102.0 144.0,102.0 144.0,117.0" stroke="rgb(34,167,132)" stroke-width="3.5999999999999996" /><polyline fill="none" points="144.0,123.0 144.0,234.0 156.0,234.0 156.0,225.0" stroke="rgb(37,171,129)" stroke-width="3.5999999999999996" /><polyline fill="none" points="156.0,219.0 156.0,216.0 150.0,216.0 150.0,222.0 171.0,222.0" stroke="rgb(41,175,127)" stroke-width="3.5999999999999996" /><polyline fill="none" points="177.0,222.0 183.0,222.0" stroke="rgb(46,178,124)" stroke-width="3.5999999999999996" /><polyline fill="none" points="189.0,222.0 198.0,222.0 198.0,204.0 180.0,204.0 180.0,216.0 192.0,216.0 192.0,210.0 186.0,210.0 186.0,213.0" stroke="rgb(51,182,121)" stroke-width="3.5999999999999996" /><polyline fill="none" points="186.0,219.0 186.0,228.0 174.0,228.0 174.0,198.0 204.0,198.0 204.0,234.0 162.0,234.0 162.0,240.0 168.0,240.0 168.0,237.0" stroke="rgb(57,185,118)" stroke-width="3.5999999999999996" /><polyline fill="none" points="168.0,231.0 168.0,225.0" stroke="rgb(64,189,114)" stroke-width="3.5999999999999996" /><polyline fill="none" points="168.0,219.0 168.0,144.0 222.0,144.0 222.0,147.0" stroke="rgb(71,192,110)" stroke-width="3.5999999999999996" /><polyline fill="none" points="222.0,153.0 222.0,156.0 210.0,156.0 210.0,174.0 231.0,174.0" stroke="rgb(79,195,105)" stroke-width="3.5999999999999996" /><polyline fill="none" points="237.0,174.0 243.0,174.0" stroke="rgb(87,198,101)" stroke-width="3.5999999999999996" /><polyline fill="none" points="249.0,174.0 249.0,174.0" stroke="rgb(94,201,97)" stroke-width="3.5999999999999996" /><polyline fill="none" points="255.0,174.0 264.0,174.0 264.0,180.0 258.0,180.0 258.0,177.0" stroke="rgb(103,204,92)" stroke-width="3.5999999999999996" /><polyline fill="none" points="258.0,171.0 258.0,153.0" stroke="rgb(112,206,86)" stroke-width="3.5999999999999996" /><polyline fill="none" points="258.0,147.0 258.0,102.0 300.0,102.0 300.0,120.0 279.0,120.0" stroke="rgb(121,209,81)" stroke-width="3.5999999999999996" /><polyline fill="none" points="273.0,120.0 270.0,120.0 270.0,114.0 276.0,114.0 276.0,138.0 270.0,138.0 270.0,132.0 273.0,132.0" stroke="rgb(131,211,75)" stroke-width="3.5999999999999996" /><polyline fill="none" points="279.0,132.0 288.0,132.0 288.0,126.0 282.0,126.0 282.0,129.0" stroke="rgb(141,214,68)" stroke-width="3.5999999999999996" /><polyline fill="none" points="282.0,135.0 282.0,144.0 264.0,144.0 264.0,108.0 294.0,108.0 294.0,117.0" stroke="rgb(151,216,62)" stroke-width="3.5999999999999996" /><polyline fill="none" points="294.0,123.0 294.0,147.0" stroke="rgb(162,218,55)" stroke-width="3.5999999999999996" /><polyline fill="none" points="294.0,153.0 294.0,252.0 246.0,252.0 246.0,249.0" stroke="rgb(173,220,48)" stroke-width="3.5999999999999996" /><polyline fill="none" points="246.0,243.0 246.0,156.0 228.0,156.0 228.0,168.0 240.0,168.0 240.0,162.0 234.0,162.0 234.0,165.0" stroke="rgb(183,221,41)" stroke-width="3.5999999999999996" /><polyline fill="none" points="234.0,171.0 234.0,192.0 228.0,192.0 228.0,186.0 231.0,186.0" stroke="rgb(194,223,34)" stroke-width="3.5999999999999996" /><polyline fill="none" points="237.0,186.0 240.0,186.0 240.0,198.0 210.0,198.0 210.0,180.0 213.0,180.0" stroke="rgb(205,224,29)" stroke-width="3.5999999999999996" /><polyline fill="none" points="219.0,180.0 222.0,180.0 222.0,186.0 216.0,186.0 216.0,177.0" stroke="rgb(215,226,25)" stroke-width="3.5999999999999996" /><polyline fill="none" points="216.0,171.0 216.0,159.0" stroke="rgb(225,227,24)" stroke-width="3.5999999999999996" /><polyline fill="none" points="216.0,153.0 216.0,147.0" stroke="rgb(236,228,26)" stroke-width="3.5999999999999996" /><polyline fill="none" points="216.0,141.0 216.0,123.0" stroke="rgb(246,230,31)" stroke-width="3.5999999999999996" /><polyline fill="none" points="216.0,117.0 216.0,90.0 144.0,90.0 144.0,96.0 213.0,96.0" stroke="rgb(253,231,36)" stroke-width="3.5999999999999996" /></svg>