<?xml version="1.0" encoding="utf-8" ?>
<svg baseProfile="full" height="168.0" version="1.1" width="258.0" xmlns="http://www.w3.org/2000/svg" xmlns:ev="http://www.w3.org/2001/xml-events" xmlns:xlink="http://www.w3.org/1999/xlink"><defs /><polyline fill="none" points="21.0,18.0 24.0,18.0 24.0,6.0 6.0,6.0 6.0,156.0 15.0,156.0" stroke="rgb(68,1,84)" stroke-width="3.5999999999999996" /><polyline fill="none" points="21.0,156.0 39.0,156.0" stroke="rgb(70,9,92)" stroke-width="3.5999999999999996" /><polyline fill="none" points="45.0,156.0 150.0,156.0 150.0,153.0" stroke="rgb(71,20,102)" stroke-width="3.5999999999999996" /><polyline fill="none" points="150.0,147.0 150.0,24.0 24.0,24.0 24.0,150.0 228.0,150.0 228.0,48.0 216.0,48.0 216.0,51.0" stroke="rgb(72,29,111)" stroke-width="3.5999999999999996" /><polyline fill="none" points="216.0,57.0 216.0,90.0 222.0,90.0 222.0,54.0 183.0,54.0" stroke="rgb(71,38,118)" stroke-width="3.5999999999999996" /><polyline fill="none" points="177.0,54.0 162.0,54.0 162.0,48.0 168.0,48.0 168.0,51.0" stroke="rgb(70,47,124)" stroke-width="3.5999999999999996" /><polyline fill="none" points="168.0,57.0 168.0,60.0 156.0,60.0 156.0,30.0 174.0,30.0 174.0,33.0" stroke="rgb(68,55,129)" stroke-width="3.5999999999999996" /><polyline fill="none" points="174.0,39.0 174.0,42.0 168.0,42.0 168.0,36.0 177.0,36.0" stroke="rgb(66,64,133)" stroke-width="3.5999999999999996" /><polyline fill="none" points="183.0,36.0 237.0,36.0" stroke="rgb(62,72,136)" stroke-width="3.5999999999999996" /><polyline fill="none" points="243.0,36.0 246.0,36.0 246.0,42.0 240.0,42.0 240.0,30.0 234.0,30.0 234.0,33.0" stroke="rgb(59,80,138)" stroke-width="3.5999999999999996" /><polyline fill="none" points="234.0,39.0 234.0,48.0 252.0,48.0 252.0,24.0 180.0,24.0 180.0,75.0" stroke="rgb(56,87,140)" stroke-width="3.5999999999999996" /><polyline fill="none" points="180.0,81.0 180.0,96.0 192.0,96.0 192.0,93.0" stroke="rgb(52,94,141)" stroke-width="3.5999999999999996" /><polyline fill="none" points="192.0,87.0 192.0,84.0 186.0,84.0 186.0,90.0 204.0,90.0 204.0,96.0 198.0,96.0 198.0,93.0" stroke="rgb(49,101,141)" stroke-width="3.5999999999999996" /><polyline fill="none" points="198.0,87.0 198.0,75.0" stroke="rgb(46,107,142)" stroke-width="3.5999999999999996" /><polyline fill="none" points="198.0,69.0 198.0,66.0 204.0,66.0 204.0,72.0 192.0,72.0 192.0,60.0 210.0,60.0 210.0,78.0 201.0,78.0" stroke="rgb(44,114,142)" stroke-width="3.5999999999999996" /><polyline fill="none" points="195.0,78.0 153.0,78.0" stroke="rgb(41,121,142)" stroke-width="3.5999999999999996" /><polyline fill="none" points="147.0,78.0 114.0,78.0 114.0,135.0" stroke="rgb(38,127,142)" stroke-width="3.5999999999999996" /><polyline fill="none" points="114.0,141.0 114.0,144.0 126.0,144.0 126.0,84.0 132.0,84.0 132.0,90.0 129.0,90.0" stroke="rgb(36,134,141)" stroke-width="3.5999999999999996" /><polyline fill="none" points="123.0,90.0 117.0,90.0" stroke="rgb(33,140,141)" stroke-width="3.5999999999999996" /><polyline fill="none" points="111.0,90.0 105.0,90.0" stroke="rgb(31,147,139)" stroke-width="3.5999999999999996" /><polyline fill="none" points="99.0,90.0 84.0,90.0 84.0,114.0 78.0,114.0 78.0,108.0 81.0,108.0" stroke="rgb(30,153,138)" stroke-width="3.5999999999999996" /><polyline fill="none" points="87.0,108.0 96.0,108.0 96.0,102.0 87.0,102.0" stroke="rgb(30,160,135)" stroke-width="3.5999999999999996" /><polyline fill="none" points="81.0,102.0 72.0,102.0 72.0,120.0 90.0,120.0 90.0,111.0" stroke="rgb(33,167,132)" stroke-width="3.5999999999999996" /><polyline fill="none" points="90.0,105.0 90.0,105.0" stroke="rgb(39,173,128)" stroke-width="3.5999999999999996" /><polyline fill="none" points="90.0,99.0 90.0,96.0 87.0,96.0" stroke="rgb(47,179,123)" stroke-width="3.5999999999999996" /><polyline fill="none" points="81.0,96.0 60.0,96.0 60.0,132.0 54.0,132.0 54.0,126.0 57.0,126.0" stroke="rgb(56,185,118)" stroke-width="3.5999999999999996" /><polyline fill="none" points="63.0,126.0 63.0,126.0" stroke="rgb(68,190,112)" stroke-width="3.5999999999999996" /><polyline fill="none" points="69.0,126.0 99.0,126.0" stroke="rgb(81,196,104)" stroke-width="3.5999999999999996" /><polyline fill="none" points="105.0,126.0 108.0,126.0 108.0,132.0 102.0,132.0 102.0,30.0 144.0,30.0 144.0,48.0 126.0,48.0 126.0,54.0 132.0,54.0 132.0,51.0" stroke="rgb(96,201,96)" stroke-width="3.5999999999999996" /><polyline fill="none" points="132.0,45.0 132.0,45.0" stroke="rgb(112,206,86)" stroke-width="3.5999999999999996" /><polyline fill="none" points="132.0,39.0 132.0,36.0 138.0,36.0 138.0,42.0 123.0,42.0" stroke="rgb(129,211,76)" stroke-width="3.5999999999999996" /><polyline fill="none" points="117.0,42.0 114.0,42.0 114.0,36.0 120.0,36.0 120.0,75.0" stroke="rgb(146,215,65)" stroke-width="3.5999999999999996" /><polyline fill="none" points="120.0,81.0 120.0,87.0" stroke="rgb(165,218,53)" stroke-width="3.5999999999999996" /><polyline fill="none" points="120.0,93.0 120.0,138.0 66.0,138.0 66.0,99.0" stroke="rgb(183,221,41)" stroke-width="3.5999999999999996" /><polyline fill="none" points="66.0,93.0 66.0,30.0 30.0,30.0 30.0,96.0 39.0,96.0" stroke="rgb(202,224,30)" stroke-width="3.5999999999999996" /><polyline fill="none" points="45.0,96.0 54.0,96.0 54.0,36.0 36.0,36.0 36.0,48.0 48.0,48.0 48.0,42.0 42.0,42.0 42.0,45.0" stroke="rgb(220,226,24)" stroke-width="3.5999999999999996" /><polyline fill="none" points="42.0,51.0 42.0,147.0" stroke="rgb(238,229,27)" stroke-width="3.5999999999999996" /><polyline fill="none" points="42.0,153.0 42.0,162.0 18.0,162.0 18.0,12.0 12.0,12.0 12.0,18.0 15.0,18.0" stroke="rgb(253,231,36)" stroke-width="3.5999999999999996" /></svg>