<?xml version="1.0" encoding="utf-8" ?>
<svg baseProfile="full" height="270.0" version="1.1" width="318.0" xmlns="http://www.w3.org/2000/svg" xmlns:ev="http://www.w3.org/2001/xml-events" xmlns:xlink="http://www.w3.org/1999/xlink"><defs /><polyline fill="none" points="156.0,225.0 156.0,225.0" stroke="rgb(68,1,84)" stroke-width="3.5999999999999996" /><polyline fill="none" points="156.0,219.0 156.0,216.0 150.0,216.0 150.0,222.0 162.0,222.0 162.0,210.0 144.0,210.0 144.0,225.0" stroke="rgb(69,6,90)" stroke-width="3.5999999999999996" /><polyline fill="none" points="144.0,231.0 144.0,264.0 312.0,264.0 312.0,252.0 300.0,252.0 300.0,258.0 306.0,258.0 306.0,255.0" stroke="rgb(70,12,95)" stroke-width="3.5999999999999996" /><polyline fill="none" points="306.0,249.0 306.0,30.0 312.0,30.0 312.0,36.0 309.0,36.0" stroke="rgb(71,18,101)" stroke-width="3.5999999999999996" /><polyline fill="none" points="303.0,36.0 297.0,36.0" stroke="rgb(71,24,106)" stroke-width="3.5999999999999996" /><polyline fill="none" points="291.0,36.0 285.0,36.0" stroke="rgb(72,29,111)" stroke-width="3.5999999999999996" /><polyline fill="none" points="279.0,36.0 276.0,36.0 276.0,30.0 282.0,30.0 282.0,39.0" stroke="rgb(72,34,115)" stroke-width="3.5999999999999996" /><polyline fill="none" points="282.0,45.0 282.0,60.0 12.0,60.0 12.0,168.0 15.0,168.0" stroke="rgb(71,39,119)" stroke-width="3.5999999999999996" /><polyline fill="none" points="21.0,168.0 72.0,168.0 72.0,162.0 66.0,162.0 66.0,165.0" stroke="rgb(71,44,123)" stroke-width="3.5999999999999996" /><polyline fill="none" points="66.0,171.0 66.0,198.0 81.0,198.0" stroke="rgb(70,49,126)" stroke-width="3.5999999999999996" /><polyline fill="none" points="87.0,198.0 90.0,198.0 90.0,192.0 69.0,192.0" stroke="rgb(69,54,129)" stroke-width="3.5999999999999996" /><polyline fill="none" points="63.0,192.0 51.0,192.0" stroke="rgb(67,59,131)" stroke-width="3.5999999999999996" /><polyline fill="none" points="45.0,192.0 39.0,192.0" stroke="rgb(66,64,133)" stroke-width="3.5999999999999996" /><polyline fill="none" points="33.0,192.0 24.0,192.0 24.0,174.0 42.0,174.0 42.0,186.0 39.0,186.0" stroke="rgb(64,68,135)" stroke-width="3.5999999999999996" /><polyline fill="none" points="33.0,186.0 30.0,186.0 30.0,180.0 36.0,180.0 36.0,198.0 18.0,198.0 18.0,120.0 144.0,120.0 144.0,204.0 117.0,204.0" stroke="rgb(62,73,137)" stroke-width="3.5999999999999996" /><polyline fill="none" points="111.0,204.0 63.0,204.0" stroke="rgb(60,77,138)" stroke-width="3.5999999999999996" /><polyline fill="none" points="57.0,204.0 54.0,204.0 54.0,198.0 60.0,198.0 60.0,210.0 48.0,210.0 48.0,171.0" stroke="rgb(58,83,139)" stroke-width="3.5999999999999996" /><polyline fill="none" points="48.0,165.0 48.0,132.0 72.0,132.0 72.0,144.0 60.0,144.0 60.0,138.0 66.0,138.0 66.0,141.0" stroke="rgb(56,87,140)" stroke-width="3.5999999999999996" /><polyline fill="none" points="66.0,147.0 66.0,156.0 60.0,156.0 60.0,150.0 63.0,150.0" stroke="rgb(54,91,140)" stroke-width="3.5999999999999996" /><polyline fill="none" points="69.0,150.0 75.0,150.0" stroke="rgb(52,95,141)" stroke-width="3.5999999999999996" /><polyline fill="none" points="81.0,150.0 81.0,150.0" stroke="rgb(50,99,141)" stroke-width="3.5999999999999996" /><polyline fill="none" points="87.0,150.0 90.0,150.0 90.0,162.0 87.0,162.0" stroke="rgb(48,103,141)" stroke-width="3.5999999999999996" /><polyline fill="none" points="81.0,162.0 78.0,162.0 78.0,144.0 84.0,144.0 84.0,189.0" stroke="rgb(46,107,142)" stroke-width="3.5999999999999996" /><polyline fill="none" points="84.0,195.0 84.0,201.0" stroke="rgb(45,111,142)" stroke-width="3.5999999999999996" /><polyline fill="none" points="84.0,207.0 84.0,228.0 96.0,228.0 96.0,207.0" stroke="rgb(43,115,142)" stroke-width="3.5999999999999996" /><polyline fill="none" points="96.0,201.0 96.0,123.0" stroke="rgb(42,119,142)" stroke-width="3.5999999999999996" /><polyline fill="none" points="96.0,117.0 96.0,81.0" stroke="rgb(40,122,142)" stroke-width="3.5999999999999996" /><polyline fill="none" points="96.0,75.0 96.0,72.0 90.0,72.0 90.0,78.0 225.0,78.0" stroke="rgb(39,126,142)" stroke-width="3.5999999999999996" /><polyline fill="none" points="231.0,78.0 234.0,78.0 234.0,72.0 228.0,72.0 228.0,102.0 240.0,102.0 240.0,66.0 78.0,66.0 78.0,117.0" stroke="rgb(37,130,142)" stroke-width="3.5999999999999996" /><polyline fill="none" points="78.0,123.0 78.0,132.0 84.0,132.0 84.0,126.0 81.0,126.0" stroke="rgb(36,134,141)" stroke-width="3.5999999999999996" /><polyline fill="none" points="75.0,126.0 21.0,126.0" stroke="rgb(34,137,141)" stroke-width="3.5999999999999996" /><polyline fill="none" points="15.0,126.0 15.0,126.0" stroke="rgb(33,141,140)" stroke-width="3.5999999999999996" /><polyline fill="none" points="9.0,126.0 6.0,126.0 6.0,252.0 141.0,252.0" stroke="rgb(31,146,140)" stroke-width="3.5999999999999996" /><polyline fill="none" points="147.0,252.0 192.0,252.0 192.0,108.0 174.0,108.0 174.0,237.0" stroke="rgb(31,150,139)" stroke-width="3.5999999999999996" /><polyline fill="none" points="174.0,243.0 174.0,246.0 168.0,246.0 168.0,240.0 177.0,240.0" stroke="rgb(30,153,138)" stroke-width="3.5999999999999996" /><polyline fill="none" points="183.0,240.0 189.0,240.0" stroke="rgb(30,157,136)" stroke-width="3.5999999999999996" /><polyline fill="none" points="195.0,240.0 204.0,240.0 204.0,228.0 198.0,228.0 198.0,234.0 201.0,234.0" stroke="rgb(31,161,135)" stroke-width="3.5999999999999996" /><polyline fill="none" points="207.0,234.0 207.0,234.0" stroke="rgb(32,165,133)" stroke-width="3.5999999999999996" /><polyline fill="none" points="213.0,234.0 216.0,234.0 216.0,240.0 210.0,240.0 210.0,84.0 108.0,84.0 108.0,114.0 171.0,114.0" stroke="rgb(35,168,131)" stroke-width="3.5999999999999996" /><polyline fill="none" points="177.0,114.0 180.0,114.0 180.0,246.0 186.0,246.0 186.0,243.0" stroke="rgb(38,172,129)" stroke-width="3.5999999999999996" /><polyline fill="none" points="186.0,237.0 186.0,222.0 189.0,222.0" stroke="rgb(42,176,126)" stroke-width="3.5999999999999996" /><polyline fill="none" points="195.0,222.0 207.0,222.0" stroke="rgb(47,179,123)" stroke-width="3.5999999999999996" /><polyline fill="none" points="213.0,222.0 243.0,222.0" stroke="rgb(53,183,120)" stroke-width="3.5999999999999996" /><polyline fill="none" points="249.0,222.0 300.0,222.0 300.0,228.0 294.0,228.0 294.0,225.0" stroke="rgb(59,186,117)" stroke-width="3.5999999999999996" /><polyline fill="none" points="294.0,219.0 294.0,27.0" stroke="rgb(66,190,113)" stroke-width="3.5999999999999996" /><polyline fill="none" points="294.0,21.0 294.0,12.0 300.0,12.0 300.0,18.0 297.0,18.0" stroke="rgb(73,193,109)" stroke-width="3.5999999999999996" /><polyline fill="none" points="291.0,18.0 288.0,18.0 288.0,6.0 306.0,6.0 306.0,24.0 273.0,24.0" stroke="rgb(81,196,104)" stroke-width="3.5999999999999996" /><polyline fill="none" points="267.0,24.0 252.0,24.0 252.0,18.0 258.0,18.0 258.0,21.0" stroke="rgb(89,199,100)" stroke-width="3.5999999999999996" /><polyline fill="none" points="258.0,27.0 258.0,48.0 270.0,48.0 270.0,18.0 264.0,18.0 264.0,21.0" stroke="rgb(100,203,93)" stroke-width="3.5999999999999996" /><polyline fill="none" points="264.0,27.0 264.0,42.0 267.0,42.0" stroke="rgb(109,206,88)" stroke-width="3.5999999999999996" /><polyline fill="none" points="273.0,42.0 288.0,42.0 288.0,54.0 285.0,54.0" stroke="rgb(119,208,82)" stroke-width="3.5999999999999996" /><polyline fill="none" points="279.0,54.0 249.0,54.0" stroke="rgb(129,211,76)" stroke-width="3.5999999999999996" /><polyline fill="none" points="243.0,54.0 240.0,54.0 240.0,48.0 246.0,48.0 246.0,57.0" stroke="rgb(139,213,70)" stroke-width="3.5999999999999996" /><polyline fill="none" points="246.0,63.0 246.0,234.0 222.0,234.0 222.0,225.0" stroke="rgb(149,215,63)" stroke-width="3.5999999999999996" /><polyline fill="none" points="222.0,219.0 222.0,102.0 213.0,102.0" stroke="rgb(159,217,56)" stroke-width="3.5999999999999996" /><polyline fill="none" points="207.0,102.0 123.0,102.0" stroke="rgb(170,219,50)" stroke-width="3.5999999999999996" /><polyline fill="none" points="117.0,102.0 114.0,102.0 114.0,96.0 117.0,96.0" stroke="rgb(181,221,43)" stroke-width="3.5999999999999996" /><polyline fill="none" points="123.0,96.0 126.0,96.0 126.0,90.0 120.0,90.0 120.0,111.0" stroke="rgb(191,223,36)" stroke-width="3.5999999999999996" /><polyline fill="none" points="120.0,117.0 120.0,117.0" stroke="rgb(202,224,30)" stroke-width="3.5999999999999996" /><polyline fill="none" points="120.0,123.0 120.0,183.0" stroke="rgb(212,225,26)" stroke-width="3.5999999999999996" /><polyline fill="none" points="120.0,189.0 120.0,198.0 138.0,198.0 138.0,180.0 126.0,180.0 126.0,183.0" stroke="rgb(223,227,24)" stroke-width="3.5999999999999996" /><polyline fill="none" points="126.0,189.0 126.0,192.0 132.0,192.0 132.0,186.0 114.0,186.0 114.0,225.0" stroke="rgb(233,228,25)" stroke-width="3.5999999999999996" /><polyline fill="none" points="114.0,231.0 114.0,240.0 108.0,240.0 108.0,234.0 111.0,234.0" stroke="rgb(243,229,30)" stroke-width="3.5999999999999996" /><polyline fill="none" points="117.0,234.0 120.0,234.0 120.0,246.0 102.0,246.0 102.0,228.0 162.0,228.0 162.0,240.0 156.0,240.0 156.0,231.0" stroke="rgb(253,231,36)" stroke-width="3.5999999999999996" /></svg>