<?xml version="1.0" encoding="utf-8" ?>
<svg baseProfile="full" height="234.0" version="1.1" width="246.0" xmlns="http://www.w3.org/2000/svg" xmlns:ev="http://www.w3.org/2001/xml-events" xmlns:xlink="http://www.w3.org/1999/xlink"><defs /><polyline fill="none" points="54.0,51.0 54.0,48.0 48.0,48.0 48.0,54.0 231.0,54.0" stroke="rgb(68,1,84)" stroke-width="3.5999999999999996" /><polyline fill="none" points="237.0,54.0 240.0,54.0 240.0,60.0 234.0,60.0 234.0,24.0 240.0,24.0 240.0,30.0 237.0,30.0" stroke="rgb(69,8,91)" stroke-width="3.5999999999999996" /><polyline fill="none" points="231.0,30.0 48.0,30.0 48.0,24.0 54.0,24.0 54.0,27.0" stroke="rgb(71,17,99)" stroke-width="3.5999999999999996" /><polyline fill="none" points="54.0,33.0 54.0,42.0 60.0,42.0 60.0,36.0 57.0,36.0" stroke="rgb(72,25,107)" stroke-width="3.5999999999999996" /><polyline fill="none" points="51.0,36.0 45.0,36.0" stroke="rgb(72,33,114)" stroke-width="3.5999999999999996" /><polyline fill="none" points="39.0,36.0 30.0,36.0 30.0,6.0 48.0,6.0 48.0,18.0 36.0,18.0 36.0,12.0 42.0,12.0 42.0,15.0" stroke="rgb(71,40,120)" stroke-width="3.5999999999999996" /><polyline fill="none" points="42.0,21.0 42.0,180.0 51.0,180.0" stroke="rgb(70,48,125)" stroke-width="3.5999999999999996" /><polyline fill="none" points="57.0,180.0 75.0,180.0" stroke="rgb(68,55,129)" stroke-width="3.5999999999999996" /><polyline fill="none" points="81.0,180.0 144.0,180.0 144.0,174.0 114.0,174.0 114.0,177.0" stroke="rgb(66,62,133)" stroke-width="3.5999999999999996" /><polyline fill="none" points="114.0,183.0 114.0,228.0 108.0,228.0 108.0,222.0 111.0,222.0" stroke="rgb(63,69,135)" stroke-width="3.5999999999999996" /><polyline fill="none" points="117.0,222.0 228.0,222.0 228.0,66.0 159.0,66.0" stroke="rgb(61,76,137)" stroke-width="3.5999999999999996" /><polyline fill="none" points="153.0,66.0 144.0,66.0 144.0,168.0 156.0,168.0 156.0,123.0" stroke="rgb(58,83,139)" stroke-width="3.5999999999999996" /><polyline fill="none" points="156.0,117.0 156.0,60.0 78.0,60.0 78.0,189.0" stroke="rgb(55,89,140)" stroke-width="3.5999999999999996" /><polyline fill="none" points="78.0,195.0 78.0,198.0 108.0,198.0 108.0,183.0" stroke="rgb(52,95,141)" stroke-width="3.5999999999999996" /><polyline fill="none" points="108.0,177.0 108.0,126.0 126.0,126.0 126.0,135.0" stroke="rgb(49,101,141)" stroke-width="3.5999999999999996" /><polyline fill="none" points="126.0,141.0 126.0,150.0 132.0,150.0 132.0,144.0 129.0,144.0" stroke="rgb(49,101,141)" stroke-width="3.5999999999999996" /><polyline fill="none" points="123.0,144.0 120.0,144.0 120.0,138.0 138.0,138.0 138.0,156.0 114.0,156.0 114.0,132.0 123.0,132.0" stroke="rgb(44,113,142)" stroke-width="3.5999999999999996" /><polyline fill="none" points="129.0,132.0 141.0,132.0" stroke="rgb(42,119,142)" stroke-width="3.5999999999999996" /><polyline fill="none" points="147.0,132.0 153.0,132.0" stroke="rgb(39,124,142)" stroke-width="3.5999999999999996" /><polyline fill="none" points="159.0,132.0 165.0,132.0" stroke="rgb(37,130,142)" stroke-width="3.5999999999999996" /><polyline fill="none" points="171.0,132.0 174.0,132.0 174.0,138.0 168.0,138.0 168.0,90.0 195.0,90.0" stroke="rgb(35,136,141)" stroke-width="3.5999999999999996" /><polyline fill="none" points="201.0,90.0 201.0,90.0" stroke="rgb(33,141,140)" stroke-width="3.5999999999999996" /><polyline fill="none" points="207.0,90.0 210.0,90.0 210.0,84.0 207.0,84.0" stroke="rgb(31,146,140)" stroke-width="3.5999999999999996" /><polyline fill="none" points="201.0,84.0 198.0,84.0 198.0,93.0" stroke="rgb(30,152,138)" stroke-width="3.5999999999999996" /><polyline fill="none" points="198.0,99.0 198.0,147.0" stroke="rgb(30,157,136)" stroke-width="3.5999999999999996" /><polyline fill="none" points="198.0,153.0 198.0,156.0 174.0,156.0 174.0,150.0 216.0,150.0 216.0,78.0 204.0,78.0 204.0,96.0 171.0,96.0" stroke="rgb(31,163,134)" stroke-width="3.5999999999999996" /><polyline fill="none" points="165.0,96.0 162.0,96.0 162.0,108.0 165.0,108.0" stroke="rgb(35,168,131)" stroke-width="3.5999999999999996" /><polyline fill="none" points="171.0,108.0 192.0,108.0 192.0,102.0 186.0,102.0 186.0,105.0" stroke="rgb(40,174,127)" stroke-width="3.5999999999999996" /><polyline fill="none" points="186.0,111.0 186.0,126.0 174.0,126.0 174.0,123.0" stroke="rgb(47,179,123)" stroke-width="3.5999999999999996" /><polyline fill="none" points="174.0,117.0 174.0,114.0 180.0,114.0 180.0,120.0 171.0,120.0" stroke="rgb(56,185,118)" stroke-width="3.5999999999999996" /><polyline fill="none" points="165.0,120.0 150.0,120.0 150.0,72.0 153.0,72.0" stroke="rgb(56,185,118)" stroke-width="3.5999999999999996" /><polyline fill="none" points="159.0,72.0 222.0,72.0 222.0,162.0 159.0,162.0" stroke="rgb(77,194,107)" stroke-width="3.5999999999999996" /><polyline fill="none" points="153.0,162.0 147.0,162.0" stroke="rgb(89,199,100)" stroke-width="3.5999999999999996" /><polyline fill="none" points="141.0,162.0 111.0,162.0" stroke="rgb(103,204,92)" stroke-width="3.5999999999999996" /><polyline fill="none" points="105.0,162.0 96.0,162.0 96.0,165.0" stroke="rgb(116,208,84)" stroke-width="3.5999999999999996" /><polyline fill="none" points="96.0,171.0 96.0,174.0 102.0,174.0 102.0,168.0 93.0,168.0" stroke="rgb(131,211,75)" stroke-width="3.5999999999999996" /><polyline fill="none" points="87.0,168.0 84.0,168.0 84.0,162.0 90.0,162.0 90.0,177.0" stroke="rgb(146,215,65)" stroke-width="3.5999999999999996" /><polyline fill="none" points="90.0,183.0 90.0,192.0 69.0,192.0" stroke="rgb(162,218,55)" stroke-width="3.5999999999999996" /><polyline fill="none" points="63.0,192.0 60.0,192.0 60.0,186.0 66.0,186.0 66.0,204.0 72.0,204.0 72.0,198.0 69.0,198.0" stroke="rgb(178,221,44)" stroke-width="3.5999999999999996" /><polyline fill="none" points="63.0,198.0 57.0,198.0" stroke="rgb(194,223,34)" stroke-width="3.5999999999999996" /><polyline fill="none" points="51.0,198.0 27.0,198.0" stroke="rgb(210,225,27)" stroke-width="3.5999999999999996" /><polyline fill="none" points="21.0,198.0 21.0,198.0" stroke="rgb(225,227,24)" stroke-width="3.5999999999999996" /><polyline fill="none" points="15.0,198.0 12.0,198.0 12.0,192.0 18.0,192.0 18.0,204.0 6.0,204.0 6.0,186.0 24.0,186.0 24.0,216.0 60.0,216.0 60.0,204.0 57.0,204.0" stroke="rgb(241,229,28)" stroke-width="3.5999999999999996" /><polyline fill="none" points="51.0,204.0 48.0,204.0 48.0,210.0 54.0,210.0 54.0,57.0" stroke="rgb(253,231,36)" stroke-width="3.5999999999999996" /></svg>