<?xml version="1.0" encoding="utf-8" ?>
<svg baseProfile="full" height="102.0" version="1.1" width="102.0" xmlns="http://www.w3.org/2000/svg" xmlns:ev="http://www.w3.org/2001/xml-events" xmlns:xlink="http://www.w3.org/1999/xlink"><defs /><polyline fill="none" points="30.0,39.0 30.0,39.0" stroke="rgb(68,1,84)" stroke-width="3.5999999999999996" /><polyline fill="none" points="30.0,33.0 30.0,33.0" stroke="rgb(71,18,101)" stroke-width="3.5999999999999996" /><polyline fill="none" points="30.0,27.0 30.0,27.0" stroke="rgb(72,35,116)" stroke-width="3.5999999999999996" /><polyline fill="none" points="30.0,21.0 30.0,6.0 42.0,6.0 42.0,36.0 24.0,36.0 24.0,18.0 18.0,18.0 18.0,24.0 21.0,24.0" stroke="rgb(69,52,127)" stroke-width="3.5999999999999996" /><polyline fill="none" points="27.0,24.0 36.0,24.0 36.0,12.0 33.0,12.0" stroke="rgb(64,67,135)" stroke-width="3.5999999999999996" /><polyline fill="none" points="27.0,12.0 12.0,12.0 12.0,36.0 6.0,36.0 6.0,30.0 9.0,30.0" stroke="rgb(58,82,139)" stroke-width="3.5999999999999996" /><polyline fill="none" points="15.0,30.0 21.0,30.0" stroke="rgb(52,94,141)" stroke-width="3.5999999999999996" /><polyline fill="none" points="27.0,30.0 39.0,30.0" stroke="rgb(46,107,142)" stroke-width="3.5999999999999996" /><polyline fill="none" points="45.0,30.0 51.0,30.0" stroke="rgb(41,120,142)" stroke-width="3.5999999999999996" /><polyline fill="none" points="57.0,30.0 66.0,30.0 66.0,12.0 48.0,12.0 48.0,24.0 51.0,24.0" stroke="rgb(36,132,141)" stroke-width="3.5999999999999996" /><polyline fill="none" points="57.0,24.0 60.0,24.0 60.0,18.0 54.0,18.0 54.0,39.0" stroke="rgb(32,144,140)" stroke-width="3.5999999999999996" /><polyline fill="none" points="54.0,45.0 54.0,90.0 48.0,90.0 48.0,84.0 51.0,84.0" stroke="rgb(30,155,137)" stroke-width="3.5999999999999996" /><polyline fill="none" points="57.0,84.0 75.0,84.0" stroke="rgb(34,167,132)" stroke-width="3.5999999999999996" /><polyline fill="none" points="81.0,84.0 87.0,84.0" stroke="rgb(47,179,123)" stroke-width="3.5999999999999996" /><polyline fill="none" points="93.0,84.0 96.0,84.0 96.0,66.0 60.0,66.0 60.0,48.0 72.0,48.0 72.0,51.0" stroke="rgb(68,190,112)" stroke-width="3.5999999999999996" /><polyline fill="none" points="72.0,57.0 72.0,60.0 66.0,60.0 66.0,54.0 75.0,54.0" stroke="rgb(94,201,97)" stroke-width="3.5999999999999996" /><polyline fill="none" points="81.0,54.0 90.0,54.0 90.0,63.0" stroke="rgb(121,209,81)" stroke-width="3.5999999999999996" /><polyline fill="none" points="90.0,69.0 90.0,90.0 84.0,90.0 84.0,87.0" stroke="rgb(154,216,60)" stroke-width="3.5999999999999996" /><polyline fill="none" points="84.0,81.0 84.0,78.0 78.0,78.0 78.0,96.0 42.0,96.0 42.0,72.0 51.0,72.0" stroke="rgb(189,222,38)" stroke-width="3.5999999999999996" /><polyline fill="none" points="57.0,72.0 78.0,72.0 78.0,69.0" stroke="rgb(223,227,24)" stroke-width="3.5999999999999996" /><polyline fill="none" points="78.0,63.0 78.0,42.0 24.0,42.0 24.0,48.0 30.0,48.0 30.0,45.0" stroke="rgb(253,231,36)" stroke-width="3.5999999999999996" /></svg>