<?xml version="1.0" encoding="utf-8" ?>
<svg baseProfile="full" height="288.0" version="1.1" width="348.0" xmlns="http://www.w3.org/2000/svg" xmlns:ev="http://www.w3.org/2001/xml-events" xmlns:xlink="http://www.w3.org/1999/xlink"><defs /><polyline fill="none" points="246.0,189.0 246.0,156.0 258.0,156.0 258.0,168.0 252.0,168.0 252.0,162.0 255.0,162.0" stroke="rgb(68,1,84)" stroke-width="3.5999999999999996" /><polyline fill="none" points="261.0,162.0 270.0,162.0 270.0,174.0 249.0,174.0" stroke="rgb(69,5,88)" stroke-width="3.5999999999999996" /><polyline fill="none" points="243.0,174.0 234.0,174.0 234.0,204.0 255.0,204.0" stroke="rgb(70,11,94)" stroke-width="3.5999999999999996" /><polyline fill="none" points="261.0,204.0 264.0,204.0 264.0,210.0 258.0,210.0 258.0,189.0" stroke="rgb(71,17,99)" stroke-width="3.5999999999999996" /><polyline fill="none" points="258.0,183.0 258.0,180.0 252.0,180.0 252.0,186.0 264.0,186.0 264.0,177.0" stroke="rgb(71,21,103)" stroke-width="3.5999999999999996" /><polyline fill="none" points="264.0,171.0 264.0,165.0" stroke="rgb(72,26,108)" stroke-width="3.5999999999999996" /><polyline fill="none" points="264.0,159.0 264.0,153.0" stroke="rgb(72,32,113)" stroke-width="3.5999999999999996" /><polyline fill="none" points="264.0,147.0 264.0,141.0" stroke="rgb(72,35,116)" stroke-width="3.5999999999999996" /><polyline fill="none" points="264.0,135.0 264.0,84.0 246.0,84.0 246.0,90.0 261.0,90.0" stroke="rgb(71,40,120)" stroke-width="3.5999999999999996" /><polyline fill="none" points="267.0,90.0 270.0,90.0 270.0,138.0 243.0,138.0" stroke="rgb(70,45,124)" stroke-width="3.5999999999999996" /><polyline fill="none" points="237.0,138.0 234.0,138.0 234.0,144.0 240.0,144.0 240.0,96.0 246.0,96.0 246.0,102.0 243.0,102.0" stroke="rgb(69,50,127)" stroke-width="3.5999999999999996" /><polyline fill="none" points="237.0,102.0 210.0,102.0 210.0,69.0" stroke="rgb(69,54,129)" stroke-width="3.5999999999999996" /><polyline fill="none" points="210.0,63.0 210.0,60.0 246.0,60.0 246.0,66.0 204.0,66.0 204.0,54.0 276.0,54.0 276.0,150.0 231.0,150.0" stroke="rgb(67,59,131)" stroke-width="3.5999999999999996" /><polyline fill="none" points="225.0,150.0 222.0,150.0 222.0,117.0" stroke="rgb(66,64,133)" stroke-width="3.5999999999999996" /><polyline fill="none" points="222.0,111.0 222.0,105.0" stroke="rgb(64,67,135)" stroke-width="3.5999999999999996" /><polyline fill="none" points="222.0,99.0 222.0,78.0 216.0,78.0 216.0,84.0 219.0,84.0" stroke="rgb(62,72,136)" stroke-width="3.5999999999999996" /><polyline fill="none" points="225.0,84.0 240.0,84.0 240.0,90.0 228.0,90.0 228.0,87.0" stroke="rgb(61,76,137)" stroke-width="3.5999999999999996" /><polyline fill="none" points="228.0,81.0 228.0,72.0 213.0,72.0" stroke="rgb(59,81,138)" stroke-width="3.5999999999999996" /><polyline fill="none" points="207.0,72.0 171.0,72.0" stroke="rgb(57,84,139)" stroke-width="3.5999999999999996" /><polyline fill="none" points="165.0,72.0 162.0,72.0 162.0,111.0" stroke="rgb(55,88,140)" stroke-width="3.5999999999999996" /><polyline fill="none" points="162.0,117.0 162.0,210.0 186.0,210.0 186.0,192.0 174.0,192.0 174.0,204.0 180.0,204.0 180.0,198.0 177.0,198.0" stroke="rgb(53,92,140)" stroke-width="3.5999999999999996" /><polyline fill="none" points="171.0,198.0 165.0,198.0" stroke="rgb(52,95,141)" stroke-width="3.5999999999999996" /><polyline fill="none" points="159.0,198.0 156.0,198.0 156.0,186.0 150.0,186.0 150.0,192.0 153.0,192.0" stroke="rgb(50,99,141)" stroke-width="3.5999999999999996" /><polyline fill="none" points="159.0,192.0 159.0,192.0" stroke="rgb(48,103,141)" stroke-width="3.5999999999999996" /><polyline fill="none" points="165.0,192.0 168.0,192.0 168.0,180.0 165.0,180.0" stroke="rgb(46,107,142)" stroke-width="3.5999999999999996" /><polyline fill="none" points="159.0,180.0 147.0,180.0" stroke="rgb(45,110,142)" stroke-width="3.5999999999999996" /><polyline fill="none" points="141.0,180.0 135.0,180.0" stroke="rgb(44,114,142)" stroke-width="3.5999999999999996" /><polyline fill="none" points="129.0,180.0 126.0,180.0 126.0,174.0 132.0,174.0 132.0,192.0 114.0,192.0 114.0,198.0 126.0,198.0 126.0,204.0 120.0,204.0 120.0,201.0" stroke="rgb(42,118,142)" stroke-width="3.5999999999999996" /><polyline fill="none" points="120.0,195.0 120.0,195.0" stroke="rgb(41,121,142)" stroke-width="3.5999999999999996" /><polyline fill="none" points="120.0,189.0 120.0,165.0" stroke="rgb(39,124,142)" stroke-width="3.5999999999999996" /><polyline fill="none" points="120.0,159.0 120.0,129.0" stroke="rgb(38,128,142)" stroke-width="3.5999999999999996" /><polyline fill="none" points="120.0,123.0 120.0,120.0 126.0,120.0 126.0,126.0 105.0,126.0" stroke="rgb(36,132,141)" stroke-width="3.5999999999999996" /><polyline fill="none" points="99.0,126.0 60.0,126.0 60.0,228.0 192.0,228.0 192.0,114.0 105.0,114.0" stroke="rgb(35,135,141)" stroke-width="3.5999999999999996" /><polyline fill="none" points="99.0,114.0 96.0,114.0 96.0,108.0 102.0,108.0 102.0,132.0 117.0,132.0" stroke="rgb(34,138,141)" stroke-width="3.5999999999999996" /><polyline fill="none" points="123.0,132.0 126.0,132.0 126.0,162.0 108.0,162.0 108.0,210.0 138.0,210.0 138.0,186.0 135.0,186.0" stroke="rgb(33,142,140)" stroke-width="3.5999999999999996" /><polyline fill="none" points="129.0,186.0 123.0,186.0" stroke="rgb(32,145,140)" stroke-width="3.5999999999999996" /><polyline fill="none" points="117.0,186.0 114.0,186.0 114.0,168.0 117.0,168.0" stroke="rgb(31,149,139)" stroke-width="3.5999999999999996" /><polyline fill="none" points="123.0,168.0 144.0,168.0 144.0,213.0" stroke="rgb(30,153,138)" stroke-width="3.5999999999999996" /><polyline fill="none" points="144.0,219.0 144.0,222.0 90.0,222.0 90.0,219.0" stroke="rgb(30,155,137)" stroke-width="3.5999999999999996" /><polyline fill="none" points="90.0,213.0 90.0,165.0" stroke="rgb(30,159,136)" stroke-width="3.5999999999999996" /><polyline fill="none" points="90.0,159.0 90.0,153.0" stroke="rgb(31,163,134)" stroke-width="3.5999999999999996" /><polyline fill="none" points="90.0,147.0 90.0,144.0 96.0,144.0 96.0,150.0 78.0,150.0 78.0,156.0 84.0,156.0 84.0,153.0" stroke="rgb(33,167,132)" stroke-width="3.5999999999999996" /><polyline fill="none" points="84.0,147.0 84.0,144.0 72.0,144.0 72.0,162.0 102.0,162.0 102.0,138.0 66.0,138.0 66.0,216.0 189.0,216.0" stroke="rgb(35,169,130)" stroke-width="3.5999999999999996" /><polyline fill="none" points="195.0,216.0 225.0,216.0" stroke="rgb(39,173,128)" stroke-width="3.5999999999999996" /><polyline fill="none" points="231.0,216.0 294.0,216.0 294.0,42.0 297.0,42.0" stroke="rgb(43,177,125)" stroke-width="3.5999999999999996" /><polyline fill="none" points="303.0,42.0 312.0,42.0 312.0,48.0 306.0,48.0 306.0,45.0" stroke="rgb(47,179,123)" stroke-width="3.5999999999999996" /><polyline fill="none" points="306.0,39.0 306.0,36.0 318.0,36.0 318.0,237.0" stroke="rgb(53,183,120)" stroke-width="3.5999999999999996" /><polyline fill="none" points="318.0,243.0 318.0,249.0" stroke="rgb(53,183,120)" stroke-width="3.5999999999999996" /><polyline fill="none" points="318.0,255.0 318.0,261.0" stroke="rgb(66,190,113)" stroke-width="3.5999999999999996" /><polyline fill="none" points="318.0,267.0 318.0,270.0 324.0,270.0 324.0,258.0 330.0,258.0 330.0,264.0 327.0,264.0" stroke="rgb(71,192,110)" stroke-width="3.5999999999999996" /><polyline fill="none" points="321.0,264.0 18.0,264.0 18.0,258.0 24.0,258.0 24.0,261.0" stroke="rgb(79,195,105)" stroke-width="3.5999999999999996" /><polyline fill="none" points="24.0,267.0 24.0,270.0 12.0,270.0 12.0,252.0 30.0,252.0 30.0,261.0" stroke="rgb(87,198,101)" stroke-width="3.5999999999999996" /><polyline fill="none" points="30.0,267.0 30.0,273.0" stroke="rgb(94,201,97)" stroke-width="3.5999999999999996" /><polyline fill="none" points="30.0,279.0 30.0,282.0 342.0,282.0 342.0,240.0 51.0,240.0" stroke="rgb(103,204,92)" stroke-width="3.5999999999999996" /><polyline fill="none" points="45.0,240.0 42.0,240.0 42.0,246.0 48.0,246.0 48.0,24.0 42.0,24.0 42.0,30.0 45.0,30.0" stroke="rgb(112,206,86)" stroke-width="3.5999999999999996" /><polyline fill="none" points="51.0,30.0 165.0,30.0" stroke="rgb(121,209,81)" stroke-width="3.5999999999999996" /><polyline fill="none" points="171.0,30.0 306.0,30.0 306.0,18.0 288.0,18.0 288.0,24.0 294.0,24.0 294.0,21.0" stroke="rgb(129,211,76)" stroke-width="3.5999999999999996" /><polyline fill="none" points="294.0,15.0 294.0,15.0" stroke="rgb(139,213,70)" stroke-width="3.5999999999999996" /><polyline fill="none" points="294.0,9.0 294.0,6.0 288.0,6.0 288.0,12.0 306.0,12.0 306.0,6.0 300.0,6.0 300.0,9.0" stroke="rgb(149,215,63)" stroke-width="3.5999999999999996" /><polyline fill="none" points="300.0,15.0 300.0,15.0" stroke="rgb(157,217,58)" stroke-width="3.5999999999999996" /><polyline fill="none" points="300.0,21.0 300.0,27.0" stroke="rgb(167,219,51)" stroke-width="3.5999999999999996" /><polyline fill="none" points="300.0,33.0 300.0,48.0 297.0,48.0" stroke="rgb(178,221,44)" stroke-width="3.5999999999999996" /><polyline fill="none" points="291.0,48.0 285.0,48.0" stroke="rgb(189,222,38)" stroke-width="3.5999999999999996" /><polyline fill="none" points="279.0,48.0 198.0,48.0 198.0,69.0" stroke="rgb(197,223,33)" stroke-width="3.5999999999999996" /><polyline fill="none" points="198.0,75.0 198.0,114.0 234.0,114.0 234.0,108.0 228.0,108.0 228.0,111.0" stroke="rgb(207,225,28)" stroke-width="3.5999999999999996" /><polyline fill="none" points="228.0,117.0 228.0,234.0 54.0,234.0 54.0,102.0 159.0,102.0" stroke="rgb(218,226,24)" stroke-width="3.5999999999999996" /><polyline fill="none" points="165.0,102.0 168.0,102.0 168.0,18.0 36.0,18.0 36.0,252.0 336.0,252.0 336.0,276.0 6.0,276.0 6.0,12.0 282.0,12.0 282.0,27.0" stroke="rgb(225,227,24)" stroke-width="3.5999999999999996" /><polyline fill="none" points="282.0,33.0 282.0,189.0" stroke="rgb(236,228,26)" stroke-width="3.5999999999999996" /><polyline fill="none" points="282.0,195.0 282.0,204.0 288.0,204.0 288.0,192.0 261.0,192.0" stroke="rgb(246,230,31)" stroke-width="3.5999999999999996" /><polyline fill="none" points="255.0,192.0 240.0,192.0 240.0,198.0 246.0,198.0 246.0,195.0" stroke="rgb(253,231,36)" stroke-width="3.5999999999999996" /></svg>