<?xml version="1.0" encoding="utf-8" ?>
<svg baseProfile="full" height="216.0" version="1.1" width="252.0" xmlns="http://www.w3.org/2000/svg" xmlns:ev="http://www.w3.org/2001/xml-events" xmlns:xlink="http://www.w3.org/1999/xlink"><defs /><polyline fill="none" points="132.0,129.0 132.0,117.0" stroke="rgb(68,1,84)" stroke-width="3.5999999999999996" /><polyline fill="none" points="132.0,111.0 132.0,111.0" stroke="rgb(69,8,91)" stroke-width="3.5999999999999996" /><polyline fill="none" points="132.0,105.0 132.0,96.0 120.0,96.0 120.0,141.0" stroke="rgb(71,15,98)" stroke-width="3.5999999999999996" /><polyline fill="none" points="120.0,147.0 120.0,150.0 144.0,150.0 144.0,126.0 150.0,126.0 150.0,144.0 147.0,144.0" stroke="rgb(71,24,106)" stroke-width="3.5999999999999996" /><polyline fill="none" points="141.0,144.0 18.0,144.0 18.0,84.0 27.0,84.0" stroke="rgb(72,30,112)" stroke-width="3.5999999999999996" /><polyline fill="none" points="33.0,84.0 108.0,84.0 108.0,24.0 51.0,24.0" stroke="rgb(71,38,118)" stroke-width="3.5999999999999996" /><polyline fill="none" points="45.0,24.0 36.0,24.0 36.0,72.0 45.0,72.0" stroke="rgb(71,44,123)" stroke-width="3.5999999999999996" /><polyline fill="none" points="51.0,72.0 96.0,72.0 96.0,36.0 72.0,36.0 72.0,45.0" stroke="rgb(69,52,127)" stroke-width="3.5999999999999996" /><polyline fill="none" points="72.0,51.0 72.0,57.0" stroke="rgb(67,58,131)" stroke-width="3.5999999999999996" /><polyline fill="none" points="72.0,63.0 72.0,66.0 66.0,66.0 66.0,60.0 90.0,60.0 90.0,42.0 78.0,42.0 78.0,45.0" stroke="rgb(65,65,134)" stroke-width="3.5999999999999996" /><polyline fill="none" points="78.0,51.0 78.0,54.0 84.0,54.0 84.0,48.0 57.0,48.0" stroke="rgb(63,71,136)" stroke-width="3.5999999999999996" /><polyline fill="none" points="51.0,48.0 51.0,48.0" stroke="rgb(61,76,137)" stroke-width="3.5999999999999996" /><polyline fill="none" points="45.0,48.0 42.0,48.0 42.0,54.0 60.0,54.0 60.0,60.0 54.0,60.0 54.0,57.0" stroke="rgb(58,83,139)" stroke-width="3.5999999999999996" /><polyline fill="none" points="54.0,51.0 54.0,30.0 102.0,30.0 102.0,78.0 48.0,78.0 48.0,57.0" stroke="rgb(55,88,140)" stroke-width="3.5999999999999996" /><polyline fill="none" points="48.0,51.0 48.0,12.0 231.0,12.0" stroke="rgb(52,94,141)" stroke-width="3.5999999999999996" /><polyline fill="none" points="237.0,12.0 240.0,12.0 240.0,18.0 237.0,18.0" stroke="rgb(50,99,141)" stroke-width="3.5999999999999996" /><polyline fill="none" points="231.0,18.0 51.0,18.0" stroke="rgb(47,105,141)" stroke-width="3.5999999999999996" /><polyline fill="none" points="45.0,18.0 30.0,18.0 30.0,96.0 24.0,96.0 24.0,90.0 27.0,90.0" stroke="rgb(45,110,142)" stroke-width="3.5999999999999996" /><polyline fill="none" points="33.0,90.0 231.0,90.0" stroke="rgb(43,116,142)" stroke-width="3.5999999999999996" /><polyline fill="none" points="237.0,90.0 246.0,90.0 246.0,6.0 234.0,6.0 234.0,201.0" stroke="rgb(41,121,142)" stroke-width="3.5999999999999996" /><polyline fill="none" points="234.0,207.0 234.0,210.0 12.0,210.0 12.0,207.0" stroke="rgb(39,125,142)" stroke-width="3.5999999999999996" /><polyline fill="none" points="12.0,201.0 12.0,198.0 6.0,198.0 6.0,204.0 240.0,204.0 240.0,126.0 237.0,126.0" stroke="rgb(37,131,141)" stroke-width="3.5999999999999996" /><polyline fill="none" points="231.0,126.0 225.0,126.0" stroke="rgb(35,136,141)" stroke-width="3.5999999999999996" /><polyline fill="none" points="219.0,126.0 213.0,126.0" stroke="rgb(33,141,140)" stroke-width="3.5999999999999996" /><polyline fill="none" points="207.0,126.0 207.0,126.0" stroke="rgb(31,146,140)" stroke-width="3.5999999999999996" /><polyline fill="none" points="201.0,126.0 177.0,126.0" stroke="rgb(30,152,138)" stroke-width="3.5999999999999996" /><polyline fill="none" points="171.0,126.0 156.0,126.0 156.0,129.0" stroke="rgb(30,156,137)" stroke-width="3.5999999999999996" /><polyline fill="none" points="156.0,135.0 156.0,153.0" stroke="rgb(31,162,134)" stroke-width="3.5999999999999996" /><polyline fill="none" points="156.0,159.0 156.0,174.0 150.0,174.0 150.0,168.0 153.0,168.0" stroke="rgb(33,167,132)" stroke-width="3.5999999999999996" /><polyline fill="none" points="159.0,168.0 201.0,168.0" stroke="rgb(37,171,129)" stroke-width="3.5999999999999996" /><polyline fill="none" points="207.0,168.0 210.0,168.0 210.0,105.0" stroke="rgb(43,177,125)" stroke-width="3.5999999999999996" /><polyline fill="none" points="210.0,99.0 210.0,93.0" stroke="rgb(50,181,122)" stroke-width="3.5999999999999996" /><polyline fill="none" points="210.0,87.0 210.0,84.0 114.0,84.0 114.0,87.0" stroke="rgb(59,186,117)" stroke-width="3.5999999999999996" /><polyline fill="none" points="114.0,93.0 114.0,141.0" stroke="rgb(68,190,112)" stroke-width="3.5999999999999996" /><polyline fill="none" points="114.0,147.0 114.0,180.0 201.0,180.0" stroke="rgb(79,195,105)" stroke-width="3.5999999999999996" /><polyline fill="none" points="207.0,180.0 210.0,180.0 210.0,186.0 204.0,186.0 204.0,120.0 174.0,120.0 174.0,153.0" stroke="rgb(89,199,100)" stroke-width="3.5999999999999996" /><polyline fill="none" points="174.0,159.0 174.0,162.0 186.0,162.0 186.0,159.0" stroke="rgb(103,204,92)" stroke-width="3.5999999999999996" /><polyline fill="none" points="186.0,153.0 186.0,147.0" stroke="rgb(114,207,85)" stroke-width="3.5999999999999996" /><polyline fill="none" points="186.0,141.0 186.0,138.0 192.0,138.0 192.0,144.0 180.0,144.0 180.0,132.0 198.0,132.0 198.0,156.0 117.0,156.0" stroke="rgb(126,210,78)" stroke-width="3.5999999999999996" /><polyline fill="none" points="111.0,156.0 108.0,156.0 108.0,192.0 228.0,192.0 228.0,198.0 222.0,198.0 222.0,195.0" stroke="rgb(141,214,68)" stroke-width="3.5999999999999996" /><polyline fill="none" points="222.0,189.0 222.0,117.0" stroke="rgb(154,216,60)" stroke-width="3.5999999999999996" /><polyline fill="none" points="222.0,111.0 222.0,108.0 216.0,108.0 216.0,114.0 228.0,114.0 228.0,102.0 135.0,102.0" stroke="rgb(170,219,50)" stroke-width="3.5999999999999996" /><polyline fill="none" points="129.0,102.0 126.0,102.0 126.0,108.0 174.0,108.0 174.0,114.0 126.0,114.0 126.0,132.0 141.0,132.0" stroke="rgb(183,221,41)" stroke-width="3.5999999999999996" /><polyline fill="none" points="147.0,132.0 147.0,132.0" stroke="rgb(199,224,31)" stroke-width="3.5999999999999996" /><polyline fill="none" points="153.0,132.0 159.0,132.0" stroke="rgb(212,225,26)" stroke-width="3.5999999999999996" /><polyline fill="none" points="165.0,132.0 168.0,132.0 168.0,138.0 162.0,138.0 162.0,129.0" stroke="rgb(228,227,24)" stroke-width="3.5999999999999996" /><polyline fill="none" points="162.0,123.0 162.0,120.0 138.0,120.0 138.0,129.0" stroke="rgb(241,229,28)" stroke-width="3.5999999999999996" /><polyline fill="none" points="138.0,135.0 138.0,138.0 132.0,138.0 132.0,135.0" stroke="rgb(253,231,36)" stroke-width="3.5999999999999996" /></svg>