<?xml version="1.0" encoding="utf-8" ?>
<svg baseProfile="full" height="90.0" version="1.1" width="114.0" xmlns="http://www.w3.org/2000/svg" xmlns:ev="http://www.w3.org/2001/xml-events" xmlns:xlink="http://www.w3.org/1999/xlink"><defs /><polyline fill="none" points="24.0,63.0 24.0,39.0" stroke="rgb(68,1,84)" stroke-width="3.5999999999999996" /><polyline fill="none" points="24.0,33.0 24.0,30.0 18.0,30.0 18.0,36.0 63.0,36.0" stroke="rgb(71,22,105)" stroke-width="3.5999999999999996" /><polyline fill="none" points="69.0,36.0 99.0,36.0" stroke="rgb(71,42,121)" stroke-width="3.5999999999999996" /><polyline fill="none" points="105.0,36.0 108.0,36.0 108.0,42.0 102.0,42.0 102.0,30.0 99.0,30.0" stroke="rgb(67,60,132)" stroke-width="3.5999999999999996" /><polyline fill="none" points="93.0,30.0 90.0,30.0 90.0,24.0 96.0,24.0 96.0,33.0" stroke="rgb(60,77,138)" stroke-width="3.5999999999999996" /><polyline fill="none" points="96.0,39.0 96.0,78.0 87.0,78.0" stroke="rgb(53,93,140)" stroke-width="3.5999999999999996" /><polyline fill="none" points="81.0,78.0 15.0,78.0" stroke="rgb(46,108,142)" stroke-width="3.5999999999999996" /><polyline fill="none" points="9.0,78.0 6.0,78.0 6.0,24.0 66.0,24.0 66.0,75.0" stroke="rgb(40,122,142)" stroke-width="3.5999999999999996" /><polyline fill="none" points="66.0,81.0 66.0,84.0 84.0,84.0 84.0,39.0" stroke="rgb(35,137,141)" stroke-width="3.5999999999999996" /><polyline fill="none" points="84.0,33.0 84.0,21.0" stroke="rgb(30,151,138)" stroke-width="3.5999999999999996" /><polyline fill="none" points="84.0,15.0 84.0,12.0 78.0,12.0 78.0,15.0" stroke="rgb(32,165,133)" stroke-width="3.5999999999999996" /><polyline fill="none" points="78.0,21.0 78.0,24.0 72.0,24.0 72.0,18.0 90.0,18.0 90.0,6.0 12.0,6.0 12.0,21.0" stroke="rgb(46,178,124)" stroke-width="3.5999999999999996" /><polyline fill="none" points="12.0,27.0 12.0,84.0 54.0,84.0 54.0,81.0" stroke="rgb(69,191,111)" stroke-width="3.5999999999999996" /><polyline fill="none" points="54.0,75.0 54.0,54.0 60.0,54.0 60.0,60.0 57.0,60.0" stroke="rgb(100,203,93)" stroke-width="3.5999999999999996" /><polyline fill="none" points="51.0,60.0 45.0,60.0" stroke="rgb(136,213,71)" stroke-width="3.5999999999999996" /><polyline fill="none" points="39.0,60.0 30.0,60.0 30.0,42.0 48.0,42.0 48.0,54.0 36.0,54.0 36.0,48.0 42.0,48.0 42.0,51.0" stroke="rgb(175,220,46)" stroke-width="3.5999999999999996" /><polyline fill="none" points="42.0,57.0 42.0,63.0" stroke="rgb(215,226,25)" stroke-width="3.5999999999999996" /><polyline fill="none" points="42.0,69.0 42.0,72.0 48.0,72.0 48.0,66.0 18.0,66.0 18.0,72.0 24.0,72.0 24.0,69.0" stroke="rgb(253,231,36)" stroke-width="3.5999999999999996" /></svg>