<?xml version="1.0" encoding="utf-8" ?>
<svg baseProfile="full" height="78.0" version="1.1" width="84.0" xmlns="http://www.w3.org/2000/svg" xmlns:ev="http://www.w3.org/2001/xml-events" xmlns:xlink="http://www.w3.org/1999/xlink"><defs /><polyline fill="none" points="18.0,45.0 18.0,21.0" stroke="rgb(68,1,84)" stroke-width="3.5999999999999996" /><polyline fill="none" points="18.0,15.0 18.0,12.0 12.0,12.0 12.0,18.0 45.0,18.0" stroke="rgb(72,30,112)" stroke-width="3.5999999999999996" /><polyline fill="none" points="51.0,18.0 78.0,18.0 78.0,24.0 72.0,24.0 72.0,21.0" stroke="rgb(68,57,130)" stroke-width="3.5999999999999996" /><polyline fill="none" points="72.0,15.0 72.0,6.0 6.0,6.0 6.0,36.0 15.0,36.0" stroke="rgb(58,82,139)" stroke-width="3.5999999999999996" /><polyline fill="none" points="21.0,36.0 42.0,36.0 42.0,54.0 30.0,54.0 30.0,42.0 36.0,42.0 36.0,48.0 33.0,48.0" stroke="rgb(48,103,141)" stroke-width="3.5999999999999996" /><polyline fill="none" points="27.0,48.0 27.0,48.0" stroke="rgb(40,123,142)" stroke-width="3.5999999999999996" /><polyline fill="none" points="21.0,48.0 12.0,48.0 12.0,66.0 15.0,66.0" stroke="rgb(32,144,140)" stroke-width="3.5999999999999996" /><polyline fill="none" points="21.0,66.0 66.0,66.0 66.0,21.0" stroke="rgb(32,164,133)" stroke-width="3.5999999999999996" /><polyline fill="none" points="66.0,15.0 66.0,12.0 48.0,12.0 48.0,60.0 24.0,60.0 24.0,39.0" stroke="rgb(53,183,120)" stroke-width="3.5999999999999996" /><polyline fill="none" points="24.0,33.0 24.0,30.0 45.0,30.0" stroke="rgb(94,201,97)" stroke-width="3.5999999999999996" /><polyline fill="none" points="51.0,30.0 60.0,30.0 60.0,24.0 54.0,24.0 54.0,27.0" stroke="rgb(144,214,67)" stroke-width="3.5999999999999996" /><polyline fill="none" points="54.0,33.0 54.0,63.0" stroke="rgb(199,224,31)" stroke-width="3.5999999999999996" /><polyline fill="none" points="54.0,69.0 54.0,72.0 18.0,72.0 18.0,51.0" stroke="rgb(253,231,36)" stroke-width="3.5999999999999996" /></svg>