<?xml version="1.0" encoding="utf-8" ?>
<svg baseProfile="full" height="84.0" version="1.1" width="102.0" xmlns="http://www.w3.org/2000/svg" xmlns:ev="http://www.w3.org/2001/xml-events" xmlns:xlink="http://www.w3.org/1999/xlink"><defs /><polyline fill="none" points="87.0,18.0 90.0,18.0 90.0,12.0 84.0,12.0 84.0,24.0 96.0,24.0 96.0,6.0 6.0,6.0 6.0,60.0 48.0,60.0 48.0,63.0" stroke="rgb(68,1,84)" stroke-width="3.5999999999999996" /><polyline fill="none" points="48.0,69.0 48.0,78.0 78.0,78.0 78.0,54.0 45.0,54.0" stroke="rgb(72,28,110)" stroke-width="3.5999999999999996" /><polyline fill="none" points="39.0,54.0 24.0,54.0 24.0,24.0 66.0,24.0 66.0,51.0" stroke="rgb(69,53,128)" stroke-width="3.5999999999999996" /><polyline fill="none" points="66.0,57.0 66.0,63.0" stroke="rgb(61,76,137)" stroke-width="3.5999999999999996" /><polyline fill="none" points="66.0,69.0 66.0,72.0 72.0,72.0 72.0,66.0 30.0,66.0 30.0,63.0" stroke="rgb(51,96,141)" stroke-width="3.5999999999999996" /><polyline fill="none" points="30.0,57.0 30.0,57.0" stroke="rgb(43,116,142)" stroke-width="3.5999999999999996" /><polyline fill="none" points="30.0,51.0 30.0,30.0 60.0,30.0 60.0,48.0 48.0,48.0 48.0,36.0 54.0,36.0 54.0,42.0 51.0,42.0" stroke="rgb(35,135,141)" stroke-width="3.5999999999999996" /><polyline fill="none" points="45.0,42.0 36.0,42.0 36.0,36.0 42.0,36.0 42.0,39.0" stroke="rgb(30,153,138)" stroke-width="3.5999999999999996" /><polyline fill="none" points="42.0,45.0 42.0,57.0" stroke="rgb(37,171,129)" stroke-width="3.5999999999999996" /><polyline fill="none" points="42.0,63.0 42.0,63.0" stroke="rgb(64,189,114)" stroke-width="3.5999999999999996" /><polyline fill="none" points="42.0,69.0 42.0,72.0 21.0,72.0" stroke="rgb(103,204,92)" stroke-width="3.5999999999999996" /><polyline fill="none" points="15.0,72.0 12.0,72.0 12.0,78.0 18.0,78.0 18.0,63.0" stroke="rgb(151,216,62)" stroke-width="3.5999999999999996" /><polyline fill="none" points="18.0,57.0 18.0,21.0" stroke="rgb(205,224,29)" stroke-width="3.5999999999999996" /><polyline fill="none" points="18.0,15.0 18.0,12.0 12.0,12.0 12.0,18.0 81.0,18.0" stroke="rgb(253,231,36)" stroke-width="3.5999999999999996" /></svg>