<?xml version="1.0" encoding="utf-8" ?>
<svg baseProfile="full" height="330.0" version="1.1" width="372.0" xmlns="http://www.w3.org/2000/svg" xmlns:ev="http://www.w3.org/2001/xml-events" xmlns:xlink="http://www.w3.org/1999/xlink"><defs /><polyline fill="none" points="159.0,120.0 159.0,120.0" stroke="rgb(68,1,84)" stroke-width="3.5999999999999996" /><polyline fill="none" points="165.0,120.0 168.0,120.0 168.0,114.0 162.0,114.0 162.0,126.0 174.0,126.0 174.0,108.0 144.0,108.0 144.0,132.0 153.0,132.0" stroke="rgb(69,6,90)" stroke-width="3.5999999999999996" /><polyline fill="none" points="159.0,132.0 192.0,132.0 192.0,126.0 186.0,126.0 186.0,129.0" stroke="rgb(70,12,95)" stroke-width="3.5999999999999996" /><polyline fill="none" points="186.0,135.0 186.0,147.0" stroke="rgb(71,18,101)" stroke-width="3.5999999999999996" /><polyline fill="none" points="186.0,153.0 186.0,168.0 204.0,168.0 204.0,150.0 180.0,150.0 180.0,159.0" stroke="rgb(71,24,106)" stroke-width="3.5999999999999996" /><polyline fill="none" points="180.0,165.0 180.0,168.0 174.0,168.0 174.0,162.0 183.0,162.0" stroke="rgb(72,29,111)" stroke-width="3.5999999999999996" /><polyline fill="none" points="189.0,162.0 189.0,162.0" stroke="rgb(72,34,115)" stroke-width="3.5999999999999996" /><polyline fill="none" points="195.0,162.0 198.0,162.0 198.0,156.0 192.0,156.0 192.0,165.0" stroke="rgb(71,39,119)" stroke-width="3.5999999999999996" /><polyline fill="none" points="192.0,171.0 192.0,171.0" stroke="rgb(71,44,123)" stroke-width="3.5999999999999996" /><polyline fill="none" points="192.0,177.0 192.0,180.0 180.0,180.0 180.0,174.0 207.0,174.0" stroke="rgb(70,49,126)" stroke-width="3.5999999999999996" /><polyline fill="none" points="213.0,174.0 213.0,174.0" stroke="rgb(69,54,129)" stroke-width="3.5999999999999996" /><polyline fill="none" points="219.0,174.0 225.0,174.0" stroke="rgb(67,59,131)" stroke-width="3.5999999999999996" /><polyline fill="none" points="231.0,174.0 294.0,174.0 294.0,204.0 282.0,204.0 282.0,210.0 288.0,210.0 288.0,207.0" stroke="rgb(66,64,133)" stroke-width="3.5999999999999996" /><polyline fill="none" points="288.0,201.0 288.0,177.0" stroke="rgb(64,68,135)" stroke-width="3.5999999999999996" /><polyline fill="none" points="288.0,171.0 288.0,96.0 300.0,96.0 300.0,99.0" stroke="rgb(62,73,137)" stroke-width="3.5999999999999996" /><polyline fill="none" points="300.0,105.0 300.0,213.0" stroke="rgb(60,77,138)" stroke-width="3.5999999999999996" /><polyline fill="none" points="300.0,219.0 300.0,222.0 114.0,222.0 114.0,219.0" stroke="rgb(58,83,139)" stroke-width="3.5999999999999996" /><polyline fill="none" points="114.0,213.0 114.0,48.0 108.0,48.0 108.0,66.0 111.0,66.0" stroke="rgb(56,87,140)" stroke-width="3.5999999999999996" /><polyline fill="none" points="117.0,66.0 237.0,66.0" stroke="rgb(54,91,140)" stroke-width="3.5999999999999996" /><polyline fill="none" points="243.0,66.0 246.0,66.0 246.0,60.0 240.0,60.0 240.0,72.0 252.0,72.0 252.0,54.0 234.0,54.0 234.0,63.0" stroke="rgb(52,95,141)" stroke-width="3.5999999999999996" /><polyline fill="none" points="234.0,69.0 234.0,78.0 258.0,78.0 258.0,42.0 264.0,42.0 264.0,48.0 261.0,48.0" stroke="rgb(50,99,141)" stroke-width="3.5999999999999996" /><polyline fill="none" points="255.0,48.0 231.0,48.0" stroke="rgb(48,103,141)" stroke-width="3.5999999999999996" /><polyline fill="none" points="225.0,48.0 222.0,48.0 222.0,42.0 228.0,42.0 228.0,63.0" stroke="rgb(46,107,142)" stroke-width="3.5999999999999996" /><polyline fill="none" points="228.0,69.0 228.0,189.0" stroke="rgb(45,111,142)" stroke-width="3.5999999999999996" /><polyline fill="none" points="228.0,195.0 228.0,198.0 234.0,198.0 234.0,192.0 222.0,192.0 222.0,204.0 276.0,204.0 276.0,177.0" stroke="rgb(43,115,142)" stroke-width="3.5999999999999996" /><polyline fill="none" points="276.0,171.0 276.0,108.0 264.0,108.0 264.0,114.0 270.0,114.0 270.0,111.0" stroke="rgb(42,119,142)" stroke-width="3.5999999999999996" /><polyline fill="none" points="270.0,105.0 270.0,39.0" stroke="rgb(40,122,142)" stroke-width="3.5999999999999996" /><polyline fill="none" points="270.0,33.0 270.0,6.0 42.0,6.0 42.0,261.0" stroke="rgb(39,126,142)" stroke-width="3.5999999999999996" /><polyline fill="none" points="42.0,267.0 42.0,270.0 96.0,270.0 96.0,261.0" stroke="rgb(37,130,142)" stroke-width="3.5999999999999996" /><polyline fill="none" points="96.0,255.0 96.0,249.0" stroke="rgb(36,134,141)" stroke-width="3.5999999999999996" /><polyline fill="none" points="96.0,243.0 96.0,240.0 99.0,240.0" stroke="rgb(34,137,141)" stroke-width="3.5999999999999996" /><polyline fill="none" points="105.0,240.0 312.0,240.0 312.0,246.0 105.0,246.0" stroke="rgb(33,141,140)" stroke-width="3.5999999999999996" /><polyline fill="none" points="99.0,246.0 54.0,246.0 54.0,240.0 60.0,240.0 60.0,243.0" stroke="rgb(31,146,140)" stroke-width="3.5999999999999996" /><polyline fill="none" points="60.0,249.0 60.0,252.0 93.0,252.0" stroke="rgb(31,150,139)" stroke-width="3.5999999999999996" /><polyline fill="none" points="99.0,252.0 99.0,252.0" stroke="rgb(30,153,138)" stroke-width="3.5999999999999996" /><polyline fill="none" points="105.0,252.0 324.0,252.0 324.0,90.0 276.0,90.0 276.0,102.0 285.0,102.0" stroke="rgb(30,157,136)" stroke-width="3.5999999999999996" /><polyline fill="none" points="291.0,102.0 318.0,102.0 318.0,114.0 306.0,114.0 306.0,108.0 312.0,108.0 312.0,111.0" stroke="rgb(31,161,135)" stroke-width="3.5999999999999996" /><polyline fill="none" points="312.0,117.0 312.0,213.0" stroke="rgb(32,165,133)" stroke-width="3.5999999999999996" /><polyline fill="none" points="312.0,219.0 312.0,222.0 318.0,222.0 318.0,216.0 66.0,216.0 66.0,222.0 78.0,222.0 78.0,228.0 72.0,228.0 72.0,225.0" stroke="rgb(35,168,131)" stroke-width="3.5999999999999996" /><polyline fill="none" points="72.0,219.0 72.0,219.0" stroke="rgb(38,172,129)" stroke-width="3.5999999999999996" /><polyline fill="none" points="72.0,213.0 72.0,24.0 60.0,24.0 60.0,234.0 90.0,234.0 90.0,240.0 84.0,240.0 84.0,237.0" stroke="rgb(42,176,126)" stroke-width="3.5999999999999996" /><polyline fill="none" points="84.0,231.0 84.0,219.0" stroke="rgb(47,179,123)" stroke-width="3.5999999999999996" /><polyline fill="none" points="84.0,213.0 84.0,18.0 78.0,18.0 78.0,24.0 81.0,24.0" stroke="rgb(53,183,120)" stroke-width="3.5999999999999996" /><polyline fill="none" points="87.0,24.0 96.0,24.0 96.0,18.0 90.0,18.0 90.0,21.0" stroke="rgb(59,186,117)" stroke-width="3.5999999999999996" /><polyline fill="none" points="90.0,27.0 90.0,30.0 102.0,30.0 102.0,12.0 48.0,12.0 48.0,258.0 102.0,258.0 102.0,219.0" stroke="rgb(66,190,113)" stroke-width="3.5999999999999996" /><polyline fill="none" points="102.0,213.0 102.0,36.0 342.0,36.0 342.0,264.0 99.0,264.0" stroke="rgb(73,193,109)" stroke-width="3.5999999999999996" /><polyline fill="none" points="93.0,264.0 39.0,264.0" stroke="rgb(81,196,104)" stroke-width="3.5999999999999996" /><polyline fill="none" points="33.0,264.0 18.0,264.0 18.0,270.0 21.0,270.0" stroke="rgb(89,199,100)" stroke-width="3.5999999999999996" /><polyline fill="none" points="27.0,270.0 30.0,270.0 30.0,276.0 24.0,276.0 24.0,267.0" stroke="rgb(100,203,93)" stroke-width="3.5999999999999996" /><polyline fill="none" points="24.0,261.0 24.0,12.0 30.0,12.0 30.0,18.0 27.0,18.0" stroke="rgb(109,206,88)" stroke-width="3.5999999999999996" /><polyline fill="none" points="21.0,18.0 21.0,18.0" stroke="rgb(119,208,82)" stroke-width="3.5999999999999996" /><polyline fill="none" points="15.0,18.0 12.0,18.0 12.0,12.0 18.0,12.0 18.0,24.0 6.0,24.0 6.0,6.0 36.0,6.0 36.0,279.0" stroke="rgb(129,211,76)" stroke-width="3.5999999999999996" /><polyline fill="none" points="36.0,285.0 36.0,288.0 30.0,288.0 30.0,282.0 366.0,282.0 366.0,312.0 357.0,312.0" stroke="rgb(139,213,70)" stroke-width="3.5999999999999996" /><polyline fill="none" points="351.0,312.0 345.0,312.0" stroke="rgb(149,215,63)" stroke-width="3.5999999999999996" /><polyline fill="none" points="339.0,312.0 333.0,312.0" stroke="rgb(159,217,56)" stroke-width="3.5999999999999996" /><polyline fill="none" points="327.0,312.0 324.0,312.0 324.0,324.0 354.0,324.0 354.0,297.0" stroke="rgb(170,219,50)" stroke-width="3.5999999999999996" /><polyline fill="none" points="354.0,291.0 354.0,288.0 360.0,288.0 360.0,294.0 336.0,294.0 336.0,306.0 339.0,306.0" stroke="rgb(181,221,43)" stroke-width="3.5999999999999996" /><polyline fill="none" points="345.0,306.0 348.0,306.0 348.0,300.0 342.0,300.0 342.0,318.0 330.0,318.0 330.0,285.0" stroke="rgb(191,223,36)" stroke-width="3.5999999999999996" /><polyline fill="none" points="330.0,279.0 330.0,267.0" stroke="rgb(202,224,30)" stroke-width="3.5999999999999996" /><polyline fill="none" points="330.0,261.0 330.0,87.0" stroke="rgb(212,225,26)" stroke-width="3.5999999999999996" /><polyline fill="none" points="330.0,81.0 330.0,78.0 336.0,78.0 336.0,84.0 273.0,84.0" stroke="rgb(223,227,24)" stroke-width="3.5999999999999996" /><polyline fill="none" points="267.0,84.0 231.0,84.0" stroke="rgb(233,228,25)" stroke-width="3.5999999999999996" /><polyline fill="none" points="225.0,84.0 120.0,84.0 120.0,192.0 216.0,192.0 216.0,90.0 126.0,90.0 126.0,186.0 210.0,186.0 210.0,96.0 132.0,96.0 132.0,144.0 180.0,144.0 180.0,135.0" stroke="rgb(243,229,30)" stroke-width="3.5999999999999996" /><polyline fill="none" points="180.0,129.0 180.0,102.0 138.0,102.0 138.0,138.0 156.0,138.0 156.0,114.0 150.0,114.0 150.0,120.0 153.0,120.0" stroke="rgb(253,231,36)" stroke-width="3.5999999999999996" /></svg>