<?xml version="1.0" encoding="utf-8" ?>
<svg baseProfile="full" height="42.0" version="1.1" width="54.0" xmlns="http://www.w3.org/2000/svg" xmlns:ev="http://www.w3.org/2001/xml-events" xmlns:xlink="http://www.w3.org/1999/xlink"><defs /><polyline fill="none" points="21.0,30.0 33.0,30.0" stroke="rgb(68,1,84)" stroke-width="3.5999999999999996" /><polyline fill="none" points="39.0,30.0 42.0,30.0 42.0,18.0 36.0,18.0 36.0,21.0" stroke="rgb(68,57,130)" stroke-width="3.5999999999999996" /><polyline fill="none" points="36.0,27.0 36.0,36.0 24.0,36.0 24.0,33.0" stroke="rgb(48,103,141)" stroke-width="3.5999999999999996" /><polyline fill="none" points="24.0,27.0 24.0,6.0 30.0,6.0 30.0,9.0" stroke="rgb(32,144,140)" stroke-width="3.5999999999999996" /><polyline fill="none" points="30.0,15.0 30.0,24.0 39.0,24.0" stroke="rgb(53,183,120)" stroke-width="3.5999999999999996" /><polyline fill="none" points="45.0,24.0 48.0,24.0 48.0,12.0 27.0,12.0" stroke="rgb(144,214,67)" stroke-width="3.5999999999999996" /><polyline fill="none" points="21.0,12.0 6.0,12.0 6.0,36.0 18.0,36.0 18.0,24.0 12.0,24.0 12.0,30.0 15.0,30.0" stroke="rgb(253,231,36)" stroke-width="3.5999999999999996" /></svg>