<?xml version="1.0" encoding="utf-8" ?>
<svg baseProfile="full" height="216.0" version="1.1" width="222.0" xmlns="http://www.w3.org/2000/svg" xmlns:ev="http://www.w3.org/2001/xml-events" xmlns:xlink="http://www.w3.org/1999/xlink"><defs /><polyline fill="none" points="39.0,84.0 48.0,84.0 48.0,78.0 39.0,78.0" stroke="rgb(68,1,84)" stroke-width="3.5999999999999996" /><polyline fill="none" points="33.0,78.0 6.0,78.0 6.0,54.0 30.0,54.0 30.0,72.0 12.0,72.0 12.0,60.0 24.0,60.0 24.0,66.0 18.0,66.0 18.0,63.0" stroke="rgb(70,9,92)" stroke-width="3.5999999999999996" /><polyline fill="none" points="18.0,57.0 18.0,57.0" stroke="rgb(71,18,101)" stroke-width="3.5999999999999996" /><polyline fill="none" points="18.0,51.0 18.0,51.0" stroke="rgb(72,26,108)" stroke-width="3.5999999999999996" /><polyline fill="none" points="18.0,45.0 18.0,42.0 12.0,42.0 12.0,48.0 33.0,48.0" stroke="rgb(72,34,115)" stroke-width="3.5999999999999996" /><polyline fill="none" points="39.0,48.0 45.0,48.0" stroke="rgb(71,43,122)" stroke-width="3.5999999999999996" /><polyline fill="none" points="51.0,48.0 51.0,48.0" stroke="rgb(69,50,127)" stroke-width="3.5999999999999996" /><polyline fill="none" points="57.0,48.0 66.0,48.0 66.0,42.0 60.0,42.0 60.0,45.0" stroke="rgb(67,58,131)" stroke-width="3.5999999999999996" /><polyline fill="none" points="60.0,51.0 60.0,54.0 72.0,54.0 72.0,36.0 54.0,36.0 54.0,54.0 48.0,54.0 48.0,24.0 42.0,24.0 42.0,30.0 45.0,30.0" stroke="rgb(65,65,134)" stroke-width="3.5999999999999996" /><polyline fill="none" points="51.0,30.0 75.0,30.0" stroke="rgb(62,73,137)" stroke-width="3.5999999999999996" /><polyline fill="none" points="81.0,30.0 84.0,30.0 84.0,36.0 78.0,36.0 78.0,18.0 72.0,18.0 72.0,24.0 75.0,24.0" stroke="rgb(59,80,138)" stroke-width="3.5999999999999996" /><polyline fill="none" points="81.0,24.0 87.0,24.0" stroke="rgb(56,86,139)" stroke-width="3.5999999999999996" /><polyline fill="none" points="93.0,24.0 216.0,24.0 216.0,66.0 201.0,66.0" stroke="rgb(53,92,140)" stroke-width="3.5999999999999996" /><polyline fill="none" points="195.0,66.0 96.0,66.0 96.0,144.0 135.0,144.0" stroke="rgb(50,99,141)" stroke-width="3.5999999999999996" /><polyline fill="none" points="141.0,144.0 144.0,144.0 144.0,138.0 138.0,138.0 138.0,159.0" stroke="rgb(47,105,141)" stroke-width="3.5999999999999996" /><polyline fill="none" points="138.0,165.0 138.0,168.0 144.0,168.0 144.0,162.0 129.0,162.0" stroke="rgb(45,111,142)" stroke-width="3.5999999999999996" /><polyline fill="none" points="123.0,162.0 120.0,162.0 120.0,198.0 204.0,198.0 204.0,186.0 192.0,186.0 192.0,192.0 198.0,192.0 198.0,189.0" stroke="rgb(42,117,142)" stroke-width="3.5999999999999996" /><polyline fill="none" points="198.0,183.0 198.0,60.0 210.0,60.0 210.0,63.0" stroke="rgb(40,123,142)" stroke-width="3.5999999999999996" /><polyline fill="none" points="210.0,69.0 210.0,201.0" stroke="rgb(38,129,142)" stroke-width="3.5999999999999996" /><polyline fill="none" points="210.0,207.0 210.0,210.0 216.0,210.0 216.0,204.0 39.0,204.0" stroke="rgb(35,135,141)" stroke-width="3.5999999999999996" /><polyline fill="none" points="33.0,204.0 30.0,204.0 30.0,210.0 36.0,210.0 36.0,6.0 30.0,6.0 30.0,12.0 33.0,12.0" stroke="rgb(33,140,141)" stroke-width="3.5999999999999996" /><polyline fill="none" points="39.0,12.0 90.0,12.0 90.0,87.0" stroke="rgb(31,147,139)" stroke-width="3.5999999999999996" /><polyline fill="none" points="90.0,93.0 90.0,180.0 117.0,180.0" stroke="rgb(30,153,138)" stroke-width="3.5999999999999996" /><polyline fill="none" points="123.0,180.0 168.0,180.0 168.0,186.0 162.0,186.0 162.0,183.0" stroke="rgb(30,158,136)" stroke-width="3.5999999999999996" /><polyline fill="none" points="162.0,177.0 162.0,123.0" stroke="rgb(32,164,133)" stroke-width="3.5999999999999996" /><polyline fill="none" points="162.0,117.0 162.0,93.0" stroke="rgb(36,170,130)" stroke-width="3.5999999999999996" /><polyline fill="none" points="162.0,87.0 162.0,84.0 168.0,84.0 168.0,87.0" stroke="rgb(42,176,126)" stroke-width="3.5999999999999996" /><polyline fill="none" points="168.0,93.0 168.0,96.0 186.0,96.0 186.0,114.0 168.0,114.0 168.0,102.0 171.0,102.0" stroke="rgb(50,181,122)" stroke-width="3.5999999999999996" /><polyline fill="none" points="177.0,102.0 180.0,102.0 180.0,108.0 174.0,108.0 174.0,99.0" stroke="rgb(59,186,117)" stroke-width="3.5999999999999996" /><polyline fill="none" points="174.0,93.0 174.0,72.0 180.0,72.0 180.0,78.0 177.0,78.0" stroke="rgb(71,192,110)" stroke-width="3.5999999999999996" /><polyline fill="none" points="171.0,78.0 123.0,78.0" stroke="rgb(83,197,103)" stroke-width="3.5999999999999996" /><polyline fill="none" points="117.0,78.0 114.0,78.0 114.0,72.0 120.0,72.0 120.0,117.0" stroke="rgb(96,201,96)" stroke-width="3.5999999999999996" /><polyline fill="none" points="120.0,123.0 120.0,129.0" stroke="rgb(109,206,88)" stroke-width="3.5999999999999996" /><polyline fill="none" points="120.0,135.0 120.0,141.0" stroke="rgb(126,210,78)" stroke-width="3.5999999999999996" /><polyline fill="none" points="120.0,147.0 120.0,156.0 123.0,156.0" stroke="rgb(141,214,68)" stroke-width="3.5999999999999996" /><polyline fill="none" points="129.0,156.0 132.0,156.0 132.0,150.0 126.0,150.0 126.0,174.0 150.0,174.0 150.0,135.0" stroke="rgb(157,217,58)" stroke-width="3.5999999999999996" /><polyline fill="none" points="150.0,129.0 150.0,126.0 156.0,126.0 156.0,132.0 108.0,132.0 108.0,126.0 114.0,126.0 114.0,129.0" stroke="rgb(173,220,48)" stroke-width="3.5999999999999996" /><polyline fill="none" points="114.0,135.0 114.0,138.0 102.0,138.0 102.0,120.0 192.0,120.0 192.0,90.0 177.0,90.0" stroke="rgb(191,223,36)" stroke-width="3.5999999999999996" /><polyline fill="none" points="171.0,90.0 123.0,90.0" stroke="rgb(207,225,28)" stroke-width="3.5999999999999996" /><polyline fill="none" points="117.0,90.0 99.0,90.0" stroke="rgb(223,227,24)" stroke-width="3.5999999999999996" /><polyline fill="none" points="93.0,90.0 39.0,90.0" stroke="rgb(238,229,27)" stroke-width="3.5999999999999996" /><polyline fill="none" points="33.0,90.0 30.0,90.0 30.0,84.0 33.0,84.0" stroke="rgb(253,231,36)" stroke-width="3.5999999999999996" /></svg>