<?xml version="1.0" encoding="utf-8" ?>
<svg baseProfile="full" height="294.0" version="1.1" width="306.0" xmlns="http://www.w3.org/2000/svg" xmlns:ev="http://www.w3.org/2001/xml-events" xmlns:xlink="http://www.w3.org/1999/xlink"><defs /><polyline fill="none" points="54.0,81.0 54.0,63.0" stroke="rgb(68,1,84)" stroke-width="3.5999999999999996" /><polyline fill="none" points="54.0,57.0 54.0,51.0" stroke="rgb(69,6,90)" stroke-width="3.5999999999999996" /><polyline fill="none" points="54.0,45.0 54.0,42.0 48.0,42.0 48.0,48.0 66.0,48.0 66.0,54.0 60.0,54.0 60.0,51.0" stroke="rgb(70,14,97)" stroke-width="3.5999999999999996" /><polyline fill="none" points="60.0,45.0 60.0,42.0 72.0,42.0 72.0,60.0 30.0,60.0 30.0,6.0 60.0,6.0 60.0,36.0 45.0,36.0" stroke="rgb(71,20,102)" stroke-width="3.5999999999999996" /><polyline fill="none" points="39.0,36.0 36.0,36.0 36.0,30.0 39.0,30.0" stroke="rgb(72,26,108)" stroke-width="3.5999999999999996" /><polyline fill="none" points="45.0,30.0 54.0,30.0 54.0,12.0 36.0,12.0 36.0,24.0 48.0,24.0 48.0,18.0 42.0,18.0 42.0,21.0" stroke="rgb(72,32,113)" stroke-width="3.5999999999999996" /><polyline fill="none" points="42.0,27.0 42.0,57.0" stroke="rgb(71,38,118)" stroke-width="3.5999999999999996" /><polyline fill="none" points="42.0,63.0 42.0,282.0 24.0,282.0 24.0,264.0 36.0,264.0 36.0,267.0" stroke="rgb(71,44,123)" stroke-width="3.5999999999999996" /><polyline fill="none" points="36.0,273.0 36.0,276.0 30.0,276.0 30.0,270.0 39.0,270.0" stroke="rgb(70,49,126)" stroke-width="3.5999999999999996" /><polyline fill="none" points="45.0,270.0 252.0,270.0 252.0,222.0 225.0,222.0" stroke="rgb(68,55,129)" stroke-width="3.5999999999999996" /><polyline fill="none" points="219.0,222.0 63.0,222.0" stroke="rgb(67,60,132)" stroke-width="3.5999999999999996" /><polyline fill="none" points="57.0,222.0 54.0,222.0 54.0,228.0 60.0,228.0 60.0,195.0" stroke="rgb(65,66,134)" stroke-width="3.5999999999999996" /><polyline fill="none" points="60.0,189.0 60.0,87.0" stroke="rgb(63,71,136)" stroke-width="3.5999999999999996" /><polyline fill="none" points="60.0,81.0 60.0,66.0 300.0,66.0 300.0,288.0 18.0,288.0 18.0,195.0" stroke="rgb(61,76,137)" stroke-width="3.5999999999999996" /><polyline fill="none" points="18.0,189.0 18.0,186.0 6.0,186.0 6.0,180.0 12.0,180.0 12.0,183.0" stroke="rgb(58,82,139)" stroke-width="3.5999999999999996" /><polyline fill="none" points="12.0,189.0 12.0,189.0" stroke="rgb(56,86,139)" stroke-width="3.5999999999999996" /><polyline fill="none" points="12.0,195.0 12.0,198.0 6.0,198.0 6.0,192.0 39.0,192.0" stroke="rgb(54,91,140)" stroke-width="3.5999999999999996" /><polyline fill="none" points="45.0,192.0 150.0,192.0 150.0,198.0 147.0,198.0" stroke="rgb(52,95,141)" stroke-width="3.5999999999999996" /><polyline fill="none" points="141.0,198.0 138.0,198.0 138.0,204.0 144.0,204.0 144.0,195.0" stroke="rgb(49,100,141)" stroke-width="3.5999999999999996" /><polyline fill="none" points="144.0,189.0 144.0,177.0" stroke="rgb(48,104,141)" stroke-width="3.5999999999999996" /><polyline fill="none" points="144.0,171.0 144.0,162.0 168.0,162.0 168.0,204.0 150.0,204.0 150.0,210.0 156.0,210.0 156.0,207.0" stroke="rgb(46,109,142)" stroke-width="3.5999999999999996" /><polyline fill="none" points="156.0,201.0 156.0,177.0" stroke="rgb(44,114,142)" stroke-width="3.5999999999999996" /><polyline fill="none" points="156.0,171.0 156.0,168.0 162.0,168.0 162.0,174.0 108.0,174.0 108.0,132.0 171.0,132.0" stroke="rgb(42,118,142)" stroke-width="3.5999999999999996" /><polyline fill="none" points="177.0,132.0 198.0,132.0 198.0,150.0 180.0,150.0 180.0,138.0 192.0,138.0 192.0,144.0 186.0,144.0 186.0,141.0" stroke="rgb(40,122,142)" stroke-width="3.5999999999999996" /><polyline fill="none" points="186.0,135.0 186.0,135.0" stroke="rgb(39,126,142)" stroke-width="3.5999999999999996" /><polyline fill="none" points="186.0,129.0 186.0,117.0" stroke="rgb(37,131,141)" stroke-width="3.5999999999999996" /><polyline fill="none" points="186.0,111.0 186.0,108.0 180.0,108.0 180.0,114.0 195.0,114.0" stroke="rgb(35,135,141)" stroke-width="3.5999999999999996" /><polyline fill="none" points="201.0,114.0 204.0,114.0 204.0,108.0 201.0,108.0" stroke="rgb(34,139,141)" stroke-width="3.5999999999999996" /><polyline fill="none" points="195.0,108.0 192.0,108.0 192.0,102.0 198.0,102.0 198.0,120.0 210.0,120.0 210.0,96.0 174.0,96.0 174.0,123.0" stroke="rgb(32,144,140)" stroke-width="3.5999999999999996" /><polyline fill="none" points="174.0,129.0 174.0,216.0 96.0,216.0 96.0,195.0" stroke="rgb(31,148,139)" stroke-width="3.5999999999999996" /><polyline fill="none" points="96.0,189.0 96.0,90.0 216.0,90.0 216.0,156.0 177.0,156.0" stroke="rgb(30,153,138)" stroke-width="3.5999999999999996" /><polyline fill="none" points="171.0,156.0 129.0,156.0" stroke="rgb(30,156,137)" stroke-width="3.5999999999999996" /><polyline fill="none" points="123.0,156.0 120.0,156.0 120.0,150.0 126.0,150.0 126.0,162.0 114.0,162.0 114.0,144.0 132.0,144.0 132.0,153.0" stroke="rgb(31,161,135)" stroke-width="3.5999999999999996" /><polyline fill="none" points="132.0,159.0 132.0,171.0" stroke="rgb(32,165,133)" stroke-width="3.5999999999999996" /><polyline fill="none" points="132.0,177.0 132.0,177.0" stroke="rgb(35,169,130)" stroke-width="3.5999999999999996" /><polyline fill="none" points="132.0,183.0 132.0,186.0 138.0,186.0 138.0,180.0 102.0,180.0 102.0,126.0 183.0,126.0" stroke="rgb(40,174,127)" stroke-width="3.5999999999999996" /><polyline fill="none" points="189.0,126.0 213.0,126.0" stroke="rgb(44,177,125)" stroke-width="3.5999999999999996" /><polyline fill="none" points="219.0,126.0 228.0,126.0 228.0,120.0 222.0,120.0 222.0,123.0" stroke="rgb(51,182,121)" stroke-width="3.5999999999999996" /><polyline fill="none" points="222.0,129.0 222.0,228.0 90.0,228.0 90.0,225.0" stroke="rgb(57,185,118)" stroke-width="3.5999999999999996" /><polyline fill="none" points="90.0,219.0 90.0,216.0 84.0,216.0 84.0,219.0" stroke="rgb(66,190,113)" stroke-width="3.5999999999999996" /><polyline fill="none" points="84.0,225.0 84.0,231.0" stroke="rgb(73,193,109)" stroke-width="3.5999999999999996" /><polyline fill="none" points="84.0,237.0 84.0,258.0 66.0,258.0 66.0,240.0 78.0,240.0 78.0,252.0 72.0,252.0 72.0,246.0 75.0,246.0" stroke="rgb(83,197,103)" stroke-width="3.5999999999999996" /><polyline fill="none" points="81.0,246.0 81.0,246.0" stroke="rgb(94,201,97)" stroke-width="3.5999999999999996" /><polyline fill="none" points="87.0,246.0 246.0,246.0 246.0,234.0 60.0,234.0 60.0,264.0 240.0,264.0 240.0,249.0" stroke="rgb(103,204,92)" stroke-width="3.5999999999999996" /><polyline fill="none" points="240.0,243.0 240.0,237.0" stroke="rgb(114,207,85)" stroke-width="3.5999999999999996" /><polyline fill="none" points="240.0,231.0 240.0,225.0" stroke="rgb(124,210,79)" stroke-width="3.5999999999999996" /><polyline fill="none" points="240.0,219.0 240.0,126.0 234.0,126.0 234.0,204.0 237.0,204.0" stroke="rgb(136,213,71)" stroke-width="3.5999999999999996" /><polyline fill="none" points="243.0,204.0 261.0,204.0" stroke="rgb(146,215,65)" stroke-width="3.5999999999999996" /><polyline fill="none" points="267.0,204.0 270.0,204.0 270.0,210.0 264.0,210.0 264.0,192.0 258.0,192.0 258.0,198.0 261.0,198.0" stroke="rgb(159,217,56)" stroke-width="3.5999999999999996" /><polyline fill="none" points="267.0,198.0 273.0,198.0" stroke="rgb(173,220,48)" stroke-width="3.5999999999999996" /><polyline fill="none" points="279.0,198.0 294.0,198.0 294.0,180.0 282.0,180.0 282.0,183.0" stroke="rgb(183,221,41)" stroke-width="3.5999999999999996" /><polyline fill="none" points="282.0,189.0 282.0,192.0 288.0,192.0 288.0,186.0 279.0,186.0" stroke="rgb(197,223,33)" stroke-width="3.5999999999999996" /><polyline fill="none" points="273.0,186.0 252.0,186.0 252.0,201.0" stroke="rgb(207,225,28)" stroke-width="3.5999999999999996" /><polyline fill="none" points="252.0,207.0 252.0,216.0 282.0,216.0 282.0,222.0 276.0,222.0 276.0,219.0" stroke="rgb(220,226,24)" stroke-width="3.5999999999999996" /><polyline fill="none" points="276.0,213.0 276.0,72.0 246.0,72.0 246.0,81.0" stroke="rgb(231,228,25)" stroke-width="3.5999999999999996" /><polyline fill="none" points="246.0,87.0 246.0,126.0 252.0,126.0 252.0,78.0 258.0,78.0 258.0,84.0 255.0,84.0" stroke="rgb(243,229,30)" stroke-width="3.5999999999999996" /><polyline fill="none" points="249.0,84.0 48.0,84.0 48.0,90.0 54.0,90.0 54.0,87.0" stroke="rgb(253,231,36)" stroke-width="3.5999999999999996" /></svg>