<?xml version="1.0" encoding="utf-8" ?>
<svg baseProfile="full" height="78.0" version="1.1" width="114.0" xmlns="http://www.w3.org/2000/svg" xmlns:ev="http://www.w3.org/2001/xml-events" xmlns:xlink="http://www.w3.org/1999/xlink"><defs /><polyline fill="none" points="27.0,30.0 27.0,30.0" stroke="rgb(68,1,84)" stroke-width="3.5999999999999996" /><polyline fill="none" points="33.0,30.0 36.0,30.0 36.0,24.0 30.0,24.0 30.0,33.0" stroke="rgb(71,18,101)" stroke-width="3.5999999999999996" /><polyline fill="none" points="30.0,39.0 30.0,48.0 27.0,48.0" stroke="rgb(72,34,115)" stroke-width="3.5999999999999996" /><polyline fill="none" points="21.0,48.0 15.0,48.0" stroke="rgb(70,49,126)" stroke-width="3.5999999999999996" /><polyline fill="none" points="9.0,48.0 6.0,48.0 6.0,54.0 12.0,54.0 12.0,6.0 72.0,6.0 72.0,18.0 63.0,18.0" stroke="rgb(66,64,133)" stroke-width="3.5999999999999996" /><polyline fill="none" points="57.0,18.0 48.0,18.0 48.0,12.0 54.0,12.0 54.0,15.0" stroke="rgb(60,77,138)" stroke-width="3.5999999999999996" /><polyline fill="none" points="54.0,21.0 54.0,42.0 60.0,42.0 60.0,39.0" stroke="rgb(54,91,140)" stroke-width="3.5999999999999996" /><polyline fill="none" points="60.0,33.0 60.0,12.0 66.0,12.0 66.0,15.0" stroke="rgb(48,103,141)" stroke-width="3.5999999999999996" /><polyline fill="none" points="66.0,21.0 66.0,45.0" stroke="rgb(43,115,142)" stroke-width="3.5999999999999996" /><polyline fill="none" points="66.0,51.0 66.0,54.0 72.0,54.0 72.0,51.0" stroke="rgb(39,126,142)" stroke-width="3.5999999999999996" /><polyline fill="none" points="72.0,45.0 72.0,30.0 84.0,30.0 84.0,72.0 102.0,72.0 102.0,63.0" stroke="rgb(34,137,141)" stroke-width="3.5999999999999996" /><polyline fill="none" points="102.0,57.0 102.0,54.0 108.0,54.0 108.0,60.0 99.0,60.0" stroke="rgb(31,150,139)" stroke-width="3.5999999999999996" /><polyline fill="none" points="93.0,60.0 90.0,60.0 90.0,66.0 96.0,66.0 96.0,51.0" stroke="rgb(31,161,135)" stroke-width="3.5999999999999996" /><polyline fill="none" points="96.0,45.0 96.0,42.0 102.0,42.0 102.0,48.0 87.0,48.0" stroke="rgb(38,172,129)" stroke-width="3.5999999999999996" /><polyline fill="none" points="81.0,48.0 45.0,48.0" stroke="rgb(53,183,120)" stroke-width="3.5999999999999996" /><polyline fill="none" points="39.0,48.0 36.0,48.0 36.0,54.0 42.0,54.0 42.0,18.0 24.0,18.0 24.0,33.0" stroke="rgb(53,183,120)" stroke-width="3.5999999999999996" /><polyline fill="none" points="24.0,39.0 24.0,60.0 78.0,60.0 78.0,51.0" stroke="rgb(100,203,93)" stroke-width="3.5999999999999996" /><polyline fill="none" points="78.0,45.0 78.0,36.0 75.0,36.0" stroke="rgb(129,211,76)" stroke-width="3.5999999999999996" /><polyline fill="none" points="69.0,36.0 69.0,36.0" stroke="rgb(159,217,56)" stroke-width="3.5999999999999996" /><polyline fill="none" points="63.0,36.0 57.0,36.0" stroke="rgb(191,223,36)" stroke-width="3.5999999999999996" /><polyline fill="none" points="51.0,36.0 45.0,36.0" stroke="rgb(223,227,24)" stroke-width="3.5999999999999996" /><polyline fill="none" points="39.0,36.0 18.0,36.0 18.0,30.0 21.0,30.0" stroke="rgb(253,231,36)" stroke-width="3.5999999999999996" /></svg>