<?xml version="1.0" encoding="utf-8" ?>
<svg baseProfile="full" height="132.0" version="1.1" width="156.0" xmlns="http://www.w3.org/2000/svg" xmlns:ev="http://www.w3.org/2001/xml-events" xmlns:xlink="http://www.w3.org/1999/xlink"><defs /><polyline fill="none" points="24.0,57.0 24.0,54.0 12.0,54.0 12.0,126.0 6.0,126.0 6.0,120.0 9.0,120.0" stroke="rgb(68,1,84)" stroke-width="3.5999999999999996" /><polyline fill="none" points="15.0,120.0 57.0,120.0" stroke="rgb(71,17,99)" stroke-width="3.5999999999999996" /><polyline fill="none" points="63.0,120.0 66.0,120.0 66.0,126.0 60.0,126.0 60.0,24.0 150.0,24.0 150.0,126.0 78.0,126.0 78.0,75.0" stroke="rgb(72,32,113)" stroke-width="3.5999999999999996" /><polyline fill="none" points="78.0,69.0 78.0,66.0 114.0,66.0 114.0,75.0" stroke="rgb(70,45,124)" stroke-width="3.5999999999999996" /><polyline fill="none" points="114.0,81.0 114.0,96.0 111.0,96.0" stroke="rgb(67,59,131)" stroke-width="3.5999999999999996" /><polyline fill="none" points="105.0,96.0 99.0,96.0" stroke="rgb(62,72,136)" stroke-width="3.5999999999999996" /><polyline fill="none" points="93.0,96.0 90.0,96.0 90.0,102.0 96.0,102.0 96.0,72.0 63.0,72.0" stroke="rgb(57,84,139)" stroke-width="3.5999999999999996" /><polyline fill="none" points="57.0,72.0 42.0,72.0 42.0,63.0" stroke="rgb(52,95,141)" stroke-width="3.5999999999999996" /><polyline fill="none" points="42.0,57.0 42.0,39.0" stroke="rgb(46,107,142)" stroke-width="3.5999999999999996" /><polyline fill="none" points="42.0,33.0 42.0,12.0 36.0,12.0 36.0,18.0 39.0,18.0" stroke="rgb(42,118,142)" stroke-width="3.5999999999999996" /><polyline fill="none" points="45.0,18.0 48.0,18.0 48.0,6.0 30.0,6.0 30.0,36.0 57.0,36.0" stroke="rgb(38,128,142)" stroke-width="3.5999999999999996" /><polyline fill="none" points="63.0,36.0 135.0,36.0" stroke="rgb(34,138,141)" stroke-width="3.5999999999999996" /><polyline fill="none" points="141.0,36.0 144.0,36.0 144.0,30.0 138.0,30.0 138.0,111.0" stroke="rgb(31,149,139)" stroke-width="3.5999999999999996" /><polyline fill="none" points="138.0,117.0 138.0,120.0 132.0,120.0 132.0,114.0 144.0,114.0 144.0,78.0 141.0,78.0" stroke="rgb(30,159,136)" stroke-width="3.5999999999999996" /><polyline fill="none" points="135.0,78.0 99.0,78.0" stroke="rgb(35,169,130)" stroke-width="3.5999999999999996" /><polyline fill="none" points="93.0,78.0 84.0,78.0 84.0,108.0 108.0,108.0 108.0,84.0 102.0,84.0 102.0,90.0 105.0,90.0" stroke="rgb(47,179,123)" stroke-width="3.5999999999999996" /><polyline fill="none" points="111.0,90.0 111.0,90.0" stroke="rgb(66,190,113)" stroke-width="3.5999999999999996" /><polyline fill="none" points="117.0,90.0 120.0,90.0 120.0,114.0 81.0,114.0" stroke="rgb(87,198,101)" stroke-width="3.5999999999999996" /><polyline fill="none" points="75.0,114.0 72.0,114.0 72.0,75.0" stroke="rgb(112,206,86)" stroke-width="3.5999999999999996" /><polyline fill="none" points="72.0,69.0 72.0,57.0" stroke="rgb(139,213,70)" stroke-width="3.5999999999999996" /><polyline fill="none" points="72.0,51.0 72.0,42.0 132.0,42.0 132.0,66.0 120.0,66.0 120.0,48.0 126.0,48.0 126.0,54.0 123.0,54.0" stroke="rgb(167,219,51)" stroke-width="3.5999999999999996" /><polyline fill="none" points="117.0,54.0 63.0,54.0" stroke="rgb(197,223,33)" stroke-width="3.5999999999999996" /><polyline fill="none" points="57.0,54.0 48.0,54.0 48.0,66.0 54.0,66.0 54.0,60.0 51.0,60.0" stroke="rgb(225,227,24)" stroke-width="3.5999999999999996" /><polyline fill="none" points="45.0,60.0 18.0,60.0 18.0,66.0 24.0,66.0 24.0,63.0" stroke="rgb(253,231,36)" stroke-width="3.5999999999999996" /></svg>