<?xml version="1.0" encoding="utf-8" ?>
<svg baseProfile="full" height="114.0" version="1.1" width="120.0" xmlns="http://www.w3.org/2000/svg" xmlns:ev="http://www.w3.org/2001/xml-events" xmlns:xlink="http://www.w3.org/1999/xlink"><defs /><polyline fill="none" points="36.0,69.0 36.0,36.0 108.0,36.0 108.0,42.0 102.0,42.0 102.0,39.0" stroke="rgb(68,1,84)" stroke-width="3.5999999999999996" /><polyline fill="none" points="102.0,33.0 102.0,24.0 96.0,24.0 96.0,30.0 99.0,30.0" stroke="rgb(71,21,103)" stroke-width="3.5999999999999996" /><polyline fill="none" points="105.0,30.0 108.0,30.0 108.0,18.0 90.0,18.0 90.0,33.0" stroke="rgb(71,39,119)" stroke-width="3.5999999999999996" /><polyline fill="none" points="90.0,39.0 90.0,99.0" stroke="rgb(68,57,130)" stroke-width="3.5999999999999996" /><polyline fill="none" points="90.0,105.0 90.0,108.0 12.0,108.0 12.0,96.0 6.0,96.0 6.0,102.0 9.0,102.0" stroke="rgb(62,73,137)" stroke-width="3.5999999999999996" /><polyline fill="none" points="15.0,102.0 114.0,102.0 114.0,6.0 60.0,6.0 60.0,15.0" stroke="rgb(55,89,140)" stroke-width="3.5999999999999996" /><polyline fill="none" points="60.0,21.0 60.0,33.0" stroke="rgb(48,103,141)" stroke-width="3.5999999999999996" /><polyline fill="none" points="60.0,39.0 60.0,45.0" stroke="rgb(42,117,142)" stroke-width="3.5999999999999996" /><polyline fill="none" points="60.0,51.0 60.0,60.0 51.0,60.0" stroke="rgb(37,130,142)" stroke-width="3.5999999999999996" /><polyline fill="none" points="45.0,60.0 42.0,60.0 42.0,54.0 48.0,54.0 48.0,66.0 39.0,66.0" stroke="rgb(32,144,140)" stroke-width="3.5999999999999996" /><polyline fill="none" points="33.0,66.0 24.0,66.0 24.0,84.0 51.0,84.0" stroke="rgb(30,157,136)" stroke-width="3.5999999999999996" /><polyline fill="none" points="57.0,84.0 78.0,84.0 78.0,39.0" stroke="rgb(36,170,130)" stroke-width="3.5999999999999996" /><polyline fill="none" points="78.0,33.0 78.0,12.0 84.0,12.0 84.0,18.0 81.0,18.0" stroke="rgb(53,183,120)" stroke-width="3.5999999999999996" /><polyline fill="none" points="75.0,18.0 18.0,18.0 18.0,90.0 51.0,90.0" stroke="rgb(77,194,107)" stroke-width="3.5999999999999996" /><polyline fill="none" points="57.0,90.0 60.0,90.0 60.0,96.0 54.0,96.0 54.0,63.0" stroke="rgb(109,206,88)" stroke-width="3.5999999999999996" /><polyline fill="none" points="54.0,57.0 54.0,42.0 48.0,42.0 48.0,48.0 51.0,48.0" stroke="rgb(144,214,67)" stroke-width="3.5999999999999996" /><polyline fill="none" points="57.0,48.0 72.0,48.0 72.0,78.0 60.0,78.0 60.0,75.0" stroke="rgb(181,221,43)" stroke-width="3.5999999999999996" /><polyline fill="none" points="60.0,69.0 60.0,66.0 66.0,66.0 66.0,72.0 57.0,72.0" stroke="rgb(218,226,24)" stroke-width="3.5999999999999996" /><polyline fill="none" points="51.0,72.0 30.0,72.0 30.0,78.0 36.0,78.0 36.0,75.0" stroke="rgb(253,231,36)" stroke-width="3.5999999999999996" /></svg>