<?xml version="1.0" encoding="utf-8" ?>
<svg baseProfile="full" height="330.0" version="1.1" width="348.0" xmlns="http://www.w3.org/2000/svg" xmlns:ev="http://www.w3.org/2001/xml-events" xmlns:xlink="http://www.w3.org/1999/xlink"><defs /><polyline fill="none" points="66.0,243.0 66.0,243.0" stroke="rgb(68,1,84)" stroke-width="3.5999999999999996" /><polyline fill="none" points="66.0,237.0 66.0,234.0 72.0,234.0 72.0,240.0 54.0,240.0 54.0,258.0 78.0,258.0 78.0,231.0" stroke="rgb(69,6,90)" stroke-width="3.5999999999999996" /><polyline fill="none" points="78.0,225.0 78.0,210.0 111.0,210.0" stroke="rgb(70,12,95)" stroke-width="3.5999999999999996" /><polyline fill="none" points="117.0,210.0 126.0,210.0 126.0,264.0 48.0,264.0 48.0,180.0 129.0,180.0" stroke="rgb(71,18,101)" stroke-width="3.5999999999999996" /><polyline fill="none" points="135.0,180.0 144.0,180.0 144.0,141.0" stroke="rgb(71,24,106)" stroke-width="3.5999999999999996" /><polyline fill="none" points="144.0,135.0 144.0,132.0 150.0,132.0 150.0,138.0 138.0,138.0 138.0,126.0 228.0,126.0 228.0,150.0 150.0,150.0 150.0,144.0 222.0,144.0 222.0,147.0" stroke="rgb(72,29,111)" stroke-width="3.5999999999999996" /><polyline fill="none" points="222.0,153.0 222.0,174.0 240.0,174.0 240.0,159.0" stroke="rgb(72,34,115)" stroke-width="3.5999999999999996" /><polyline fill="none" points="240.0,153.0 240.0,129.0" stroke="rgb(71,39,119)" stroke-width="3.5999999999999996" /><polyline fill="none" points="240.0,123.0 240.0,120.0 234.0,120.0 234.0,126.0 270.0,126.0 270.0,117.0" stroke="rgb(71,44,123)" stroke-width="3.5999999999999996" /><polyline fill="none" points="270.0,111.0 270.0,84.0 276.0,84.0 276.0,90.0 273.0,90.0" stroke="rgb(70,49,126)" stroke-width="3.5999999999999996" /><polyline fill="none" points="267.0,90.0 264.0,90.0 264.0,78.0 288.0,78.0 288.0,108.0 276.0,108.0 276.0,102.0 282.0,102.0 282.0,105.0" stroke="rgb(69,54,129)" stroke-width="3.5999999999999996" /><polyline fill="none" points="282.0,111.0 282.0,120.0 288.0,120.0 288.0,114.0 285.0,114.0" stroke="rgb(67,59,131)" stroke-width="3.5999999999999996" /><polyline fill="none" points="279.0,114.0 126.0,114.0 126.0,96.0 267.0,96.0" stroke="rgb(66,64,133)" stroke-width="3.5999999999999996" /><polyline fill="none" points="273.0,96.0 285.0,96.0" stroke="rgb(64,68,135)" stroke-width="3.5999999999999996" /><polyline fill="none" points="291.0,96.0 318.0,96.0 318.0,36.0 264.0,36.0 264.0,60.0 279.0,60.0" stroke="rgb(62,73,137)" stroke-width="3.5999999999999996" /><polyline fill="none" points="285.0,60.0 288.0,60.0 288.0,66.0 282.0,66.0 282.0,42.0 276.0,42.0 276.0,45.0" stroke="rgb(60,77,138)" stroke-width="3.5999999999999996" /><polyline fill="none" points="276.0,51.0 276.0,54.0 270.0,54.0 270.0,48.0 279.0,48.0" stroke="rgb(58,82,139)" stroke-width="3.5999999999999996" /><polyline fill="none" points="285.0,48.0 303.0,48.0" stroke="rgb(56,86,139)" stroke-width="3.5999999999999996" /><polyline fill="none" points="309.0,48.0 312.0,48.0 312.0,72.0 306.0,72.0 306.0,42.0 294.0,42.0 294.0,45.0" stroke="rgb(54,90,140)" stroke-width="3.5999999999999996" /><polyline fill="none" points="294.0,51.0 294.0,69.0" stroke="rgb(52,94,141)" stroke-width="3.5999999999999996" /><polyline fill="none" points="294.0,75.0 294.0,78.0 300.0,78.0 300.0,72.0 261.0,72.0" stroke="rgb(50,98,141)" stroke-width="3.5999999999999996" /><polyline fill="none" points="255.0,72.0 90.0,72.0 90.0,177.0" stroke="rgb(49,102,141)" stroke-width="3.5999999999999996" /><polyline fill="none" points="90.0,183.0 90.0,207.0" stroke="rgb(47,106,141)" stroke-width="3.5999999999999996" /><polyline fill="none" points="90.0,213.0 90.0,213.0" stroke="rgb(45,110,142)" stroke-width="3.5999999999999996" /><polyline fill="none" points="90.0,219.0 90.0,222.0 84.0,222.0 84.0,216.0 96.0,216.0 96.0,228.0 51.0,228.0" stroke="rgb(44,114,142)" stroke-width="3.5999999999999996" /><polyline fill="none" points="45.0,228.0 45.0,228.0" stroke="rgb(42,118,142)" stroke-width="3.5999999999999996" /><polyline fill="none" points="39.0,228.0 27.0,228.0" stroke="rgb(40,122,142)" stroke-width="3.5999999999999996" /><polyline fill="none" points="21.0,228.0 12.0,228.0 12.0,222.0 18.0,222.0 18.0,225.0" stroke="rgb(39,125,142)" stroke-width="3.5999999999999996" /><polyline fill="none" points="18.0,231.0 18.0,303.0" stroke="rgb(38,129,142)" stroke-width="3.5999999999999996" /><polyline fill="none" points="18.0,309.0 18.0,318.0 12.0,318.0 12.0,312.0 15.0,312.0" stroke="rgb(36,133,141)" stroke-width="3.5999999999999996" /><polyline fill="none" points="21.0,312.0 207.0,312.0" stroke="rgb(35,137,141)" stroke-width="3.5999999999999996" /><polyline fill="none" points="213.0,312.0 252.0,312.0 252.0,318.0 246.0,318.0 246.0,315.0" stroke="rgb(33,140,141)" stroke-width="3.5999999999999996" /><polyline fill="none" points="246.0,309.0 246.0,156.0 225.0,156.0" stroke="rgb(32,144,140)" stroke-width="3.5999999999999996" /><polyline fill="none" points="219.0,156.0 147.0,156.0" stroke="rgb(31,148,139)" stroke-width="3.5999999999999996" /><polyline fill="none" points="141.0,156.0 111.0,156.0" stroke="rgb(30,152,138)" stroke-width="3.5999999999999996" /><polyline fill="none" points="105.0,156.0 102.0,156.0 102.0,114.0 108.0,114.0 108.0,162.0 96.0,162.0 96.0,90.0 132.0,90.0 132.0,93.0" stroke="rgb(30,155,137)" stroke-width="3.5999999999999996" /><polyline fill="none" points="132.0,99.0 132.0,111.0" stroke="rgb(30,159,136)" stroke-width="3.5999999999999996" /><polyline fill="none" points="132.0,117.0 132.0,153.0" stroke="rgb(31,163,134)" stroke-width="3.5999999999999996" /><polyline fill="none" points="132.0,159.0 132.0,267.0" stroke="rgb(33,167,132)" stroke-width="3.5999999999999996" /><polyline fill="none" points="132.0,273.0 132.0,300.0 168.0,300.0 168.0,294.0 135.0,294.0" stroke="rgb(36,170,130)" stroke-width="3.5999999999999996" /><polyline fill="none" points="129.0,294.0 42.0,294.0 42.0,273.0" stroke="rgb(40,174,127)" stroke-width="3.5999999999999996" /><polyline fill="none" points="42.0,267.0 42.0,222.0 24.0,222.0 24.0,276.0 36.0,276.0 36.0,273.0" stroke="rgb(44,177,125)" stroke-width="3.5999999999999996" /><polyline fill="none" points="36.0,267.0 36.0,264.0 30.0,264.0 30.0,270.0 183.0,270.0" stroke="rgb(50,181,122)" stroke-width="3.5999999999999996" /><polyline fill="none" points="189.0,270.0 198.0,270.0 198.0,252.0 180.0,252.0 180.0,264.0 192.0,264.0 192.0,258.0 186.0,258.0 186.0,261.0" stroke="rgb(56,185,118)" stroke-width="3.5999999999999996" /><polyline fill="none" points="186.0,267.0 186.0,279.0" stroke="rgb(62,188,115)" stroke-width="3.5999999999999996" /><polyline fill="none" points="186.0,285.0 186.0,288.0 192.0,288.0 192.0,282.0 174.0,282.0 174.0,276.0 180.0,276.0 180.0,279.0" stroke="rgb(69,191,111)" stroke-width="3.5999999999999996" /><polyline fill="none" points="180.0,285.0 180.0,288.0 168.0,288.0 168.0,273.0" stroke="rgb(77,194,107)" stroke-width="3.5999999999999996" /><polyline fill="none" points="168.0,267.0 168.0,162.0 210.0,162.0 210.0,168.0 171.0,168.0" stroke="rgb(85,198,102)" stroke-width="3.5999999999999996" /><polyline fill="none" points="165.0,168.0 150.0,168.0 150.0,186.0 162.0,186.0 162.0,174.0 156.0,174.0 156.0,180.0 159.0,180.0" stroke="rgb(94,201,97)" stroke-width="3.5999999999999996" /><polyline fill="none" points="165.0,180.0 165.0,180.0" stroke="rgb(103,204,92)" stroke-width="3.5999999999999996" /><polyline fill="none" points="171.0,180.0 207.0,180.0" stroke="rgb(112,206,86)" stroke-width="3.5999999999999996" /><polyline fill="none" points="213.0,180.0 216.0,180.0 216.0,174.0 210.0,174.0 210.0,324.0 258.0,324.0 258.0,129.0" stroke="rgb(121,209,81)" stroke-width="3.5999999999999996" /><polyline fill="none" points="258.0,123.0 258.0,117.0" stroke="rgb(131,211,75)" stroke-width="3.5999999999999996" /><polyline fill="none" points="258.0,111.0 258.0,99.0" stroke="rgb(141,214,68)" stroke-width="3.5999999999999996" /><polyline fill="none" points="258.0,93.0 258.0,6.0 342.0,6.0 342.0,36.0 324.0,36.0 324.0,18.0 330.0,18.0 330.0,24.0 327.0,24.0" stroke="rgb(151,216,62)" stroke-width="3.5999999999999996" /><polyline fill="none" points="321.0,24.0 318.0,24.0 318.0,12.0 336.0,12.0 336.0,30.0 327.0,30.0" stroke="rgb(162,218,55)" stroke-width="3.5999999999999996" /><polyline fill="none" points="321.0,30.0 261.0,30.0" stroke="rgb(173,220,48)" stroke-width="3.5999999999999996" /><polyline fill="none" points="255.0,30.0 6.0,30.0 6.0,306.0 204.0,306.0 204.0,192.0 171.0,192.0" stroke="rgb(183,221,41)" stroke-width="3.5999999999999996" /><polyline fill="none" points="165.0,192.0 144.0,192.0 144.0,195.0" stroke="rgb(194,223,34)" stroke-width="3.5999999999999996" /><polyline fill="none" points="144.0,201.0 144.0,204.0 150.0,204.0 150.0,198.0 135.0,198.0" stroke="rgb(205,224,29)" stroke-width="3.5999999999999996" /><polyline fill="none" points="129.0,198.0 102.0,198.0 102.0,192.0 108.0,192.0 108.0,195.0" stroke="rgb(215,226,25)" stroke-width="3.5999999999999996" /><polyline fill="none" points="108.0,201.0 108.0,204.0 96.0,204.0 96.0,186.0 114.0,186.0 114.0,195.0" stroke="rgb(225,227,24)" stroke-width="3.5999999999999996" /><polyline fill="none" points="114.0,201.0 114.0,252.0 120.0,252.0 120.0,246.0 117.0,246.0" stroke="rgb(236,228,26)" stroke-width="3.5999999999999996" /><polyline fill="none" points="111.0,246.0 81.0,246.0" stroke="rgb(246,230,31)" stroke-width="3.5999999999999996" /><polyline fill="none" points="75.0,246.0 60.0,246.0 60.0,252.0 66.0,252.0 66.0,249.0" stroke="rgb(253,231,36)" stroke-width="3.5999999999999996" /></svg>