<?xml version="1.0" encoding="utf-8" ?>
<svg baseProfile="full" height="108.0" version="1.1" width="114.0" xmlns="http://www.w3.org/2000/svg" xmlns:ev="http://www.w3.org/2001/xml-events" xmlns:xlink="http://www.w3.org/1999/xlink"><defs /><polyline fill="none" points="39.0,36.0 42.0,36.0 42.0,30.0 36.0,30.0 36.0,57.0" stroke="rgb(68,1,84)" stroke-width="3.5999999999999996" /><polyline fill="none" points="36.0,63.0 36.0,72.0 42.0,72.0 42.0,66.0 39.0,66.0" stroke="rgb(71,21,103)" stroke-width="3.5999999999999996" /><polyline fill="none" points="33.0,66.0 30.0,66.0 30.0,78.0 54.0,78.0 54.0,42.0 72.0,42.0 72.0,54.0 69.0,54.0" stroke="rgb(71,39,119)" stroke-width="3.5999999999999996" /><polyline fill="none" points="63.0,54.0 60.0,54.0 60.0,48.0 66.0,48.0 66.0,90.0 24.0,90.0 24.0,84.0 30.0,84.0 30.0,87.0" stroke="rgb(68,57,130)" stroke-width="3.5999999999999996" /><polyline fill="none" points="30.0,93.0 30.0,102.0 12.0,102.0 12.0,39.0" stroke="rgb(62,73,137)" stroke-width="3.5999999999999996" /><polyline fill="none" points="12.0,33.0 12.0,12.0 78.0,12.0 78.0,15.0" stroke="rgb(55,89,140)" stroke-width="3.5999999999999996" /><polyline fill="none" points="78.0,21.0 78.0,102.0 84.0,102.0 84.0,96.0 81.0,96.0" stroke="rgb(48,103,141)" stroke-width="3.5999999999999996" /><polyline fill="none" points="75.0,96.0 33.0,96.0" stroke="rgb(42,117,142)" stroke-width="3.5999999999999996" /><polyline fill="none" points="27.0,96.0 18.0,96.0 18.0,39.0" stroke="rgb(37,130,142)" stroke-width="3.5999999999999996" /><polyline fill="none" points="18.0,33.0 18.0,24.0 48.0,24.0 48.0,42.0 39.0,42.0" stroke="rgb(32,144,140)" stroke-width="3.5999999999999996" /><polyline fill="none" points="33.0,42.0 30.0,42.0 30.0,60.0 51.0,60.0" stroke="rgb(30,157,136)" stroke-width="3.5999999999999996" /><polyline fill="none" points="57.0,60.0 63.0,60.0" stroke="rgb(36,170,130)" stroke-width="3.5999999999999996" /><polyline fill="none" points="69.0,60.0 75.0,60.0" stroke="rgb(53,183,120)" stroke-width="3.5999999999999996" /><polyline fill="none" points="81.0,60.0 108.0,60.0 108.0,24.0 84.0,24.0 84.0,42.0 102.0,42.0 102.0,30.0 90.0,30.0 90.0,36.0 96.0,36.0 96.0,33.0" stroke="rgb(77,194,107)" stroke-width="3.5999999999999996" /><polyline fill="none" points="96.0,27.0 96.0,27.0" stroke="rgb(109,206,88)" stroke-width="3.5999999999999996" /><polyline fill="none" points="96.0,21.0 96.0,6.0 90.0,6.0 90.0,12.0 93.0,12.0" stroke="rgb(144,214,67)" stroke-width="3.5999999999999996" /><polyline fill="none" points="99.0,12.0 102.0,12.0 102.0,18.0 99.0,18.0" stroke="rgb(181,221,43)" stroke-width="3.5999999999999996" /><polyline fill="none" points="93.0,18.0 15.0,18.0" stroke="rgb(218,226,24)" stroke-width="3.5999999999999996" /><polyline fill="none" points="9.0,18.0 6.0,18.0 6.0,36.0 33.0,36.0" stroke="rgb(253,231,36)" stroke-width="3.5999999999999996" /></svg>