<?xml version="1.0" encoding="utf-8" ?>
<svg baseProfile="full" height="72.0" version="1.1" width="96.0" xmlns="http://www.w3.org/2000/svg" xmlns:ev="http://www.w3.org/2001/xml-events" xmlns:xlink="http://www.w3.org/1999/xlink"><defs /><polyline fill="none" points="39.0,42.0 39.0,42.0" stroke="rgb(68,1,84)" stroke-width="3.5999999999999996" /><polyline fill="none" points="45.0,42.0 45.0,42.0" stroke="rgb(72,28,110)" stroke-width="3.5999999999999996" /><polyline fill="none" points="51.0,42.0 75.0,42.0" stroke="rgb(69,53,128)" stroke-width="3.5999999999999996" /><polyline fill="none" points="81.0,42.0 84.0,42.0 84.0,36.0 78.0,36.0 78.0,48.0 90.0,48.0 90.0,30.0 54.0,30.0 54.0,39.0" stroke="rgb(61,76,137)" stroke-width="3.5999999999999996" /><polyline fill="none" points="54.0,45.0 54.0,51.0" stroke="rgb(51,96,141)" stroke-width="3.5999999999999996" /><polyline fill="none" points="54.0,57.0 54.0,66.0 72.0,66.0 72.0,48.0 60.0,48.0 60.0,51.0" stroke="rgb(43,116,142)" stroke-width="3.5999999999999996" /><polyline fill="none" points="60.0,57.0 60.0,60.0 66.0,60.0 66.0,54.0 48.0,54.0 48.0,21.0" stroke="rgb(35,135,141)" stroke-width="3.5999999999999996" /><polyline fill="none" points="48.0,15.0 48.0,6.0 6.0,6.0 6.0,54.0 42.0,54.0 42.0,21.0" stroke="rgb(30,153,138)" stroke-width="3.5999999999999996" /><polyline fill="none" points="42.0,15.0 42.0,12.0 12.0,12.0 12.0,48.0 36.0,48.0 36.0,27.0" stroke="rgb(37,171,129)" stroke-width="3.5999999999999996" /><polyline fill="none" points="36.0,21.0 36.0,18.0 54.0,18.0 54.0,24.0 51.0,24.0" stroke="rgb(64,189,114)" stroke-width="3.5999999999999996" /><polyline fill="none" points="45.0,24.0 45.0,24.0" stroke="rgb(103,204,92)" stroke-width="3.5999999999999996" /><polyline fill="none" points="39.0,24.0 27.0,24.0" stroke="rgb(151,216,62)" stroke-width="3.5999999999999996" /><polyline fill="none" points="21.0,24.0 18.0,24.0 18.0,18.0 24.0,18.0 24.0,27.0" stroke="rgb(205,224,29)" stroke-width="3.5999999999999996" /><polyline fill="none" points="24.0,33.0 24.0,36.0 30.0,36.0 30.0,30.0 18.0,30.0 18.0,42.0 33.0,42.0" stroke="rgb(253,231,36)" stroke-width="3.5999999999999996" /></svg>