<?xml version="1.0" encoding="utf-8" ?>
<svg baseProfile="full" height="102.0" version="1.1" width="126.0" xmlns="http://www.w3.org/2000/svg" xmlns:ev="http://www.w3.org/2001/xml-events" xmlns:xlink="http://www.w3.org/1999/xlink"><defs /><polyline fill="none" points="48.0,75.0 48.0,51.0" stroke="rgb(68,1,84)" stroke-width="3.5999999999999996" /><polyline fill="none" points="48.0,45.0 48.0,39.0" stroke="rgb(71,20,102)" stroke-width="3.5999999999999996" /><polyline fill="none" points="48.0,33.0 48.0,30.0 42.0,30.0 42.0,36.0 108.0,36.0 108.0,24.0 102.0,24.0 102.0,33.0" stroke="rgb(71,37,117)" stroke-width="3.5999999999999996" /><polyline fill="none" points="102.0,39.0 102.0,45.0" stroke="rgb(69,54,129)" stroke-width="3.5999999999999996" /><polyline fill="none" points="102.0,51.0 102.0,60.0 84.0,60.0 84.0,42.0 90.0,42.0 90.0,48.0 87.0,48.0" stroke="rgb(63,69,135)" stroke-width="3.5999999999999996" /><polyline fill="none" points="81.0,48.0 12.0,48.0 12.0,42.0 15.0,42.0" stroke="rgb(57,85,139)" stroke-width="3.5999999999999996" /><polyline fill="none" points="21.0,42.0 24.0,42.0 24.0,30.0 30.0,30.0 30.0,36.0 27.0,36.0" stroke="rgb(50,98,141)" stroke-width="3.5999999999999996" /><polyline fill="none" points="21.0,36.0 6.0,36.0 6.0,84.0 42.0,84.0 42.0,81.0" stroke="rgb(44,112,142)" stroke-width="3.5999999999999996" /><polyline fill="none" points="42.0,75.0 42.0,66.0 39.0,66.0" stroke="rgb(39,124,142)" stroke-width="3.5999999999999996" /><polyline fill="none" points="33.0,66.0 30.0,66.0 30.0,72.0 36.0,72.0 36.0,51.0" stroke="rgb(34,137,141)" stroke-width="3.5999999999999996" /><polyline fill="none" points="36.0,45.0 36.0,18.0 42.0,18.0 42.0,24.0 39.0,24.0" stroke="rgb(31,150,139)" stroke-width="3.5999999999999996" /><polyline fill="none" points="33.0,24.0 12.0,24.0 12.0,6.0 120.0,6.0 120.0,54.0 105.0,54.0" stroke="rgb(31,163,134)" stroke-width="3.5999999999999996" /><polyline fill="none" points="99.0,54.0 96.0,54.0 96.0,48.0 114.0,48.0 114.0,12.0 18.0,12.0 18.0,21.0" stroke="rgb(41,175,127)" stroke-width="3.5999999999999996" /><polyline fill="none" points="18.0,27.0 18.0,33.0" stroke="rgb(61,187,116)" stroke-width="3.5999999999999996" /><polyline fill="none" points="18.0,39.0 18.0,45.0" stroke="rgb(85,198,102)" stroke-width="3.5999999999999996" /><polyline fill="none" points="18.0,51.0 18.0,78.0 72.0,78.0 72.0,84.0 66.0,84.0 66.0,81.0" stroke="rgb(116,208,84)" stroke-width="3.5999999999999996" /><polyline fill="none" points="66.0,75.0 66.0,60.0 72.0,60.0 72.0,66.0 69.0,66.0" stroke="rgb(149,215,63)" stroke-width="3.5999999999999996" /><polyline fill="none" points="63.0,66.0 54.0,66.0 54.0,72.0 60.0,72.0 60.0,69.0" stroke="rgb(186,222,39)" stroke-width="3.5999999999999996" /><polyline fill="none" points="60.0,63.0 60.0,54.0 78.0,54.0 78.0,90.0 51.0,90.0" stroke="rgb(220,226,24)" stroke-width="3.5999999999999996" /><polyline fill="none" points="45.0,90.0 42.0,90.0 42.0,96.0 48.0,96.0 48.0,81.0" stroke="rgb(253,231,36)" stroke-width="3.5999999999999996" /></svg>