<?xml version="1.0" encoding="utf-8" ?>
<svg baseProfile="full" height="276.0" version="1.1" width="294.0" xmlns="http://www.w3.org/2000/svg" xmlns:ev="http://www.w3.org/2001/xml-events" xmlns:xlink="http://www.w3.org/1999/xlink"><defs /><polyline fill="none" points="222.0,243.0 222.0,240.0 216.0,240.0 216.0,246.0 246.0,246.0 246.0,270.0 198.0,270.0 198.0,267.0" stroke="rgb(68,1,84)" stroke-width="3.5999999999999996" /><polyline fill="none" points="198.0,261.0 198.0,225.0" stroke="rgb(69,6,90)" stroke-width="3.5999999999999996" /><polyline fill="none" points="198.0,219.0 198.0,204.0 264.0,204.0 264.0,240.0 267.0,240.0" stroke="rgb(70,14,97)" stroke-width="3.5999999999999996" /><polyline fill="none" points="273.0,240.0 288.0,240.0 288.0,198.0 192.0,198.0 192.0,216.0 195.0,216.0" stroke="rgb(71,20,102)" stroke-width="3.5999999999999996" /><polyline fill="none" points="201.0,216.0 201.0,216.0" stroke="rgb(72,26,108)" stroke-width="3.5999999999999996" /><polyline fill="none" points="207.0,216.0 210.0,216.0 210.0,210.0 204.0,210.0 204.0,258.0 243.0,258.0" stroke="rgb(72,32,113)" stroke-width="3.5999999999999996" /><polyline fill="none" points="249.0,258.0 252.0,258.0 252.0,261.0" stroke="rgb(71,38,118)" stroke-width="3.5999999999999996" /><polyline fill="none" points="252.0,267.0 252.0,270.0 258.0,270.0 258.0,264.0 249.0,264.0" stroke="rgb(71,44,123)" stroke-width="3.5999999999999996" /><polyline fill="none" points="243.0,264.0 15.0,264.0" stroke="rgb(70,49,126)" stroke-width="3.5999999999999996" /><polyline fill="none" points="9.0,264.0 6.0,264.0 6.0,258.0 12.0,258.0 12.0,270.0 186.0,270.0 186.0,267.0" stroke="rgb(68,55,129)" stroke-width="3.5999999999999996" /><polyline fill="none" points="186.0,261.0 186.0,225.0" stroke="rgb(67,60,132)" stroke-width="3.5999999999999996" /><polyline fill="none" points="186.0,219.0 186.0,186.0 180.0,186.0 180.0,192.0 183.0,192.0" stroke="rgb(65,66,134)" stroke-width="3.5999999999999996" /><polyline fill="none" points="189.0,192.0 192.0,192.0 192.0,6.0 18.0,6.0 18.0,180.0 51.0,180.0" stroke="rgb(63,71,136)" stroke-width="3.5999999999999996" /><polyline fill="none" points="57.0,180.0 87.0,180.0" stroke="rgb(61,76,137)" stroke-width="3.5999999999999996" /><polyline fill="none" points="93.0,180.0 120.0,180.0 120.0,171.0" stroke="rgb(58,82,139)" stroke-width="3.5999999999999996" /><polyline fill="none" points="120.0,165.0 120.0,150.0 126.0,150.0 126.0,156.0 123.0,156.0" stroke="rgb(56,86,139)" stroke-width="3.5999999999999996" /><polyline fill="none" points="117.0,156.0 111.0,156.0" stroke="rgb(54,91,140)" stroke-width="3.5999999999999996" /><polyline fill="none" points="105.0,156.0 102.0,156.0 102.0,153.0" stroke="rgb(52,95,141)" stroke-width="3.5999999999999996" /><polyline fill="none" points="102.0,147.0 102.0,36.0 168.0,36.0 168.0,162.0 147.0,162.0" stroke="rgb(49,100,141)" stroke-width="3.5999999999999996" /><polyline fill="none" points="141.0,162.0 132.0,162.0 132.0,156.0 138.0,156.0 138.0,159.0" stroke="rgb(48,104,141)" stroke-width="3.5999999999999996" /><polyline fill="none" points="138.0,165.0 138.0,168.0 117.0,168.0" stroke="rgb(46,109,142)" stroke-width="3.5999999999999996" /><polyline fill="none" points="111.0,168.0 66.0,168.0 66.0,138.0 78.0,138.0 78.0,144.0 72.0,144.0 72.0,141.0" stroke="rgb(44,114,142)" stroke-width="3.5999999999999996" /><polyline fill="none" points="72.0,135.0 72.0,102.0 78.0,102.0 78.0,108.0 75.0,108.0" stroke="rgb(42,118,142)" stroke-width="3.5999999999999996" /><polyline fill="none" points="69.0,108.0 36.0,108.0 36.0,114.0 42.0,114.0 42.0,111.0" stroke="rgb(40,122,142)" stroke-width="3.5999999999999996" /><polyline fill="none" points="42.0,105.0 42.0,33.0" stroke="rgb(39,126,142)" stroke-width="3.5999999999999996" /><polyline fill="none" points="42.0,27.0 42.0,24.0 36.0,24.0 36.0,30.0 102.0,30.0 102.0,18.0 30.0,18.0 30.0,90.0 39.0,90.0" stroke="rgb(37,131,141)" stroke-width="3.5999999999999996" /><polyline fill="none" points="45.0,90.0 99.0,90.0" stroke="rgb(35,135,141)" stroke-width="3.5999999999999996" /><polyline fill="none" points="105.0,90.0 147.0,90.0" stroke="rgb(34,139,141)" stroke-width="3.5999999999999996" /><polyline fill="none" points="153.0,90.0 162.0,90.0 162.0,42.0 108.0,42.0 108.0,84.0 138.0,84.0 138.0,60.0 129.0,60.0" stroke="rgb(32,144,140)" stroke-width="3.5999999999999996" /><polyline fill="none" points="123.0,60.0 114.0,60.0 114.0,78.0 132.0,78.0 132.0,66.0 129.0,66.0" stroke="rgb(31,148,139)" stroke-width="3.5999999999999996" /><polyline fill="none" points="123.0,66.0 120.0,66.0 120.0,72.0 126.0,72.0 126.0,48.0 120.0,48.0 120.0,54.0 123.0,54.0" stroke="rgb(30,153,138)" stroke-width="3.5999999999999996" /><polyline fill="none" points="129.0,54.0 147.0,54.0" stroke="rgb(30,156,137)" stroke-width="3.5999999999999996" /><polyline fill="none" points="153.0,54.0 156.0,54.0 156.0,48.0 150.0,48.0 150.0,159.0" stroke="rgb(31,161,135)" stroke-width="3.5999999999999996" /><polyline fill="none" points="150.0,165.0 150.0,168.0 144.0,168.0 144.0,96.0 105.0,96.0" stroke="rgb(32,165,133)" stroke-width="3.5999999999999996" /><polyline fill="none" points="99.0,96.0 60.0,96.0 60.0,105.0" stroke="rgb(35,169,130)" stroke-width="3.5999999999999996" /><polyline fill="none" points="60.0,111.0 60.0,117.0" stroke="rgb(40,174,127)" stroke-width="3.5999999999999996" /><polyline fill="none" points="60.0,123.0 60.0,126.0 66.0,126.0 66.0,120.0 57.0,120.0" stroke="rgb(44,177,125)" stroke-width="3.5999999999999996" /><polyline fill="none" points="51.0,120.0 42.0,120.0 42.0,126.0 48.0,126.0 48.0,123.0" stroke="rgb(51,182,121)" stroke-width="3.5999999999999996" /><polyline fill="none" points="48.0,117.0 48.0,114.0 54.0,114.0 54.0,129.0" stroke="rgb(57,185,118)" stroke-width="3.5999999999999996" /><polyline fill="none" points="54.0,135.0 54.0,228.0 90.0,228.0 90.0,225.0" stroke="rgb(66,190,113)" stroke-width="3.5999999999999996" /><polyline fill="none" points="90.0,219.0 90.0,171.0" stroke="rgb(73,193,109)" stroke-width="3.5999999999999996" /><polyline fill="none" points="90.0,165.0 90.0,162.0 105.0,162.0" stroke="rgb(83,197,103)" stroke-width="3.5999999999999996" /><polyline fill="none" points="111.0,162.0 114.0,162.0 114.0,174.0 108.0,174.0 108.0,171.0" stroke="rgb(94,201,97)" stroke-width="3.5999999999999996" /><polyline fill="none" points="108.0,165.0 108.0,150.0 93.0,150.0" stroke="rgb(103,204,92)" stroke-width="3.5999999999999996" /><polyline fill="none" points="87.0,150.0 78.0,150.0 78.0,156.0 90.0,156.0 90.0,135.0" stroke="rgb(114,207,85)" stroke-width="3.5999999999999996" /><polyline fill="none" points="90.0,129.0 90.0,108.0 84.0,108.0 84.0,126.0 87.0,126.0" stroke="rgb(124,210,79)" stroke-width="3.5999999999999996" /><polyline fill="none" points="93.0,126.0 96.0,126.0 96.0,132.0 75.0,132.0" stroke="rgb(136,213,71)" stroke-width="3.5999999999999996" /><polyline fill="none" points="69.0,132.0 24.0,132.0 24.0,12.0 174.0,12.0 174.0,186.0 93.0,186.0" stroke="rgb(146,215,65)" stroke-width="3.5999999999999996" /><polyline fill="none" points="87.0,186.0 84.0,186.0 84.0,222.0 201.0,222.0" stroke="rgb(159,217,56)" stroke-width="3.5999999999999996" /><polyline fill="none" points="207.0,222.0 261.0,222.0" stroke="rgb(173,220,48)" stroke-width="3.5999999999999996" /><polyline fill="none" points="267.0,222.0 282.0,222.0 282.0,237.0" stroke="rgb(183,221,41)" stroke-width="3.5999999999999996" /><polyline fill="none" points="282.0,243.0 282.0,246.0 270.0,246.0 270.0,228.0 276.0,228.0 276.0,234.0 273.0,234.0" stroke="rgb(197,223,33)" stroke-width="3.5999999999999996" /><polyline fill="none" points="267.0,234.0 267.0,234.0" stroke="rgb(207,225,28)" stroke-width="3.5999999999999996" /><polyline fill="none" points="261.0,234.0 243.0,234.0" stroke="rgb(220,226,24)" stroke-width="3.5999999999999996" /><polyline fill="none" points="237.0,234.0 234.0,234.0 234.0,228.0 240.0,228.0 240.0,243.0" stroke="rgb(231,228,25)" stroke-width="3.5999999999999996" /><polyline fill="none" points="240.0,249.0 240.0,252.0 228.0,252.0 228.0,249.0" stroke="rgb(243,229,30)" stroke-width="3.5999999999999996" /><polyline fill="none" points="228.0,243.0 228.0,234.0 210.0,234.0 210.0,252.0 222.0,252.0 222.0,249.0" stroke="rgb(253,231,36)" stroke-width="3.5999999999999996" /></svg>