<?xml version="1.0" encoding="utf-8" ?>
<svg baseProfile="full" height="174.0" version="1.1" width="192.0" xmlns="http://www.w3.org/2000/svg" xmlns:ev="http://www.w3.org/2001/xml-events" xmlns:xlink="http://www.w3.org/1999/xlink"><defs /><polyline fill="none" points="18.0,69.0 18.0,12.0 12.0,12.0 12.0,18.0 15.0,18.0" stroke="rgb(68,1,84)" stroke-width="3.5999999999999996" /><polyline fill="none" points="21.0,18.0 24.0,18.0 24.0,6.0 6.0,6.0 6.0,126.0 27.0,126.0" stroke="rgb(69,8,91)" stroke-width="3.5999999999999996" /><polyline fill="none" points="33.0,126.0 45.0,126.0" stroke="rgb(71,17,99)" stroke-width="3.5999999999999996" /><polyline fill="none" points="51.0,126.0 51.0,126.0" stroke="rgb(72,25,107)" stroke-width="3.5999999999999996" /><polyline fill="none" points="57.0,126.0 57.0,126.0" stroke="rgb(72,33,114)" stroke-width="3.5999999999999996" /><polyline fill="none" points="63.0,126.0 105.0,126.0" stroke="rgb(71,40,120)" stroke-width="3.5999999999999996" /><polyline fill="none" points="111.0,126.0 114.0,126.0 114.0,123.0" stroke="rgb(70,48,125)" stroke-width="3.5999999999999996" /><polyline fill="none" points="114.0,117.0 114.0,90.0 138.0,90.0 138.0,135.0" stroke="rgb(68,55,129)" stroke-width="3.5999999999999996" /><polyline fill="none" points="138.0,141.0 138.0,144.0 120.0,144.0 120.0,132.0 114.0,132.0 114.0,138.0 117.0,138.0" stroke="rgb(66,62,133)" stroke-width="3.5999999999999996" /><polyline fill="none" points="123.0,138.0 141.0,138.0" stroke="rgb(63,69,135)" stroke-width="3.5999999999999996" /><polyline fill="none" points="147.0,138.0 150.0,138.0 150.0,150.0 147.0,150.0" stroke="rgb(61,76,137)" stroke-width="3.5999999999999996" /><polyline fill="none" points="141.0,150.0 111.0,150.0" stroke="rgb(58,83,139)" stroke-width="3.5999999999999996" /><polyline fill="none" points="105.0,150.0 30.0,150.0 30.0,75.0" stroke="rgb(55,89,140)" stroke-width="3.5999999999999996" /><polyline fill="none" points="30.0,69.0 30.0,69.0" stroke="rgb(52,95,141)" stroke-width="3.5999999999999996" /><polyline fill="none" points="30.0,63.0 30.0,60.0 36.0,60.0 36.0,66.0 24.0,66.0 24.0,54.0 60.0,54.0 60.0,138.0 42.0,138.0 42.0,129.0" stroke="rgb(49,101,141)" stroke-width="3.5999999999999996" /><polyline fill="none" points="42.0,123.0 42.0,114.0 36.0,114.0 36.0,120.0 39.0,120.0" stroke="rgb(49,101,141)" stroke-width="3.5999999999999996" /><polyline fill="none" points="45.0,120.0 54.0,120.0 54.0,132.0 48.0,132.0 48.0,123.0" stroke="rgb(44,113,142)" stroke-width="3.5999999999999996" /><polyline fill="none" points="48.0,117.0 48.0,84.0 57.0,84.0" stroke="rgb(42,119,142)" stroke-width="3.5999999999999996" /><polyline fill="none" points="63.0,84.0 99.0,84.0" stroke="rgb(39,124,142)" stroke-width="3.5999999999999996" /><polyline fill="none" points="105.0,84.0 141.0,84.0" stroke="rgb(37,130,142)" stroke-width="3.5999999999999996" /><polyline fill="none" points="147.0,84.0 186.0,84.0 186.0,42.0 156.0,42.0 156.0,36.0 162.0,36.0 162.0,39.0" stroke="rgb(35,136,141)" stroke-width="3.5999999999999996" /><polyline fill="none" points="162.0,45.0 162.0,45.0" stroke="rgb(33,141,140)" stroke-width="3.5999999999999996" /><polyline fill="none" points="162.0,51.0 162.0,51.0" stroke="rgb(31,146,140)" stroke-width="3.5999999999999996" /><polyline fill="none" points="162.0,57.0 162.0,60.0 168.0,60.0 168.0,54.0 150.0,54.0 150.0,51.0" stroke="rgb(30,152,138)" stroke-width="3.5999999999999996" /><polyline fill="none" points="150.0,45.0 150.0,42.0 144.0,42.0 144.0,168.0 114.0,168.0 114.0,156.0 120.0,156.0 120.0,162.0 117.0,162.0" stroke="rgb(30,157,136)" stroke-width="3.5999999999999996" /><polyline fill="none" points="111.0,162.0 102.0,162.0 102.0,168.0 108.0,168.0 108.0,165.0" stroke="rgb(31,163,134)" stroke-width="3.5999999999999996" /><polyline fill="none" points="108.0,159.0 108.0,120.0 123.0,120.0" stroke="rgb(35,168,131)" stroke-width="3.5999999999999996" /><polyline fill="none" points="129.0,120.0 132.0,120.0 132.0,132.0 126.0,132.0 126.0,96.0 132.0,96.0 132.0,102.0 129.0,102.0" stroke="rgb(40,174,127)" stroke-width="3.5999999999999996" /><polyline fill="none" points="123.0,102.0 117.0,102.0" stroke="rgb(47,179,123)" stroke-width="3.5999999999999996" /><polyline fill="none" points="111.0,102.0 105.0,102.0" stroke="rgb(56,185,118)" stroke-width="3.5999999999999996" /><polyline fill="none" points="99.0,102.0 90.0,102.0 90.0,114.0 108.0,114.0 108.0,108.0 105.0,108.0" stroke="rgb(56,185,118)" stroke-width="3.5999999999999996" /><polyline fill="none" points="99.0,108.0 96.0,108.0 96.0,111.0" stroke="rgb(77,194,107)" stroke-width="3.5999999999999996" /><polyline fill="none" points="96.0,117.0 96.0,120.0 102.0,120.0 102.0,117.0" stroke="rgb(89,199,100)" stroke-width="3.5999999999999996" /><polyline fill="none" points="102.0,111.0 102.0,54.0 108.0,54.0 108.0,60.0 105.0,60.0" stroke="rgb(103,204,92)" stroke-width="3.5999999999999996" /><polyline fill="none" points="99.0,60.0 90.0,60.0 90.0,54.0 96.0,54.0 96.0,57.0" stroke="rgb(116,208,84)" stroke-width="3.5999999999999996" /><polyline fill="none" points="96.0,63.0 96.0,66.0 84.0,66.0 84.0,51.0" stroke="rgb(131,211,75)" stroke-width="3.5999999999999996" /><polyline fill="none" points="84.0,45.0 84.0,30.0 90.0,30.0 90.0,36.0 87.0,36.0" stroke="rgb(146,215,65)" stroke-width="3.5999999999999996" /><polyline fill="none" points="81.0,36.0 72.0,36.0 72.0,30.0 78.0,30.0 78.0,33.0" stroke="rgb(162,218,55)" stroke-width="3.5999999999999996" /><polyline fill="none" points="78.0,39.0 78.0,42.0 66.0,42.0 66.0,24.0 174.0,24.0 174.0,39.0" stroke="rgb(178,221,44)" stroke-width="3.5999999999999996" /><polyline fill="none" points="174.0,45.0 174.0,45.0" stroke="rgb(194,223,34)" stroke-width="3.5999999999999996" /><polyline fill="none" points="174.0,51.0 174.0,54.0 180.0,54.0 180.0,48.0 147.0,48.0" stroke="rgb(210,225,27)" stroke-width="3.5999999999999996" /><polyline fill="none" points="141.0,48.0 78.0,48.0 78.0,69.0" stroke="rgb(225,227,24)" stroke-width="3.5999999999999996" /><polyline fill="none" points="78.0,75.0 78.0,78.0 84.0,78.0 84.0,72.0 63.0,72.0" stroke="rgb(241,229,28)" stroke-width="3.5999999999999996" /><polyline fill="none" points="57.0,72.0 12.0,72.0 12.0,78.0 18.0,78.0 18.0,75.0" stroke="rgb(253,231,36)" stroke-width="3.5999999999999996" /></svg>