<?xml version="1.0" encoding="utf-8" ?>
<svg baseProfile="full" height="54.0" version="1.1" width="78.0" xmlns="http://www.w3.org/2000/svg" xmlns:ev="http://www.w3.org/2001/xml-events" xmlns:xlink="http://www.w3.org/1999/xlink"><defs /><polyline fill="none" points="54.0,27.0 54.0,24.0 48.0,24.0 48.0,30.0 57.0,30.0" stroke="rgb(68,1,84)" stroke-width="3.5999999999999996" /><polyline fill="none" points="63.0,30.0 72.0,30.0 72.0,6.0 42.0,6.0 42.0,24.0 39.0,24.0" stroke="rgb(72,35,116)" stroke-width="3.5999999999999996" /><polyline fill="none" points="33.0,24.0 18.0,24.0 18.0,18.0 24.0,18.0 24.0,21.0" stroke="rgb(64,67,135)" stroke-width="3.5999999999999996" /><polyline fill="none" points="24.0,27.0 24.0,42.0 36.0,42.0 36.0,39.0" stroke="rgb(52,94,141)" stroke-width="3.5999999999999996" /><polyline fill="none" points="36.0,33.0 36.0,12.0 30.0,12.0 30.0,18.0 33.0,18.0" stroke="rgb(41,120,142)" stroke-width="3.5999999999999996" /><polyline fill="none" points="39.0,18.0 39.0,18.0" stroke="rgb(32,144,140)" stroke-width="3.5999999999999996" /><polyline fill="none" points="45.0,18.0 57.0,18.0" stroke="rgb(34,167,132)" stroke-width="3.5999999999999996" /><polyline fill="none" points="63.0,18.0 66.0,18.0 66.0,12.0 60.0,12.0 60.0,36.0 57.0,36.0" stroke="rgb(68,190,112)" stroke-width="3.5999999999999996" /><polyline fill="none" points="51.0,36.0 27.0,36.0" stroke="rgb(121,209,81)" stroke-width="3.5999999999999996" /><polyline fill="none" points="21.0,36.0 15.0,36.0" stroke="rgb(189,222,38)" stroke-width="3.5999999999999996" /><polyline fill="none" points="9.0,36.0 6.0,36.0 6.0,30.0 12.0,30.0 12.0,48.0 54.0,48.0 54.0,33.0" stroke="rgb(253,231,36)" stroke-width="3.5999999999999996" /></svg>