<?xml version="1.0" encoding="utf-8" ?>
<svg baseProfile="full" height="78.0" version="1.1" width="96.0" xmlns="http://www.w3.org/2000/svg" xmlns:ev="http://www.w3.org/2001/xml-events" xmlns:xlink="http://www.w3.org/1999/xlink"><defs /><polyline fill="none" points="66.0,39.0 66.0,36.0 60.0,36.0 60.0,42.0 69.0,42.0" stroke="rgb(68,1,84)" stroke-width="3.5999999999999996" /><polyline fill="none" points="75.0,42.0 78.0,42.0 78.0,12.0 30.0,12.0 30.0,48.0 63.0,48.0" stroke="rgb(72,30,112)" stroke-width="3.5999999999999996" /><polyline fill="none" points="69.0,48.0 69.0,48.0" stroke="rgb(68,57,130)" stroke-width="3.5999999999999996" /><polyline fill="none" points="75.0,48.0 84.0,48.0 84.0,6.0 24.0,6.0 24.0,72.0 6.0,72.0 6.0,54.0 18.0,54.0 18.0,57.0" stroke="rgb(58,82,139)" stroke-width="3.5999999999999996" /><polyline fill="none" points="18.0,63.0 18.0,66.0 12.0,66.0 12.0,60.0 21.0,60.0" stroke="rgb(48,103,141)" stroke-width="3.5999999999999996" /><polyline fill="none" points="27.0,60.0 63.0,60.0" stroke="rgb(40,123,142)" stroke-width="3.5999999999999996" /><polyline fill="none" points="69.0,60.0 84.0,60.0 84.0,66.0 78.0,66.0 78.0,63.0" stroke="rgb(32,144,140)" stroke-width="3.5999999999999996" /><polyline fill="none" points="78.0,57.0 78.0,54.0 90.0,54.0 90.0,72.0 54.0,72.0 54.0,63.0" stroke="rgb(32,164,133)" stroke-width="3.5999999999999996" /><polyline fill="none" points="54.0,57.0 54.0,51.0" stroke="rgb(53,183,120)" stroke-width="3.5999999999999996" /><polyline fill="none" points="54.0,45.0 54.0,18.0 36.0,18.0 36.0,36.0 48.0,36.0 48.0,24.0 42.0,24.0 42.0,30.0 45.0,30.0" stroke="rgb(94,201,97)" stroke-width="3.5999999999999996" /><polyline fill="none" points="51.0,30.0 51.0,30.0" stroke="rgb(144,214,67)" stroke-width="3.5999999999999996" /><polyline fill="none" points="57.0,30.0 72.0,30.0 72.0,57.0" stroke="rgb(199,224,31)" stroke-width="3.5999999999999996" /><polyline fill="none" points="72.0,63.0 72.0,66.0 66.0,66.0 66.0,45.0" stroke="rgb(253,231,36)" stroke-width="3.5999999999999996" /></svg>