<?xml version="1.0" encoding="utf-8" ?>
<svg baseProfile="full" height="228.0" version="1.1" width="228.0" xmlns="http://www.w3.org/2000/svg" xmlns:ev="http://www.w3.org/2001/xml-events" xmlns:xlink="http://www.w3.org/1999/xlink"><defs /><polyline fill="none" points="156.0,87.0 156.0,87.0" stroke="rgb(68,1,84)" stroke-width="3.5999999999999996" /><polyline fill="none" points="156.0,81.0 156.0,78.0 150.0,78.0 150.0,84.0 162.0,84.0 162.0,72.0 144.0,72.0 144.0,87.0" stroke="rgb(70,9,92)" stroke-width="3.5999999999999996" /><polyline fill="none" points="144.0,93.0 144.0,105.0" stroke="rgb(71,18,101)" stroke-width="3.5999999999999996" /><polyline fill="none" points="144.0,111.0 144.0,120.0 180.0,120.0 180.0,60.0 99.0,60.0" stroke="rgb(72,26,108)" stroke-width="3.5999999999999996" /><polyline fill="none" points="93.0,60.0 93.0,60.0" stroke="rgb(72,34,115)" stroke-width="3.5999999999999996" /><polyline fill="none" points="87.0,60.0 78.0,60.0 78.0,57.0" stroke="rgb(71,43,122)" stroke-width="3.5999999999999996" /><polyline fill="none" points="78.0,51.0 78.0,45.0" stroke="rgb(69,50,127)" stroke-width="3.5999999999999996" /><polyline fill="none" points="78.0,39.0 78.0,36.0 84.0,36.0 84.0,42.0 75.0,42.0" stroke="rgb(67,58,131)" stroke-width="3.5999999999999996" /><polyline fill="none" points="69.0,42.0 66.0,42.0 66.0,48.0 72.0,48.0 72.0,12.0 222.0,12.0 222.0,6.0 216.0,6.0 216.0,9.0" stroke="rgb(65,65,134)" stroke-width="3.5999999999999996" /><polyline fill="none" points="216.0,15.0 216.0,207.0" stroke="rgb(62,73,137)" stroke-width="3.5999999999999996" /><polyline fill="none" points="216.0,213.0 216.0,216.0 192.0,216.0 192.0,18.0 210.0,18.0 210.0,36.0 198.0,36.0 198.0,33.0" stroke="rgb(59,80,138)" stroke-width="3.5999999999999996" /><polyline fill="none" points="198.0,27.0 198.0,24.0 204.0,24.0 204.0,30.0 195.0,30.0" stroke="rgb(56,86,139)" stroke-width="3.5999999999999996" /><polyline fill="none" points="189.0,30.0 75.0,30.0" stroke="rgb(53,92,140)" stroke-width="3.5999999999999996" /><polyline fill="none" points="69.0,30.0 63.0,30.0" stroke="rgb(50,99,141)" stroke-width="3.5999999999999996" /><polyline fill="none" points="57.0,30.0 54.0,30.0 54.0,24.0 60.0,24.0 60.0,54.0 96.0,54.0 96.0,102.0 138.0,102.0 138.0,96.0 132.0,96.0 132.0,99.0" stroke="rgb(47,105,141)" stroke-width="3.5999999999999996" /><polyline fill="none" points="132.0,105.0 132.0,201.0" stroke="rgb(45,111,142)" stroke-width="3.5999999999999996" /><polyline fill="none" points="132.0,207.0 132.0,216.0 126.0,216.0 126.0,210.0 129.0,210.0" stroke="rgb(42,117,142)" stroke-width="3.5999999999999996" /><polyline fill="none" points="135.0,210.0 189.0,210.0" stroke="rgb(40,123,142)" stroke-width="3.5999999999999996" /><polyline fill="none" points="195.0,210.0 222.0,210.0 222.0,222.0 90.0,222.0 90.0,207.0" stroke="rgb(38,129,142)" stroke-width="3.5999999999999996" /><polyline fill="none" points="90.0,201.0 90.0,201.0" stroke="rgb(35,135,141)" stroke-width="3.5999999999999996" /><polyline fill="none" points="90.0,195.0 90.0,177.0" stroke="rgb(33,140,141)" stroke-width="3.5999999999999996" /><polyline fill="none" points="90.0,171.0 90.0,57.0" stroke="rgb(31,147,139)" stroke-width="3.5999999999999996" /><polyline fill="none" points="90.0,51.0 90.0,42.0 186.0,42.0 186.0,204.0 6.0,204.0 6.0,102.0 48.0,102.0 48.0,111.0" stroke="rgb(30,153,138)" stroke-width="3.5999999999999996" /><polyline fill="none" points="48.0,117.0 48.0,138.0 63.0,138.0" stroke="rgb(30,158,136)" stroke-width="3.5999999999999996" /><polyline fill="none" points="69.0,138.0 72.0,138.0 72.0,126.0 63.0,126.0" stroke="rgb(32,164,133)" stroke-width="3.5999999999999996" /><polyline fill="none" points="57.0,126.0 54.0,126.0 54.0,132.0 60.0,132.0 60.0,120.0 66.0,120.0 66.0,123.0" stroke="rgb(36,170,130)" stroke-width="3.5999999999999996" /><polyline fill="none" points="66.0,129.0 66.0,141.0" stroke="rgb(42,176,126)" stroke-width="3.5999999999999996" /><polyline fill="none" points="66.0,147.0 66.0,150.0 12.0,150.0 12.0,198.0 126.0,198.0 126.0,162.0 96.0,162.0 96.0,171.0" stroke="rgb(50,181,122)" stroke-width="3.5999999999999996" /><polyline fill="none" points="96.0,177.0 96.0,192.0 120.0,192.0 120.0,168.0 108.0,168.0 108.0,186.0 102.0,186.0 102.0,180.0 105.0,180.0" stroke="rgb(59,186,117)" stroke-width="3.5999999999999996" /><polyline fill="none" points="111.0,180.0 114.0,180.0 114.0,174.0 111.0,174.0" stroke="rgb(71,192,110)" stroke-width="3.5999999999999996" /><polyline fill="none" points="105.0,174.0 45.0,174.0" stroke="rgb(83,197,103)" stroke-width="3.5999999999999996" /><polyline fill="none" points="39.0,174.0 33.0,174.0" stroke="rgb(96,201,96)" stroke-width="3.5999999999999996" /><polyline fill="none" points="27.0,174.0 24.0,174.0 24.0,180.0 30.0,180.0 30.0,171.0" stroke="rgb(109,206,88)" stroke-width="3.5999999999999996" /><polyline fill="none" points="30.0,165.0 30.0,162.0 24.0,162.0 24.0,168.0 36.0,168.0 36.0,156.0 18.0,156.0 18.0,186.0 48.0,186.0 48.0,192.0 42.0,192.0 42.0,189.0" stroke="rgb(126,210,78)" stroke-width="3.5999999999999996" /><polyline fill="none" points="42.0,183.0 42.0,153.0" stroke="rgb(141,214,68)" stroke-width="3.5999999999999996" /><polyline fill="none" points="42.0,147.0 42.0,138.0 36.0,138.0 36.0,144.0 39.0,144.0" stroke="rgb(157,217,58)" stroke-width="3.5999999999999996" /><polyline fill="none" points="45.0,144.0 78.0,144.0 78.0,114.0 42.0,114.0 42.0,108.0 45.0,108.0" stroke="rgb(173,220,48)" stroke-width="3.5999999999999996" /><polyline fill="none" points="51.0,108.0 87.0,108.0" stroke="rgb(191,223,36)" stroke-width="3.5999999999999996" /><polyline fill="none" points="93.0,108.0 129.0,108.0" stroke="rgb(207,225,28)" stroke-width="3.5999999999999996" /><polyline fill="none" points="135.0,108.0 165.0,108.0" stroke="rgb(223,227,24)" stroke-width="3.5999999999999996" /><polyline fill="none" points="171.0,108.0 174.0,108.0 174.0,114.0 168.0,114.0 168.0,66.0 102.0,66.0 102.0,96.0 114.0,96.0 114.0,84.0 108.0,84.0 108.0,90.0 111.0,90.0" stroke="rgb(238,229,27)" stroke-width="3.5999999999999996" /><polyline fill="none" points="117.0,90.0 162.0,90.0 162.0,96.0 156.0,96.0 156.0,93.0" stroke="rgb(253,231,36)" stroke-width="3.5999999999999996" /></svg>