<?xml version="1.0" encoding="utf-8" ?>
<svg baseProfile="full" height="120.0" version="1.1" width="150.0" xmlns="http://www.w3.org/2000/svg" xmlns:ev="http://www.w3.org/2001/xml-events" xmlns:xlink="http://www.w3.org/1999/xlink"><defs /><polyline fill="none" points="69.0,30.0 72.0,30.0 72.0,24.0 66.0,24.0 66.0,33.0" stroke="rgb(68,1,84)" stroke-width="3.5999999999999996" /><polyline fill="none" points="66.0,39.0 66.0,42.0 72.0,42.0 72.0,36.0 42.0,36.0 42.0,30.0 48.0,30.0 48.0,33.0" stroke="rgb(71,15,98)" stroke-width="3.5999999999999996" /><polyline fill="none" points="48.0,39.0 48.0,102.0 42.0,102.0 42.0,96.0 45.0,96.0" stroke="rgb(72,29,111)" stroke-width="3.5999999999999996" /><polyline fill="none" points="51.0,96.0 54.0,96.0 54.0,108.0 30.0,108.0 30.0,57.0" stroke="rgb(71,42,121)" stroke-width="3.5999999999999996" /><polyline fill="none" points="30.0,51.0 30.0,33.0" stroke="rgb(69,54,129)" stroke-width="3.5999999999999996" /><polyline fill="none" points="30.0,27.0 30.0,24.0 36.0,24.0 36.0,30.0 21.0,30.0" stroke="rgb(64,67,135)" stroke-width="3.5999999999999996" /><polyline fill="none" points="15.0,30.0 6.0,30.0 6.0,6.0 54.0,6.0 54.0,33.0" stroke="rgb(60,78,138)" stroke-width="3.5999999999999996" /><polyline fill="none" points="54.0,39.0 54.0,48.0 75.0,48.0" stroke="rgb(55,89,140)" stroke-width="3.5999999999999996" /><polyline fill="none" points="81.0,48.0 96.0,48.0 96.0,54.0 90.0,54.0 90.0,51.0" stroke="rgb(50,99,141)" stroke-width="3.5999999999999996" /><polyline fill="none" points="90.0,45.0 90.0,12.0 114.0,12.0 114.0,6.0 108.0,6.0 108.0,9.0" stroke="rgb(45,110,142)" stroke-width="3.5999999999999996" /><polyline fill="none" points="108.0,15.0 108.0,51.0" stroke="rgb(41,120,142)" stroke-width="3.5999999999999996" /><polyline fill="none" points="108.0,57.0 108.0,63.0" stroke="rgb(38,129,142)" stroke-width="3.5999999999999996" /><polyline fill="none" points="108.0,69.0 108.0,69.0" stroke="rgb(34,138,141)" stroke-width="3.5999999999999996" /><polyline fill="none" points="108.0,75.0 108.0,78.0 114.0,78.0 114.0,72.0 102.0,72.0 102.0,84.0 120.0,84.0 120.0,60.0 126.0,60.0 126.0,66.0 123.0,66.0" stroke="rgb(31,149,139)" stroke-width="3.5999999999999996" /><polyline fill="none" points="117.0,66.0 102.0,66.0 102.0,54.0 129.0,54.0" stroke="rgb(30,158,136)" stroke-width="3.5999999999999996" /><polyline fill="none" points="135.0,54.0 144.0,54.0 144.0,18.0 126.0,18.0 126.0,30.0 138.0,30.0 138.0,24.0 132.0,24.0 132.0,27.0" stroke="rgb(30,158,136)" stroke-width="3.5999999999999996" /><polyline fill="none" points="132.0,33.0 132.0,96.0 138.0,96.0 138.0,90.0 135.0,90.0" stroke="rgb(43,177,125)" stroke-width="3.5999999999999996" /><polyline fill="none" points="129.0,90.0 87.0,90.0" stroke="rgb(59,186,117)" stroke-width="3.5999999999999996" /><polyline fill="none" points="81.0,90.0 51.0,90.0" stroke="rgb(77,194,107)" stroke-width="3.5999999999999996" /><polyline fill="none" points="45.0,90.0 33.0,90.0" stroke="rgb(98,202,95)" stroke-width="3.5999999999999996" /><polyline fill="none" points="27.0,90.0 24.0,90.0 24.0,54.0 45.0,54.0" stroke="rgb(121,209,81)" stroke-width="3.5999999999999996" /><polyline fill="none" points="51.0,54.0 78.0,54.0 78.0,18.0 63.0,18.0" stroke="rgb(149,215,63)" stroke-width="3.5999999999999996" /><polyline fill="none" points="57.0,18.0 57.0,18.0" stroke="rgb(175,220,46)" stroke-width="3.5999999999999996" /><polyline fill="none" points="51.0,18.0 21.0,18.0" stroke="rgb(202,224,30)" stroke-width="3.5999999999999996" /><polyline fill="none" points="15.0,18.0 12.0,18.0 12.0,12.0 18.0,12.0 18.0,114.0 84.0,114.0 84.0,51.0" stroke="rgb(228,227,24)" stroke-width="3.5999999999999996" /><polyline fill="none" points="84.0,45.0 84.0,12.0 60.0,12.0 60.0,30.0 63.0,30.0" stroke="rgb(253,231,36)" stroke-width="3.5999999999999996" /></svg>