<?xml version="1.0" encoding="utf-8" ?>
<svg baseProfile="full" height="90.0" version="1.1" width="114.0" xmlns="http://www.w3.org/2000/svg" xmlns:ev="http://www.w3.org/2001/xml-events" xmlns:xlink="http://www.w3.org/1999/xlink"><defs /><polyline fill="none" points="81.0,30.0 84.0,30.0 84.0,18.0 66.0,18.0 66.0,48.0 90.0,48.0 90.0,42.0 84.0,42.0 84.0,45.0" stroke="rgb(68,1,84)" stroke-width="3.5999999999999996" /><polyline fill="none" points="84.0,51.0 84.0,60.0 81.0,60.0" stroke="rgb(71,24,106)" stroke-width="3.5999999999999996" /><polyline fill="none" points="75.0,60.0 45.0,60.0" stroke="rgb(71,44,123)" stroke-width="3.5999999999999996" /><polyline fill="none" points="39.0,60.0 33.0,60.0" stroke="rgb(66,64,133)" stroke-width="3.5999999999999996" /><polyline fill="none" points="27.0,60.0 12.0,60.0 12.0,42.0 24.0,42.0 24.0,45.0" stroke="rgb(58,82,139)" stroke-width="3.5999999999999996" /><polyline fill="none" points="24.0,51.0 24.0,54.0 18.0,54.0 18.0,48.0 42.0,48.0 42.0,72.0 36.0,72.0 36.0,66.0 39.0,66.0" stroke="rgb(50,98,141)" stroke-width="3.5999999999999996" /><polyline fill="none" points="45.0,66.0 48.0,66.0 48.0,78.0 30.0,78.0 30.0,51.0" stroke="rgb(44,114,142)" stroke-width="3.5999999999999996" /><polyline fill="none" points="30.0,45.0 30.0,30.0 48.0,30.0 48.0,33.0" stroke="rgb(38,129,142)" stroke-width="3.5999999999999996" /><polyline fill="none" points="48.0,39.0 48.0,48.0 60.0,48.0 60.0,15.0" stroke="rgb(32,144,140)" stroke-width="3.5999999999999996" /><polyline fill="none" points="60.0,9.0 60.0,6.0 54.0,6.0 54.0,12.0 96.0,12.0 96.0,18.0 90.0,18.0 90.0,15.0" stroke="rgb(30,159,136)" stroke-width="3.5999999999999996" /><polyline fill="none" points="90.0,9.0 90.0,6.0 102.0,6.0 102.0,33.0" stroke="rgb(40,174,127)" stroke-width="3.5999999999999996" /><polyline fill="none" points="102.0,39.0 102.0,42.0 108.0,42.0 108.0,36.0 69.0,36.0" stroke="rgb(62,188,115)" stroke-width="3.5999999999999996" /><polyline fill="none" points="63.0,36.0 63.0,36.0" stroke="rgb(94,201,97)" stroke-width="3.5999999999999996" /><polyline fill="none" points="57.0,36.0 33.0,36.0" stroke="rgb(131,211,75)" stroke-width="3.5999999999999996" /><polyline fill="none" points="27.0,36.0 6.0,36.0 6.0,84.0 78.0,84.0 78.0,51.0" stroke="rgb(173,220,48)" stroke-width="3.5999999999999996" /><polyline fill="none" points="78.0,45.0 78.0,39.0" stroke="rgb(215,226,25)" stroke-width="3.5999999999999996" /><polyline fill="none" points="78.0,33.0 78.0,24.0 72.0,24.0 72.0,30.0 75.0,30.0" stroke="rgb(253,231,36)" stroke-width="3.5999999999999996" /></svg>