<?xml version="1.0" encoding="utf-8" ?>
<svg baseProfile="full" height="84.0" version="1.1" width="96.0" xmlns="http://www.w3.org/2000/svg" xmlns:ev="http://www.w3.org/2001/xml-events" xmlns:xlink="http://www.w3.org/1999/xlink"><defs /><polyline fill="none" points="30.0,21.0 30.0,18.0 18.0,18.0 18.0,36.0 36.0,36.0 36.0,27.0" stroke="rgb(68,1,84)" stroke-width="3.5999999999999996" /><polyline fill="none" points="36.0,21.0 36.0,12.0 12.0,12.0 12.0,39.0" stroke="rgb(72,25,107)" stroke-width="3.5999999999999996" /><polyline fill="none" points="12.0,45.0 12.0,57.0" stroke="rgb(70,47,124)" stroke-width="3.5999999999999996" /><polyline fill="none" points="12.0,63.0 12.0,66.0 6.0,66.0 6.0,60.0 33.0,60.0" stroke="rgb(64,67,135)" stroke-width="3.5999999999999996" /><polyline fill="none" points="39.0,60.0 54.0,60.0 54.0,27.0" stroke="rgb(56,86,139)" stroke-width="3.5999999999999996" /><polyline fill="none" points="54.0,21.0 54.0,12.0 81.0,12.0" stroke="rgb(48,103,141)" stroke-width="3.5999999999999996" /><polyline fill="none" points="87.0,12.0 90.0,12.0 90.0,6.0 84.0,6.0 84.0,72.0 90.0,72.0 90.0,66.0 87.0,66.0" stroke="rgb(41,120,142)" stroke-width="3.5999999999999996" /><polyline fill="none" points="81.0,66.0 63.0,66.0" stroke="rgb(35,136,141)" stroke-width="3.5999999999999996" /><polyline fill="none" points="57.0,66.0 54.0,66.0 54.0,72.0 60.0,72.0 60.0,36.0 66.0,36.0 66.0,42.0 63.0,42.0" stroke="rgb(30,152,138)" stroke-width="3.5999999999999996" /><polyline fill="none" points="57.0,42.0 57.0,42.0" stroke="rgb(34,167,132)" stroke-width="3.5999999999999996" /><polyline fill="none" points="51.0,42.0 45.0,42.0" stroke="rgb(53,183,120)" stroke-width="3.5999999999999996" /><polyline fill="none" points="39.0,42.0 6.0,42.0 6.0,6.0 42.0,6.0 42.0,21.0" stroke="rgb(83,197,103)" stroke-width="3.5999999999999996" /><polyline fill="none" points="42.0,27.0 42.0,54.0 48.0,54.0 48.0,48.0 45.0,48.0" stroke="rgb(121,209,81)" stroke-width="3.5999999999999996" /><polyline fill="none" points="39.0,48.0 36.0,48.0 36.0,78.0 72.0,78.0 72.0,69.0" stroke="rgb(165,218,53)" stroke-width="3.5999999999999996" /><polyline fill="none" points="72.0,63.0 72.0,27.0" stroke="rgb(210,225,27)" stroke-width="3.5999999999999996" /><polyline fill="none" points="72.0,21.0 72.0,18.0 78.0,18.0 78.0,24.0 24.0,24.0 24.0,30.0 30.0,30.0 30.0,27.0" stroke="rgb(253,231,36)" stroke-width="3.5999999999999996" /></svg>