<?xml version="1.0" encoding="utf-8" ?>
<svg baseProfile="full" height="90.0" version="1.1" width="102.0" xmlns="http://www.w3.org/2000/svg" xmlns:ev="http://www.w3.org/2001/xml-events" xmlns:xlink="http://www.w3.org/1999/xlink"><defs /><polyline fill="none" points="87.0,18.0 90.0,18.0 90.0,12.0 84.0,12.0 84.0,69.0" stroke="rgb(68,1,84)" stroke-width="3.5999999999999996" /><polyline fill="none" points="84.0,75.0 84.0,78.0 24.0,78.0 24.0,18.0 48.0,18.0 48.0,21.0" stroke="rgb(72,30,112)" stroke-width="3.5999999999999996" /><polyline fill="none" points="48.0,27.0 48.0,39.0" stroke="rgb(68,57,130)" stroke-width="3.5999999999999996" /><polyline fill="none" points="48.0,45.0 48.0,48.0 54.0,48.0 54.0,42.0 42.0,42.0 42.0,54.0 60.0,54.0 60.0,36.0 51.0,36.0" stroke="rgb(58,82,139)" stroke-width="3.5999999999999996" /><polyline fill="none" points="45.0,36.0 36.0,36.0 36.0,60.0 66.0,60.0 66.0,30.0 51.0,30.0" stroke="rgb(48,103,141)" stroke-width="3.5999999999999996" /><polyline fill="none" points="45.0,30.0 27.0,30.0" stroke="rgb(40,123,142)" stroke-width="3.5999999999999996" /><polyline fill="none" points="21.0,30.0 6.0,30.0 6.0,84.0 90.0,84.0 90.0,72.0 27.0,72.0" stroke="rgb(32,144,140)" stroke-width="3.5999999999999996" /><polyline fill="none" points="21.0,72.0 21.0,72.0" stroke="rgb(32,164,133)" stroke-width="3.5999999999999996" /><polyline fill="none" points="15.0,72.0 12.0,72.0 12.0,78.0 18.0,78.0 18.0,33.0" stroke="rgb(53,183,120)" stroke-width="3.5999999999999996" /><polyline fill="none" points="18.0,27.0 18.0,12.0 72.0,12.0 72.0,66.0 30.0,66.0 30.0,33.0" stroke="rgb(94,201,97)" stroke-width="3.5999999999999996" /><polyline fill="none" points="30.0,27.0 30.0,24.0 69.0,24.0" stroke="rgb(144,214,67)" stroke-width="3.5999999999999996" /><polyline fill="none" points="75.0,24.0 81.0,24.0" stroke="rgb(199,224,31)" stroke-width="3.5999999999999996" /><polyline fill="none" points="87.0,24.0 96.0,24.0 96.0,6.0 78.0,6.0 78.0,18.0 81.0,18.0" stroke="rgb(253,231,36)" stroke-width="3.5999999999999996" /></svg>