<?xml version="1.0" encoding="utf-8" ?>
<svg baseProfile="full" height="132.0" version="1.1" width="168.0" xmlns="http://www.w3.org/2000/svg" xmlns:ev="http://www.w3.org/2001/xml-events" xmlns:xlink="http://www.w3.org/1999/xlink"><defs /><polyline fill="none" points="132.0,105.0 132.0,48.0 120.0,48.0 120.0,96.0 48.0,96.0 48.0,60.0 78.0,60.0 78.0,75.0" stroke="rgb(68,1,84)" stroke-width="3.5999999999999996" /><polyline fill="none" points="78.0,81.0 78.0,90.0 84.0,90.0 84.0,84.0 81.0,84.0" stroke="rgb(70,14,97)" stroke-width="3.5999999999999996" /><polyline fill="none" points="75.0,84.0 60.0,84.0 60.0,66.0 75.0,66.0" stroke="rgb(72,28,110)" stroke-width="3.5999999999999996" /><polyline fill="none" points="81.0,66.0 117.0,66.0" stroke="rgb(71,40,120)" stroke-width="3.5999999999999996" /><polyline fill="none" points="123.0,66.0 126.0,66.0 126.0,102.0 30.0,102.0 30.0,42.0 54.0,42.0 54.0,45.0" stroke="rgb(69,53,128)" stroke-width="3.5999999999999996" /><polyline fill="none" points="54.0,51.0 54.0,57.0" stroke="rgb(65,65,134)" stroke-width="3.5999999999999996" /><polyline fill="none" points="54.0,63.0 54.0,90.0 72.0,90.0 72.0,87.0" stroke="rgb(61,76,137)" stroke-width="3.5999999999999996" /><polyline fill="none" points="72.0,81.0 72.0,72.0 66.0,72.0 66.0,78.0 69.0,78.0" stroke="rgb(56,86,139)" stroke-width="3.5999999999999996" /><polyline fill="none" points="75.0,78.0 84.0,78.0 84.0,69.0" stroke="rgb(51,96,141)" stroke-width="3.5999999999999996" /><polyline fill="none" points="84.0,63.0 84.0,51.0" stroke="rgb(47,106,141)" stroke-width="3.5999999999999996" /><polyline fill="none" points="84.0,45.0 84.0,36.0 102.0,36.0 102.0,54.0 90.0,54.0 90.0,51.0" stroke="rgb(43,116,142)" stroke-width="3.5999999999999996" /><polyline fill="none" points="90.0,45.0 90.0,42.0 96.0,42.0 96.0,48.0 45.0,48.0" stroke="rgb(39,125,142)" stroke-width="3.5999999999999996" /><polyline fill="none" points="39.0,48.0 36.0,48.0 36.0,60.0 42.0,60.0 42.0,45.0" stroke="rgb(35,135,141)" stroke-width="3.5999999999999996" /><polyline fill="none" points="42.0,39.0 42.0,21.0" stroke="rgb(32,144,140)" stroke-width="3.5999999999999996" /><polyline fill="none" points="42.0,15.0 42.0,6.0 6.0,6.0 6.0,36.0 36.0,36.0 36.0,12.0 30.0,12.0 30.0,15.0" stroke="rgb(30,153,138)" stroke-width="3.5999999999999996" /><polyline fill="none" points="30.0,21.0 30.0,30.0 12.0,30.0 12.0,12.0 24.0,12.0 24.0,15.0" stroke="rgb(31,162,134)" stroke-width="3.5999999999999996" /><polyline fill="none" points="24.0,21.0 24.0,24.0 18.0,24.0 18.0,18.0 33.0,18.0" stroke="rgb(37,171,129)" stroke-width="3.5999999999999996" /><polyline fill="none" points="39.0,18.0 120.0,18.0 120.0,12.0 114.0,12.0 114.0,15.0" stroke="rgb(48,180,122)" stroke-width="3.5999999999999996" /><polyline fill="none" points="114.0,21.0 114.0,51.0" stroke="rgb(64,189,114)" stroke-width="3.5999999999999996" /><polyline fill="none" points="114.0,57.0 114.0,60.0 108.0,60.0 108.0,54.0 117.0,54.0" stroke="rgb(83,197,103)" stroke-width="3.5999999999999996" /><polyline fill="none" points="123.0,54.0 129.0,54.0" stroke="rgb(103,204,92)" stroke-width="3.5999999999999996" /><polyline fill="none" points="135.0,54.0 156.0,54.0 156.0,96.0 138.0,96.0 138.0,90.0 150.0,90.0 150.0,84.0 144.0,84.0 144.0,87.0" stroke="rgb(126,210,78)" stroke-width="3.5999999999999996" /><polyline fill="none" points="144.0,93.0 144.0,93.0" stroke="rgb(151,216,62)" stroke-width="3.5999999999999996" /><polyline fill="none" points="144.0,99.0 144.0,105.0" stroke="rgb(178,221,44)" stroke-width="3.5999999999999996" /><polyline fill="none" points="144.0,111.0 144.0,126.0 138.0,126.0 138.0,120.0 141.0,120.0" stroke="rgb(205,224,29)" stroke-width="3.5999999999999996" /><polyline fill="none" points="147.0,120.0 162.0,120.0 162.0,102.0 150.0,102.0 150.0,114.0 156.0,114.0 156.0,108.0 153.0,108.0" stroke="rgb(231,228,25)" stroke-width="3.5999999999999996" /><polyline fill="none" points="147.0,108.0 126.0,108.0 126.0,114.0 132.0,114.0 132.0,111.0" stroke="rgb(253,231,36)" stroke-width="3.5999999999999996" /></svg>