<?xml version="1.0" encoding="utf-8" ?>
<svg baseProfile="full" height="282.0" version="1.1" width="318.0" xmlns="http://www.w3.org/2000/svg" xmlns:ev="http://www.w3.org/2001/xml-events" xmlns:xlink="http://www.w3.org/1999/xlink"><defs /><polyline fill="none" points="192.0,117.0 192.0,84.0 174.0,84.0 174.0,90.0 189.0,90.0" stroke="rgb(68,1,84)" stroke-width="3.5999999999999996" /><polyline fill="none" points="195.0,90.0 210.0,90.0 210.0,60.0 198.0,60.0 198.0,84.0 204.0,84.0 204.0,66.0 201.0,66.0" stroke="rgb(69,5,88)" stroke-width="3.5999999999999996" /><polyline fill="none" points="195.0,66.0 129.0,66.0" stroke="rgb(70,11,94)" stroke-width="3.5999999999999996" /><polyline fill="none" points="123.0,66.0 123.0,66.0" stroke="rgb(71,17,99)" stroke-width="3.5999999999999996" /><polyline fill="none" points="117.0,66.0 102.0,66.0 102.0,72.0 108.0,72.0 108.0,69.0" stroke="rgb(71,22,105)" stroke-width="3.5999999999999996" /><polyline fill="none" points="108.0,63.0 108.0,63.0" stroke="rgb(72,28,110)" stroke-width="3.5999999999999996" /><polyline fill="none" points="108.0,57.0 108.0,54.0 114.0,54.0 114.0,60.0 96.0,60.0 96.0,78.0 120.0,78.0 120.0,51.0" stroke="rgb(72,33,114)" stroke-width="3.5999999999999996" /><polyline fill="none" points="120.0,45.0 120.0,42.0 90.0,42.0 90.0,45.0" stroke="rgb(71,38,118)" stroke-width="3.5999999999999996" /><polyline fill="none" points="90.0,51.0 90.0,192.0 252.0,192.0 252.0,183.0" stroke="rgb(71,43,122)" stroke-width="3.5999999999999996" /><polyline fill="none" points="252.0,177.0 252.0,138.0 258.0,138.0 258.0,144.0 255.0,144.0" stroke="rgb(70,47,124)" stroke-width="3.5999999999999996" /><polyline fill="none" points="249.0,144.0 249.0,144.0" stroke="rgb(69,52,127)" stroke-width="3.5999999999999996" /><polyline fill="none" points="243.0,144.0 141.0,144.0" stroke="rgb(68,57,130)" stroke-width="3.5999999999999996" /><polyline fill="none" points="135.0,144.0 132.0,144.0 132.0,138.0 138.0,138.0 138.0,168.0 144.0,168.0 144.0,162.0 141.0,162.0" stroke="rgb(66,61,132)" stroke-width="3.5999999999999996" /><polyline fill="none" points="135.0,162.0 135.0,162.0" stroke="rgb(65,66,134)" stroke-width="3.5999999999999996" /><polyline fill="none" points="129.0,162.0 126.0,162.0 126.0,132.0 156.0,132.0 156.0,141.0" stroke="rgb(63,71,136)" stroke-width="3.5999999999999996" /><polyline fill="none" points="156.0,147.0 156.0,162.0 150.0,162.0 150.0,150.0 153.0,150.0" stroke="rgb(61,75,137)" stroke-width="3.5999999999999996" /><polyline fill="none" points="159.0,150.0 162.0,150.0 162.0,156.0 159.0,156.0" stroke="rgb(59,80,138)" stroke-width="3.5999999999999996" /><polyline fill="none" points="153.0,156.0 153.0,156.0" stroke="rgb(58,83,139)" stroke-width="3.5999999999999996" /><polyline fill="none" points="147.0,156.0 141.0,156.0" stroke="rgb(56,87,140)" stroke-width="3.5999999999999996" /><polyline fill="none" points="135.0,156.0 132.0,156.0 132.0,177.0" stroke="rgb(54,91,140)" stroke-width="3.5999999999999996" /><polyline fill="none" points="132.0,183.0 132.0,186.0 249.0,186.0" stroke="rgb(52,95,141)" stroke-width="3.5999999999999996" /><polyline fill="none" points="255.0,186.0 270.0,186.0 270.0,36.0 267.0,36.0" stroke="rgb(50,99,141)" stroke-width="3.5999999999999996" /><polyline fill="none" points="261.0,36.0 72.0,36.0 72.0,207.0" stroke="rgb(48,103,141)" stroke-width="3.5999999999999996" /><polyline fill="none" points="72.0,213.0 72.0,219.0" stroke="rgb(46,107,142)" stroke-width="3.5999999999999996" /><polyline fill="none" points="72.0,225.0 72.0,228.0 60.0,228.0 60.0,210.0 54.0,210.0 54.0,222.0 57.0,222.0" stroke="rgb(45,111,142)" stroke-width="3.5999999999999996" /><polyline fill="none" points="63.0,222.0 84.0,222.0 84.0,216.0 78.0,216.0 78.0,219.0" stroke="rgb(44,114,142)" stroke-width="3.5999999999999996" /><polyline fill="none" points="78.0,225.0 78.0,234.0 48.0,234.0 48.0,51.0" stroke="rgb(42,118,142)" stroke-width="3.5999999999999996" /><polyline fill="none" points="48.0,45.0 48.0,42.0 45.0,42.0" stroke="rgb(40,122,142)" stroke-width="3.5999999999999996" /><polyline fill="none" points="39.0,42.0 39.0,42.0" stroke="rgb(39,125,142)" stroke-width="3.5999999999999996" /><polyline fill="none" points="33.0,42.0 24.0,42.0 24.0,6.0 276.0,6.0 276.0,21.0" stroke="rgb(39,125,142)" stroke-width="3.5999999999999996" /><polyline fill="none" points="276.0,27.0 276.0,201.0" stroke="rgb(36,133,141)" stroke-width="3.5999999999999996" /><polyline fill="none" points="276.0,207.0 276.0,210.0 282.0,210.0 282.0,204.0 93.0,204.0" stroke="rgb(35,137,141)" stroke-width="3.5999999999999996" /><polyline fill="none" points="87.0,204.0 84.0,204.0 84.0,198.0 90.0,198.0 90.0,216.0 96.0,216.0 96.0,210.0 93.0,210.0" stroke="rgb(33,140,141)" stroke-width="3.5999999999999996" /><polyline fill="none" points="87.0,210.0 66.0,210.0 66.0,30.0 264.0,30.0 264.0,183.0" stroke="rgb(32,144,140)" stroke-width="3.5999999999999996" /><polyline fill="none" points="264.0,189.0 264.0,201.0" stroke="rgb(31,147,139)" stroke-width="3.5999999999999996" /><polyline fill="none" points="264.0,207.0 264.0,237.0" stroke="rgb(30,151,138)" stroke-width="3.5999999999999996" /><polyline fill="none" points="264.0,243.0 264.0,255.0" stroke="rgb(30,154,137)" stroke-width="3.5999999999999996" /><polyline fill="none" points="264.0,261.0 264.0,270.0 282.0,270.0 282.0,252.0 270.0,252.0 270.0,255.0" stroke="rgb(30,158,136)" stroke-width="3.5999999999999996" /><polyline fill="none" points="270.0,261.0 270.0,264.0 276.0,264.0 276.0,258.0 258.0,258.0 258.0,246.0 261.0,246.0" stroke="rgb(31,162,134)" stroke-width="3.5999999999999996" /><polyline fill="none" points="267.0,246.0 288.0,246.0 288.0,276.0 6.0,276.0 6.0,234.0 18.0,234.0 18.0,246.0 12.0,246.0 12.0,240.0 15.0,240.0" stroke="rgb(33,166,133)" stroke-width="3.5999999999999996" /><polyline fill="none" points="21.0,240.0 291.0,240.0" stroke="rgb(35,169,130)" stroke-width="3.5999999999999996" /><polyline fill="none" points="297.0,240.0 303.0,240.0" stroke="rgb(39,173,128)" stroke-width="3.5999999999999996" /><polyline fill="none" points="309.0,240.0 312.0,240.0 312.0,252.0 300.0,252.0 300.0,249.0" stroke="rgb(42,176,126)" stroke-width="3.5999999999999996" /><polyline fill="none" points="300.0,243.0 300.0,243.0" stroke="rgb(47,179,123)" stroke-width="3.5999999999999996" /><polyline fill="none" points="300.0,237.0 300.0,234.0 306.0,234.0 306.0,246.0 294.0,246.0 294.0,24.0 45.0,24.0" stroke="rgb(53,183,120)" stroke-width="3.5999999999999996" /><polyline fill="none" points="39.0,24.0 39.0,24.0" stroke="rgb(59,186,117)" stroke-width="3.5999999999999996" /><polyline fill="none" points="33.0,24.0 30.0,24.0 30.0,39.0" stroke="rgb(66,190,113)" stroke-width="3.5999999999999996" /><polyline fill="none" points="30.0,45.0 30.0,48.0 36.0,48.0 36.0,21.0" stroke="rgb(73,193,109)" stroke-width="3.5999999999999996" /><polyline fill="none" points="36.0,15.0 36.0,12.0 30.0,12.0 30.0,18.0 42.0,18.0 42.0,48.0 63.0,48.0" stroke="rgb(81,196,104)" stroke-width="3.5999999999999996" /><polyline fill="none" points="69.0,48.0 69.0,48.0" stroke="rgb(89,199,100)" stroke-width="3.5999999999999996" /><polyline fill="none" points="75.0,48.0 126.0,48.0 126.0,114.0 156.0,114.0 156.0,72.0 150.0,72.0 150.0,78.0 153.0,78.0" stroke="rgb(96,201,96)" stroke-width="3.5999999999999996" /><polyline fill="none" points="159.0,78.0 180.0,78.0 180.0,81.0" stroke="rgb(105,204,91)" stroke-width="3.5999999999999996" /><polyline fill="none" points="180.0,87.0 180.0,87.0" stroke="rgb(114,207,85)" stroke-width="3.5999999999999996" /><polyline fill="none" points="180.0,93.0 180.0,93.0" stroke="rgb(124,210,79)" stroke-width="3.5999999999999996" /><polyline fill="none" points="180.0,99.0 180.0,102.0 168.0,102.0 168.0,90.0 162.0,90.0 162.0,96.0 165.0,96.0" stroke="rgb(134,212,73)" stroke-width="3.5999999999999996" /><polyline fill="none" points="171.0,96.0 186.0,96.0 186.0,108.0 159.0,108.0" stroke="rgb(144,214,67)" stroke-width="3.5999999999999996" /><polyline fill="none" points="153.0,108.0 129.0,108.0" stroke="rgb(154,216,60)" stroke-width="3.5999999999999996" /><polyline fill="none" points="123.0,108.0 120.0,108.0 120.0,180.0 258.0,180.0 258.0,168.0 255.0,168.0" stroke="rgb(165,218,53)" stroke-width="3.5999999999999996" /><polyline fill="none" points="249.0,168.0 249.0,168.0" stroke="rgb(165,218,53)" stroke-width="3.5999999999999996" /><polyline fill="none" points="243.0,168.0 240.0,168.0 240.0,174.0 246.0,174.0 246.0,111.0" stroke="rgb(183,221,41)" stroke-width="3.5999999999999996" /><polyline fill="none" points="246.0,105.0 246.0,102.0 252.0,102.0 252.0,108.0 225.0,108.0" stroke="rgb(194,223,34)" stroke-width="3.5999999999999996" /><polyline fill="none" points="219.0,108.0 216.0,108.0 216.0,102.0 240.0,102.0 240.0,105.0" stroke="rgb(205,224,29)" stroke-width="3.5999999999999996" /><polyline fill="none" points="240.0,111.0 240.0,132.0 210.0,132.0 210.0,123.0" stroke="rgb(215,226,25)" stroke-width="3.5999999999999996" /><polyline fill="none" points="210.0,117.0 210.0,96.0 222.0,96.0 222.0,99.0" stroke="rgb(225,227,24)" stroke-width="3.5999999999999996" /><polyline fill="none" points="222.0,105.0 222.0,117.0" stroke="rgb(236,228,26)" stroke-width="3.5999999999999996" /><polyline fill="none" points="222.0,123.0 222.0,126.0 228.0,126.0 228.0,123.0" stroke="rgb(246,230,31)" stroke-width="3.5999999999999996" /><polyline fill="none" points="228.0,117.0 228.0,114.0 234.0,114.0 234.0,120.0 156.0,120.0 156.0,126.0 192.0,126.0 192.0,123.0" stroke="rgb(253,231,36)" stroke-width="3.5999999999999996" /></svg>