<?xml version="1.0" encoding="utf-8" ?>
<svg baseProfile="full" height="138.0" version="1.1" width="144.0" xmlns="http://www.w3.org/2000/svg" xmlns:ev="http://www.w3.org/2001/xml-events" xmlns:xlink="http://www.w3.org/1999/xlink"><defs /><polyline fill="none" points="78.0,63.0 78.0,27.0" stroke="rgb(68,1,84)" stroke-width="3.5999999999999996" /><polyline fill="none" points="78.0,21.0 78.0,21.0" stroke="rgb(71,17,99)" stroke-width="3.5999999999999996" /><polyline fill="none" points="78.0,15.0 78.0,6.0 12.0,6.0 12.0,18.0 21.0,18.0" stroke="rgb(72,32,113)" stroke-width="3.5999999999999996" /><polyline fill="none" points="27.0,18.0 84.0,18.0 84.0,24.0 72.0,24.0 72.0,30.0 75.0,30.0" stroke="rgb(70,45,124)" stroke-width="3.5999999999999996" /><polyline fill="none" points="81.0,30.0 108.0,30.0 108.0,51.0" stroke="rgb(67,59,131)" stroke-width="3.5999999999999996" /><polyline fill="none" points="108.0,57.0 108.0,60.0 102.0,60.0 102.0,54.0 132.0,54.0 132.0,48.0 126.0,48.0 126.0,51.0" stroke="rgb(62,72,136)" stroke-width="3.5999999999999996" /><polyline fill="none" points="126.0,57.0 126.0,63.0" stroke="rgb(57,84,139)" stroke-width="3.5999999999999996" /><polyline fill="none" points="126.0,69.0 126.0,126.0 132.0,126.0 132.0,120.0 129.0,120.0" stroke="rgb(52,95,141)" stroke-width="3.5999999999999996" /><polyline fill="none" points="123.0,120.0 120.0,120.0 120.0,132.0 138.0,132.0 138.0,66.0 87.0,66.0" stroke="rgb(46,107,142)" stroke-width="3.5999999999999996" /><polyline fill="none" points="81.0,66.0 57.0,66.0" stroke="rgb(42,118,142)" stroke-width="3.5999999999999996" /><polyline fill="none" points="51.0,66.0 48.0,66.0 48.0,60.0 54.0,60.0 54.0,78.0 60.0,78.0 60.0,72.0 57.0,72.0" stroke="rgb(38,128,142)" stroke-width="3.5999999999999996" /><polyline fill="none" points="51.0,72.0 36.0,72.0 36.0,78.0 42.0,78.0 42.0,75.0" stroke="rgb(34,138,141)" stroke-width="3.5999999999999996" /><polyline fill="none" points="42.0,69.0 42.0,66.0 30.0,66.0 30.0,84.0 72.0,84.0 72.0,90.0 66.0,90.0 66.0,87.0" stroke="rgb(31,149,139)" stroke-width="3.5999999999999996" /><polyline fill="none" points="66.0,81.0 66.0,69.0" stroke="rgb(30,159,136)" stroke-width="3.5999999999999996" /><polyline fill="none" points="66.0,63.0 66.0,30.0 27.0,30.0" stroke="rgb(35,169,130)" stroke-width="3.5999999999999996" /><polyline fill="none" points="21.0,30.0 6.0,30.0 6.0,114.0 120.0,114.0 120.0,90.0 108.0,90.0 108.0,93.0" stroke="rgb(47,179,123)" stroke-width="3.5999999999999996" /><polyline fill="none" points="108.0,99.0 108.0,102.0 114.0,102.0 114.0,96.0 84.0,96.0 84.0,36.0 102.0,36.0 102.0,48.0 99.0,48.0" stroke="rgb(66,190,113)" stroke-width="3.5999999999999996" /><polyline fill="none" points="93.0,48.0 90.0,48.0 90.0,42.0 96.0,42.0 96.0,63.0" stroke="rgb(87,198,101)" stroke-width="3.5999999999999996" /><polyline fill="none" points="96.0,69.0 96.0,93.0" stroke="rgb(112,206,86)" stroke-width="3.5999999999999996" /><polyline fill="none" points="96.0,99.0 96.0,108.0 102.0,108.0 102.0,102.0 99.0,102.0" stroke="rgb(139,213,70)" stroke-width="3.5999999999999996" /><polyline fill="none" points="93.0,102.0 12.0,102.0 12.0,108.0 18.0,108.0 18.0,105.0" stroke="rgb(167,219,51)" stroke-width="3.5999999999999996" /><polyline fill="none" points="18.0,99.0 18.0,33.0" stroke="rgb(197,223,33)" stroke-width="3.5999999999999996" /><polyline fill="none" points="18.0,27.0 18.0,21.0" stroke="rgb(225,227,24)" stroke-width="3.5999999999999996" /><polyline fill="none" points="18.0,15.0 18.0,12.0 24.0,12.0 24.0,96.0 78.0,96.0 78.0,69.0" stroke="rgb(253,231,36)" stroke-width="3.5999999999999996" /></svg>