<?xml version="1.0" encoding="utf-8" ?>
<svg baseProfile="full" height="120.0" version="1.1" width="120.0" xmlns="http://www.w3.org/2000/svg" xmlns:ev="http://www.w3.org/2001/xml-events" xmlns:xlink="http://www.w3.org/1999/xlink"><defs /><polyline fill="none" points="18.0,75.0 18.0,72.0 12.0,72.0 12.0,78.0 87.0,78.0" stroke="rgb(68,1,84)" stroke-width="3.5999999999999996" /><polyline fill="none" points="93.0,78.0 99.0,78.0" stroke="rgb(71,21,103)" stroke-width="3.5999999999999996" /><polyline fill="none" points="105.0,78.0 114.0,78.0 114.0,114.0 96.0,114.0 96.0,102.0 99.0,102.0" stroke="rgb(71,39,119)" stroke-width="3.5999999999999996" /><polyline fill="none" points="105.0,102.0 108.0,102.0 108.0,108.0 102.0,108.0 102.0,24.0 90.0,24.0 90.0,33.0" stroke="rgb(68,57,130)" stroke-width="3.5999999999999996" /><polyline fill="none" points="90.0,39.0 90.0,90.0 84.0,90.0 84.0,84.0 87.0,84.0" stroke="rgb(62,73,137)" stroke-width="3.5999999999999996" /><polyline fill="none" points="93.0,84.0 96.0,84.0 96.0,96.0 78.0,96.0 78.0,81.0" stroke="rgb(55,89,140)" stroke-width="3.5999999999999996" /><polyline fill="none" points="78.0,75.0 78.0,48.0 75.0,48.0" stroke="rgb(48,103,141)" stroke-width="3.5999999999999996" /><polyline fill="none" points="69.0,48.0 51.0,48.0" stroke="rgb(42,117,142)" stroke-width="3.5999999999999996" /><polyline fill="none" points="45.0,48.0 39.0,48.0" stroke="rgb(37,130,142)" stroke-width="3.5999999999999996" /><polyline fill="none" points="33.0,48.0 30.0,48.0 30.0,51.0" stroke="rgb(32,144,140)" stroke-width="3.5999999999999996" /><polyline fill="none" points="30.0,57.0 30.0,60.0 36.0,60.0 36.0,27.0" stroke="rgb(30,157,136)" stroke-width="3.5999999999999996" /><polyline fill="none" points="36.0,21.0 36.0,18.0 42.0,18.0 42.0,24.0 24.0,24.0 24.0,54.0 33.0,54.0" stroke="rgb(36,170,130)" stroke-width="3.5999999999999996" /><polyline fill="none" points="39.0,54.0 48.0,54.0 48.0,39.0" stroke="rgb(53,183,120)" stroke-width="3.5999999999999996" /><polyline fill="none" points="48.0,33.0 48.0,30.0 42.0,30.0 42.0,36.0 51.0,36.0" stroke="rgb(77,194,107)" stroke-width="3.5999999999999996" /><polyline fill="none" points="57.0,36.0 69.0,36.0" stroke="rgb(109,206,88)" stroke-width="3.5999999999999996" /><polyline fill="none" points="75.0,36.0 96.0,36.0 96.0,30.0 93.0,30.0" stroke="rgb(144,214,67)" stroke-width="3.5999999999999996" /><polyline fill="none" points="87.0,30.0 66.0,30.0 66.0,24.0 72.0,24.0 72.0,27.0" stroke="rgb(181,221,43)" stroke-width="3.5999999999999996" /><polyline fill="none" points="72.0,33.0 72.0,66.0 18.0,66.0 18.0,12.0 54.0,12.0 54.0,42.0 60.0,42.0 60.0,39.0" stroke="rgb(218,226,24)" stroke-width="3.5999999999999996" /><polyline fill="none" points="60.0,33.0 60.0,6.0 6.0,6.0 6.0,84.0 18.0,84.0 18.0,81.0" stroke="rgb(253,231,36)" stroke-width="3.5999999999999996" /></svg>