<?xml version="1.0" encoding="utf-8" ?>
<svg baseProfile="full" height="192.0" version="1.1" width="198.0" xmlns="http://www.w3.org/2000/svg" xmlns:ev="http://www.w3.org/2001/xml-events" xmlns:xlink="http://www.w3.org/1999/xlink"><defs /><polyline fill="none" points="24.0,21.0 24.0,18.0 138.0,18.0 138.0,27.0" stroke="rgb(68,1,84)" stroke-width="3.5999999999999996" /><polyline fill="none" points="138.0,33.0 138.0,99.0" stroke="rgb(70,11,94)" stroke-width="3.5999999999999996" /><polyline fill="none" points="138.0,105.0 138.0,180.0 78.0,180.0 78.0,174.0 135.0,174.0" stroke="rgb(71,22,105)" stroke-width="3.5999999999999996" /><polyline fill="none" points="141.0,174.0 144.0,174.0 144.0,186.0 6.0,186.0 6.0,6.0 156.0,6.0 156.0,99.0" stroke="rgb(72,32,113)" stroke-width="3.5999999999999996" /><polyline fill="none" points="156.0,105.0 156.0,150.0 150.0,150.0 150.0,144.0 153.0,144.0" stroke="rgb(71,42,121)" stroke-width="3.5999999999999996" /><polyline fill="none" points="159.0,144.0 162.0,144.0 162.0,156.0 144.0,156.0 144.0,105.0" stroke="rgb(69,50,127)" stroke-width="3.5999999999999996" /><polyline fill="none" points="144.0,99.0 144.0,30.0 30.0,30.0 30.0,132.0 90.0,132.0 90.0,156.0 66.0,156.0 66.0,138.0 84.0,138.0 84.0,150.0 72.0,150.0 72.0,144.0 78.0,144.0 78.0,147.0" stroke="rgb(67,60,132)" stroke-width="3.5999999999999996" /><polyline fill="none" points="78.0,153.0 78.0,153.0" stroke="rgb(64,68,135)" stroke-width="3.5999999999999996" /><polyline fill="none" points="78.0,159.0 78.0,159.0" stroke="rgb(60,77,138)" stroke-width="3.5999999999999996" /><polyline fill="none" points="78.0,165.0 78.0,168.0 60.0,168.0 60.0,135.0" stroke="rgb(57,85,139)" stroke-width="3.5999999999999996" /><polyline fill="none" points="60.0,129.0 60.0,60.0 108.0,60.0 108.0,72.0 105.0,72.0" stroke="rgb(53,93,140)" stroke-width="3.5999999999999996" /><polyline fill="none" points="99.0,72.0 66.0,72.0 66.0,66.0 72.0,66.0 72.0,69.0" stroke="rgb(49,100,141)" stroke-width="3.5999999999999996" /><polyline fill="none" points="72.0,75.0 72.0,93.0" stroke="rgb(46,108,142)" stroke-width="3.5999999999999996" /><polyline fill="none" points="72.0,99.0 72.0,114.0 114.0,114.0 114.0,81.0" stroke="rgb(43,115,142)" stroke-width="3.5999999999999996" /><polyline fill="none" points="114.0,75.0 114.0,72.0 120.0,72.0 120.0,78.0 105.0,78.0" stroke="rgb(40,122,142)" stroke-width="3.5999999999999996" /><polyline fill="none" points="99.0,78.0 90.0,78.0 90.0,96.0 108.0,96.0 108.0,84.0 96.0,84.0 96.0,90.0 102.0,90.0 102.0,87.0" stroke="rgb(38,129,142)" stroke-width="3.5999999999999996" /><polyline fill="none" points="102.0,81.0 102.0,63.0" stroke="rgb(35,137,141)" stroke-width="3.5999999999999996" /><polyline fill="none" points="102.0,57.0 102.0,54.0 132.0,54.0 132.0,126.0 63.0,126.0" stroke="rgb(32,144,140)" stroke-width="3.5999999999999996" /><polyline fill="none" points="57.0,126.0 36.0,126.0 36.0,36.0 126.0,36.0 126.0,51.0" stroke="rgb(30,151,138)" stroke-width="3.5999999999999996" /><polyline fill="none" points="126.0,57.0 126.0,120.0 63.0,120.0" stroke="rgb(30,158,136)" stroke-width="3.5999999999999996" /><polyline fill="none" points="57.0,120.0 42.0,120.0 42.0,48.0 102.0,48.0 102.0,42.0 54.0,42.0 54.0,45.0" stroke="rgb(32,165,133)" stroke-width="3.5999999999999996" /><polyline fill="none" points="54.0,51.0 54.0,102.0 48.0,102.0 48.0,96.0 51.0,96.0" stroke="rgb(38,172,129)" stroke-width="3.5999999999999996" /><polyline fill="none" points="57.0,96.0 57.0,96.0" stroke="rgb(46,178,124)" stroke-width="3.5999999999999996" /><polyline fill="none" points="63.0,96.0 84.0,96.0 84.0,99.0" stroke="rgb(57,185,118)" stroke-width="3.5999999999999996" /><polyline fill="none" points="84.0,105.0 84.0,108.0 78.0,108.0 78.0,102.0 111.0,102.0" stroke="rgb(69,191,111)" stroke-width="3.5999999999999996" /><polyline fill="none" points="117.0,102.0 123.0,102.0" stroke="rgb(85,198,102)" stroke-width="3.5999999999999996" /><polyline fill="none" points="129.0,102.0 129.0,102.0" stroke="rgb(100,203,93)" stroke-width="3.5999999999999996" /><polyline fill="none" points="135.0,102.0 177.0,102.0" stroke="rgb(119,208,82)" stroke-width="3.5999999999999996" /><polyline fill="none" points="183.0,102.0 186.0,102.0 186.0,96.0 180.0,96.0 180.0,108.0 192.0,108.0 192.0,90.0 171.0,90.0" stroke="rgb(136,213,71)" stroke-width="3.5999999999999996" /><polyline fill="none" points="165.0,90.0 162.0,90.0 162.0,84.0 168.0,84.0 168.0,99.0" stroke="rgb(157,217,58)" stroke-width="3.5999999999999996" /><polyline fill="none" points="168.0,105.0 168.0,168.0 174.0,168.0 174.0,162.0 171.0,162.0" stroke="rgb(175,220,46)" stroke-width="3.5999999999999996" /><polyline fill="none" points="165.0,162.0 141.0,162.0" stroke="rgb(197,223,33)" stroke-width="3.5999999999999996" /><polyline fill="none" points="135.0,162.0 63.0,162.0" stroke="rgb(215,226,25)" stroke-width="3.5999999999999996" /><polyline fill="none" points="57.0,162.0 12.0,162.0 12.0,12.0 144.0,12.0 144.0,24.0 141.0,24.0" stroke="rgb(236,228,26)" stroke-width="3.5999999999999996" /><polyline fill="none" points="135.0,24.0 18.0,24.0 18.0,30.0 24.0,30.0 24.0,27.0" stroke="rgb(253,231,36)" stroke-width="3.5999999999999996" /></svg>