<?xml version="1.0" encoding="utf-8" ?>
<svg baseProfile="full" height="312.0" version="1.1" width="342.0" xmlns="http://www.w3.org/2000/svg" xmlns:ev="http://www.w3.org/2001/xml-events" xmlns:xlink="http://www.w3.org/1999/xlink"><defs /><polyline fill="none" points="81.0,186.0 78.0,186.0 78.0,180.0 81.0,180.0" stroke="rgb(68,1,84)" stroke-width="3.5999999999999996" /><polyline fill="none" points="87.0,180.0 102.0,180.0 102.0,150.0 72.0,150.0 72.0,174.0 96.0,174.0 96.0,156.0 78.0,156.0 78.0,168.0 81.0,168.0" stroke="rgb(69,5,88)" stroke-width="3.5999999999999996" /><polyline fill="none" points="87.0,168.0 90.0,168.0 90.0,162.0 84.0,162.0 84.0,171.0" stroke="rgb(70,11,94)" stroke-width="3.5999999999999996" /><polyline fill="none" points="84.0,177.0 84.0,204.0 243.0,204.0" stroke="rgb(71,17,99)" stroke-width="3.5999999999999996" /><polyline fill="none" points="249.0,204.0 252.0,204.0 252.0,66.0 249.0,66.0" stroke="rgb(71,22,105)" stroke-width="3.5999999999999996" /><polyline fill="none" points="243.0,66.0 138.0,66.0 138.0,63.0" stroke="rgb(72,28,110)" stroke-width="3.5999999999999996" /><polyline fill="none" points="138.0,57.0 138.0,54.0 246.0,54.0 246.0,231.0" stroke="rgb(72,32,113)" stroke-width="3.5999999999999996" /><polyline fill="none" points="246.0,237.0 246.0,246.0 66.0,246.0 66.0,243.0" stroke="rgb(71,37,117)" stroke-width="3.5999999999999996" /><polyline fill="none" points="66.0,237.0 66.0,147.0" stroke="rgb(71,42,121)" stroke-width="3.5999999999999996" /><polyline fill="none" points="66.0,141.0 66.0,138.0 72.0,138.0 72.0,144.0 63.0,144.0" stroke="rgb(70,47,124)" stroke-width="3.5999999999999996" /><polyline fill="none" points="57.0,144.0 54.0,144.0 54.0,132.0 114.0,132.0 114.0,138.0 102.0,138.0 102.0,135.0" stroke="rgb(69,52,127)" stroke-width="3.5999999999999996" /><polyline fill="none" points="102.0,129.0 102.0,78.0 48.0,78.0 48.0,90.0 60.0,90.0 60.0,84.0 54.0,84.0 54.0,87.0" stroke="rgb(68,57,130)" stroke-width="3.5999999999999996" /><polyline fill="none" points="54.0,93.0 54.0,93.0" stroke="rgb(67,60,132)" stroke-width="3.5999999999999996" /><polyline fill="none" points="54.0,99.0 54.0,99.0" stroke="rgb(65,65,134)" stroke-width="3.5999999999999996" /><polyline fill="none" points="54.0,105.0 54.0,108.0 48.0,108.0 48.0,102.0 66.0,102.0 66.0,114.0 42.0,114.0 42.0,96.0 60.0,96.0 60.0,99.0" stroke="rgb(63,69,135)" stroke-width="3.5999999999999996" /><polyline fill="none" points="60.0,105.0 60.0,111.0" stroke="rgb(61,74,137)" stroke-width="3.5999999999999996" /><polyline fill="none" points="60.0,117.0 60.0,129.0" stroke="rgb(60,78,138)" stroke-width="3.5999999999999996" /><polyline fill="none" points="60.0,135.0 60.0,150.0 48.0,150.0 48.0,120.0 57.0,120.0" stroke="rgb(58,82,139)" stroke-width="3.5999999999999996" /><polyline fill="none" points="63.0,120.0 99.0,120.0" stroke="rgb(56,86,139)" stroke-width="3.5999999999999996" /><polyline fill="none" points="105.0,120.0 123.0,120.0" stroke="rgb(54,90,140)" stroke-width="3.5999999999999996" /><polyline fill="none" points="129.0,120.0 147.0,120.0" stroke="rgb(52,94,141)" stroke-width="3.5999999999999996" /><polyline fill="none" points="153.0,120.0 153.0,120.0" stroke="rgb(50,98,141)" stroke-width="3.5999999999999996" /><polyline fill="none" points="159.0,120.0 159.0,120.0" stroke="rgb(49,102,141)" stroke-width="3.5999999999999996" /><polyline fill="none" points="165.0,120.0 207.0,120.0" stroke="rgb(47,105,141)" stroke-width="3.5999999999999996" /><polyline fill="none" points="213.0,120.0 222.0,120.0 222.0,198.0 162.0,198.0 162.0,189.0" stroke="rgb(46,109,142)" stroke-width="3.5999999999999996" /><polyline fill="none" points="162.0,183.0 162.0,72.0 168.0,72.0 168.0,78.0 165.0,78.0" stroke="rgb(44,113,142)" stroke-width="3.5999999999999996" /><polyline fill="none" points="159.0,78.0 147.0,78.0" stroke="rgb(42,117,142)" stroke-width="3.5999999999999996" /><polyline fill="none" points="141.0,78.0 132.0,78.0 132.0,114.0 147.0,114.0" stroke="rgb(41,121,142)" stroke-width="3.5999999999999996" /><polyline fill="none" points="153.0,114.0 156.0,114.0 156.0,126.0 150.0,126.0 150.0,102.0 147.0,102.0" stroke="rgb(40,123,142)" stroke-width="3.5999999999999996" /><polyline fill="none" points="141.0,102.0 138.0,102.0 138.0,108.0 144.0,108.0 144.0,69.0" stroke="rgb(38,127,142)" stroke-width="3.5999999999999996" /><polyline fill="none" points="144.0,63.0 144.0,60.0 120.0,60.0 120.0,54.0 126.0,54.0 126.0,57.0" stroke="rgb(37,131,141)" stroke-width="3.5999999999999996" /><polyline fill="none" points="126.0,63.0 126.0,126.0 114.0,126.0 114.0,123.0" stroke="rgb(35,135,141)" stroke-width="3.5999999999999996" /><polyline fill="none" points="114.0,117.0 114.0,51.0" stroke="rgb(34,138,141)" stroke-width="3.5999999999999996" /><polyline fill="none" points="114.0,45.0 114.0,42.0 258.0,42.0 258.0,45.0" stroke="rgb(33,142,140)" stroke-width="3.5999999999999996" /><polyline fill="none" points="258.0,51.0 258.0,261.0" stroke="rgb(32,145,140)" stroke-width="3.5999999999999996" /><polyline fill="none" points="258.0,267.0 258.0,285.0" stroke="rgb(31,149,139)" stroke-width="3.5999999999999996" /><polyline fill="none" points="258.0,291.0 258.0,294.0 264.0,294.0 264.0,288.0 39.0,288.0" stroke="rgb(30,153,138)" stroke-width="3.5999999999999996" /><polyline fill="none" points="33.0,288.0 27.0,288.0" stroke="rgb(30,156,137)" stroke-width="3.5999999999999996" /><polyline fill="none" points="21.0,288.0 21.0,288.0" stroke="rgb(30,160,135)" stroke-width="3.5999999999999996" /><polyline fill="none" points="15.0,288.0 12.0,288.0 12.0,294.0 18.0,294.0 18.0,258.0 12.0,258.0 12.0,270.0 6.0,270.0 6.0,264.0 9.0,264.0" stroke="rgb(32,164,133)" stroke-width="3.5999999999999996" /><polyline fill="none" points="15.0,264.0 15.0,264.0" stroke="rgb(33,167,132)" stroke-width="3.5999999999999996" /><polyline fill="none" points="21.0,264.0 270.0,264.0 270.0,300.0 36.0,300.0 36.0,276.0 30.0,276.0 30.0,282.0 33.0,282.0" stroke="rgb(36,170,130)" stroke-width="3.5999999999999996" /><polyline fill="none" points="39.0,282.0 42.0,282.0 42.0,270.0 24.0,270.0 24.0,306.0 336.0,306.0 336.0,6.0 108.0,6.0 108.0,48.0 303.0,48.0" stroke="rgb(40,174,127)" stroke-width="3.5999999999999996" /><polyline fill="none" points="309.0,48.0 312.0,48.0 312.0,36.0 306.0,36.0 306.0,225.0" stroke="rgb(44,177,125)" stroke-width="3.5999999999999996" /><polyline fill="none" points="306.0,231.0 306.0,234.0 312.0,234.0 312.0,228.0 300.0,228.0 300.0,240.0 318.0,240.0 318.0,24.0 288.0,24.0 288.0,45.0" stroke="rgb(50,181,122)" stroke-width="3.5999999999999996" /><polyline fill="none" points="288.0,51.0 288.0,54.0 282.0,54.0 282.0,51.0" stroke="rgb(54,184,119)" stroke-width="3.5999999999999996" /><polyline fill="none" points="282.0,45.0 282.0,39.0" stroke="rgb(61,187,116)" stroke-width="3.5999999999999996" /><polyline fill="none" points="282.0,33.0 282.0,18.0 324.0,18.0 324.0,246.0 294.0,246.0 294.0,51.0" stroke="rgb(68,190,112)" stroke-width="3.5999999999999996" /><polyline fill="none" points="294.0,45.0 294.0,39.0" stroke="rgb(75,194,108)" stroke-width="3.5999999999999996" /><polyline fill="none" points="294.0,33.0 294.0,30.0 300.0,30.0 300.0,36.0 291.0,36.0" stroke="rgb(83,197,103)" stroke-width="3.5999999999999996" /><polyline fill="none" points="285.0,36.0 270.0,36.0 270.0,30.0 276.0,30.0 276.0,33.0" stroke="rgb(91,200,98)" stroke-width="3.5999999999999996" /><polyline fill="none" points="276.0,39.0 276.0,42.0 264.0,42.0 264.0,12.0 330.0,12.0 330.0,252.0 261.0,252.0" stroke="rgb(98,202,95)" stroke-width="3.5999999999999996" /><polyline fill="none" points="255.0,252.0 30.0,252.0 30.0,258.0 36.0,258.0 36.0,255.0" stroke="rgb(107,205,89)" stroke-width="3.5999999999999996" /><polyline fill="none" points="36.0,249.0 36.0,243.0" stroke="rgb(116,208,84)" stroke-width="3.5999999999999996" /><polyline fill="none" points="36.0,237.0 36.0,234.0 30.0,234.0 30.0,246.0 24.0,246.0 24.0,240.0 27.0,240.0" stroke="rgb(126,210,78)" stroke-width="3.5999999999999996" /><polyline fill="none" points="33.0,240.0 243.0,240.0" stroke="rgb(136,213,71)" stroke-width="3.5999999999999996" /><polyline fill="none" points="249.0,240.0 252.0,240.0 252.0,234.0 216.0,234.0 216.0,210.0 240.0,210.0 240.0,228.0 222.0,228.0 222.0,216.0 234.0,216.0 234.0,222.0 228.0,222.0 228.0,219.0" stroke="rgb(144,214,67)" stroke-width="3.5999999999999996" /><polyline fill="none" points="228.0,213.0 228.0,213.0" stroke="rgb(154,216,60)" stroke-width="3.5999999999999996" /><polyline fill="none" points="228.0,207.0 228.0,207.0" stroke="rgb(165,218,53)" stroke-width="3.5999999999999996" /><polyline fill="none" points="228.0,201.0 228.0,117.0" stroke="rgb(175,220,46)" stroke-width="3.5999999999999996" /><polyline fill="none" points="228.0,111.0 228.0,99.0" stroke="rgb(186,222,39)" stroke-width="3.5999999999999996" /><polyline fill="none" points="228.0,93.0 228.0,78.0 174.0,78.0 174.0,114.0 234.0,114.0 234.0,96.0 213.0,96.0" stroke="rgb(197,223,33)" stroke-width="3.5999999999999996" /><polyline fill="none" points="207.0,96.0 207.0,96.0" stroke="rgb(205,224,29)" stroke-width="3.5999999999999996" /><polyline fill="none" points="201.0,96.0 186.0,96.0 186.0,90.0 192.0,90.0 192.0,93.0" stroke="rgb(215,226,25)" stroke-width="3.5999999999999996" /><polyline fill="none" points="192.0,99.0 192.0,102.0 198.0,102.0 198.0,99.0" stroke="rgb(225,227,24)" stroke-width="3.5999999999999996" /><polyline fill="none" points="198.0,93.0 198.0,84.0 180.0,84.0 180.0,108.0 204.0,108.0 204.0,90.0 210.0,90.0 210.0,111.0" stroke="rgb(236,228,26)" stroke-width="3.5999999999999996" /><polyline fill="none" points="210.0,117.0 210.0,183.0" stroke="rgb(246,230,31)" stroke-width="3.5999999999999996" /><polyline fill="none" points="210.0,189.0 210.0,192.0 216.0,192.0 216.0,186.0 87.0,186.0" stroke="rgb(253,231,36)" stroke-width="3.5999999999999996" /></svg>