<?xml version="1.0" encoding="utf-8" standalone="no"?>
<!DOCTYPE svg PUBLIC "-//W3C//DTD SVG 1.1//EN"
  "http://www.w3.org/Graphics/SVG/1.1/DTD/svg11.dtd">
<!-- Created with matplotlib (http://matplotlib.org/) -->
<svg height="288pt" version="1.1" viewBox="0 0 432 288" width="432pt" xmlns="http://www.w3.org/2000/svg" xmlns:xlink="http://www.w3.org/1999/xlink">
 <defs>
  <style type="text/css">
*{stroke-linecap:butt;stroke-linejoin:round;}
  </style>
 </defs>
 <g id="figure_1">
  <g id="patch_1">
   <path d="M 0 288 
L 432 288 
L 432 0 
L 0 0 
z
" style="fill:#ffffff;"/>
  </g>
  <g id="axes_1">
   <g id="patch_2">
    <path d="M 54 252 
L 388.8 252 
L 388.8 34.56 
L 54 34.56 
z
" style="fill:#ffffff;"/>
   </g>
   <g id="matplotlib.axis_1">
    <g id="xtick_1">
     <g id="line2d_1">
      <defs>
       <path d="M 0 0 
L 0 3.5 
" id="m0e5785fde8" style="stroke:#000000;stroke-width:0.8;"/>
      </defs>
      <g>
       <use style="stroke:#000000;stroke-width:0.8;" x="69.218182" xlink:href="#m0e5785fde8" y="252"/>
      </g>
     </g>
     <g id="text_1">
      <!-- 0 -->
      <defs>
       <path d="M 31.78125 66.40625 
Q 24.171875 66.40625 20.328125 58.90625 
Q 16.5 51.421875 16.5 36.375 
Q 16.5 21.390625 20.328125 13.890625 
Q 24.171875 6.390625 31.78125 6.390625 
Q 39.453125 6.390625 43.28125 13.890625 
Q 47.125 21.390625 47.125 36.375 
Q 47.125 51.421875 43.28125 58.90625 
Q 39.453125 66.40625 31.78125 66.40625 
z
M 31.78125 74.21875 
Q 44.046875 74.21875 50.515625 64.515625 
Q 56.984375 54.828125 56.984375 36.375 
Q 56.984375 17.96875 50.515625 8.265625 
Q 44.046875 -1.421875 31.78125 -1.421875 
Q 19.53125 -1.421875 13.0625 8.265625 
Q 6.59375 17.96875 6.59375 36.375 
Q 6.59375 54.828125 13.0625 64.515625 
Q 19.53125 74.21875 31.78125 74.21875 
z
" id="DejaVuSans-30"/>
      </defs>
      <g transform="translate(66.036932 266.598437)scale(0.1 -0.1)">
       <use xlink:href="#DejaVuSans-30"/>
      </g>
     </g>
    </g>
    <g id="xtick_2">
     <g id="line2d_2">
      <g>
       <use style="stroke:#000000;stroke-width:0.8;" x="107.27315" xlink:href="#m0e5785fde8" y="252"/>
      </g>
     </g>
     <g id="text_2">
      <!-- 500 -->
      <defs>
       <path d="M 10.796875 72.90625 
L 49.515625 72.90625 
L 49.515625 64.59375 
L 19.828125 64.59375 
L 19.828125 46.734375 
Q 21.96875 47.46875 24.109375 47.828125 
Q 26.265625 48.1875 28.421875 48.1875 
Q 40.625 48.1875 47.75 41.5 
Q 54.890625 34.8125 54.890625 23.390625 
Q 54.890625 11.625 47.5625 5.09375 
Q 40.234375 -1.421875 26.90625 -1.421875 
Q 22.3125 -1.421875 17.546875 -0.640625 
Q 12.796875 0.140625 7.71875 1.703125 
L 7.71875 11.625 
Q 12.109375 9.234375 16.796875 8.0625 
Q 21.484375 6.890625 26.703125 6.890625 
Q 35.15625 6.890625 40.078125 11.328125 
Q 45.015625 15.765625 45.015625 23.390625 
Q 45.015625 31 40.078125 35.4375 
Q 35.15625 39.890625 26.703125 39.890625 
Q 22.75 39.890625 18.8125 39.015625 
Q 14.890625 38.140625 10.796875 36.28125 
z
" id="DejaVuSans-35"/>
      </defs>
      <g transform="translate(97.7294 266.598437)scale(0.1 -0.1)">
       <use xlink:href="#DejaVuSans-35"/>
       <use x="63.623047" xlink:href="#DejaVuSans-30"/>
       <use x="127.246094" xlink:href="#DejaVuSans-30"/>
      </g>
     </g>
    </g>
    <g id="xtick_3">
     <g id="line2d_3">
      <g>
       <use style="stroke:#000000;stroke-width:0.8;" x="145.328118" xlink:href="#m0e5785fde8" y="252"/>
      </g>
     </g>
     <g id="text_3">
      <!-- 1000 -->
      <defs>
       <path d="M 12.40625 8.296875 
L 28.515625 8.296875 
L 28.515625 63.921875 
L 10.984375 60.40625 
L 10.984375 69.390625 
L 28.421875 72.90625 
L 38.28125 72.90625 
L 38.28125 8.296875 
L 54.390625 8.296875 
L 54.390625 0 
L 12.40625 0 
z
" id="DejaVuSans-31"/>
      </defs>
      <g transform="translate(132.603118 266.598437)scale(0.1 -0.1)">
       <use xlink:href="#DejaVuSans-31"/>
       <use x="63.623047" xlink:href="#DejaVuSans-30"/>
       <use x="127.246094" xlink:href="#DejaVuSans-30"/>
       <use x="190.869141" xlink:href="#DejaVuSans-30"/>
      </g>
     </g>
    </g>
    <g id="xtick_4">
     <g id="line2d_4">
      <g>
       <use style="stroke:#000000;stroke-width:0.8;" x="183.383087" xlink:href="#m0e5785fde8" y="252"/>
      </g>
     </g>
     <g id="text_4">
      <!-- 1500 -->
      <g transform="translate(170.658087 266.598437)scale(0.1 -0.1)">
       <use xlink:href="#DejaVuSans-31"/>
       <use x="63.623047" xlink:href="#DejaVuSans-35"/>
       <use x="127.246094" xlink:href="#DejaVuSans-30"/>
       <use x="190.869141" xlink:href="#DejaVuSans-30"/>
      </g>
     </g>
    </g>
    <g id="xtick_5">
     <g id="line2d_5">
      <g>
       <use style="stroke:#000000;stroke-width:0.8;" x="221.438055" xlink:href="#m0e5785fde8" y="252"/>
      </g>
     </g>
     <g id="text_5">
      <!-- 2000 -->
      <defs>
       <path d="M 19.1875 8.296875 
L 53.609375 8.296875 
L 53.609375 0 
L 7.328125 0 
L 7.328125 8.296875 
Q 12.9375 14.109375 22.625 23.890625 
Q 32.328125 33.6875 34.8125 36.53125 
Q 39.546875 41.84375 41.421875 45.53125 
Q 43.3125 49.21875 43.3125 52.78125 
Q 43.3125 58.59375 39.234375 62.25 
Q 35.15625 65.921875 28.609375 65.921875 
Q 23.96875 65.921875 18.8125 64.3125 
Q 13.671875 62.703125 7.8125 59.421875 
L 7.8125 69.390625 
Q 13.765625 71.78125 18.9375 73 
Q 24.125 74.21875 28.421875 74.21875 
Q 39.75 74.21875 46.484375 68.546875 
Q 53.21875 62.890625 53.21875 53.421875 
Q 53.21875 48.921875 51.53125 44.890625 
Q 49.859375 40.875 45.40625 35.40625 
Q 44.1875 33.984375 37.640625 27.21875 
Q 31.109375 20.453125 19.1875 8.296875 
z
" id="DejaVuSans-32"/>
      </defs>
      <g transform="translate(208.713055 266.598437)scale(0.1 -0.1)">
       <use xlink:href="#DejaVuSans-32"/>
       <use x="63.623047" xlink:href="#DejaVuSans-30"/>
       <use x="127.246094" xlink:href="#DejaVuSans-30"/>
       <use x="190.869141" xlink:href="#DejaVuSans-30"/>
      </g>
     </g>
    </g>
    <g id="xtick_6">
     <g id="line2d_6">
      <g>
       <use style="stroke:#000000;stroke-width:0.8;" x="259.493023" xlink:href="#m0e5785fde8" y="252"/>
      </g>
     </g>
     <g id="text_6">
      <!-- 2500 -->
      <g transform="translate(246.768023 266.598437)scale(0.1 -0.1)">
       <use xlink:href="#DejaVuSans-32"/>
       <use x="63.623047" xlink:href="#DejaVuSans-35"/>
       <use x="127.246094" xlink:href="#DejaVuSans-30"/>
       <use x="190.869141" xlink:href="#DejaVuSans-30"/>
      </g>
     </g>
    </g>
    <g id="xtick_7">
     <g id="line2d_7">
      <g>
       <use style="stroke:#000000;stroke-width:0.8;" x="297.547992" xlink:href="#m0e5785fde8" y="252"/>
      </g>
     </g>
     <g id="text_7">
      <!-- 3000 -->
      <defs>
       <path d="M 40.578125 39.3125 
Q 47.65625 37.796875 51.625 33 
Q 55.609375 28.21875 55.609375 21.1875 
Q 55.609375 10.40625 48.1875 4.484375 
Q 40.765625 -1.421875 27.09375 -1.421875 
Q 22.515625 -1.421875 17.65625 -0.515625 
Q 12.796875 0.390625 7.625 2.203125 
L 7.625 11.71875 
Q 11.71875 9.328125 16.59375 8.109375 
Q 21.484375 6.890625 26.8125 6.890625 
Q 36.078125 6.890625 40.9375 10.546875 
Q 45.796875 14.203125 45.796875 21.1875 
Q 45.796875 27.640625 41.28125 31.265625 
Q 36.765625 34.90625 28.71875 34.90625 
L 20.21875 34.90625 
L 20.21875 43.015625 
L 29.109375 43.015625 
Q 36.375 43.015625 40.234375 45.921875 
Q 44.09375 48.828125 44.09375 54.296875 
Q 44.09375 59.90625 40.109375 62.90625 
Q 36.140625 65.921875 28.71875 65.921875 
Q 24.65625 65.921875 20.015625 65.03125 
Q 15.375 64.15625 9.8125 62.3125 
L 9.8125 71.09375 
Q 15.4375 72.65625 20.34375 73.4375 
Q 25.25 74.21875 29.59375 74.21875 
Q 40.828125 74.21875 47.359375 69.109375 
Q 53.90625 64.015625 53.90625 55.328125 
Q 53.90625 49.265625 50.4375 45.09375 
Q 46.96875 40.921875 40.578125 39.3125 
z
" id="DejaVuSans-33"/>
      </defs>
      <g transform="translate(284.822992 266.598437)scale(0.1 -0.1)">
       <use xlink:href="#DejaVuSans-33"/>
       <use x="63.623047" xlink:href="#DejaVuSans-30"/>
       <use x="127.246094" xlink:href="#DejaVuSans-30"/>
       <use x="190.869141" xlink:href="#DejaVuSans-30"/>
      </g>
     </g>
    </g>
    <g id="xtick_8">
     <g id="line2d_8">
      <g>
       <use style="stroke:#000000;stroke-width:0.8;" x="335.60296" xlink:href="#m0e5785fde8" y="252"/>
      </g>
     </g>
     <g id="text_8">
      <!-- 3500 -->
      <g transform="translate(322.87796 266.598437)scale(0.1 -0.1)">
       <use xlink:href="#DejaVuSans-33"/>
       <use x="63.623047" xlink:href="#DejaVuSans-35"/>
       <use x="127.246094" xlink:href="#DejaVuSans-30"/>
       <use x="190.869141" xlink:href="#DejaVuSans-30"/>
      </g>
     </g>
    </g>
    <g id="xtick_9">
     <g id="line2d_9">
      <g>
       <use style="stroke:#000000;stroke-width:0.8;" x="373.657928" xlink:href="#m0e5785fde8" y="252"/>
      </g>
     </g>
     <g id="text_9">
      <!-- 4000 -->
      <defs>
       <path d="M 37.796875 64.3125 
L 12.890625 25.390625 
L 37.796875 25.390625 
z
M 35.203125 72.90625 
L 47.609375 72.90625 
L 47.609375 25.390625 
L 58.015625 25.390625 
L 58.015625 17.1875 
L 47.609375 17.1875 
L 47.609375 0 
L 37.796875 0 
L 37.796875 17.1875 
L 4.890625 17.1875 
L 4.890625 26.703125 
z
" id="DejaVuSans-34"/>
      </defs>
      <g transform="translate(360.932928 266.598437)scale(0.1 -0.1)">
       <use xlink:href="#DejaVuSans-34"/>
       <use x="63.623047" xlink:href="#DejaVuSans-30"/>
       <use x="127.246094" xlink:href="#DejaVuSans-30"/>
       <use x="190.869141" xlink:href="#DejaVuSans-30"/>
      </g>
     </g>
    </g>
    <g id="text_10">
     <!-- Sample # -->
     <defs>
      <path d="M 53.515625 70.515625 
L 53.515625 60.890625 
Q 47.90625 63.578125 42.921875 64.890625 
Q 37.9375 66.21875 33.296875 66.21875 
Q 25.25 66.21875 20.875 63.09375 
Q 16.5 59.96875 16.5 54.203125 
Q 16.5 49.359375 19.40625 46.890625 
Q 22.3125 44.4375 30.421875 42.921875 
L 36.375 41.703125 
Q 47.40625 39.59375 52.65625 34.296875 
Q 57.90625 29 57.90625 20.125 
Q 57.90625 9.515625 50.796875 4.046875 
Q 43.703125 -1.421875 29.984375 -1.421875 
Q 24.8125 -1.421875 18.96875 -0.25 
Q 13.140625 0.921875 6.890625 3.21875 
L 6.890625 13.375 
Q 12.890625 10.015625 18.65625 8.296875 
Q 24.421875 6.59375 29.984375 6.59375 
Q 38.421875 6.59375 43.015625 9.90625 
Q 47.609375 13.234375 47.609375 19.390625 
Q 47.609375 24.75 44.3125 27.78125 
Q 41.015625 30.8125 33.5 32.328125 
L 27.484375 33.5 
Q 16.453125 35.6875 11.515625 40.375 
Q 6.59375 45.0625 6.59375 53.421875 
Q 6.59375 63.09375 13.40625 68.65625 
Q 20.21875 74.21875 32.171875 74.21875 
Q 37.3125 74.21875 42.625 73.28125 
Q 47.953125 72.359375 53.515625 70.515625 
z
" id="DejaVuSans-53"/>
      <path d="M 34.28125 27.484375 
Q 23.390625 27.484375 19.1875 25 
Q 14.984375 22.515625 14.984375 16.5 
Q 14.984375 11.71875 18.140625 8.90625 
Q 21.296875 6.109375 26.703125 6.109375 
Q 34.1875 6.109375 38.703125 11.40625 
Q 43.21875 16.703125 43.21875 25.484375 
L 43.21875 27.484375 
z
M 52.203125 31.203125 
L 52.203125 0 
L 43.21875 0 
L 43.21875 8.296875 
Q 40.140625 3.328125 35.546875 0.953125 
Q 30.953125 -1.421875 24.3125 -1.421875 
Q 15.921875 -1.421875 10.953125 3.296875 
Q 6 8.015625 6 15.921875 
Q 6 25.140625 12.171875 29.828125 
Q 18.359375 34.515625 30.609375 34.515625 
L 43.21875 34.515625 
L 43.21875 35.40625 
Q 43.21875 41.609375 39.140625 45 
Q 35.0625 48.390625 27.6875 48.390625 
Q 23 48.390625 18.546875 47.265625 
Q 14.109375 46.140625 10.015625 43.890625 
L 10.015625 52.203125 
Q 14.9375 54.109375 19.578125 55.046875 
Q 24.21875 56 28.609375 56 
Q 40.484375 56 46.34375 49.84375 
Q 52.203125 43.703125 52.203125 31.203125 
z
" id="DejaVuSans-61"/>
      <path d="M 52 44.1875 
Q 55.375 50.25 60.0625 53.125 
Q 64.75 56 71.09375 56 
Q 79.640625 56 84.28125 50.015625 
Q 88.921875 44.046875 88.921875 33.015625 
L 88.921875 0 
L 79.890625 0 
L 79.890625 32.71875 
Q 79.890625 40.578125 77.09375 44.375 
Q 74.3125 48.1875 68.609375 48.1875 
Q 61.625 48.1875 57.5625 43.546875 
Q 53.515625 38.921875 53.515625 30.90625 
L 53.515625 0 
L 44.484375 0 
L 44.484375 32.71875 
Q 44.484375 40.625 41.703125 44.40625 
Q 38.921875 48.1875 33.109375 48.1875 
Q 26.21875 48.1875 22.15625 43.53125 
Q 18.109375 38.875 18.109375 30.90625 
L 18.109375 0 
L 9.078125 0 
L 9.078125 54.6875 
L 18.109375 54.6875 
L 18.109375 46.1875 
Q 21.1875 51.21875 25.484375 53.609375 
Q 29.78125 56 35.6875 56 
Q 41.65625 56 45.828125 52.96875 
Q 50 49.953125 52 44.1875 
z
" id="DejaVuSans-6d"/>
      <path d="M 18.109375 8.203125 
L 18.109375 -20.796875 
L 9.078125 -20.796875 
L 9.078125 54.6875 
L 18.109375 54.6875 
L 18.109375 46.390625 
Q 20.953125 51.265625 25.265625 53.625 
Q 29.59375 56 35.59375 56 
Q 45.5625 56 51.78125 48.09375 
Q 58.015625 40.1875 58.015625 27.296875 
Q 58.015625 14.40625 51.78125 6.484375 
Q 45.5625 -1.421875 35.59375 -1.421875 
Q 29.59375 -1.421875 25.265625 0.953125 
Q 20.953125 3.328125 18.109375 8.203125 
z
M 48.6875 27.296875 
Q 48.6875 37.203125 44.609375 42.84375 
Q 40.53125 48.484375 33.40625 48.484375 
Q 26.265625 48.484375 22.1875 42.84375 
Q 18.109375 37.203125 18.109375 27.296875 
Q 18.109375 17.390625 22.1875 11.75 
Q 26.265625 6.109375 33.40625 6.109375 
Q 40.53125 6.109375 44.609375 11.75 
Q 48.6875 17.390625 48.6875 27.296875 
z
" id="DejaVuSans-70"/>
      <path d="M 9.421875 75.984375 
L 18.40625 75.984375 
L 18.40625 0 
L 9.421875 0 
z
" id="DejaVuSans-6c"/>
      <path d="M 56.203125 29.59375 
L 56.203125 25.203125 
L 14.890625 25.203125 
Q 15.484375 15.921875 20.484375 11.0625 
Q 25.484375 6.203125 34.421875 6.203125 
Q 39.59375 6.203125 44.453125 7.46875 
Q 49.3125 8.734375 54.109375 11.28125 
L 54.109375 2.78125 
Q 49.265625 0.734375 44.1875 -0.34375 
Q 39.109375 -1.421875 33.890625 -1.421875 
Q 20.796875 -1.421875 13.15625 6.1875 
Q 5.515625 13.8125 5.515625 26.8125 
Q 5.515625 40.234375 12.765625 48.109375 
Q 20.015625 56 32.328125 56 
Q 43.359375 56 49.78125 48.890625 
Q 56.203125 41.796875 56.203125 29.59375 
z
M 47.21875 32.234375 
Q 47.125 39.59375 43.09375 43.984375 
Q 39.0625 48.390625 32.421875 48.390625 
Q 24.90625 48.390625 20.390625 44.140625 
Q 15.875 39.890625 15.1875 32.171875 
z
" id="DejaVuSans-65"/>
      <path id="DejaVuSans-20"/>
      <path d="M 51.125 44 
L 36.921875 44 
L 32.8125 27.6875 
L 47.125 27.6875 
z
M 43.796875 71.78125 
L 38.71875 51.515625 
L 52.984375 51.515625 
L 58.109375 71.78125 
L 65.921875 71.78125 
L 60.890625 51.515625 
L 76.125 51.515625 
L 76.125 44 
L 58.984375 44 
L 54.984375 27.6875 
L 70.515625 27.6875 
L 70.515625 20.21875 
L 53.078125 20.21875 
L 48 0 
L 40.1875 0 
L 45.21875 20.21875 
L 30.90625 20.21875 
L 25.875 0 
L 18.015625 0 
L 23.09375 20.21875 
L 7.71875 20.21875 
L 7.71875 27.6875 
L 24.90625 27.6875 
L 29 44 
L 13.28125 44 
L 13.28125 51.515625 
L 30.90625 51.515625 
L 35.890625 71.78125 
z
" id="DejaVuSans-23"/>
     </defs>
     <g transform="translate(196.872656 280.276563)scale(0.1 -0.1)">
      <use xlink:href="#DejaVuSans-53"/>
      <use x="63.476562" xlink:href="#DejaVuSans-61"/>
      <use x="124.755859" xlink:href="#DejaVuSans-6d"/>
      <use x="222.167969" xlink:href="#DejaVuSans-70"/>
      <use x="285.644531" xlink:href="#DejaVuSans-6c"/>
      <use x="313.427734" xlink:href="#DejaVuSans-65"/>
      <use x="374.951172" xlink:href="#DejaVuSans-20"/>
      <use x="406.738281" xlink:href="#DejaVuSans-23"/>
     </g>
    </g>
   </g>
   <g id="matplotlib.axis_2">
    <g id="ytick_1">
     <g id="line2d_10">
      <defs>
       <path d="M 0 0 
L -3.5 0 
" id="mcaa6e01491" style="stroke:#000000;stroke-width:0.8;"/>
      </defs>
      <g>
       <use style="stroke:#000000;stroke-width:0.8;" x="54" xlink:href="#mcaa6e01491" y="229.761818"/>
      </g>
     </g>
     <g id="text_11">
      <!-- 10 -->
      <g transform="translate(34.275 233.561037)scale(0.1 -0.1)">
       <use xlink:href="#DejaVuSans-31"/>
       <use x="63.623047" xlink:href="#DejaVuSans-30"/>
      </g>
     </g>
    </g>
    <g id="ytick_2">
     <g id="line2d_11">
      <g>
       <use style="stroke:#000000;stroke-width:0.8;" x="54" xlink:href="#mcaa6e01491" y="198.875455"/>
      </g>
     </g>
     <g id="text_12">
      <!-- 20 -->
      <g transform="translate(34.275 202.674673)scale(0.1 -0.1)">
       <use xlink:href="#DejaVuSans-32"/>
       <use x="63.623047" xlink:href="#DejaVuSans-30"/>
      </g>
     </g>
    </g>
    <g id="ytick_3">
     <g id="line2d_12">
      <g>
       <use style="stroke:#000000;stroke-width:0.8;" x="54" xlink:href="#mcaa6e01491" y="167.989091"/>
      </g>
     </g>
     <g id="text_13">
      <!-- 30 -->
      <g transform="translate(34.275 171.78831)scale(0.1 -0.1)">
       <use xlink:href="#DejaVuSans-33"/>
       <use x="63.623047" xlink:href="#DejaVuSans-30"/>
      </g>
     </g>
    </g>
    <g id="ytick_4">
     <g id="line2d_13">
      <g>
       <use style="stroke:#000000;stroke-width:0.8;" x="54" xlink:href="#mcaa6e01491" y="137.102727"/>
      </g>
     </g>
     <g id="text_14">
      <!-- 40 -->
      <g transform="translate(34.275 140.901946)scale(0.1 -0.1)">
       <use xlink:href="#DejaVuSans-34"/>
       <use x="63.623047" xlink:href="#DejaVuSans-30"/>
      </g>
     </g>
    </g>
    <g id="ytick_5">
     <g id="line2d_14">
      <g>
       <use style="stroke:#000000;stroke-width:0.8;" x="54" xlink:href="#mcaa6e01491" y="106.216364"/>
      </g>
     </g>
     <g id="text_15">
      <!-- 50 -->
      <g transform="translate(34.275 110.015582)scale(0.1 -0.1)">
       <use xlink:href="#DejaVuSans-35"/>
       <use x="63.623047" xlink:href="#DejaVuSans-30"/>
      </g>
     </g>
    </g>
    <g id="ytick_6">
     <g id="line2d_15">
      <g>
       <use style="stroke:#000000;stroke-width:0.8;" x="54" xlink:href="#mcaa6e01491" y="75.33"/>
      </g>
     </g>
     <g id="text_16">
      <!-- 60 -->
      <defs>
       <path d="M 33.015625 40.375 
Q 26.375 40.375 22.484375 35.828125 
Q 18.609375 31.296875 18.609375 23.390625 
Q 18.609375 15.53125 22.484375 10.953125 
Q 26.375 6.390625 33.015625 6.390625 
Q 39.65625 6.390625 43.53125 10.953125 
Q 47.40625 15.53125 47.40625 23.390625 
Q 47.40625 31.296875 43.53125 35.828125 
Q 39.65625 40.375 33.015625 40.375 
z
M 52.59375 71.296875 
L 52.59375 62.3125 
Q 48.875 64.0625 45.09375 64.984375 
Q 41.3125 65.921875 37.59375 65.921875 
Q 27.828125 65.921875 22.671875 59.328125 
Q 17.53125 52.734375 16.796875 39.40625 
Q 19.671875 43.65625 24.015625 45.921875 
Q 28.375 48.1875 33.59375 48.1875 
Q 44.578125 48.1875 50.953125 41.515625 
Q 57.328125 34.859375 57.328125 23.390625 
Q 57.328125 12.15625 50.6875 5.359375 
Q 44.046875 -1.421875 33.015625 -1.421875 
Q 20.359375 -1.421875 13.671875 8.265625 
Q 6.984375 17.96875 6.984375 36.375 
Q 6.984375 53.65625 15.1875 63.9375 
Q 23.390625 74.21875 37.203125 74.21875 
Q 40.921875 74.21875 44.703125 73.484375 
Q 48.484375 72.75 52.59375 71.296875 
z
" id="DejaVuSans-36"/>
      </defs>
      <g transform="translate(34.275 79.129219)scale(0.1 -0.1)">
       <use xlink:href="#DejaVuSans-36"/>
       <use x="63.623047" xlink:href="#DejaVuSans-30"/>
      </g>
     </g>
    </g>
    <g id="ytick_7">
     <g id="line2d_16">
      <g>
       <use style="stroke:#000000;stroke-width:0.8;" x="54" xlink:href="#mcaa6e01491" y="44.443636"/>
      </g>
     </g>
     <g id="text_17">
      <!-- 70 -->
      <defs>
       <path d="M 8.203125 72.90625 
L 55.078125 72.90625 
L 55.078125 68.703125 
L 28.609375 0 
L 18.3125 0 
L 43.21875 64.59375 
L 8.203125 64.59375 
z
" id="DejaVuSans-37"/>
      </defs>
      <g transform="translate(34.275 48.242855)scale(0.1 -0.1)">
       <use xlink:href="#DejaVuSans-37"/>
       <use x="63.623047" xlink:href="#DejaVuSans-30"/>
      </g>
     </g>
    </g>
    <g id="text_18">
     <!-- # Crossings -->
     <defs>
      <path d="M 64.40625 67.28125 
L 64.40625 56.890625 
Q 59.421875 61.53125 53.78125 63.8125 
Q 48.140625 66.109375 41.796875 66.109375 
Q 29.296875 66.109375 22.65625 58.46875 
Q 16.015625 50.828125 16.015625 36.375 
Q 16.015625 21.96875 22.65625 14.328125 
Q 29.296875 6.6875 41.796875 6.6875 
Q 48.140625 6.6875 53.78125 8.984375 
Q 59.421875 11.28125 64.40625 15.921875 
L 64.40625 5.609375 
Q 59.234375 2.09375 53.4375 0.328125 
Q 47.65625 -1.421875 41.21875 -1.421875 
Q 24.65625 -1.421875 15.125 8.703125 
Q 5.609375 18.84375 5.609375 36.375 
Q 5.609375 53.953125 15.125 64.078125 
Q 24.65625 74.21875 41.21875 74.21875 
Q 47.75 74.21875 53.53125 72.484375 
Q 59.328125 70.75 64.40625 67.28125 
z
" id="DejaVuSans-43"/>
      <path d="M 41.109375 46.296875 
Q 39.59375 47.171875 37.8125 47.578125 
Q 36.03125 48 33.890625 48 
Q 26.265625 48 22.1875 43.046875 
Q 18.109375 38.09375 18.109375 28.8125 
L 18.109375 0 
L 9.078125 0 
L 9.078125 54.6875 
L 18.109375 54.6875 
L 18.109375 46.1875 
Q 20.953125 51.171875 25.484375 53.578125 
Q 30.03125 56 36.53125 56 
Q 37.453125 56 38.578125 55.875 
Q 39.703125 55.765625 41.0625 55.515625 
z
" id="DejaVuSans-72"/>
      <path d="M 30.609375 48.390625 
Q 23.390625 48.390625 19.1875 42.75 
Q 14.984375 37.109375 14.984375 27.296875 
Q 14.984375 17.484375 19.15625 11.84375 
Q 23.34375 6.203125 30.609375 6.203125 
Q 37.796875 6.203125 41.984375 11.859375 
Q 46.1875 17.53125 46.1875 27.296875 
Q 46.1875 37.015625 41.984375 42.703125 
Q 37.796875 48.390625 30.609375 48.390625 
z
M 30.609375 56 
Q 42.328125 56 49.015625 48.375 
Q 55.71875 40.765625 55.71875 27.296875 
Q 55.71875 13.875 49.015625 6.21875 
Q 42.328125 -1.421875 30.609375 -1.421875 
Q 18.84375 -1.421875 12.171875 6.21875 
Q 5.515625 13.875 5.515625 27.296875 
Q 5.515625 40.765625 12.171875 48.375 
Q 18.84375 56 30.609375 56 
z
" id="DejaVuSans-6f"/>
      <path d="M 44.28125 53.078125 
L 44.28125 44.578125 
Q 40.484375 46.53125 36.375 47.5 
Q 32.28125 48.484375 27.875 48.484375 
Q 21.1875 48.484375 17.84375 46.4375 
Q 14.5 44.390625 14.5 40.28125 
Q 14.5 37.15625 16.890625 35.375 
Q 19.28125 33.59375 26.515625 31.984375 
L 29.59375 31.296875 
Q 39.15625 29.25 43.1875 25.515625 
Q 47.21875 21.78125 47.21875 15.09375 
Q 47.21875 7.46875 41.1875 3.015625 
Q 35.15625 -1.421875 24.609375 -1.421875 
Q 20.21875 -1.421875 15.453125 -0.5625 
Q 10.6875 0.296875 5.421875 2 
L 5.421875 11.28125 
Q 10.40625 8.6875 15.234375 7.390625 
Q 20.0625 6.109375 24.8125 6.109375 
Q 31.15625 6.109375 34.5625 8.28125 
Q 37.984375 10.453125 37.984375 14.40625 
Q 37.984375 18.0625 35.515625 20.015625 
Q 33.0625 21.96875 24.703125 23.78125 
L 21.578125 24.515625 
Q 13.234375 26.265625 9.515625 29.90625 
Q 5.8125 33.546875 5.8125 39.890625 
Q 5.8125 47.609375 11.28125 51.796875 
Q 16.75 56 26.8125 56 
Q 31.78125 56 36.171875 55.265625 
Q 40.578125 54.546875 44.28125 53.078125 
z
" id="DejaVuSans-73"/>
      <path d="M 9.421875 54.6875 
L 18.40625 54.6875 
L 18.40625 0 
L 9.421875 0 
z
M 9.421875 75.984375 
L 18.40625 75.984375 
L 18.40625 64.59375 
L 9.421875 64.59375 
z
" id="DejaVuSans-69"/>
      <path d="M 54.890625 33.015625 
L 54.890625 0 
L 45.90625 0 
L 45.90625 32.71875 
Q 45.90625 40.484375 42.875 44.328125 
Q 39.84375 48.1875 33.796875 48.1875 
Q 26.515625 48.1875 22.3125 43.546875 
Q 18.109375 38.921875 18.109375 30.90625 
L 18.109375 0 
L 9.078125 0 
L 9.078125 54.6875 
L 18.109375 54.6875 
L 18.109375 46.1875 
Q 21.34375 51.125 25.703125 53.5625 
Q 30.078125 56 35.796875 56 
Q 45.21875 56 50.046875 50.171875 
Q 54.890625 44.34375 54.890625 33.015625 
z
" id="DejaVuSans-6e"/>
      <path d="M 45.40625 27.984375 
Q 45.40625 37.75 41.375 43.109375 
Q 37.359375 48.484375 30.078125 48.484375 
Q 22.859375 48.484375 18.828125 43.109375 
Q 14.796875 37.75 14.796875 27.984375 
Q 14.796875 18.265625 18.828125 12.890625 
Q 22.859375 7.515625 30.078125 7.515625 
Q 37.359375 7.515625 41.375 12.890625 
Q 45.40625 18.265625 45.40625 27.984375 
z
M 54.390625 6.78125 
Q 54.390625 -7.171875 48.1875 -13.984375 
Q 42 -20.796875 29.203125 -20.796875 
Q 24.46875 -20.796875 20.265625 -20.09375 
Q 16.0625 -19.390625 12.109375 -17.921875 
L 12.109375 -9.1875 
Q 16.0625 -11.328125 19.921875 -12.34375 
Q 23.78125 -13.375 27.78125 -13.375 
Q 36.625 -13.375 41.015625 -8.765625 
Q 45.40625 -4.15625 45.40625 5.171875 
L 45.40625 9.625 
Q 42.625 4.78125 38.28125 2.390625 
Q 33.9375 0 27.875 0 
Q 17.828125 0 11.671875 7.65625 
Q 5.515625 15.328125 5.515625 27.984375 
Q 5.515625 40.671875 11.671875 48.328125 
Q 17.828125 56 27.875 56 
Q 33.9375 56 38.28125 53.609375 
Q 42.625 51.21875 45.40625 46.390625 
L 45.40625 54.6875 
L 54.390625 54.6875 
z
" id="DejaVuSans-67"/>
     </defs>
     <g transform="translate(28.195312 173.209688)rotate(-90)scale(0.1 -0.1)">
      <use xlink:href="#DejaVuSans-23"/>
      <use x="83.789062" xlink:href="#DejaVuSans-20"/>
      <use x="115.576172" xlink:href="#DejaVuSans-43"/>
      <use x="185.400391" xlink:href="#DejaVuSans-72"/>
      <use x="226.482422" xlink:href="#DejaVuSans-6f"/>
      <use x="287.664062" xlink:href="#DejaVuSans-73"/>
      <use x="339.763672" xlink:href="#DejaVuSans-73"/>
      <use x="391.863281" xlink:href="#DejaVuSans-69"/>
      <use x="419.646484" xlink:href="#DejaVuSans-6e"/>
      <use x="483.025391" xlink:href="#DejaVuSans-67"/>
      <use x="546.501953" xlink:href="#DejaVuSans-73"/>
     </g>
    </g>
   </g>
   <g id="line2d_17">
    <path clip-path="url(#p9f46876a96)" d="M 69.218182 223.584545 
L 69.294292 195.786818 
L 69.446512 109.305 
L 69.674841 62.975455 
L 69.750951 69.152727 
L 69.903171 189.609545 
L 69.979281 140.191364 
L 70.055391 164.900455 
L 70.131501 235.939091 
L 70.283721 81.507273 
L 70.359831 239.027727 
L 70.435941 217.407273 
L 70.512051 232.850455 
L 70.740381 87.684545 
L 70.8926 195.786818 
L 70.96871 167.989091 
L 71.12093 220.495909 
L 71.19704 78.418636 
L 71.34926 174.166364 
L 71.42537 75.33 
L 71.50148 78.418636 
L 71.57759 152.545909 
L 71.72981 53.709545 
L 71.80592 53.709545 
L 72.034249 205.052727 
L 72.186469 109.305 
L 72.262579 161.811818 
L 72.338689 167.989091 
L 72.414799 235.939091 
L 72.490909 164.900455 
L 72.567019 167.989091 
L 72.643129 155.634545 
L 72.719239 84.595909 
L 72.795349 217.407273 
L 72.871459 208.141364 
L 72.947569 214.318636 
L 73.023679 140.191364 
L 73.099789 226.673182 
L 73.175899 217.407273 
L 73.252008 167.989091 
L 73.328118 44.443636 
L 73.404228 158.723182 
L 73.480338 146.368636 
L 73.556448 146.368636 
L 73.632558 180.343636 
L 73.708668 106.216364 
L 73.860888 208.141364 
L 74.013108 115.482273 
L 74.317548 192.698182 
L 74.393658 189.609545 
L 74.545877 171.077727 
L 74.621987 93.861818 
L 74.698097 140.191364 
L 74.774207 53.709545 
L 74.850317 81.507273 
L 75.002537 69.152727 
L 75.078647 155.634545 
L 75.154757 56.798182 
L 75.230867 134.014091 
L 75.306977 109.305 
L 75.383087 84.595909 
L 75.459197 90.773182 
L 75.611416 189.609545 
L 75.687526 198.875455 
L 75.839746 130.925455 
L 75.915856 174.166364 
L 75.991966 137.102727 
L 76.068076 149.457273 
L 76.144186 232.850455 
L 76.220296 183.432273 
L 76.296406 223.584545 
L 76.448626 50.620909 
L 76.524736 78.418636 
L 76.753066 195.786818 
L 76.905285 220.495909 
L 76.981395 87.684545 
L 77.057505 124.748182 
L 77.209725 53.709545 
L 77.361945 239.027727 
L 77.438055 84.595909 
L 77.514165 96.950455 
L 77.666385 195.786818 
L 77.742495 53.709545 
L 77.818605 137.102727 
L 77.894715 47.532273 
L 77.970825 50.620909 
L 78.046934 47.532273 
L 78.199154 180.343636 
L 78.275264 171.077727 
L 78.427484 146.368636 
L 78.503594 174.166364 
L 78.579704 164.900455 
L 78.655814 177.255 
L 78.808034 47.532273 
L 78.884144 232.850455 
L 78.960254 205.052727 
L 79.112474 66.064091 
L 79.188584 69.152727 
L 79.264693 232.850455 
L 79.340803 183.432273 
L 79.416913 217.407273 
L 79.493023 56.798182 
L 79.569133 59.886818 
L 79.721353 205.052727 
L 79.873573 44.443636 
L 80.025793 75.33 
L 80.101903 239.027727 
L 80.178013 87.684545 
L 80.254123 171.077727 
L 80.330233 72.241364 
L 80.482452 195.786818 
L 80.710782 78.418636 
L 80.786892 93.861818 
L 80.863002 211.23 
L 80.939112 96.950455 
L 81.091332 214.318636 
L 81.167442 149.457273 
L 81.243552 174.166364 
L 81.319662 115.482273 
L 81.395772 183.432273 
L 81.471882 134.014091 
L 81.547992 164.900455 
L 81.624101 59.886818 
L 81.700211 66.064091 
L 81.776321 44.443636 
L 81.852431 195.786818 
L 81.928541 143.28 
L 82.004651 112.393636 
L 82.080761 164.900455 
L 82.232981 44.443636 
L 82.385201 146.368636 
L 82.537421 47.532273 
L 82.689641 72.241364 
L 82.765751 186.520909 
L 82.84186 183.432273 
L 83.07019 59.886818 
L 83.45074 242.116364 
L 83.52685 167.989091 
L 83.60296 171.077727 
L 83.67907 211.23 
L 83.75518 84.595909 
L 83.83129 93.861818 
L 83.9074 96.950455 
L 84.059619 211.23 
L 84.135729 56.798182 
L 84.211839 75.33 
L 84.287949 50.620909 
L 84.364059 226.673182 
L 84.440169 161.811818 
L 84.592389 47.532273 
L 84.668499 75.33 
L 84.744609 84.595909 
L 84.820719 124.748182 
L 84.896829 242.116364 
L 84.972939 235.939091 
L 85.277378 66.064091 
L 85.353488 205.052727 
L 85.429598 56.798182 
L 85.505708 174.166364 
L 85.581818 158.723182 
L 85.657928 47.532273 
L 85.734038 232.850455 
L 85.810148 217.407273 
L 85.886258 158.723182 
L 85.962368 232.850455 
L 86.190698 62.975455 
L 86.266808 130.925455 
L 86.342918 109.305 
L 86.495137 72.241364 
L 86.571247 87.684545 
L 86.647357 242.116364 
L 86.723467 174.166364 
L 86.875687 189.609545 
L 86.951797 47.532273 
L 87.027907 229.761818 
L 87.180127 59.886818 
L 87.332347 211.23 
L 87.484567 106.216364 
L 87.560677 195.786818 
L 87.636786 121.659545 
L 87.712896 226.673182 
L 87.789006 93.861818 
L 87.865116 235.939091 
L 88.017336 59.886818 
L 88.093446 62.975455 
L 88.245666 121.659545 
L 88.397886 81.507273 
L 88.473996 205.052727 
L 88.550106 121.659545 
L 88.626216 134.014091 
L 88.702326 174.166364 
L 88.778436 127.836818 
L 88.854545 137.102727 
L 88.930655 103.127727 
L 89.006765 130.925455 
L 89.158985 75.33 
L 89.311205 93.861818 
L 89.387315 53.709545 
L 89.463425 93.861818 
L 89.539535 81.507273 
L 89.615645 75.33 
L 89.767865 44.443636 
L 89.920085 84.595909 
L 90.148414 56.798182 
L 90.224524 81.507273 
L 90.376744 53.709545 
L 90.452854 53.709545 
L 90.528964 59.886818 
L 90.681184 84.595909 
L 90.833404 78.418636 
L 90.985624 53.709545 
L 91.061734 143.28 
L 91.137844 66.064091 
L 91.290063 232.850455 
L 91.366173 208.141364 
L 91.442283 235.939091 
L 91.670613 115.482273 
L 91.898943 242.116364 
L 91.975053 53.709545 
L 92.051163 69.152727 
L 92.127273 195.786818 
L 92.279493 53.709545 
L 92.355603 93.861818 
L 92.431712 69.152727 
L 92.507822 90.773182 
L 92.583932 235.939091 
L 92.660042 180.343636 
L 92.736152 223.584545 
L 92.812262 214.318636 
L 92.888372 232.850455 
L 93.040592 106.216364 
L 93.345032 223.584545 
L 93.421142 195.786818 
L 93.573362 223.584545 
L 93.801691 87.684545 
L 93.877801 84.595909 
L 93.953911 211.23 
L 94.106131 112.393636 
L 94.182241 180.343636 
L 94.258351 59.886818 
L 94.334461 174.166364 
L 94.410571 78.418636 
L 94.486681 174.166364 
L 94.562791 90.773182 
L 94.638901 124.748182 
L 94.715011 81.507273 
L 94.791121 214.318636 
L 94.86723 164.900455 
L 94.94334 149.457273 
L 95.01945 208.141364 
L 95.17167 69.152727 
L 95.24778 47.532273 
L 95.32389 177.255 
L 95.4 53.709545 
L 95.47611 78.418636 
L 95.55222 127.836818 
L 95.62833 87.684545 
L 95.70444 164.900455 
L 95.78055 161.811818 
L 95.85666 124.748182 
L 95.93277 232.850455 
L 96.008879 186.520909 
L 96.237209 47.532273 
L 96.313319 93.861818 
L 96.389429 208.141364 
L 96.465539 201.964091 
L 96.617759 75.33 
L 96.693869 232.850455 
L 96.769979 167.989091 
L 96.846089 69.152727 
L 96.922199 124.748182 
L 96.998309 90.773182 
L 97.226638 232.850455 
L 97.302748 220.495909 
L 97.454968 106.216364 
L 97.531078 217.407273 
L 97.607188 198.875455 
L 97.683298 223.584545 
L 97.835518 171.077727 
L 97.987738 56.798182 
L 98.063848 214.318636 
L 98.139958 100.039091 
L 98.216068 106.216364 
L 98.368288 90.773182 
L 98.444397 90.773182 
L 98.596617 121.659545 
L 98.672727 78.418636 
L 98.748837 140.191364 
L 98.977167 81.507273 
L 99.053277 167.989091 
L 99.281607 53.709545 
L 99.433827 93.861818 
L 99.586047 53.709545 
L 99.662156 177.255 
L 99.814376 100.039091 
L 99.890486 109.305 
L 99.966596 158.723182 
L 100.042706 50.620909 
L 100.118816 137.102727 
L 100.194926 115.482273 
L 100.271036 44.443636 
L 100.347146 56.798182 
L 100.423256 84.595909 
L 100.651586 50.620909 
L 100.727696 93.861818 
L 100.803805 72.241364 
L 100.956025 217.407273 
L 101.260465 112.393636 
L 101.336575 208.141364 
L 101.488795 53.709545 
L 101.641015 183.432273 
L 101.717125 72.241364 
L 101.793235 177.255 
L 101.869345 152.545909 
L 101.945455 81.507273 
L 102.097674 214.318636 
L 102.173784 143.28 
L 102.249894 164.900455 
L 102.326004 229.761818 
L 102.402114 223.584545 
L 102.478224 242.116364 
L 102.554334 232.850455 
L 102.630444 146.368636 
L 102.706554 174.166364 
L 102.782664 161.811818 
L 102.858774 106.216364 
L 103.010994 171.077727 
L 103.087104 174.166364 
L 103.163214 217.407273 
L 103.315433 115.482273 
L 103.391543 121.659545 
L 103.467653 93.861818 
L 103.619873 124.748182 
L 103.695983 66.064091 
L 103.772093 93.861818 
L 103.848203 177.255 
L 103.924313 100.039091 
L 104.000423 180.343636 
L 104.152643 72.241364 
L 104.304863 180.343636 
L 104.533192 75.33 
L 104.609302 84.595909 
L 104.685412 195.786818 
L 104.837632 44.443636 
L 105.065962 84.595909 
L 105.142072 167.989091 
L 105.218182 56.798182 
L 105.294292 72.241364 
L 105.370402 84.595909 
L 105.446512 134.014091 
L 105.522622 121.659545 
L 105.750951 44.443636 
L 105.827061 121.659545 
L 105.979281 50.620909 
L 106.055391 109.305 
L 106.131501 81.507273 
L 106.207611 214.318636 
L 106.283721 186.520909 
L 106.359831 186.520909 
L 106.512051 66.064091 
L 106.588161 78.418636 
L 106.664271 69.152727 
L 106.740381 232.850455 
L 106.81649 158.723182 
L 106.8926 232.850455 
L 106.96871 220.495909 
L 107.04482 226.673182 
L 107.12093 118.570909 
L 107.19704 143.28 
L 107.27315 134.014091 
L 107.34926 217.407273 
L 107.42537 198.875455 
L 107.50148 174.166364 
L 107.57759 186.520909 
L 107.6537 167.989091 
L 107.72981 171.077727 
L 107.88203 232.850455 
L 107.95814 59.886818 
L 108.110359 214.318636 
L 108.186469 140.191364 
L 108.262579 161.811818 
L 108.414799 239.027727 
L 108.490909 198.875455 
L 108.567019 208.141364 
L 108.643129 208.141364 
L 108.719239 201.964091 
L 108.795349 239.027727 
L 108.871459 167.989091 
L 108.947569 214.318636 
L 109.175899 93.861818 
L 109.252008 56.798182 
L 109.328118 140.191364 
L 109.404228 78.418636 
L 109.480338 239.027727 
L 109.556448 87.684545 
L 109.708668 229.761818 
L 109.784778 59.886818 
L 109.860888 81.507273 
L 109.936998 53.709545 
L 110.013108 103.127727 
L 110.089218 84.595909 
L 110.165328 47.532273 
L 110.317548 130.925455 
L 110.393658 53.709545 
L 110.698097 195.786818 
L 110.774207 205.052727 
L 110.850317 140.191364 
L 110.926427 220.495909 
L 111.002537 192.698182 
L 111.078647 189.609545 
L 111.154757 103.127727 
L 111.230867 177.255 
L 111.306977 90.773182 
L 111.383087 158.723182 
L 111.459197 155.634545 
L 111.535307 112.393636 
L 111.611416 189.609545 
L 111.687526 127.836818 
L 111.763636 130.925455 
L 111.839746 205.052727 
L 111.915856 127.836818 
L 112.068076 229.761818 
L 112.144186 205.052727 
L 112.220296 220.495909 
L 112.296406 214.318636 
L 112.372516 115.482273 
L 112.524736 223.584545 
L 112.676956 56.798182 
L 112.753066 106.216364 
L 112.829175 226.673182 
L 112.905285 214.318636 
L 112.981395 229.761818 
L 113.057505 217.407273 
L 113.209725 72.241364 
L 113.285835 78.418636 
L 113.438055 208.141364 
L 113.590275 146.368636 
L 113.666385 223.584545 
L 113.894715 130.925455 
L 113.970825 211.23 
L 114.123044 134.014091 
L 114.199154 143.28 
L 114.351374 93.861818 
L 114.427484 93.861818 
L 114.579704 149.457273 
L 114.655814 189.609545 
L 114.731924 183.432273 
L 114.884144 53.709545 
L 114.960254 106.216364 
L 115.036364 69.152727 
L 115.112474 140.191364 
L 115.188584 47.532273 
L 115.340803 242.116364 
L 115.416913 47.532273 
L 115.493023 183.432273 
L 115.569133 59.886818 
L 115.645243 103.127727 
L 115.797463 232.850455 
L 115.873573 93.861818 
L 115.949683 130.925455 
L 116.025793 47.532273 
L 116.101903 50.620909 
L 116.330233 158.723182 
L 116.558562 44.443636 
L 116.710782 118.570909 
L 116.786892 69.152727 
L 116.863002 84.595909 
L 117.015222 164.900455 
L 117.167442 53.709545 
L 117.319662 242.116364 
L 117.395772 164.900455 
L 117.547992 223.584545 
L 117.624101 211.23 
L 117.700211 134.014091 
L 117.776321 195.786818 
L 118.004651 72.241364 
L 118.080761 47.532273 
L 118.156871 112.393636 
L 118.232981 84.595909 
L 118.309091 53.709545 
L 118.385201 121.659545 
L 118.461311 59.886818 
L 118.537421 66.064091 
L 118.765751 140.191364 
L 118.84186 84.595909 
L 118.99408 205.052727 
L 119.29852 69.152727 
L 119.37463 208.141364 
L 119.45074 118.570909 
L 119.52685 192.698182 
L 119.60296 121.659545 
L 119.75518 223.584545 
L 119.83129 50.620909 
L 119.9074 106.216364 
L 120.059619 62.975455 
L 120.135729 130.925455 
L 120.211839 72.241364 
L 120.287949 229.761818 
L 120.364059 177.255 
L 120.440169 66.064091 
L 120.516279 161.811818 
L 120.592389 109.305 
L 120.668499 171.077727 
L 120.820719 66.064091 
L 120.896829 93.861818 
L 120.972939 93.861818 
L 121.049049 90.773182 
L 121.125159 78.418636 
L 121.201268 109.305 
L 121.277378 53.709545 
L 121.353488 93.861818 
L 121.429598 66.064091 
L 121.505708 103.127727 
L 121.581818 62.975455 
L 121.657928 130.925455 
L 121.734038 78.418636 
L 121.810148 93.861818 
L 121.886258 121.659545 
L 121.962368 192.698182 
L 122.038478 180.343636 
L 122.114588 130.925455 
L 122.190698 208.141364 
L 122.266808 171.077727 
L 122.419027 62.975455 
L 122.495137 81.507273 
L 122.571247 146.368636 
L 122.647357 62.975455 
L 122.723467 180.343636 
L 122.875687 112.393636 
L 122.951797 115.482273 
L 123.027907 109.305 
L 123.104017 66.064091 
L 123.180127 78.418636 
L 123.256237 56.798182 
L 123.332347 109.305 
L 123.408457 90.773182 
L 123.484567 62.975455 
L 123.560677 96.950455 
L 123.636786 72.241364 
L 123.712896 180.343636 
L 123.789006 103.127727 
L 123.865116 109.305 
L 123.941226 149.457273 
L 124.169556 47.532273 
L 124.245666 62.975455 
L 124.397886 205.052727 
L 124.473996 90.773182 
L 124.550106 106.216364 
L 124.626216 96.950455 
L 124.702326 62.975455 
L 124.778436 90.773182 
L 124.854545 232.850455 
L 124.930655 183.432273 
L 125.006765 192.698182 
L 125.082875 118.570909 
L 125.158985 146.368636 
L 125.235095 152.545909 
L 125.311205 72.241364 
L 125.387315 180.343636 
L 125.539535 81.507273 
L 125.843975 201.964091 
L 125.996195 177.255 
L 126.148414 235.939091 
L 126.224524 161.811818 
L 126.376744 226.673182 
L 126.452854 229.761818 
L 126.528964 140.191364 
L 126.605074 174.166364 
L 126.681184 223.584545 
L 126.757294 205.052727 
L 126.909514 164.900455 
L 127.061734 223.584545 
L 127.137844 180.343636 
L 127.213953 211.23 
L 127.290063 140.191364 
L 127.366173 171.077727 
L 127.442283 232.850455 
L 127.518393 167.989091 
L 127.594503 220.495909 
L 127.670613 121.659545 
L 127.746723 152.545909 
L 127.822833 130.925455 
L 127.975053 217.407273 
L 128.051163 90.773182 
L 128.127273 211.23 
L 128.203383 146.368636 
L 128.279493 242.116364 
L 128.355603 223.584545 
L 128.507822 93.861818 
L 128.660042 124.748182 
L 128.812262 242.116364 
L 128.888372 229.761818 
L 129.040592 75.33 
L 129.116702 220.495909 
L 129.192812 211.23 
L 129.421142 87.684545 
L 129.573362 189.609545 
L 129.649471 50.620909 
L 129.725581 72.241364 
L 129.801691 223.584545 
L 129.877801 72.241364 
L 129.953911 78.418636 
L 130.030021 208.141364 
L 130.106131 134.014091 
L 130.182241 211.23 
L 130.258351 198.875455 
L 130.334461 220.495909 
L 130.562791 62.975455 
L 130.715011 211.23 
L 130.791121 56.798182 
L 130.86723 127.836818 
L 130.94334 78.418636 
L 131.01945 235.939091 
L 131.09556 127.836818 
L 131.17167 189.609545 
L 131.24778 164.900455 
L 131.55222 47.532273 
L 131.62833 66.064091 
L 131.70444 143.28 
L 131.85666 66.064091 
L 131.93277 177.255 
L 132.008879 118.570909 
L 132.161099 152.545909 
L 132.237209 100.039091 
L 132.389429 152.545909 
L 132.465539 62.975455 
L 132.617759 205.052727 
L 132.693869 164.900455 
L 132.769979 226.673182 
L 132.922199 177.255 
L 132.998309 220.495909 
L 133.226638 78.418636 
L 133.454968 223.584545 
L 133.531078 93.861818 
L 133.607188 195.786818 
L 133.683298 87.684545 
L 133.759408 189.609545 
L 133.911628 72.241364 
L 133.987738 81.507273 
L 134.139958 146.368636 
L 134.216068 103.127727 
L 134.444397 171.077727 
L 134.520507 137.102727 
L 134.596617 198.875455 
L 134.672727 47.532273 
L 134.748837 50.620909 
L 134.824947 134.014091 
L 134.901057 109.305 
L 134.977167 56.798182 
L 135.129387 118.570909 
L 135.205497 59.886818 
L 135.281607 217.407273 
L 135.433827 66.064091 
L 135.509937 84.595909 
L 135.586047 195.786818 
L 135.662156 161.811818 
L 135.738266 75.33 
L 135.814376 84.595909 
L 135.890486 66.064091 
L 135.966596 232.850455 
L 136.042706 205.052727 
L 136.118816 164.900455 
L 136.347146 242.116364 
L 136.575476 72.241364 
L 136.651586 177.255 
L 136.727696 127.836818 
L 136.879915 195.786818 
L 137.032135 66.064091 
L 137.184355 118.570909 
L 137.260465 217.407273 
L 137.336575 134.014091 
L 137.412685 235.939091 
L 137.488795 214.318636 
L 137.641015 96.950455 
L 137.717125 201.964091 
L 137.793235 93.861818 
L 137.869345 217.407273 
L 137.945455 149.457273 
L 138.021564 177.255 
L 138.097674 205.052727 
L 138.249894 127.836818 
L 138.326004 242.116364 
L 138.402114 232.850455 
L 138.478224 223.584545 
L 138.630444 90.773182 
L 138.858774 242.116364 
L 138.934884 229.761818 
L 139.010994 69.152727 
L 139.087104 81.507273 
L 139.163214 217.407273 
L 139.239323 66.064091 
L 139.315433 103.127727 
L 139.391543 229.761818 
L 139.467653 78.418636 
L 139.543763 232.850455 
L 139.619873 152.545909 
L 139.695983 214.318636 
L 139.772093 164.900455 
L 139.848203 226.673182 
L 139.924313 96.950455 
L 140.000423 149.457273 
L 140.076533 201.964091 
L 140.152643 183.432273 
L 140.228753 183.432273 
L 140.304863 235.939091 
L 140.380973 109.305 
L 140.457082 223.584545 
L 140.533192 109.305 
L 140.609302 232.850455 
L 140.685412 211.23 
L 140.761522 186.520909 
L 140.913742 239.027727 
L 141.065962 130.925455 
L 141.142072 167.989091 
L 141.218182 109.305 
L 141.294292 124.748182 
L 141.370402 192.698182 
L 141.522622 140.191364 
L 141.598732 186.520909 
L 141.674841 121.659545 
L 141.827061 239.027727 
L 141.903171 192.698182 
L 141.979281 195.786818 
L 142.055391 106.216364 
L 142.131501 214.318636 
L 142.207611 198.875455 
L 142.512051 44.443636 
L 142.588161 50.620909 
L 142.740381 103.127727 
L 142.8926 90.773182 
L 142.96871 62.975455 
L 143.04482 69.152727 
L 143.12093 78.418636 
L 143.19704 201.964091 
L 143.27315 198.875455 
L 143.34926 174.166364 
L 143.57759 242.116364 
L 143.6537 140.191364 
L 143.72981 239.027727 
L 143.80592 118.570909 
L 143.88203 158.723182 
L 144.034249 239.027727 
L 144.110359 174.166364 
L 144.186469 205.052727 
L 144.262579 195.786818 
L 144.338689 152.545909 
L 144.414799 44.443636 
L 144.567019 140.191364 
L 144.719239 235.939091 
L 144.795349 217.407273 
L 145.023679 124.748182 
L 145.175899 205.052727 
L 145.252008 186.520909 
L 145.328118 235.939091 
L 145.556448 59.886818 
L 145.632558 66.064091 
L 145.708668 75.33 
L 145.936998 183.432273 
L 146.089218 134.014091 
L 146.165328 115.482273 
L 146.241438 229.761818 
L 146.317548 118.570909 
L 146.393658 167.989091 
L 146.469767 232.850455 
L 146.545877 195.786818 
L 146.621987 47.532273 
L 146.698097 158.723182 
L 146.774207 118.570909 
L 146.850317 180.343636 
L 146.926427 158.723182 
L 147.002537 174.166364 
L 147.078647 149.457273 
L 147.230867 205.052727 
L 147.306977 214.318636 
L 147.383087 130.925455 
L 147.459197 232.850455 
L 147.687526 106.216364 
L 147.763636 109.305 
L 148.068076 44.443636 
L 148.144186 93.861818 
L 148.220296 69.152727 
L 148.296406 137.102727 
L 148.372516 121.659545 
L 148.448626 53.709545 
L 148.600846 158.723182 
L 148.676956 66.064091 
L 148.829175 201.964091 
L 148.905285 158.723182 
L 148.981395 226.673182 
L 149.057505 214.318636 
L 149.133615 201.964091 
L 149.285835 50.620909 
L 149.361945 53.709545 
L 149.438055 47.532273 
L 149.666385 235.939091 
L 149.742495 87.684545 
L 149.970825 232.850455 
L 150.046934 239.027727 
L 150.123044 96.950455 
L 150.199154 124.748182 
L 150.275264 112.393636 
L 150.351374 53.709545 
L 150.427484 198.875455 
L 150.503594 155.634545 
L 150.579704 50.620909 
L 150.655814 220.495909 
L 150.731924 192.698182 
L 150.884144 90.773182 
L 150.960254 109.305 
L 151.112474 189.609545 
L 151.188584 220.495909 
L 151.416913 161.811818 
L 151.493023 174.166364 
L 151.721353 69.152727 
L 151.797463 84.595909 
L 152.025793 195.786818 
L 152.101903 167.989091 
L 152.254123 72.241364 
L 152.482452 226.673182 
L 152.558562 217.407273 
L 152.634672 235.939091 
L 152.710782 140.191364 
L 152.786892 155.634545 
L 152.863002 146.368636 
L 152.939112 235.939091 
L 153.015222 201.964091 
L 153.167442 50.620909 
L 153.319662 229.761818 
L 153.395772 180.343636 
L 153.471882 180.343636 
L 153.547992 171.077727 
L 153.624101 121.659545 
L 153.700211 229.761818 
L 153.776321 149.457273 
L 154.004651 239.027727 
L 154.080761 223.584545 
L 154.232981 47.532273 
L 154.309091 62.975455 
L 154.385201 149.457273 
L 154.461311 127.836818 
L 154.613531 220.495909 
L 154.689641 211.23 
L 154.84186 134.014091 
L 154.91797 223.584545 
L 155.07019 50.620909 
L 155.1463 229.761818 
L 155.22241 146.368636 
L 155.29852 226.673182 
L 155.45074 59.886818 
L 155.52685 81.507273 
L 155.60296 44.443636 
L 155.83129 239.027727 
L 155.9074 223.584545 
L 155.98351 239.027727 
L 156.059619 198.875455 
L 156.135729 96.950455 
L 156.211839 143.28 
L 156.287949 62.975455 
L 156.364059 100.039091 
L 156.516279 223.584545 
L 156.668499 195.786818 
L 156.744609 72.241364 
L 156.820719 152.545909 
L 156.896829 149.457273 
L 156.972939 106.216364 
L 157.049049 127.836818 
L 157.125159 242.116364 
L 157.201268 134.014091 
L 157.277378 164.900455 
L 157.353488 137.102727 
L 157.429598 208.141364 
L 157.581818 56.798182 
L 157.657928 220.495909 
L 157.734038 217.407273 
L 157.886258 47.532273 
L 157.962368 53.709545 
L 158.038478 72.241364 
L 158.114588 183.432273 
L 158.190698 171.077727 
L 158.266808 208.141364 
L 158.342918 146.368636 
L 158.419027 161.811818 
L 158.495137 121.659545 
L 158.647357 229.761818 
L 158.723467 121.659545 
L 158.799577 152.545909 
L 158.875687 164.900455 
L 159.027907 69.152727 
L 159.180127 152.545909 
L 159.256237 112.393636 
L 159.332347 198.875455 
L 159.408457 174.166364 
L 159.484567 103.127727 
L 159.560677 134.014091 
L 159.636786 171.077727 
L 159.712896 72.241364 
L 159.789006 137.102727 
L 159.865116 127.836818 
L 159.941226 127.836818 
L 160.017336 146.368636 
L 160.093446 239.027727 
L 160.169556 186.520909 
L 160.245666 201.964091 
L 160.321776 180.343636 
L 160.397886 217.407273 
L 160.626216 96.950455 
L 160.702326 66.064091 
L 160.854545 109.305 
L 160.930655 84.595909 
L 161.006765 121.659545 
L 161.082875 81.507273 
L 161.158985 87.684545 
L 161.235095 134.014091 
L 161.387315 90.773182 
L 161.463425 121.659545 
L 161.539535 69.152727 
L 161.615645 195.786818 
L 161.767865 75.33 
L 161.920085 106.216364 
L 161.996195 87.684545 
L 162.072304 189.609545 
L 162.224524 47.532273 
L 162.376744 106.216364 
L 162.452854 56.798182 
L 162.605074 226.673182 
L 162.681184 174.166364 
L 162.757294 220.495909 
L 162.833404 155.634545 
L 162.909514 226.673182 
L 163.137844 66.064091 
L 163.213953 81.507273 
L 163.290063 158.723182 
L 163.442283 87.684545 
L 163.594503 192.698182 
L 163.670613 112.393636 
L 163.746723 143.28 
L 163.822833 220.495909 
L 163.898943 171.077727 
L 164.051163 242.116364 
L 164.203383 137.102727 
L 164.279493 214.318636 
L 164.355603 50.620909 
L 164.431712 183.432273 
L 164.507822 171.077727 
L 164.660042 134.014091 
L 164.736152 186.520909 
L 164.812262 121.659545 
L 164.964482 214.318636 
L 165.040592 146.368636 
L 165.116702 201.964091 
L 165.345032 69.152727 
L 165.421142 195.786818 
L 165.497252 66.064091 
L 165.573362 186.520909 
L 165.649471 130.925455 
L 165.725581 229.761818 
L 165.877801 44.443636 
L 165.953911 62.975455 
L 166.106131 174.166364 
L 166.182241 140.191364 
L 166.258351 44.443636 
L 166.334461 183.432273 
L 166.410571 143.28 
L 166.486681 208.141364 
L 166.562791 93.861818 
L 166.638901 100.039091 
L 166.715011 96.950455 
L 166.791121 115.482273 
L 166.94334 226.673182 
L 167.09556 84.595909 
L 167.24778 217.407273 
L 167.47611 66.064091 
L 167.55222 56.798182 
L 167.62833 78.418636 
L 167.70444 137.102727 
L 167.78055 53.709545 
L 167.85666 81.507273 
L 167.93277 90.773182 
L 168.008879 56.798182 
L 168.084989 81.507273 
L 168.161099 205.052727 
L 168.313319 66.064091 
L 168.389429 56.798182 
L 168.465539 78.418636 
L 168.541649 72.241364 
L 168.617759 220.495909 
L 168.769979 72.241364 
L 168.998309 146.368636 
L 169.074419 106.216364 
L 169.150529 217.407273 
L 169.226638 127.836818 
L 169.302748 137.102727 
L 169.454968 174.166364 
L 169.531078 87.684545 
L 169.607188 118.570909 
L 169.683298 47.532273 
L 169.987738 239.027727 
L 170.139958 167.989091 
L 170.216068 220.495909 
L 170.368288 109.305 
L 170.444397 161.811818 
L 170.520507 155.634545 
L 170.596617 167.989091 
L 170.748837 100.039091 
L 170.824947 137.102727 
L 170.901057 47.532273 
L 170.977167 84.595909 
L 171.129387 118.570909 
L 171.205497 106.216364 
L 171.357717 242.116364 
L 171.509937 134.014091 
L 171.586047 208.141364 
L 171.662156 155.634545 
L 171.738266 208.141364 
L 171.814376 69.152727 
L 172.042706 229.761818 
L 172.118816 223.584545 
L 172.194926 130.925455 
L 172.271036 174.166364 
L 172.347146 72.241364 
L 172.423256 158.723182 
L 172.499366 90.773182 
L 172.575476 223.584545 
L 172.803805 103.127727 
L 172.879915 44.443636 
L 173.032135 140.191364 
L 173.184355 75.33 
L 173.336575 186.520909 
L 173.412685 75.33 
L 173.488795 81.507273 
L 173.564905 84.595909 
L 173.717125 158.723182 
L 173.793235 84.595909 
L 173.869345 192.698182 
L 173.945455 146.368636 
L 174.021564 143.28 
L 174.097674 44.443636 
L 174.326004 235.939091 
L 174.478224 50.620909 
L 174.554334 235.939091 
L 174.630444 62.975455 
L 174.706554 72.241364 
L 174.782664 62.975455 
L 175.010994 239.027727 
L 175.391543 93.861818 
L 175.543763 134.014091 
L 175.619873 56.798182 
L 175.695983 130.925455 
L 175.772093 100.039091 
L 175.848203 93.861818 
L 175.924313 226.673182 
L 176.000423 134.014091 
L 176.076533 235.939091 
L 176.152643 189.609545 
L 176.304863 69.152727 
L 176.380973 87.684545 
L 176.533192 211.23 
L 176.609302 137.102727 
L 176.685412 239.027727 
L 176.761522 198.875455 
L 176.837632 217.407273 
L 176.913742 201.964091 
L 176.989852 232.850455 
L 177.142072 62.975455 
L 177.218182 242.116364 
L 177.446512 59.886818 
L 177.598732 84.595909 
L 177.674841 171.077727 
L 177.827061 109.305 
L 177.903171 195.786818 
L 178.055391 47.532273 
L 178.131501 62.975455 
L 178.283721 235.939091 
L 178.359831 229.761818 
L 178.435941 195.786818 
L 178.512051 239.027727 
L 178.588161 118.570909 
L 178.664271 164.900455 
L 178.740381 232.850455 
L 178.81649 103.127727 
L 178.8926 155.634545 
L 178.96871 239.027727 
L 179.12093 109.305 
L 179.34926 146.368636 
L 179.42537 143.28 
L 179.57759 223.584545 
L 179.72981 93.861818 
L 179.80592 235.939091 
L 180.034249 56.798182 
L 180.110359 130.925455 
L 180.186469 44.443636 
L 180.262579 66.064091 
L 180.338689 152.545909 
L 180.414799 47.532273 
L 180.567019 130.925455 
L 180.643129 103.127727 
L 180.719239 121.659545 
L 180.947569 223.584545 
L 181.023679 186.520909 
L 181.099789 239.027727 
L 181.175899 226.673182 
L 181.404228 44.443636 
L 181.480338 100.039091 
L 181.556448 78.418636 
L 181.632558 84.595909 
L 181.708668 72.241364 
L 182.089218 226.673182 
L 182.393658 47.532273 
L 182.469767 44.443636 
L 182.621987 189.609545 
L 182.698097 186.520909 
L 182.774207 164.900455 
L 182.926427 232.850455 
L 183.002537 183.432273 
L 183.078647 226.673182 
L 183.230867 81.507273 
L 183.306977 50.620909 
L 183.383087 134.014091 
L 183.459197 118.570909 
L 183.535307 130.925455 
L 183.611416 127.836818 
L 183.763636 47.532273 
L 183.839746 72.241364 
L 183.915856 75.33 
L 184.068076 115.482273 
L 184.144186 62.975455 
L 184.220296 66.064091 
L 184.296406 72.241364 
L 184.372516 56.798182 
L 184.448626 226.673182 
L 184.524736 72.241364 
L 184.600846 124.748182 
L 184.753066 195.786818 
L 184.829175 109.305 
L 184.905285 164.900455 
L 184.981395 161.811818 
L 185.133615 56.798182 
L 185.209725 93.861818 
L 185.285835 217.407273 
L 185.361945 137.102727 
L 185.514165 242.116364 
L 185.590275 96.950455 
L 185.666385 134.014091 
L 185.742495 124.748182 
L 185.818605 242.116364 
L 186.046934 50.620909 
L 186.123044 81.507273 
L 186.199154 53.709545 
L 186.351374 223.584545 
L 186.503594 103.127727 
L 186.579704 158.723182 
L 186.655814 100.039091 
L 186.731924 223.584545 
L 186.808034 87.684545 
L 186.884144 127.836818 
L 186.960254 155.634545 
L 187.036364 66.064091 
L 187.264693 223.584545 
L 187.416913 81.507273 
L 187.493023 242.116364 
L 187.645243 90.773182 
L 187.721353 96.950455 
L 187.797463 177.255 
L 187.873573 174.166364 
L 187.949683 44.443636 
L 188.025793 72.241364 
L 188.101903 56.798182 
L 188.178013 232.850455 
L 188.254123 211.23 
L 188.406342 183.432273 
L 188.482452 62.975455 
L 188.634672 232.850455 
L 188.710782 217.407273 
L 188.786892 205.052727 
L 188.939112 75.33 
L 189.091332 239.027727 
L 189.167442 223.584545 
L 189.243552 96.950455 
L 189.319662 146.368636 
L 189.395772 226.673182 
L 189.700211 50.620909 
L 189.776321 69.152727 
L 189.852431 146.368636 
L 189.928541 56.798182 
L 190.004651 62.975455 
L 190.080761 47.532273 
L 190.156871 59.886818 
L 190.232981 134.014091 
L 190.309091 59.886818 
L 190.461311 217.407273 
L 190.613531 93.861818 
L 190.689641 158.723182 
L 190.765751 59.886818 
L 190.84186 137.102727 
L 190.91797 90.773182 
L 191.07019 198.875455 
L 191.1463 127.836818 
L 191.22241 149.457273 
L 191.29852 229.761818 
L 191.37463 186.520909 
L 191.45074 229.761818 
L 191.60296 137.102727 
L 191.75518 167.989091 
L 191.83129 220.495909 
L 191.9074 205.052727 
L 191.98351 201.964091 
L 192.059619 109.305 
L 192.135729 214.318636 
L 192.211839 192.698182 
L 192.287949 235.939091 
L 192.364059 164.900455 
L 192.440169 214.318636 
L 192.516279 143.28 
L 192.592389 205.052727 
L 192.668499 201.964091 
L 192.744609 78.418636 
L 192.896829 177.255 
L 192.972939 177.255 
L 193.125159 90.773182 
L 193.201268 229.761818 
L 193.277378 72.241364 
L 193.353488 75.33 
L 193.505708 100.039091 
L 193.581818 177.255 
L 193.657928 161.811818 
L 193.734038 217.407273 
L 193.810148 121.659545 
L 193.886258 174.166364 
L 193.962368 106.216364 
L 194.038478 174.166364 
L 194.114588 53.709545 
L 194.190698 235.939091 
L 194.266808 183.432273 
L 194.342918 198.875455 
L 194.419027 177.255 
L 194.495137 239.027727 
L 194.647357 158.723182 
L 194.723467 239.027727 
L 194.799577 44.443636 
L 194.875687 50.620909 
L 194.951797 90.773182 
L 195.027907 75.33 
L 195.104017 84.595909 
L 195.180127 115.482273 
L 195.256237 90.773182 
L 195.332347 149.457273 
L 195.408457 84.595909 
L 195.636786 232.850455 
L 195.789006 90.773182 
L 195.865116 115.482273 
L 195.941226 232.850455 
L 196.093446 66.064091 
L 196.169556 93.861818 
L 196.245666 118.570909 
L 196.321776 100.039091 
L 196.397886 201.964091 
L 196.473996 53.709545 
L 196.550106 78.418636 
L 196.930655 177.255 
L 197.158985 44.443636 
L 197.235095 87.684545 
L 197.311205 201.964091 
L 197.387315 189.609545 
L 197.539535 143.28 
L 197.615645 158.723182 
L 197.691755 208.141364 
L 197.767865 198.875455 
L 197.843975 183.432273 
L 197.920085 50.620909 
L 197.996195 62.975455 
L 198.072304 84.595909 
L 198.148414 81.507273 
L 198.224524 62.975455 
L 198.300634 137.102727 
L 198.376744 72.241364 
L 198.528964 146.368636 
L 198.605074 130.925455 
L 198.681184 84.595909 
L 198.757294 140.191364 
L 198.833404 44.443636 
L 198.909514 69.152727 
L 198.985624 69.152727 
L 199.061734 134.014091 
L 199.213953 59.886818 
L 199.290063 118.570909 
L 199.366173 84.595909 
L 199.442283 183.432273 
L 199.518393 143.28 
L 199.594503 87.684545 
L 199.670613 226.673182 
L 199.746723 192.698182 
L 199.898943 140.191364 
L 199.975053 198.875455 
L 200.127273 81.507273 
L 200.279493 226.673182 
L 200.355603 171.077727 
L 200.431712 69.152727 
L 200.507822 223.584545 
L 200.583932 208.141364 
L 200.660042 186.520909 
L 200.736152 242.116364 
L 200.812262 103.127727 
L 200.888372 121.659545 
L 200.964482 81.507273 
L 201.116702 239.027727 
L 201.268922 90.773182 
L 201.345032 121.659545 
L 201.421142 75.33 
L 201.573362 143.28 
L 201.649471 81.507273 
L 201.725581 90.773182 
L 201.801691 90.773182 
L 201.877801 103.127727 
L 202.106131 44.443636 
L 202.182241 56.798182 
L 202.334461 66.064091 
L 202.410571 242.116364 
L 202.486681 53.709545 
L 202.562791 180.343636 
L 202.638901 121.659545 
L 202.715011 214.318636 
L 202.791121 198.875455 
L 202.86723 130.925455 
L 202.94334 239.027727 
L 203.01945 164.900455 
L 203.09556 171.077727 
L 203.24778 186.520909 
L 203.32389 106.216364 
L 203.47611 171.077727 
L 203.55222 174.166364 
L 203.62833 223.584545 
L 203.70444 208.141364 
L 203.78055 195.786818 
L 203.85666 223.584545 
L 203.93277 220.495909 
L 204.008879 155.634545 
L 204.084989 239.027727 
L 204.313319 134.014091 
L 204.465539 186.520909 
L 204.541649 106.216364 
L 204.617759 201.964091 
L 204.693869 164.900455 
L 204.769979 195.786818 
L 204.922199 44.443636 
L 204.998309 50.620909 
L 205.074419 223.584545 
L 205.150529 220.495909 
L 205.226638 235.939091 
L 205.607188 87.684545 
L 205.683298 124.748182 
L 205.835518 235.939091 
L 205.911628 235.939091 
L 205.987738 127.836818 
L 206.063848 192.698182 
L 206.139958 81.507273 
L 206.292178 195.786818 
L 206.368288 229.761818 
L 206.444397 195.786818 
L 206.520507 87.684545 
L 206.596617 229.761818 
L 206.672727 189.609545 
L 206.748837 235.939091 
L 206.824947 226.673182 
L 206.901057 226.673182 
L 207.053277 66.064091 
L 207.281607 127.836818 
L 207.433827 66.064091 
L 207.509937 205.052727 
L 207.586047 66.064091 
L 207.738266 183.432273 
L 207.814376 229.761818 
L 207.890486 47.532273 
L 207.966596 127.836818 
L 208.118816 198.875455 
L 208.194926 180.343636 
L 208.347146 59.886818 
L 208.423256 56.798182 
L 208.575476 223.584545 
L 208.651586 109.305 
L 208.727696 121.659545 
L 208.879915 242.116364 
L 208.956025 220.495909 
L 209.032135 93.861818 
L 209.108245 223.584545 
L 209.184355 198.875455 
L 209.260465 229.761818 
L 209.336575 72.241364 
L 209.488795 211.23 
L 209.564905 229.761818 
L 209.869345 90.773182 
L 209.945455 242.116364 
L 210.021564 127.836818 
L 210.097674 152.545909 
L 210.173784 109.305 
L 210.249894 124.748182 
L 210.402114 242.116364 
L 210.554334 186.520909 
L 210.630444 127.836818 
L 210.706554 242.116364 
L 210.782664 226.673182 
L 210.858774 124.748182 
L 210.934884 167.989091 
L 211.010994 195.786818 
L 211.163214 50.620909 
L 211.467653 208.141364 
L 211.543763 180.343636 
L 211.695983 78.418636 
L 211.772093 72.241364 
L 211.848203 53.709545 
L 211.924313 235.939091 
L 212.076533 100.039091 
L 212.152643 44.443636 
L 212.228753 232.850455 
L 212.304863 87.684545 
L 212.380973 235.939091 
L 212.457082 192.698182 
L 212.533192 226.673182 
L 212.609302 223.584545 
L 212.685412 155.634545 
L 212.761522 177.255 
L 212.913742 223.584545 
L 212.989852 127.836818 
L 213.065962 242.116364 
L 213.142072 87.684545 
L 213.218182 171.077727 
L 213.294292 44.443636 
L 213.370402 226.673182 
L 213.446512 189.609545 
L 213.522622 232.850455 
L 213.598732 149.457273 
L 213.674841 195.786818 
L 213.827061 158.723182 
L 213.903171 171.077727 
L 213.979281 242.116364 
L 214.055391 100.039091 
L 214.131501 217.407273 
L 214.207611 180.343636 
L 214.283721 171.077727 
L 214.359831 96.950455 
L 214.435941 232.850455 
L 214.512051 171.077727 
L 214.588161 158.723182 
L 214.664271 90.773182 
L 214.740381 100.039091 
L 214.81649 183.432273 
L 214.8926 174.166364 
L 214.96871 100.039091 
L 215.04482 109.305 
L 215.12093 127.836818 
L 215.19704 109.305 
L 215.34926 171.077727 
L 215.57759 66.064091 
L 215.72981 229.761818 
L 215.80592 208.141364 
L 215.88203 220.495909 
L 215.95814 100.039091 
L 216.034249 229.761818 
L 216.110359 90.773182 
L 216.186469 118.570909 
L 216.262579 205.052727 
L 216.338689 189.609545 
L 216.414799 103.127727 
L 216.490909 186.520909 
L 216.567019 174.166364 
L 216.795349 69.152727 
L 216.871459 100.039091 
L 216.947569 72.241364 
L 217.175899 226.673182 
L 217.252008 174.166364 
L 217.404228 50.620909 
L 217.480338 75.33 
L 217.556448 44.443636 
L 217.708668 220.495909 
L 217.784778 47.532273 
L 217.860888 106.216364 
L 217.936998 214.318636 
L 218.013108 103.127727 
L 218.089218 115.482273 
L 218.165328 50.620909 
L 218.317548 239.027727 
L 218.469767 174.166364 
L 218.545877 186.520909 
L 218.698097 81.507273 
L 218.774207 164.900455 
L 218.850317 155.634545 
L 218.926427 53.709545 
L 219.002537 137.102727 
L 219.078647 87.684545 
L 219.230867 232.850455 
L 219.306977 78.418636 
L 219.383087 205.052727 
L 219.459197 47.532273 
L 219.611416 235.939091 
L 219.687526 226.673182 
L 219.763636 192.698182 
L 219.839746 62.975455 
L 219.915856 87.684545 
L 219.991966 44.443636 
L 220.144186 180.343636 
L 220.220296 84.595909 
L 220.296406 226.673182 
L 220.524736 87.684545 
L 220.676956 229.761818 
L 220.753066 223.584545 
L 220.829175 174.166364 
L 220.905285 214.318636 
L 221.057505 59.886818 
L 221.133615 56.798182 
L 221.209725 69.152727 
L 221.285835 53.709545 
L 221.438055 171.077727 
L 221.590275 90.773182 
L 221.666385 109.305 
L 221.894715 229.761818 
L 221.970825 115.482273 
L 222.046934 134.014091 
L 222.123044 112.393636 
L 222.199154 208.141364 
L 222.427484 84.595909 
L 222.503594 84.595909 
L 222.579704 69.152727 
L 222.731924 232.850455 
L 222.808034 56.798182 
L 222.884144 208.141364 
L 222.960254 155.634545 
L 223.036364 235.939091 
L 223.188584 59.886818 
L 223.264693 106.216364 
L 223.340803 44.443636 
L 223.416913 84.595909 
L 223.569133 192.698182 
L 223.645243 124.748182 
L 223.797463 242.116364 
L 224.025793 100.039091 
L 224.178013 239.027727 
L 224.254123 87.684545 
L 224.330233 124.748182 
L 224.406342 155.634545 
L 224.482452 127.836818 
L 224.558562 174.166364 
L 224.634672 62.975455 
L 224.710782 106.216364 
L 224.786892 217.407273 
L 225.015222 59.886818 
L 225.091332 223.584545 
L 225.167442 183.432273 
L 225.243552 134.014091 
L 225.395772 217.407273 
L 225.547992 146.368636 
L 225.624101 226.673182 
L 225.700211 84.595909 
L 225.776321 87.684545 
L 225.852431 109.305 
L 225.928541 189.609545 
L 226.004651 143.28 
L 226.080761 161.811818 
L 226.156871 223.584545 
L 226.232981 220.495909 
L 226.309091 205.052727 
L 226.385201 164.900455 
L 226.461311 220.495909 
L 226.537421 164.900455 
L 226.613531 220.495909 
L 226.765751 47.532273 
L 226.84186 59.886818 
L 226.91797 44.443636 
L 226.99408 167.989091 
L 227.07019 140.191364 
L 227.1463 158.723182 
L 227.22241 87.684545 
L 227.29852 189.609545 
L 227.37463 161.811818 
L 227.45074 87.684545 
L 227.52685 90.773182 
L 227.60296 180.343636 
L 227.67907 167.989091 
L 227.75518 214.318636 
L 227.9074 50.620909 
L 227.98351 143.28 
L 228.059619 56.798182 
L 228.135729 100.039091 
L 228.211839 50.620909 
L 228.364059 229.761818 
L 228.440169 186.520909 
L 228.516279 62.975455 
L 228.592389 140.191364 
L 228.668499 112.393636 
L 228.820719 220.495909 
L 228.896829 192.698182 
L 229.125159 127.836818 
L 229.201268 174.166364 
L 229.277378 164.900455 
L 229.429598 134.014091 
L 229.505708 223.584545 
L 229.581818 192.698182 
L 229.657928 171.077727 
L 229.734038 66.064091 
L 229.810148 167.989091 
L 229.886258 90.773182 
L 229.962368 174.166364 
L 230.038478 72.241364 
L 230.114588 217.407273 
L 230.190698 192.698182 
L 230.266808 53.709545 
L 230.342918 93.861818 
L 230.419027 81.507273 
L 230.495137 47.532273 
L 230.799577 239.027727 
L 230.875687 232.850455 
L 230.951797 201.964091 
L 231.180127 72.241364 
L 231.408457 180.343636 
L 231.484567 161.811818 
L 231.560677 103.127727 
L 231.712896 229.761818 
L 231.789006 189.609545 
L 231.865116 229.761818 
L 231.941226 226.673182 
L 232.017336 96.950455 
L 232.093446 152.545909 
L 232.169556 90.773182 
L 232.245666 134.014091 
L 232.321776 127.836818 
L 232.397886 59.886818 
L 232.702326 235.939091 
L 232.778436 140.191364 
L 232.854545 214.318636 
L 233.006765 81.507273 
L 233.082875 93.861818 
L 233.235095 56.798182 
L 233.311205 93.861818 
L 233.387315 235.939091 
L 233.463425 146.368636 
L 233.539535 239.027727 
L 233.615645 118.570909 
L 233.691755 229.761818 
L 233.843975 50.620909 
L 233.920085 140.191364 
L 233.996195 118.570909 
L 234.072304 137.102727 
L 234.148414 242.116364 
L 234.224524 229.761818 
L 234.300634 217.407273 
L 234.376744 134.014091 
L 234.452854 226.673182 
L 234.528964 84.595909 
L 234.605074 211.23 
L 234.681184 62.975455 
L 234.833404 235.939091 
L 234.909514 189.609545 
L 234.985624 177.255 
L 235.061734 56.798182 
L 235.213953 180.343636 
L 235.442283 127.836818 
L 235.518393 242.116364 
L 235.594503 146.368636 
L 235.670613 158.723182 
L 235.746723 115.482273 
L 235.898943 239.027727 
L 235.975053 208.141364 
L 236.127273 124.748182 
L 236.279493 211.23 
L 236.431712 44.443636 
L 236.660042 198.875455 
L 236.736152 198.875455 
L 236.888372 232.850455 
L 237.192812 103.127727 
L 237.268922 93.861818 
L 237.345032 121.659545 
L 237.421142 87.684545 
L 237.497252 121.659545 
L 237.573362 112.393636 
L 237.649471 106.216364 
L 237.801691 239.027727 
L 238.030021 75.33 
L 238.106131 155.634545 
L 238.258351 47.532273 
L 238.334461 81.507273 
L 238.486681 50.620909 
L 238.562791 90.773182 
L 238.638901 59.886818 
L 238.715011 66.064091 
L 238.791121 66.064091 
L 238.86723 75.33 
L 238.94334 155.634545 
L 239.01945 93.861818 
L 239.09556 143.28 
L 239.17167 78.418636 
L 239.24778 192.698182 
L 239.32389 161.811818 
L 239.4 50.620909 
L 239.47611 66.064091 
L 239.55222 56.798182 
L 239.62833 103.127727 
L 239.70444 78.418636 
L 239.78055 81.507273 
L 239.93277 235.939091 
L 240.084989 69.152727 
L 240.161099 78.418636 
L 240.237209 180.343636 
L 240.313319 112.393636 
L 240.465539 226.673182 
L 240.617759 242.116364 
L 240.693869 220.495909 
L 240.769979 56.798182 
L 240.846089 59.886818 
L 241.074419 235.939091 
L 241.150529 205.052727 
L 241.226638 208.141364 
L 241.302748 211.23 
L 241.454968 100.039091 
L 241.531078 106.216364 
L 241.607188 69.152727 
L 241.683298 134.014091 
L 241.759408 62.975455 
L 241.835518 226.673182 
L 241.911628 53.709545 
L 241.987738 161.811818 
L 242.139958 62.975455 
L 242.216068 229.761818 
L 242.292178 59.886818 
L 242.520507 229.761818 
L 242.672727 134.014091 
L 242.748837 198.875455 
L 242.824947 121.659545 
L 242.901057 232.850455 
L 242.977167 201.964091 
L 243.053277 106.216364 
L 243.129387 180.343636 
L 243.205497 78.418636 
L 243.357717 217.407273 
L 243.509937 96.950455 
L 243.586047 177.255 
L 243.662156 143.28 
L 243.738266 103.127727 
L 243.814376 239.027727 
L 243.890486 66.064091 
L 243.966596 195.786818 
L 244.042706 152.545909 
L 244.118816 242.116364 
L 244.194926 90.773182 
L 244.271036 100.039091 
L 244.347146 208.141364 
L 244.499366 59.886818 
L 244.575476 208.141364 
L 244.651586 161.811818 
L 244.727696 143.28 
L 244.803805 226.673182 
L 245.108245 84.595909 
L 245.184355 220.495909 
L 245.260465 180.343636 
L 245.336575 239.027727 
L 245.412685 137.102727 
L 245.488795 220.495909 
L 245.564905 211.23 
L 245.717125 174.166364 
L 245.869345 155.634545 
L 246.021564 44.443636 
L 246.249894 195.786818 
L 246.326004 195.786818 
L 246.402114 180.343636 
L 246.554334 62.975455 
L 246.630444 158.723182 
L 246.706554 62.975455 
L 246.934884 214.318636 
L 247.087104 171.077727 
L 247.163214 232.850455 
L 247.315433 78.418636 
L 247.391543 44.443636 
L 247.619873 239.027727 
L 247.772093 115.482273 
L 247.848203 232.850455 
L 247.924313 174.166364 
L 248.000423 223.584545 
L 248.076533 87.684545 
L 248.152643 143.28 
L 248.228753 127.836818 
L 248.304863 229.761818 
L 248.380973 66.064091 
L 248.457082 75.33 
L 248.533192 50.620909 
L 248.609302 84.595909 
L 248.685412 53.709545 
L 248.761522 62.975455 
L 248.837632 66.064091 
L 248.989852 205.052727 
L 249.142072 220.495909 
L 249.218182 56.798182 
L 249.294292 75.33 
L 249.370402 59.886818 
L 249.446512 201.964091 
L 249.522622 56.798182 
L 249.598732 66.064091 
L 249.750951 84.595909 
L 249.827061 62.975455 
L 249.979281 214.318636 
L 250.131501 56.798182 
L 250.359831 239.027727 
L 250.435941 171.077727 
L 250.664271 239.027727 
L 250.740381 121.659545 
L 250.81649 235.939091 
L 250.8926 195.786818 
L 250.96871 140.191364 
L 251.04482 214.318636 
L 251.12093 143.28 
L 251.19704 211.23 
L 251.27315 152.545909 
L 251.34926 164.900455 
L 251.42537 226.673182 
L 251.57759 56.798182 
L 251.6537 205.052727 
L 251.72981 62.975455 
L 251.80592 87.684545 
L 251.88203 140.191364 
L 251.95814 109.305 
L 252.110359 214.318636 
L 252.186469 90.773182 
L 252.262579 121.659545 
L 252.338689 118.570909 
L 252.643129 217.407273 
L 252.719239 201.964091 
L 252.871459 59.886818 
L 253.023679 223.584545 
L 253.099789 186.520909 
L 253.175899 180.343636 
L 253.252008 223.584545 
L 253.404228 112.393636 
L 253.480338 205.052727 
L 253.556448 118.570909 
L 253.632558 121.659545 
L 253.784778 53.709545 
L 254.013108 195.786818 
L 254.165328 143.28 
L 254.241438 174.166364 
L 254.317548 124.748182 
L 254.393658 232.850455 
L 254.469767 161.811818 
L 254.545877 177.255 
L 254.698097 121.659545 
L 254.774207 121.659545 
L 254.850317 174.166364 
L 254.926427 130.925455 
L 255.002537 189.609545 
L 255.078647 174.166364 
L 255.230867 235.939091 
L 255.459197 109.305 
L 255.535307 100.039091 
L 255.611416 72.241364 
L 255.687526 115.482273 
L 255.763636 223.584545 
L 255.839746 214.318636 
L 255.915856 109.305 
L 255.991966 208.141364 
L 256.068076 130.925455 
L 256.220296 239.027727 
L 256.372516 161.811818 
L 256.524736 208.141364 
L 256.600846 134.014091 
L 256.676956 201.964091 
L 256.753066 62.975455 
L 256.829175 214.318636 
L 256.905285 53.709545 
L 256.981395 84.595909 
L 257.057505 158.723182 
L 257.209725 66.064091 
L 257.285835 81.507273 
L 257.361945 121.659545 
L 257.438055 118.570909 
L 257.666385 217.407273 
L 257.742495 152.545909 
L 257.894715 232.850455 
L 257.970825 56.798182 
L 258.046934 220.495909 
L 258.123044 198.875455 
L 258.275264 232.850455 
L 258.351374 81.507273 
L 258.427484 134.014091 
L 258.503594 112.393636 
L 258.579704 134.014091 
L 258.655814 44.443636 
L 258.731924 201.964091 
L 258.808034 155.634545 
L 259.036364 53.709545 
L 259.112474 69.152727 
L 259.188584 174.166364 
L 259.264693 171.077727 
L 259.340803 180.343636 
L 259.416913 93.861818 
L 259.569133 189.609545 
L 259.645243 127.836818 
L 259.721353 171.077727 
L 259.797463 109.305 
L 259.949683 174.166364 
L 260.025793 124.748182 
L 260.101903 146.368636 
L 260.178013 195.786818 
L 260.254123 130.925455 
L 260.330233 183.432273 
L 260.482452 47.532273 
L 260.634672 137.102727 
L 260.786892 53.709545 
L 260.939112 47.532273 
L 261.091332 75.33 
L 261.243552 239.027727 
L 261.319662 167.989091 
L 261.395772 171.077727 
L 261.471882 155.634545 
L 261.547992 235.939091 
L 261.624101 167.989091 
L 261.700211 195.786818 
L 261.776321 198.875455 
L 262.004651 232.850455 
L 262.080761 211.23 
L 262.156871 239.027727 
L 262.232981 112.393636 
L 262.309091 217.407273 
L 262.385201 205.052727 
L 262.537421 59.886818 
L 262.613531 50.620909 
L 262.765751 214.318636 
L 262.91797 155.634545 
L 263.07019 192.698182 
L 263.1463 106.216364 
L 263.22241 195.786818 
L 263.29852 161.811818 
L 263.37463 174.166364 
L 263.45074 69.152727 
L 263.52685 201.964091 
L 263.60296 62.975455 
L 263.67907 195.786818 
L 263.75518 72.241364 
L 263.9074 242.116364 
L 263.98351 239.027727 
L 264.059619 143.28 
L 264.135729 242.116364 
L 264.287949 62.975455 
L 264.440169 208.141364 
L 264.516279 177.255 
L 264.592389 121.659545 
L 264.668499 171.077727 
L 264.744609 56.798182 
L 264.820719 124.748182 
L 264.896829 50.620909 
L 264.972939 124.748182 
L 265.049049 72.241364 
L 265.125159 103.127727 
L 265.201268 84.595909 
L 265.277378 130.925455 
L 265.429598 44.443636 
L 265.505708 177.255 
L 265.581818 66.064091 
L 265.734038 205.052727 
L 265.810148 192.698182 
L 265.886258 161.811818 
L 265.962368 201.964091 
L 266.038478 186.520909 
L 266.114588 62.975455 
L 266.342918 183.432273 
L 266.495137 90.773182 
L 266.647357 201.964091 
L 266.723467 205.052727 
L 266.799577 198.875455 
L 266.875687 106.216364 
L 266.951797 232.850455 
L 267.104017 44.443636 
L 267.180127 109.305 
L 267.256237 56.798182 
L 267.332347 66.064091 
L 267.484567 121.659545 
L 267.560677 75.33 
L 267.636786 96.950455 
L 267.712896 53.709545 
L 267.865116 158.723182 
L 267.941226 137.102727 
L 268.017336 143.28 
L 268.093446 192.698182 
L 268.169556 118.570909 
L 268.245666 183.432273 
L 268.321776 149.457273 
L 268.397886 242.116364 
L 268.473996 229.761818 
L 268.626216 112.393636 
L 268.702326 118.570909 
L 268.778436 134.014091 
L 268.854545 75.33 
L 269.006765 198.875455 
L 269.082875 158.723182 
L 269.158985 201.964091 
L 269.463425 78.418636 
L 269.539535 127.836818 
L 269.691755 59.886818 
L 269.767865 137.102727 
L 269.843975 109.305 
L 269.920085 140.191364 
L 270.072304 47.532273 
L 270.148414 90.773182 
L 270.224524 56.798182 
L 270.300634 239.027727 
L 270.376744 177.255 
L 270.452854 177.255 
L 270.605074 109.305 
L 270.757294 134.014091 
L 270.833404 130.925455 
L 270.909514 189.609545 
L 271.061734 59.886818 
L 271.213953 211.23 
L 271.366173 47.532273 
L 271.594503 103.127727 
L 271.670613 84.595909 
L 271.898943 211.23 
L 271.975053 183.432273 
L 272.127273 84.595909 
L 272.203383 183.432273 
L 272.279493 146.368636 
L 272.355603 214.318636 
L 272.431712 72.241364 
L 272.507822 115.482273 
L 272.660042 186.520909 
L 272.736152 180.343636 
L 272.888372 134.014091 
L 273.040592 44.443636 
L 273.116702 121.659545 
L 273.192812 103.127727 
L 273.268922 75.33 
L 273.421142 152.545909 
L 273.497252 81.507273 
L 273.649471 121.659545 
L 273.725581 59.886818 
L 273.801691 78.418636 
L 273.877801 62.975455 
L 274.106131 223.584545 
L 274.258351 59.886818 
L 274.410571 239.027727 
L 274.486681 140.191364 
L 274.562791 186.520909 
L 274.638901 124.748182 
L 274.715011 152.545909 
L 274.791121 124.748182 
L 274.86723 152.545909 
L 274.94334 56.798182 
L 275.01945 96.950455 
L 275.09556 78.418636 
L 275.24778 223.584545 
L 275.32389 137.102727 
L 275.4 143.28 
L 275.47611 167.989091 
L 275.55222 100.039091 
L 275.62833 174.166364 
L 275.70444 56.798182 
L 275.78055 100.039091 
L 275.85666 93.861818 
L 276.008879 208.141364 
L 276.161099 72.241364 
L 276.313319 167.989091 
L 276.389429 50.620909 
L 276.465539 66.064091 
L 276.541649 183.432273 
L 276.617759 78.418636 
L 276.693869 96.950455 
L 276.769979 130.925455 
L 276.922199 69.152727 
L 277.074419 239.027727 
L 277.150529 226.673182 
L 277.226638 242.116364 
L 277.302748 161.811818 
L 277.454968 239.027727 
L 277.531078 217.407273 
L 277.607188 220.495909 
L 277.683298 112.393636 
L 277.759408 229.761818 
L 277.835518 220.495909 
L 277.911628 189.609545 
L 277.987738 232.850455 
L 278.063848 220.495909 
L 278.139958 229.761818 
L 278.216068 100.039091 
L 278.292178 195.786818 
L 278.444397 75.33 
L 278.520507 72.241364 
L 278.596617 112.393636 
L 278.672727 66.064091 
L 278.748837 214.318636 
L 278.977167 81.507273 
L 279.053277 81.507273 
L 279.205497 242.116364 
L 279.281607 155.634545 
L 279.357717 161.811818 
L 279.433827 152.545909 
L 279.509937 93.861818 
L 279.586047 183.432273 
L 279.662156 100.039091 
L 279.738266 174.166364 
L 279.814376 140.191364 
L 279.966596 164.900455 
L 280.118816 103.127727 
L 280.194926 109.305 
L 280.271036 47.532273 
L 280.423256 220.495909 
L 280.575476 81.507273 
L 280.651586 171.077727 
L 280.727696 167.989091 
L 280.803805 44.443636 
L 280.956025 239.027727 
L 281.032135 201.964091 
L 281.108245 96.950455 
L 281.184355 115.482273 
L 281.336575 59.886818 
L 281.412685 124.748182 
L 281.488795 81.507273 
L 281.641015 130.925455 
L 281.793235 81.507273 
L 281.869345 134.014091 
L 281.945455 124.748182 
L 282.021564 75.33 
L 282.173784 201.964091 
L 282.249894 124.748182 
L 282.402114 186.520909 
L 282.478224 90.773182 
L 282.554334 121.659545 
L 282.630444 103.127727 
L 282.706554 208.141364 
L 282.782664 84.595909 
L 282.934884 183.432273 
L 283.010994 100.039091 
L 283.087104 158.723182 
L 283.163214 75.33 
L 283.239323 177.255 
L 283.315433 174.166364 
L 283.391543 121.659545 
L 283.467653 130.925455 
L 283.695983 235.939091 
L 283.772093 242.116364 
L 283.848203 93.861818 
L 284.000423 214.318636 
L 284.076533 56.798182 
L 284.152643 87.684545 
L 284.228753 72.241364 
L 284.380973 235.939091 
L 284.533192 72.241364 
L 284.609302 118.570909 
L 284.685412 75.33 
L 284.761522 137.102727 
L 284.837632 81.507273 
L 284.913742 140.191364 
L 284.989852 103.127727 
L 285.294292 242.116364 
L 285.446512 112.393636 
L 285.522622 152.545909 
L 285.598732 87.684545 
L 285.674841 220.495909 
L 285.750951 214.318636 
L 285.903171 96.950455 
L 285.979281 106.216364 
L 286.131501 44.443636 
L 286.207611 174.166364 
L 286.283721 140.191364 
L 286.359831 232.850455 
L 286.512051 44.443636 
L 286.740381 232.850455 
L 286.81649 186.520909 
L 286.8926 47.532273 
L 286.96871 53.709545 
L 287.12093 195.786818 
L 287.19704 81.507273 
L 287.34926 229.761818 
L 287.50148 112.393636 
L 287.72981 220.495909 
L 287.80592 44.443636 
L 287.88203 69.152727 
L 287.95814 115.482273 
L 288.110359 53.709545 
L 288.186469 72.241364 
L 288.262579 90.773182 
L 288.338689 211.23 
L 288.414799 161.811818 
L 288.490909 167.989091 
L 288.567019 134.014091 
L 288.719239 177.255 
L 288.795349 167.989091 
L 288.947569 90.773182 
L 289.023679 109.305 
L 289.175899 59.886818 
L 289.252008 174.166364 
L 289.328118 134.014091 
L 289.404228 47.532273 
L 289.556448 146.368636 
L 289.708668 100.039091 
L 289.784778 186.520909 
L 289.860888 109.305 
L 290.013108 189.609545 
L 290.089218 214.318636 
L 290.241438 112.393636 
L 290.317548 155.634545 
L 290.393658 140.191364 
L 290.469767 44.443636 
L 290.545877 217.407273 
L 290.621987 177.255 
L 290.698097 180.343636 
L 291.002537 62.975455 
L 291.154757 93.861818 
L 291.306977 62.975455 
L 291.383087 93.861818 
L 291.459197 56.798182 
L 291.535307 124.748182 
L 291.611416 84.595909 
L 291.687526 140.191364 
L 291.763636 66.064091 
L 291.991966 198.875455 
L 292.220296 56.798182 
L 292.448626 112.393636 
L 292.600846 53.709545 
L 292.676956 96.950455 
L 292.753066 47.532273 
L 292.829175 158.723182 
L 292.905285 140.191364 
L 292.981395 146.368636 
L 293.057505 118.570909 
L 293.133615 186.520909 
L 293.209725 155.634545 
L 293.438055 217.407273 
L 293.514165 112.393636 
L 293.666385 217.407273 
L 293.742495 177.255 
L 293.818605 66.064091 
L 293.970825 226.673182 
L 294.046934 232.850455 
L 294.123044 112.393636 
L 294.199154 140.191364 
L 294.351374 115.482273 
L 294.427484 201.964091 
L 294.503594 59.886818 
L 294.579704 112.393636 
L 294.731924 152.545909 
L 294.808034 56.798182 
L 294.884144 93.861818 
L 295.036364 75.33 
L 295.264693 217.407273 
L 295.340803 235.939091 
L 295.493023 130.925455 
L 295.569133 183.432273 
L 295.645243 59.886818 
L 295.797463 235.939091 
L 295.873573 50.620909 
L 295.949683 152.545909 
L 296.025793 127.836818 
L 296.254123 192.698182 
L 296.406342 84.595909 
L 296.634672 242.116364 
L 296.710782 171.077727 
L 296.786892 232.850455 
L 296.939112 84.595909 
L 297.015222 242.116364 
L 297.167442 81.507273 
L 297.395772 195.786818 
L 297.471882 87.684545 
L 297.624101 229.761818 
L 297.700211 220.495909 
L 297.852431 103.127727 
L 298.004651 180.343636 
L 298.156871 59.886818 
L 298.232981 96.950455 
L 298.309091 50.620909 
L 298.537421 242.116364 
L 298.689641 130.925455 
L 298.765751 177.255 
L 298.84186 167.989091 
L 298.99408 217.407273 
L 299.07019 208.141364 
L 299.22241 69.152727 
L 299.29852 75.33 
L 299.37463 242.116364 
L 299.60296 100.039091 
L 299.67907 134.014091 
L 299.75518 100.039091 
L 299.83129 195.786818 
L 299.9074 90.773182 
L 300.135729 239.027727 
L 300.211839 167.989091 
L 300.287949 180.343636 
L 300.364059 189.609545 
L 300.592389 134.014091 
L 300.668499 214.318636 
L 300.744609 81.507273 
L 300.820719 167.989091 
L 300.896829 100.039091 
L 300.972939 232.850455 
L 301.125159 109.305 
L 301.353488 186.520909 
L 301.429598 47.532273 
L 301.505708 66.064091 
L 301.657928 167.989091 
L 301.810148 84.595909 
L 301.886258 109.305 
L 301.962368 69.152727 
L 302.038478 164.900455 
L 302.114588 127.836818 
L 302.266808 201.964091 
L 302.342918 167.989091 
L 302.419027 226.673182 
L 302.647357 115.482273 
L 302.723467 198.875455 
L 302.799577 118.570909 
L 302.951797 226.673182 
L 303.027907 220.495909 
L 303.104017 205.052727 
L 303.180127 155.634545 
L 303.256237 232.850455 
L 303.408457 109.305 
L 303.484567 143.28 
L 303.560677 198.875455 
L 303.789006 69.152727 
L 303.941226 208.141364 
L 304.017336 201.964091 
L 304.093446 223.584545 
L 304.245666 72.241364 
L 304.321776 87.684545 
L 304.397886 69.152727 
L 304.550106 217.407273 
L 304.626216 66.064091 
L 304.702326 106.216364 
L 304.778436 130.925455 
L 304.854545 195.786818 
L 304.930655 134.014091 
L 305.006765 226.673182 
L 305.235095 56.798182 
L 305.463425 223.584545 
L 305.539535 220.495909 
L 305.691755 192.698182 
L 305.843975 62.975455 
L 305.920085 239.027727 
L 305.996195 174.166364 
L 306.072304 115.482273 
L 306.224524 242.116364 
L 306.300634 189.609545 
L 306.376744 198.875455 
L 306.452854 217.407273 
L 306.528964 56.798182 
L 306.605074 208.141364 
L 306.681184 124.748182 
L 306.757294 158.723182 
L 306.833404 205.052727 
L 306.909514 180.343636 
L 306.985624 118.570909 
L 307.061734 232.850455 
L 307.137844 205.052727 
L 307.290063 75.33 
L 307.442283 174.166364 
L 307.518393 115.482273 
L 307.670613 242.116364 
L 307.746723 118.570909 
L 307.822833 242.116364 
L 307.898943 229.761818 
L 307.975053 177.255 
L 308.051163 47.532273 
L 308.127273 100.039091 
L 308.203383 195.786818 
L 308.279493 137.102727 
L 308.355603 189.609545 
L 308.431712 106.216364 
L 308.507822 189.609545 
L 308.583932 167.989091 
L 308.660042 161.811818 
L 308.736152 171.077727 
L 308.812262 232.850455 
L 308.888372 180.343636 
L 308.964482 189.609545 
L 309.040592 192.698182 
L 309.116702 59.886818 
L 309.192812 112.393636 
L 309.268922 137.102727 
L 309.345032 214.318636 
L 309.421142 205.052727 
L 309.497252 198.875455 
L 309.573362 127.836818 
L 309.725581 214.318636 
L 309.801691 44.443636 
L 309.877801 93.861818 
L 309.953911 56.798182 
L 310.030021 75.33 
L 310.182241 235.939091 
L 310.258351 115.482273 
L 310.334461 127.836818 
L 310.486681 44.443636 
L 310.562791 164.900455 
L 310.638901 47.532273 
L 310.86723 214.318636 
L 310.94334 109.305 
L 311.01945 130.925455 
L 311.09556 59.886818 
L 311.17167 124.748182 
L 311.24778 93.861818 
L 311.32389 115.482273 
L 311.47611 50.620909 
L 311.70444 124.748182 
L 311.78055 112.393636 
L 311.93277 235.939091 
L 312.008879 50.620909 
L 312.084989 96.950455 
L 312.161099 44.443636 
L 312.237209 47.532273 
L 312.313319 53.709545 
L 312.389429 192.698182 
L 312.465539 59.886818 
L 312.541649 78.418636 
L 312.617759 229.761818 
L 312.693869 226.673182 
L 312.769979 220.495909 
L 312.846089 205.052727 
L 312.922199 164.900455 
L 312.998309 223.584545 
L 313.074419 189.609545 
L 313.150529 208.141364 
L 313.226638 186.520909 
L 313.302748 223.584545 
L 313.378858 152.545909 
L 313.454968 201.964091 
L 313.683298 124.748182 
L 313.759408 201.964091 
L 313.835518 174.166364 
L 313.911628 59.886818 
L 313.987738 214.318636 
L 314.063848 143.28 
L 314.216068 195.786818 
L 314.292178 174.166364 
L 314.368288 44.443636 
L 314.520507 229.761818 
L 314.672727 69.152727 
L 314.824947 211.23 
L 314.901057 214.318636 
L 315.053277 90.773182 
L 315.205497 183.432273 
L 315.357717 134.014091 
L 315.433827 229.761818 
L 315.509937 164.900455 
L 315.586047 192.698182 
L 315.662156 146.368636 
L 315.738266 186.520909 
L 315.814376 121.659545 
L 315.890486 134.014091 
L 316.042706 223.584545 
L 316.118816 118.570909 
L 316.271036 214.318636 
L 316.347146 195.786818 
L 316.499366 226.673182 
L 316.575476 226.673182 
L 316.651586 183.432273 
L 316.879915 235.939091 
L 316.956025 118.570909 
L 317.108245 226.673182 
L 317.184355 78.418636 
L 317.260465 84.595909 
L 317.336575 171.077727 
L 317.412685 149.457273 
L 317.488795 103.127727 
L 317.564905 134.014091 
L 317.717125 62.975455 
L 317.793235 81.507273 
L 317.869345 146.368636 
L 317.945455 112.393636 
L 318.021564 211.23 
L 318.097674 53.709545 
L 318.173784 78.418636 
L 318.326004 205.052727 
L 318.554334 56.798182 
L 318.630444 109.305 
L 318.706554 100.039091 
L 318.782664 93.861818 
L 318.858774 118.570909 
L 318.934884 115.482273 
L 319.010994 130.925455 
L 319.163214 229.761818 
L 319.391543 84.595909 
L 319.467653 201.964091 
L 319.543763 164.900455 
L 319.619873 158.723182 
L 319.695983 66.064091 
L 319.772093 121.659545 
L 319.848203 47.532273 
L 320.000423 211.23 
L 320.076533 66.064091 
L 320.152643 106.216364 
L 320.228753 50.620909 
L 320.457082 186.520909 
L 320.533192 90.773182 
L 320.609302 134.014091 
L 320.685412 124.748182 
L 320.761522 72.241364 
L 320.913742 205.052727 
L 320.989852 167.989091 
L 321.065962 72.241364 
L 321.142072 140.191364 
L 321.218182 47.532273 
L 321.294292 72.241364 
L 321.370402 186.520909 
L 321.446512 180.343636 
L 321.522622 180.343636 
L 321.598732 214.318636 
L 321.827061 72.241364 
L 321.979281 106.216364 
L 322.055391 127.836818 
L 322.131501 235.939091 
L 322.207611 140.191364 
L 322.283721 220.495909 
L 322.359831 112.393636 
L 322.435941 223.584545 
L 322.512051 84.595909 
L 322.588161 192.698182 
L 322.740381 59.886818 
L 322.81649 81.507273 
L 322.8926 50.620909 
L 323.19704 214.318636 
L 323.27315 50.620909 
L 323.34926 96.950455 
L 323.42537 217.407273 
L 323.57759 84.595909 
L 323.6537 158.723182 
L 323.72981 137.102727 
L 323.80592 161.811818 
L 323.88203 118.570909 
L 324.034249 242.116364 
L 324.110359 103.127727 
L 324.186469 121.659545 
L 324.338689 229.761818 
L 324.414799 214.318636 
L 324.567019 81.507273 
L 324.643129 167.989091 
L 324.719239 146.368636 
L 324.795349 109.305 
L 324.871459 217.407273 
L 325.023679 140.191364 
L 325.175899 109.305 
L 325.252008 137.102727 
L 325.328118 229.761818 
L 325.404228 50.620909 
L 325.480338 106.216364 
L 325.556448 56.798182 
L 325.632558 87.684545 
L 325.708668 56.798182 
L 325.936998 220.495909 
L 326.013108 211.23 
L 326.165328 130.925455 
L 326.241438 164.900455 
L 326.317548 115.482273 
L 326.469767 217.407273 
L 326.545877 140.191364 
L 326.621987 149.457273 
L 326.698097 180.343636 
L 326.774207 109.305 
L 326.850317 174.166364 
L 326.926427 103.127727 
L 327.154757 229.761818 
L 327.383087 66.064091 
L 327.535307 75.33 
L 327.687526 239.027727 
L 327.763636 201.964091 
L 327.915856 103.127727 
L 328.144186 195.786818 
L 328.220296 189.609545 
L 328.296406 134.014091 
L 328.372516 158.723182 
L 328.524736 93.861818 
L 328.676956 106.216364 
L 328.829175 205.052727 
L 328.981395 59.886818 
L 329.057505 72.241364 
L 329.285835 239.027727 
L 329.361945 137.102727 
L 329.590275 239.027727 
L 329.666385 152.545909 
L 329.742495 208.141364 
L 329.818605 195.786818 
L 329.894715 229.761818 
L 330.123044 109.305 
L 330.199154 93.861818 
L 330.275264 96.950455 
L 330.351374 115.482273 
L 330.427484 81.507273 
L 330.579704 106.216364 
L 330.655814 44.443636 
L 331.036364 242.116364 
L 331.112474 232.850455 
L 331.188584 66.064091 
L 331.264693 171.077727 
L 331.340803 56.798182 
L 331.416913 96.950455 
L 331.493023 72.241364 
L 331.569133 242.116364 
L 331.645243 235.939091 
L 331.721353 220.495909 
L 331.873573 239.027727 
L 331.949683 90.773182 
L 332.025793 242.116364 
L 332.101903 66.064091 
L 332.178013 84.595909 
L 332.254123 118.570909 
L 332.330233 232.850455 
L 332.482452 62.975455 
L 332.558562 84.595909 
L 332.634672 158.723182 
L 332.710782 84.595909 
L 332.863002 143.28 
L 332.939112 72.241364 
L 333.015222 87.684545 
L 333.091332 100.039091 
L 333.167442 192.698182 
L 333.319662 50.620909 
L 333.624101 180.343636 
L 333.700211 137.102727 
L 333.776321 208.141364 
L 334.080761 47.532273 
L 334.156871 180.343636 
L 334.232981 47.532273 
L 334.309091 239.027727 
L 334.385201 217.407273 
L 334.461311 47.532273 
L 334.537421 106.216364 
L 334.613531 47.532273 
L 334.689641 115.482273 
L 334.84186 47.532273 
L 335.1463 177.255 
L 335.22241 152.545909 
L 335.29852 232.850455 
L 335.37463 223.584545 
L 335.45074 189.609545 
L 335.52685 242.116364 
L 335.60296 161.811818 
L 335.67907 211.23 
L 335.9074 62.975455 
L 336.059619 229.761818 
L 336.135729 183.432273 
L 336.287949 242.116364 
L 336.440169 78.418636 
L 336.516279 155.634545 
L 336.592389 124.748182 
L 336.668499 130.925455 
L 336.820719 59.886818 
L 336.896829 96.950455 
L 337.049049 53.709545 
L 337.201268 47.532273 
L 337.277378 84.595909 
L 337.353488 62.975455 
L 337.429598 214.318636 
L 337.505708 109.305 
L 337.581818 223.584545 
L 337.657928 146.368636 
L 337.734038 217.407273 
L 337.810148 78.418636 
L 337.886258 146.368636 
L 337.962368 66.064091 
L 338.114588 226.673182 
L 338.266808 158.723182 
L 338.419027 226.673182 
L 338.495137 174.166364 
L 338.571247 217.407273 
L 338.647357 205.052727 
L 338.799577 62.975455 
L 338.951797 177.255 
L 339.104017 47.532273 
L 339.256237 232.850455 
L 339.332347 195.786818 
L 339.408457 226.673182 
L 339.560677 96.950455 
L 339.636786 201.964091 
L 339.712896 177.255 
L 339.865116 232.850455 
L 340.017336 84.595909 
L 340.093446 198.875455 
L 340.169556 93.861818 
L 340.245666 217.407273 
L 340.321776 50.620909 
L 340.397886 161.811818 
L 340.550106 44.443636 
L 340.626216 59.886818 
L 340.702326 56.798182 
L 340.854545 205.052727 
L 340.930655 93.861818 
L 341.006765 146.368636 
L 341.082875 115.482273 
L 341.158985 164.900455 
L 341.235095 124.748182 
L 341.311205 229.761818 
L 341.387315 208.141364 
L 341.463425 180.343636 
L 341.539535 211.23 
L 341.691755 124.748182 
L 341.767865 232.850455 
L 341.843975 164.900455 
L 341.920085 211.23 
L 341.996195 149.457273 
L 342.072304 226.673182 
L 342.224524 44.443636 
L 342.376744 205.052727 
L 342.452854 208.141364 
L 342.528964 93.861818 
L 342.605074 146.368636 
L 342.681184 56.798182 
L 342.757294 226.673182 
L 342.833404 192.698182 
L 343.061734 229.761818 
L 343.213953 69.152727 
L 343.290063 186.520909 
L 343.366173 158.723182 
L 343.442283 96.950455 
L 343.518393 223.584545 
L 343.670613 44.443636 
L 343.898943 174.166364 
L 343.975053 161.811818 
L 344.051163 183.432273 
L 344.203383 75.33 
L 344.355603 195.786818 
L 344.431712 186.520909 
L 344.507822 232.850455 
L 344.660042 140.191364 
L 344.812262 235.939091 
L 344.964482 146.368636 
L 345.040592 66.064091 
L 345.116702 93.861818 
L 345.192812 47.532273 
L 345.268922 96.950455 
L 345.345032 75.33 
L 345.421142 112.393636 
L 345.497252 223.584545 
L 345.649471 78.418636 
L 345.725581 53.709545 
L 345.877801 201.964091 
L 346.030021 44.443636 
L 346.182241 220.495909 
L 346.258351 143.28 
L 346.334461 242.116364 
L 346.486681 103.127727 
L 346.562791 217.407273 
L 346.638901 87.684545 
L 346.86723 242.116364 
L 347.09556 56.798182 
L 347.17167 211.23 
L 347.32389 47.532273 
L 347.4 167.989091 
L 347.47611 106.216364 
L 347.55222 124.748182 
L 347.62833 211.23 
L 347.70444 93.861818 
L 347.78055 100.039091 
L 347.93277 47.532273 
L 348.161099 143.28 
L 348.237209 84.595909 
L 348.313319 229.761818 
L 348.389429 96.950455 
L 348.465539 186.520909 
L 348.541649 149.457273 
L 348.693869 220.495909 
L 348.846089 78.418636 
L 348.922199 115.482273 
L 348.998309 118.570909 
L 349.074419 103.127727 
L 349.150529 56.798182 
L 349.226638 143.28 
L 349.302748 69.152727 
L 349.454968 201.964091 
L 349.531078 44.443636 
L 349.683298 195.786818 
L 349.911628 69.152727 
L 350.063848 223.584545 
L 350.216068 84.595909 
L 350.292178 87.684545 
L 350.444397 75.33 
L 350.520507 220.495909 
L 350.596617 174.166364 
L 350.672727 124.748182 
L 350.748837 226.673182 
L 350.977167 44.443636 
L 351.053277 78.418636 
L 351.281607 174.166364 
L 351.357717 164.900455 
L 351.509937 50.620909 
L 351.662156 112.393636 
L 351.738266 56.798182 
L 351.814376 109.305 
L 351.966596 66.064091 
L 352.118816 217.407273 
L 352.194926 106.216364 
L 352.271036 115.482273 
L 352.347146 232.850455 
L 352.423256 171.077727 
L 352.499366 220.495909 
L 352.651586 106.216364 
L 352.727696 214.318636 
L 352.803805 56.798182 
L 352.879915 164.900455 
L 352.956025 81.507273 
L 353.032135 93.861818 
L 353.184355 44.443636 
L 353.260465 118.570909 
L 353.336575 69.152727 
L 353.412685 134.014091 
L 353.488795 53.709545 
L 353.564905 96.950455 
L 353.641015 56.798182 
L 353.717125 100.039091 
L 353.793235 47.532273 
L 353.869345 195.786818 
L 353.945455 152.545909 
L 354.097674 214.318636 
L 354.249894 66.064091 
L 354.326004 205.052727 
L 354.402114 149.457273 
L 354.478224 146.368636 
L 354.706554 226.673182 
L 354.782664 164.900455 
L 355.010994 242.116364 
L 355.163214 90.773182 
L 355.239323 50.620909 
L 355.315433 69.152727 
L 355.391543 183.432273 
L 355.467653 100.039091 
L 355.543763 118.570909 
L 355.619873 226.673182 
L 355.772093 59.886818 
L 355.924313 211.23 
L 356.000423 93.861818 
L 356.076533 100.039091 
L 356.152643 56.798182 
L 356.228753 69.152727 
L 356.380973 140.191364 
L 356.533192 214.318636 
L 356.609302 235.939091 
L 356.685412 66.064091 
L 356.837632 223.584545 
L 356.989852 78.418636 
L 357.065962 90.773182 
L 357.218182 127.836818 
L 357.294292 112.393636 
L 357.446512 223.584545 
L 357.522622 211.23 
L 357.598732 130.925455 
L 357.674841 198.875455 
L 357.903171 50.620909 
L 358.131501 112.393636 
L 358.207611 84.595909 
L 358.283721 87.684545 
L 358.435941 183.432273 
L 358.588161 84.595909 
L 358.664271 146.368636 
L 358.740381 121.659545 
L 358.81649 127.836818 
L 358.8926 226.673182 
L 358.96871 140.191364 
L 359.04482 158.723182 
L 359.12093 161.811818 
L 359.19704 242.116364 
L 359.27315 127.836818 
L 359.34926 134.014091 
L 359.50148 44.443636 
L 359.57759 84.595909 
L 359.6537 152.545909 
L 359.72981 47.532273 
L 359.80592 62.975455 
L 360.110359 223.584545 
L 360.186469 118.570909 
L 360.262579 124.748182 
L 360.414799 226.673182 
L 360.490909 217.407273 
L 360.719239 69.152727 
L 360.795349 47.532273 
L 361.099789 232.850455 
L 361.175899 217.407273 
L 361.328118 130.925455 
L 361.404228 167.989091 
L 361.480338 161.811818 
L 361.556448 164.900455 
L 361.632558 69.152727 
L 361.708668 134.014091 
L 361.784778 75.33 
L 361.860888 186.520909 
L 361.936998 152.545909 
L 362.013108 149.457273 
L 362.165328 242.116364 
L 362.241438 223.584545 
L 362.317548 180.343636 
L 362.393658 232.850455 
L 362.698097 62.975455 
L 362.774207 137.102727 
L 362.850317 81.507273 
L 363.002537 201.964091 
L 363.078647 50.620909 
L 363.154757 93.861818 
L 363.230867 115.482273 
L 363.306977 56.798182 
L 363.383087 112.393636 
L 363.459197 59.886818 
L 363.839746 242.116364 
L 363.915856 232.850455 
L 363.991966 59.886818 
L 364.068076 62.975455 
L 364.144186 100.039091 
L 364.220296 90.773182 
L 364.296406 47.532273 
L 364.372516 124.748182 
L 364.448626 106.216364 
L 364.524736 72.241364 
L 364.600846 115.482273 
L 364.676956 90.773182 
L 364.753066 177.255 
L 364.829175 130.925455 
L 364.981395 242.116364 
L 365.057505 90.773182 
L 365.133615 214.318636 
L 365.285835 130.925455 
L 365.361945 96.950455 
L 365.666385 220.495909 
L 365.742495 183.432273 
L 365.894715 50.620909 
L 365.970825 164.900455 
L 366.123044 87.684545 
L 366.199154 90.773182 
L 366.275264 62.975455 
L 366.351374 66.064091 
L 366.427484 59.886818 
L 366.503594 140.191364 
L 366.579704 47.532273 
L 366.655814 217.407273 
L 366.731924 112.393636 
L 366.884144 242.116364 
L 367.036364 103.127727 
L 367.112474 124.748182 
L 367.188584 118.570909 
L 367.340803 226.673182 
L 367.493023 81.507273 
L 367.569133 226.673182 
L 367.721353 44.443636 
L 367.797463 87.684545 
L 368.101903 235.939091 
L 368.178013 214.318636 
L 368.330233 44.443636 
L 368.634672 220.495909 
L 368.710782 124.748182 
L 368.786892 232.850455 
L 368.863002 211.23 
L 368.939112 171.077727 
L 369.015222 232.850455 
L 369.167442 53.709545 
L 369.243552 90.773182 
L 369.395772 121.659545 
L 369.471882 223.584545 
L 369.547992 205.052727 
L 369.624101 208.141364 
L 369.700211 192.698182 
L 369.776321 235.939091 
L 369.928541 62.975455 
L 370.080761 220.495909 
L 370.232981 78.418636 
L 370.309091 53.709545 
L 370.461311 192.698182 
L 370.537421 161.811818 
L 370.613531 81.507273 
L 370.689641 96.950455 
L 370.765751 84.595909 
L 370.84186 53.709545 
L 370.91797 229.761818 
L 370.99408 180.343636 
L 371.1463 174.166364 
L 371.22241 229.761818 
L 371.29852 164.900455 
L 371.37463 239.027727 
L 371.45074 161.811818 
L 371.60296 205.052727 
L 371.75518 72.241364 
L 371.9074 239.027727 
L 371.98351 232.850455 
L 372.059619 186.520909 
L 372.135729 192.698182 
L 372.211839 198.875455 
L 372.287949 214.318636 
L 372.364059 66.064091 
L 372.592389 223.584545 
L 372.668499 242.116364 
L 372.744609 211.23 
L 372.820719 242.116364 
L 372.972939 72.241364 
L 373.049049 229.761818 
L 373.201268 143.28 
L 373.353488 109.305 
L 373.429598 50.620909 
L 373.505708 87.684545 
L 373.581818 186.520909 
L 373.581818 186.520909 
" style="fill:none;stroke:#1f77b4;stroke-linecap:square;stroke-width:1.5;"/>
   </g>
   <g id="patch_3">
    <path d="M 54 252 
L 54 34.56 
" style="fill:none;stroke:#000000;stroke-linecap:square;stroke-linejoin:miter;stroke-width:0.8;"/>
   </g>
   <g id="patch_4">
    <path d="M 388.8 252 
L 388.8 34.56 
" style="fill:none;stroke:#000000;stroke-linecap:square;stroke-linejoin:miter;stroke-width:0.8;"/>
   </g>
   <g id="patch_5">
    <path d="M 54 252 
L 388.8 252 
" style="fill:none;stroke:#000000;stroke-linecap:square;stroke-linejoin:miter;stroke-width:0.8;"/>
   </g>
   <g id="patch_6">
    <path d="M 54 34.56 
L 388.8 34.56 
" style="fill:none;stroke:#000000;stroke-linecap:square;stroke-linejoin:miter;stroke-width:0.8;"/>
   </g>
  </g>
 </g>
 <defs>
  <clipPath id="p9f46876a96">
   <rect height="217.44" width="334.8" x="54" y="34.56"/>
  </clipPath>
 </defs>
</svg>
