<?xml version="1.0" encoding="utf-8" standalone="no"?>
<!DOCTYPE svg PUBLIC "-//W3C//DTD SVG 1.1//EN"
  "http://www.w3.org/Graphics/SVG/1.1/DTD/svg11.dtd">
<!-- Created with matplotlib (http://matplotlib.org/) -->
<svg height="288pt" version="1.1" viewBox="0 0 432 288" width="432pt" xmlns="http://www.w3.org/2000/svg" xmlns:xlink="http://www.w3.org/1999/xlink">
 <defs>
  <style type="text/css">
*{stroke-linecap:butt;stroke-linejoin:round;}
  </style>
 </defs>
 <g id="figure_1">
  <g id="patch_1">
   <path d="M 0 288 
L 432 288 
L 432 0 
L 0 0 
z
" style="fill:#ffffff;"/>
  </g>
  <g id="axes_1">
   <g id="patch_2">
    <path d="M 54 252 
L 388.8 252 
L 388.8 34.56 
L 54 34.56 
z
" style="fill:#ffffff;"/>
   </g>
   <g id="matplotlib.axis_1">
    <g id="xtick_1">
     <g id="line2d_1">
      <defs>
       <path d="M 0 0 
L 0 3.5 
" id="m7c59c38075" style="stroke:#000000;stroke-width:0.8;"/>
      </defs>
      <g>
       <use style="stroke:#000000;stroke-width:0.8;" x="69.218182" xlink:href="#m7c59c38075" y="252"/>
      </g>
     </g>
     <g id="text_1">
      <!-- 0 -->
      <defs>
       <path d="M 31.78125 66.40625 
Q 24.171875 66.40625 20.328125 58.90625 
Q 16.5 51.421875 16.5 36.375 
Q 16.5 21.390625 20.328125 13.890625 
Q 24.171875 6.390625 31.78125 6.390625 
Q 39.453125 6.390625 43.28125 13.890625 
Q 47.125 21.390625 47.125 36.375 
Q 47.125 51.421875 43.28125 58.90625 
Q 39.453125 66.40625 31.78125 66.40625 
z
M 31.78125 74.21875 
Q 44.046875 74.21875 50.515625 64.515625 
Q 56.984375 54.828125 56.984375 36.375 
Q 56.984375 17.96875 50.515625 8.265625 
Q 44.046875 -1.421875 31.78125 -1.421875 
Q 19.53125 -1.421875 13.0625 8.265625 
Q 6.59375 17.96875 6.59375 36.375 
Q 6.59375 54.828125 13.0625 64.515625 
Q 19.53125 74.21875 31.78125 74.21875 
z
" id="DejaVuSans-30"/>
      </defs>
      <g transform="translate(66.036932 266.598437)scale(0.1 -0.1)">
       <use xlink:href="#DejaVuSans-30"/>
      </g>
     </g>
    </g>
    <g id="xtick_2">
     <g id="line2d_2">
      <g>
       <use style="stroke:#000000;stroke-width:0.8;" x="130.151843" xlink:href="#m7c59c38075" y="252"/>
      </g>
     </g>
     <g id="text_2">
      <!-- 200 -->
      <defs>
       <path d="M 19.1875 8.296875 
L 53.609375 8.296875 
L 53.609375 0 
L 7.328125 0 
L 7.328125 8.296875 
Q 12.9375 14.109375 22.625 23.890625 
Q 32.328125 33.6875 34.8125 36.53125 
Q 39.546875 41.84375 41.421875 45.53125 
Q 43.3125 49.21875 43.3125 52.78125 
Q 43.3125 58.59375 39.234375 62.25 
Q 35.15625 65.921875 28.609375 65.921875 
Q 23.96875 65.921875 18.8125 64.3125 
Q 13.671875 62.703125 7.8125 59.421875 
L 7.8125 69.390625 
Q 13.765625 71.78125 18.9375 73 
Q 24.125 74.21875 28.421875 74.21875 
Q 39.75 74.21875 46.484375 68.546875 
Q 53.21875 62.890625 53.21875 53.421875 
Q 53.21875 48.921875 51.53125 44.890625 
Q 49.859375 40.875 45.40625 35.40625 
Q 44.1875 33.984375 37.640625 27.21875 
Q 31.109375 20.453125 19.1875 8.296875 
z
" id="DejaVuSans-32"/>
      </defs>
      <g transform="translate(120.608093 266.598437)scale(0.1 -0.1)">
       <use xlink:href="#DejaVuSans-32"/>
       <use x="63.623047" xlink:href="#DejaVuSans-30"/>
       <use x="127.246094" xlink:href="#DejaVuSans-30"/>
      </g>
     </g>
    </g>
    <g id="xtick_3">
     <g id="line2d_3">
      <g>
       <use style="stroke:#000000;stroke-width:0.8;" x="191.085504" xlink:href="#m7c59c38075" y="252"/>
      </g>
     </g>
     <g id="text_3">
      <!-- 400 -->
      <defs>
       <path d="M 37.796875 64.3125 
L 12.890625 25.390625 
L 37.796875 25.390625 
z
M 35.203125 72.90625 
L 47.609375 72.90625 
L 47.609375 25.390625 
L 58.015625 25.390625 
L 58.015625 17.1875 
L 47.609375 17.1875 
L 47.609375 0 
L 37.796875 0 
L 37.796875 17.1875 
L 4.890625 17.1875 
L 4.890625 26.703125 
z
" id="DejaVuSans-34"/>
      </defs>
      <g transform="translate(181.541754 266.598437)scale(0.1 -0.1)">
       <use xlink:href="#DejaVuSans-34"/>
       <use x="63.623047" xlink:href="#DejaVuSans-30"/>
       <use x="127.246094" xlink:href="#DejaVuSans-30"/>
      </g>
     </g>
    </g>
    <g id="xtick_4">
     <g id="line2d_4">
      <g>
       <use style="stroke:#000000;stroke-width:0.8;" x="252.019165" xlink:href="#m7c59c38075" y="252"/>
      </g>
     </g>
     <g id="text_4">
      <!-- 600 -->
      <defs>
       <path d="M 33.015625 40.375 
Q 26.375 40.375 22.484375 35.828125 
Q 18.609375 31.296875 18.609375 23.390625 
Q 18.609375 15.53125 22.484375 10.953125 
Q 26.375 6.390625 33.015625 6.390625 
Q 39.65625 6.390625 43.53125 10.953125 
Q 47.40625 15.53125 47.40625 23.390625 
Q 47.40625 31.296875 43.53125 35.828125 
Q 39.65625 40.375 33.015625 40.375 
z
M 52.59375 71.296875 
L 52.59375 62.3125 
Q 48.875 64.0625 45.09375 64.984375 
Q 41.3125 65.921875 37.59375 65.921875 
Q 27.828125 65.921875 22.671875 59.328125 
Q 17.53125 52.734375 16.796875 39.40625 
Q 19.671875 43.65625 24.015625 45.921875 
Q 28.375 48.1875 33.59375 48.1875 
Q 44.578125 48.1875 50.953125 41.515625 
Q 57.328125 34.859375 57.328125 23.390625 
Q 57.328125 12.15625 50.6875 5.359375 
Q 44.046875 -1.421875 33.015625 -1.421875 
Q 20.359375 -1.421875 13.671875 8.265625 
Q 6.984375 17.96875 6.984375 36.375 
Q 6.984375 53.65625 15.1875 63.9375 
Q 23.390625 74.21875 37.203125 74.21875 
Q 40.921875 74.21875 44.703125 73.484375 
Q 48.484375 72.75 52.59375 71.296875 
z
" id="DejaVuSans-36"/>
      </defs>
      <g transform="translate(242.475415 266.598437)scale(0.1 -0.1)">
       <use xlink:href="#DejaVuSans-36"/>
       <use x="63.623047" xlink:href="#DejaVuSans-30"/>
       <use x="127.246094" xlink:href="#DejaVuSans-30"/>
      </g>
     </g>
    </g>
    <g id="xtick_5">
     <g id="line2d_5">
      <g>
       <use style="stroke:#000000;stroke-width:0.8;" x="312.952826" xlink:href="#m7c59c38075" y="252"/>
      </g>
     </g>
     <g id="text_5">
      <!-- 800 -->
      <defs>
       <path d="M 31.78125 34.625 
Q 24.75 34.625 20.71875 30.859375 
Q 16.703125 27.09375 16.703125 20.515625 
Q 16.703125 13.921875 20.71875 10.15625 
Q 24.75 6.390625 31.78125 6.390625 
Q 38.8125 6.390625 42.859375 10.171875 
Q 46.921875 13.96875 46.921875 20.515625 
Q 46.921875 27.09375 42.890625 30.859375 
Q 38.875 34.625 31.78125 34.625 
z
M 21.921875 38.8125 
Q 15.578125 40.375 12.03125 44.71875 
Q 8.5 49.078125 8.5 55.328125 
Q 8.5 64.0625 14.71875 69.140625 
Q 20.953125 74.21875 31.78125 74.21875 
Q 42.671875 74.21875 48.875 69.140625 
Q 55.078125 64.0625 55.078125 55.328125 
Q 55.078125 49.078125 51.53125 44.71875 
Q 48 40.375 41.703125 38.8125 
Q 48.828125 37.15625 52.796875 32.3125 
Q 56.78125 27.484375 56.78125 20.515625 
Q 56.78125 9.90625 50.3125 4.234375 
Q 43.84375 -1.421875 31.78125 -1.421875 
Q 19.734375 -1.421875 13.25 4.234375 
Q 6.78125 9.90625 6.78125 20.515625 
Q 6.78125 27.484375 10.78125 32.3125 
Q 14.796875 37.15625 21.921875 38.8125 
z
M 18.3125 54.390625 
Q 18.3125 48.734375 21.84375 45.5625 
Q 25.390625 42.390625 31.78125 42.390625 
Q 38.140625 42.390625 41.71875 45.5625 
Q 45.3125 48.734375 45.3125 54.390625 
Q 45.3125 60.0625 41.71875 63.234375 
Q 38.140625 66.40625 31.78125 66.40625 
Q 25.390625 66.40625 21.84375 63.234375 
Q 18.3125 60.0625 18.3125 54.390625 
z
" id="DejaVuSans-38"/>
      </defs>
      <g transform="translate(303.409076 266.598437)scale(0.1 -0.1)">
       <use xlink:href="#DejaVuSans-38"/>
       <use x="63.623047" xlink:href="#DejaVuSans-30"/>
       <use x="127.246094" xlink:href="#DejaVuSans-30"/>
      </g>
     </g>
    </g>
    <g id="xtick_6">
     <g id="line2d_6">
      <g>
       <use style="stroke:#000000;stroke-width:0.8;" x="373.886486" xlink:href="#m7c59c38075" y="252"/>
      </g>
     </g>
     <g id="text_6">
      <!-- 1000 -->
      <defs>
       <path d="M 12.40625 8.296875 
L 28.515625 8.296875 
L 28.515625 63.921875 
L 10.984375 60.40625 
L 10.984375 69.390625 
L 28.421875 72.90625 
L 38.28125 72.90625 
L 38.28125 8.296875 
L 54.390625 8.296875 
L 54.390625 0 
L 12.40625 0 
z
" id="DejaVuSans-31"/>
      </defs>
      <g transform="translate(361.161486 266.598437)scale(0.1 -0.1)">
       <use xlink:href="#DejaVuSans-31"/>
       <use x="63.623047" xlink:href="#DejaVuSans-30"/>
       <use x="127.246094" xlink:href="#DejaVuSans-30"/>
       <use x="190.869141" xlink:href="#DejaVuSans-30"/>
      </g>
     </g>
    </g>
    <g id="text_7">
     <!-- Sample # -->
     <defs>
      <path d="M 53.515625 70.515625 
L 53.515625 60.890625 
Q 47.90625 63.578125 42.921875 64.890625 
Q 37.9375 66.21875 33.296875 66.21875 
Q 25.25 66.21875 20.875 63.09375 
Q 16.5 59.96875 16.5 54.203125 
Q 16.5 49.359375 19.40625 46.890625 
Q 22.3125 44.4375 30.421875 42.921875 
L 36.375 41.703125 
Q 47.40625 39.59375 52.65625 34.296875 
Q 57.90625 29 57.90625 20.125 
Q 57.90625 9.515625 50.796875 4.046875 
Q 43.703125 -1.421875 29.984375 -1.421875 
Q 24.8125 -1.421875 18.96875 -0.25 
Q 13.140625 0.921875 6.890625 3.21875 
L 6.890625 13.375 
Q 12.890625 10.015625 18.65625 8.296875 
Q 24.421875 6.59375 29.984375 6.59375 
Q 38.421875 6.59375 43.015625 9.90625 
Q 47.609375 13.234375 47.609375 19.390625 
Q 47.609375 24.75 44.3125 27.78125 
Q 41.015625 30.8125 33.5 32.328125 
L 27.484375 33.5 
Q 16.453125 35.6875 11.515625 40.375 
Q 6.59375 45.0625 6.59375 53.421875 
Q 6.59375 63.09375 13.40625 68.65625 
Q 20.21875 74.21875 32.171875 74.21875 
Q 37.3125 74.21875 42.625 73.28125 
Q 47.953125 72.359375 53.515625 70.515625 
z
" id="DejaVuSans-53"/>
      <path d="M 34.28125 27.484375 
Q 23.390625 27.484375 19.1875 25 
Q 14.984375 22.515625 14.984375 16.5 
Q 14.984375 11.71875 18.140625 8.90625 
Q 21.296875 6.109375 26.703125 6.109375 
Q 34.1875 6.109375 38.703125 11.40625 
Q 43.21875 16.703125 43.21875 25.484375 
L 43.21875 27.484375 
z
M 52.203125 31.203125 
L 52.203125 0 
L 43.21875 0 
L 43.21875 8.296875 
Q 40.140625 3.328125 35.546875 0.953125 
Q 30.953125 -1.421875 24.3125 -1.421875 
Q 15.921875 -1.421875 10.953125 3.296875 
Q 6 8.015625 6 15.921875 
Q 6 25.140625 12.171875 29.828125 
Q 18.359375 34.515625 30.609375 34.515625 
L 43.21875 34.515625 
L 43.21875 35.40625 
Q 43.21875 41.609375 39.140625 45 
Q 35.0625 48.390625 27.6875 48.390625 
Q 23 48.390625 18.546875 47.265625 
Q 14.109375 46.140625 10.015625 43.890625 
L 10.015625 52.203125 
Q 14.9375 54.109375 19.578125 55.046875 
Q 24.21875 56 28.609375 56 
Q 40.484375 56 46.34375 49.84375 
Q 52.203125 43.703125 52.203125 31.203125 
z
" id="DejaVuSans-61"/>
      <path d="M 52 44.1875 
Q 55.375 50.25 60.0625 53.125 
Q 64.75 56 71.09375 56 
Q 79.640625 56 84.28125 50.015625 
Q 88.921875 44.046875 88.921875 33.015625 
L 88.921875 0 
L 79.890625 0 
L 79.890625 32.71875 
Q 79.890625 40.578125 77.09375 44.375 
Q 74.3125 48.1875 68.609375 48.1875 
Q 61.625 48.1875 57.5625 43.546875 
Q 53.515625 38.921875 53.515625 30.90625 
L 53.515625 0 
L 44.484375 0 
L 44.484375 32.71875 
Q 44.484375 40.625 41.703125 44.40625 
Q 38.921875 48.1875 33.109375 48.1875 
Q 26.21875 48.1875 22.15625 43.53125 
Q 18.109375 38.875 18.109375 30.90625 
L 18.109375 0 
L 9.078125 0 
L 9.078125 54.6875 
L 18.109375 54.6875 
L 18.109375 46.1875 
Q 21.1875 51.21875 25.484375 53.609375 
Q 29.78125 56 35.6875 56 
Q 41.65625 56 45.828125 52.96875 
Q 50 49.953125 52 44.1875 
z
" id="DejaVuSans-6d"/>
      <path d="M 18.109375 8.203125 
L 18.109375 -20.796875 
L 9.078125 -20.796875 
L 9.078125 54.6875 
L 18.109375 54.6875 
L 18.109375 46.390625 
Q 20.953125 51.265625 25.265625 53.625 
Q 29.59375 56 35.59375 56 
Q 45.5625 56 51.78125 48.09375 
Q 58.015625 40.1875 58.015625 27.296875 
Q 58.015625 14.40625 51.78125 6.484375 
Q 45.5625 -1.421875 35.59375 -1.421875 
Q 29.59375 -1.421875 25.265625 0.953125 
Q 20.953125 3.328125 18.109375 8.203125 
z
M 48.6875 27.296875 
Q 48.6875 37.203125 44.609375 42.84375 
Q 40.53125 48.484375 33.40625 48.484375 
Q 26.265625 48.484375 22.1875 42.84375 
Q 18.109375 37.203125 18.109375 27.296875 
Q 18.109375 17.390625 22.1875 11.75 
Q 26.265625 6.109375 33.40625 6.109375 
Q 40.53125 6.109375 44.609375 11.75 
Q 48.6875 17.390625 48.6875 27.296875 
z
" id="DejaVuSans-70"/>
      <path d="M 9.421875 75.984375 
L 18.40625 75.984375 
L 18.40625 0 
L 9.421875 0 
z
" id="DejaVuSans-6c"/>
      <path d="M 56.203125 29.59375 
L 56.203125 25.203125 
L 14.890625 25.203125 
Q 15.484375 15.921875 20.484375 11.0625 
Q 25.484375 6.203125 34.421875 6.203125 
Q 39.59375 6.203125 44.453125 7.46875 
Q 49.3125 8.734375 54.109375 11.28125 
L 54.109375 2.78125 
Q 49.265625 0.734375 44.1875 -0.34375 
Q 39.109375 -1.421875 33.890625 -1.421875 
Q 20.796875 -1.421875 13.15625 6.1875 
Q 5.515625 13.8125 5.515625 26.8125 
Q 5.515625 40.234375 12.765625 48.109375 
Q 20.015625 56 32.328125 56 
Q 43.359375 56 49.78125 48.890625 
Q 56.203125 41.796875 56.203125 29.59375 
z
M 47.21875 32.234375 
Q 47.125 39.59375 43.09375 43.984375 
Q 39.0625 48.390625 32.421875 48.390625 
Q 24.90625 48.390625 20.390625 44.140625 
Q 15.875 39.890625 15.1875 32.171875 
z
" id="DejaVuSans-65"/>
      <path id="DejaVuSans-20"/>
      <path d="M 51.125 44 
L 36.921875 44 
L 32.8125 27.6875 
L 47.125 27.6875 
z
M 43.796875 71.78125 
L 38.71875 51.515625 
L 52.984375 51.515625 
L 58.109375 71.78125 
L 65.921875 71.78125 
L 60.890625 51.515625 
L 76.125 51.515625 
L 76.125 44 
L 58.984375 44 
L 54.984375 27.6875 
L 70.515625 27.6875 
L 70.515625 20.21875 
L 53.078125 20.21875 
L 48 0 
L 40.1875 0 
L 45.21875 20.21875 
L 30.90625 20.21875 
L 25.875 0 
L 18.015625 0 
L 23.09375 20.21875 
L 7.71875 20.21875 
L 7.71875 27.6875 
L 24.90625 27.6875 
L 29 44 
L 13.28125 44 
L 13.28125 51.515625 
L 30.90625 51.515625 
L 35.890625 71.78125 
z
" id="DejaVuSans-23"/>
     </defs>
     <g transform="translate(196.872656 280.276563)scale(0.1 -0.1)">
      <use xlink:href="#DejaVuSans-53"/>
      <use x="63.476562" xlink:href="#DejaVuSans-61"/>
      <use x="124.755859" xlink:href="#DejaVuSans-6d"/>
      <use x="222.167969" xlink:href="#DejaVuSans-70"/>
      <use x="285.644531" xlink:href="#DejaVuSans-6c"/>
      <use x="313.427734" xlink:href="#DejaVuSans-65"/>
      <use x="374.951172" xlink:href="#DejaVuSans-20"/>
      <use x="406.738281" xlink:href="#DejaVuSans-23"/>
     </g>
    </g>
   </g>
   <g id="matplotlib.axis_2">
    <g id="ytick_1">
     <g id="line2d_7">
      <defs>
       <path d="M 0 0 
L -3.5 0 
" id="md77e167526" style="stroke:#000000;stroke-width:0.8;"/>
      </defs>
      <g>
       <use style="stroke:#000000;stroke-width:0.8;" x="54" xlink:href="#md77e167526" y="229.761818"/>
      </g>
     </g>
     <g id="text_8">
      <!-- 10 -->
      <g transform="translate(34.275 233.561037)scale(0.1 -0.1)">
       <use xlink:href="#DejaVuSans-31"/>
       <use x="63.623047" xlink:href="#DejaVuSans-30"/>
      </g>
     </g>
    </g>
    <g id="ytick_2">
     <g id="line2d_8">
      <g>
       <use style="stroke:#000000;stroke-width:0.8;" x="54" xlink:href="#md77e167526" y="198.875455"/>
      </g>
     </g>
     <g id="text_9">
      <!-- 20 -->
      <g transform="translate(34.275 202.674673)scale(0.1 -0.1)">
       <use xlink:href="#DejaVuSans-32"/>
       <use x="63.623047" xlink:href="#DejaVuSans-30"/>
      </g>
     </g>
    </g>
    <g id="ytick_3">
     <g id="line2d_9">
      <g>
       <use style="stroke:#000000;stroke-width:0.8;" x="54" xlink:href="#md77e167526" y="167.989091"/>
      </g>
     </g>
     <g id="text_10">
      <!-- 30 -->
      <defs>
       <path d="M 40.578125 39.3125 
Q 47.65625 37.796875 51.625 33 
Q 55.609375 28.21875 55.609375 21.1875 
Q 55.609375 10.40625 48.1875 4.484375 
Q 40.765625 -1.421875 27.09375 -1.421875 
Q 22.515625 -1.421875 17.65625 -0.515625 
Q 12.796875 0.390625 7.625 2.203125 
L 7.625 11.71875 
Q 11.71875 9.328125 16.59375 8.109375 
Q 21.484375 6.890625 26.8125 6.890625 
Q 36.078125 6.890625 40.9375 10.546875 
Q 45.796875 14.203125 45.796875 21.1875 
Q 45.796875 27.640625 41.28125 31.265625 
Q 36.765625 34.90625 28.71875 34.90625 
L 20.21875 34.90625 
L 20.21875 43.015625 
L 29.109375 43.015625 
Q 36.375 43.015625 40.234375 45.921875 
Q 44.09375 48.828125 44.09375 54.296875 
Q 44.09375 59.90625 40.109375 62.90625 
Q 36.140625 65.921875 28.71875 65.921875 
Q 24.65625 65.921875 20.015625 65.03125 
Q 15.375 64.15625 9.8125 62.3125 
L 9.8125 71.09375 
Q 15.4375 72.65625 20.34375 73.4375 
Q 25.25 74.21875 29.59375 74.21875 
Q 40.828125 74.21875 47.359375 69.109375 
Q 53.90625 64.015625 53.90625 55.328125 
Q 53.90625 49.265625 50.4375 45.09375 
Q 46.96875 40.921875 40.578125 39.3125 
z
" id="DejaVuSans-33"/>
      </defs>
      <g transform="translate(34.275 171.78831)scale(0.1 -0.1)">
       <use xlink:href="#DejaVuSans-33"/>
       <use x="63.623047" xlink:href="#DejaVuSans-30"/>
      </g>
     </g>
    </g>
    <g id="ytick_4">
     <g id="line2d_10">
      <g>
       <use style="stroke:#000000;stroke-width:0.8;" x="54" xlink:href="#md77e167526" y="137.102727"/>
      </g>
     </g>
     <g id="text_11">
      <!-- 40 -->
      <g transform="translate(34.275 140.901946)scale(0.1 -0.1)">
       <use xlink:href="#DejaVuSans-34"/>
       <use x="63.623047" xlink:href="#DejaVuSans-30"/>
      </g>
     </g>
    </g>
    <g id="ytick_5">
     <g id="line2d_11">
      <g>
       <use style="stroke:#000000;stroke-width:0.8;" x="54" xlink:href="#md77e167526" y="106.216364"/>
      </g>
     </g>
     <g id="text_12">
      <!-- 50 -->
      <defs>
       <path d="M 10.796875 72.90625 
L 49.515625 72.90625 
L 49.515625 64.59375 
L 19.828125 64.59375 
L 19.828125 46.734375 
Q 21.96875 47.46875 24.109375 47.828125 
Q 26.265625 48.1875 28.421875 48.1875 
Q 40.625 48.1875 47.75 41.5 
Q 54.890625 34.8125 54.890625 23.390625 
Q 54.890625 11.625 47.5625 5.09375 
Q 40.234375 -1.421875 26.90625 -1.421875 
Q 22.3125 -1.421875 17.546875 -0.640625 
Q 12.796875 0.140625 7.71875 1.703125 
L 7.71875 11.625 
Q 12.109375 9.234375 16.796875 8.0625 
Q 21.484375 6.890625 26.703125 6.890625 
Q 35.15625 6.890625 40.078125 11.328125 
Q 45.015625 15.765625 45.015625 23.390625 
Q 45.015625 31 40.078125 35.4375 
Q 35.15625 39.890625 26.703125 39.890625 
Q 22.75 39.890625 18.8125 39.015625 
Q 14.890625 38.140625 10.796875 36.28125 
z
" id="DejaVuSans-35"/>
      </defs>
      <g transform="translate(34.275 110.015582)scale(0.1 -0.1)">
       <use xlink:href="#DejaVuSans-35"/>
       <use x="63.623047" xlink:href="#DejaVuSans-30"/>
      </g>
     </g>
    </g>
    <g id="ytick_6">
     <g id="line2d_12">
      <g>
       <use style="stroke:#000000;stroke-width:0.8;" x="54" xlink:href="#md77e167526" y="75.33"/>
      </g>
     </g>
     <g id="text_13">
      <!-- 60 -->
      <g transform="translate(34.275 79.129219)scale(0.1 -0.1)">
       <use xlink:href="#DejaVuSans-36"/>
       <use x="63.623047" xlink:href="#DejaVuSans-30"/>
      </g>
     </g>
    </g>
    <g id="ytick_7">
     <g id="line2d_13">
      <g>
       <use style="stroke:#000000;stroke-width:0.8;" x="54" xlink:href="#md77e167526" y="44.443636"/>
      </g>
     </g>
     <g id="text_14">
      <!-- 70 -->
      <defs>
       <path d="M 8.203125 72.90625 
L 55.078125 72.90625 
L 55.078125 68.703125 
L 28.609375 0 
L 18.3125 0 
L 43.21875 64.59375 
L 8.203125 64.59375 
z
" id="DejaVuSans-37"/>
      </defs>
      <g transform="translate(34.275 48.242855)scale(0.1 -0.1)">
       <use xlink:href="#DejaVuSans-37"/>
       <use x="63.623047" xlink:href="#DejaVuSans-30"/>
      </g>
     </g>
    </g>
    <g id="text_15">
     <!-- # Crossings -->
     <defs>
      <path d="M 64.40625 67.28125 
L 64.40625 56.890625 
Q 59.421875 61.53125 53.78125 63.8125 
Q 48.140625 66.109375 41.796875 66.109375 
Q 29.296875 66.109375 22.65625 58.46875 
Q 16.015625 50.828125 16.015625 36.375 
Q 16.015625 21.96875 22.65625 14.328125 
Q 29.296875 6.6875 41.796875 6.6875 
Q 48.140625 6.6875 53.78125 8.984375 
Q 59.421875 11.28125 64.40625 15.921875 
L 64.40625 5.609375 
Q 59.234375 2.09375 53.4375 0.328125 
Q 47.65625 -1.421875 41.21875 -1.421875 
Q 24.65625 -1.421875 15.125 8.703125 
Q 5.609375 18.84375 5.609375 36.375 
Q 5.609375 53.953125 15.125 64.078125 
Q 24.65625 74.21875 41.21875 74.21875 
Q 47.75 74.21875 53.53125 72.484375 
Q 59.328125 70.75 64.40625 67.28125 
z
" id="DejaVuSans-43"/>
      <path d="M 41.109375 46.296875 
Q 39.59375 47.171875 37.8125 47.578125 
Q 36.03125 48 33.890625 48 
Q 26.265625 48 22.1875 43.046875 
Q 18.109375 38.09375 18.109375 28.8125 
L 18.109375 0 
L 9.078125 0 
L 9.078125 54.6875 
L 18.109375 54.6875 
L 18.109375 46.1875 
Q 20.953125 51.171875 25.484375 53.578125 
Q 30.03125 56 36.53125 56 
Q 37.453125 56 38.578125 55.875 
Q 39.703125 55.765625 41.0625 55.515625 
z
" id="DejaVuSans-72"/>
      <path d="M 30.609375 48.390625 
Q 23.390625 48.390625 19.1875 42.75 
Q 14.984375 37.109375 14.984375 27.296875 
Q 14.984375 17.484375 19.15625 11.84375 
Q 23.34375 6.203125 30.609375 6.203125 
Q 37.796875 6.203125 41.984375 11.859375 
Q 46.1875 17.53125 46.1875 27.296875 
Q 46.1875 37.015625 41.984375 42.703125 
Q 37.796875 48.390625 30.609375 48.390625 
z
M 30.609375 56 
Q 42.328125 56 49.015625 48.375 
Q 55.71875 40.765625 55.71875 27.296875 
Q 55.71875 13.875 49.015625 6.21875 
Q 42.328125 -1.421875 30.609375 -1.421875 
Q 18.84375 -1.421875 12.171875 6.21875 
Q 5.515625 13.875 5.515625 27.296875 
Q 5.515625 40.765625 12.171875 48.375 
Q 18.84375 56 30.609375 56 
z
" id="DejaVuSans-6f"/>
      <path d="M 44.28125 53.078125 
L 44.28125 44.578125 
Q 40.484375 46.53125 36.375 47.5 
Q 32.28125 48.484375 27.875 48.484375 
Q 21.1875 48.484375 17.84375 46.4375 
Q 14.5 44.390625 14.5 40.28125 
Q 14.5 37.15625 16.890625 35.375 
Q 19.28125 33.59375 26.515625 31.984375 
L 29.59375 31.296875 
Q 39.15625 29.25 43.1875 25.515625 
Q 47.21875 21.78125 47.21875 15.09375 
Q 47.21875 7.46875 41.1875 3.015625 
Q 35.15625 -1.421875 24.609375 -1.421875 
Q 20.21875 -1.421875 15.453125 -0.5625 
Q 10.6875 0.296875 5.421875 2 
L 5.421875 11.28125 
Q 10.40625 8.6875 15.234375 7.390625 
Q 20.0625 6.109375 24.8125 6.109375 
Q 31.15625 6.109375 34.5625 8.28125 
Q 37.984375 10.453125 37.984375 14.40625 
Q 37.984375 18.0625 35.515625 20.015625 
Q 33.0625 21.96875 24.703125 23.78125 
L 21.578125 24.515625 
Q 13.234375 26.265625 9.515625 29.90625 
Q 5.8125 33.546875 5.8125 39.890625 
Q 5.8125 47.609375 11.28125 51.796875 
Q 16.75 56 26.8125 56 
Q 31.78125 56 36.171875 55.265625 
Q 40.578125 54.546875 44.28125 53.078125 
z
" id="DejaVuSans-73"/>
      <path d="M 9.421875 54.6875 
L 18.40625 54.6875 
L 18.40625 0 
L 9.421875 0 
z
M 9.421875 75.984375 
L 18.40625 75.984375 
L 18.40625 64.59375 
L 9.421875 64.59375 
z
" id="DejaVuSans-69"/>
      <path d="M 54.890625 33.015625 
L 54.890625 0 
L 45.90625 0 
L 45.90625 32.71875 
Q 45.90625 40.484375 42.875 44.328125 
Q 39.84375 48.1875 33.796875 48.1875 
Q 26.515625 48.1875 22.3125 43.546875 
Q 18.109375 38.921875 18.109375 30.90625 
L 18.109375 0 
L 9.078125 0 
L 9.078125 54.6875 
L 18.109375 54.6875 
L 18.109375 46.1875 
Q 21.34375 51.125 25.703125 53.5625 
Q 30.078125 56 35.796875 56 
Q 45.21875 56 50.046875 50.171875 
Q 54.890625 44.34375 54.890625 33.015625 
z
" id="DejaVuSans-6e"/>
      <path d="M 45.40625 27.984375 
Q 45.40625 37.75 41.375 43.109375 
Q 37.359375 48.484375 30.078125 48.484375 
Q 22.859375 48.484375 18.828125 43.109375 
Q 14.796875 37.75 14.796875 27.984375 
Q 14.796875 18.265625 18.828125 12.890625 
Q 22.859375 7.515625 30.078125 7.515625 
Q 37.359375 7.515625 41.375 12.890625 
Q 45.40625 18.265625 45.40625 27.984375 
z
M 54.390625 6.78125 
Q 54.390625 -7.171875 48.1875 -13.984375 
Q 42 -20.796875 29.203125 -20.796875 
Q 24.46875 -20.796875 20.265625 -20.09375 
Q 16.0625 -19.390625 12.109375 -17.921875 
L 12.109375 -9.1875 
Q 16.0625 -11.328125 19.921875 -12.34375 
Q 23.78125 -13.375 27.78125 -13.375 
Q 36.625 -13.375 41.015625 -8.765625 
Q 45.40625 -4.15625 45.40625 5.171875 
L 45.40625 9.625 
Q 42.625 4.78125 38.28125 2.390625 
Q 33.9375 0 27.875 0 
Q 17.828125 0 11.671875 7.65625 
Q 5.515625 15.328125 5.515625 27.984375 
Q 5.515625 40.671875 11.671875 48.328125 
Q 17.828125 56 27.875 56 
Q 33.9375 56 38.28125 53.609375 
Q 42.625 51.21875 45.40625 46.390625 
L 45.40625 54.6875 
L 54.390625 54.6875 
z
" id="DejaVuSans-67"/>
     </defs>
     <g transform="translate(28.195312 173.209688)rotate(-90)scale(0.1 -0.1)">
      <use xlink:href="#DejaVuSans-23"/>
      <use x="83.789062" xlink:href="#DejaVuSans-20"/>
      <use x="115.576172" xlink:href="#DejaVuSans-43"/>
      <use x="185.400391" xlink:href="#DejaVuSans-72"/>
      <use x="226.482422" xlink:href="#DejaVuSans-6f"/>
      <use x="287.664062" xlink:href="#DejaVuSans-73"/>
      <use x="339.763672" xlink:href="#DejaVuSans-73"/>
      <use x="391.863281" xlink:href="#DejaVuSans-69"/>
      <use x="419.646484" xlink:href="#DejaVuSans-6e"/>
      <use x="483.025391" xlink:href="#DejaVuSans-67"/>
      <use x="546.501953" xlink:href="#DejaVuSans-73"/>
     </g>
    </g>
   </g>
   <g id="line2d_14">
    <path clip-path="url(#p30fd5dfc9e)" d="M 69.218182 75.33 
L 69.52285 195.786818 
L 69.827518 220.495909 
L 70.132187 183.432273 
L 70.436855 201.964091 
L 70.741523 124.748182 
L 71.046192 189.609545 
L 71.35086 100.039091 
L 71.655528 229.761818 
L 71.960197 134.014091 
L 72.264865 75.33 
L 72.569533 208.141364 
L 72.874201 171.077727 
L 73.17887 226.673182 
L 73.483538 103.127727 
L 73.788206 198.875455 
L 74.092875 239.027727 
L 74.397543 62.975455 
L 74.702211 50.620909 
L 75.00688 239.027727 
L 75.311548 211.23 
L 75.616216 140.191364 
L 75.920885 232.850455 
L 76.225553 180.343636 
L 76.530221 167.989091 
L 76.834889 59.886818 
L 77.139558 93.861818 
L 77.444226 211.23 
L 77.748894 146.368636 
L 78.053563 235.939091 
L 78.358231 195.786818 
L 78.662899 78.418636 
L 78.967568 59.886818 
L 79.272236 84.595909 
L 79.576904 100.039091 
L 79.881572 50.620909 
L 80.186241 186.520909 
L 80.795577 50.620909 
L 81.100246 174.166364 
L 81.709582 239.027727 
L 82.014251 220.495909 
L 82.318919 127.836818 
L 82.623587 124.748182 
L 82.928256 44.443636 
L 83.232924 158.723182 
L 83.537592 127.836818 
L 83.84226 56.798182 
L 84.146929 167.989091 
L 84.451597 223.584545 
L 84.756265 242.116364 
L 85.060934 127.836818 
L 85.365602 164.900455 
L 85.67027 127.836818 
L 85.974939 226.673182 
L 86.279607 75.33 
L 86.584275 96.950455 
L 86.888943 75.33 
L 87.193612 96.950455 
L 87.49828 223.584545 
L 87.802948 180.343636 
L 88.107617 180.343636 
L 88.412285 100.039091 
L 88.716953 235.939091 
L 89.021622 201.964091 
L 89.32629 134.014091 
L 89.630958 100.039091 
L 89.935627 84.595909 
L 90.240295 183.432273 
L 90.544963 81.507273 
L 90.849631 75.33 
L 91.1543 121.659545 
L 91.458968 96.950455 
L 91.763636 161.811818 
L 92.068305 192.698182 
L 92.372973 242.116364 
L 92.677641 220.495909 
L 92.98231 72.241364 
L 93.286978 205.052727 
L 93.591646 124.748182 
L 93.896314 211.23 
L 94.200983 47.532273 
L 94.505651 242.116364 
L 94.810319 56.798182 
L 95.114988 59.886818 
L 95.419656 44.443636 
L 95.724324 84.595909 
L 96.028993 47.532273 
L 96.333661 109.305 
L 96.638329 44.443636 
L 96.942998 47.532273 
L 97.247666 164.900455 
L 97.552334 44.443636 
L 97.857002 81.507273 
L 98.161671 66.064091 
L 98.466339 78.418636 
L 98.771007 223.584545 
L 99.075676 143.28 
L 99.380344 93.861818 
L 99.685012 121.659545 
L 99.989681 239.027727 
L 100.294349 93.861818 
L 100.599017 127.836818 
L 100.903686 84.595909 
L 101.208354 78.418636 
L 101.513022 155.634545 
L 101.81769 143.28 
L 102.122359 137.102727 
L 102.427027 158.723182 
L 102.731695 223.584545 
L 103.036364 208.141364 
L 103.341032 183.432273 
L 103.6457 192.698182 
L 103.950369 81.507273 
L 104.255037 158.723182 
L 104.559705 167.989091 
L 104.864373 56.798182 
L 105.169042 75.33 
L 105.47371 130.925455 
L 105.778378 220.495909 
L 106.083047 103.127727 
L 106.387715 124.748182 
L 106.692383 81.507273 
L 106.997052 109.305 
L 107.30172 47.532273 
L 107.606388 118.570909 
L 107.911057 53.709545 
L 108.215725 152.545909 
L 108.520393 158.723182 
L 108.825061 121.659545 
L 109.12973 152.545909 
L 109.434398 127.836818 
L 109.739066 232.850455 
L 110.043735 198.875455 
L 110.348403 195.786818 
L 110.653071 217.407273 
L 110.95774 130.925455 
L 111.262408 217.407273 
L 111.567076 149.457273 
L 111.871744 118.570909 
L 112.481081 44.443636 
L 112.785749 87.684545 
L 113.090418 72.241364 
L 113.395086 96.950455 
L 113.699754 223.584545 
L 114.004423 112.393636 
L 114.309091 235.939091 
L 114.613759 47.532273 
L 114.918428 143.28 
L 115.223096 96.950455 
L 115.527764 93.861818 
L 115.832432 84.595909 
L 116.137101 53.709545 
L 116.441769 158.723182 
L 116.746437 167.989091 
L 117.051106 205.052727 
L 117.355774 198.875455 
L 117.660442 242.116364 
L 117.965111 195.786818 
L 118.574447 72.241364 
L 118.879115 186.520909 
L 119.183784 164.900455 
L 119.488452 130.925455 
L 119.79312 50.620909 
L 120.097789 149.457273 
L 120.402457 75.33 
L 120.707125 78.418636 
L 121.011794 59.886818 
L 121.316462 226.673182 
L 121.62113 84.595909 
L 121.925799 87.684545 
L 122.230467 134.014091 
L 122.535135 143.28 
L 122.839803 53.709545 
L 123.144472 106.216364 
L 123.753808 137.102727 
L 124.058477 220.495909 
L 124.363145 195.786818 
L 124.972482 109.305 
L 125.27715 137.102727 
L 125.581818 124.748182 
L 125.886486 127.836818 
L 126.191155 192.698182 
L 126.495823 198.875455 
L 126.800491 140.191364 
L 127.10516 149.457273 
L 127.409828 220.495909 
L 127.714496 152.545909 
L 128.019165 195.786818 
L 128.323833 100.039091 
L 128.93317 229.761818 
L 129.237838 66.064091 
L 129.542506 72.241364 
L 129.847174 158.723182 
L 130.151843 47.532273 
L 130.456511 44.443636 
L 130.761179 72.241364 
L 131.065848 118.570909 
L 131.370516 134.014091 
L 131.675184 158.723182 
L 131.979853 100.039091 
L 132.284521 93.861818 
L 132.589189 96.950455 
L 132.893857 72.241364 
L 133.198526 140.191364 
L 133.503194 130.925455 
L 133.807862 211.23 
L 134.112531 183.432273 
L 134.417199 140.191364 
L 134.721867 239.027727 
L 135.026536 177.255 
L 135.331204 143.28 
L 135.635872 235.939091 
L 135.940541 198.875455 
L 136.245209 115.482273 
L 136.549877 112.393636 
L 136.854545 84.595909 
L 137.159214 112.393636 
L 137.463882 69.152727 
L 137.76855 239.027727 
L 138.073219 164.900455 
L 138.377887 201.964091 
L 138.682555 177.255 
L 138.987224 229.761818 
L 139.291892 130.925455 
L 139.59656 195.786818 
L 139.901229 232.850455 
L 140.205897 211.23 
L 140.510565 174.166364 
L 140.815233 53.709545 
L 141.119902 47.532273 
L 141.42457 158.723182 
L 141.729238 192.698182 
L 142.033907 134.014091 
L 142.338575 96.950455 
L 142.643243 121.659545 
L 142.947912 192.698182 
L 143.25258 56.798182 
L 143.557248 59.886818 
L 143.861916 130.925455 
L 144.166585 239.027727 
L 144.775921 62.975455 
L 145.08059 115.482273 
L 145.385258 115.482273 
L 145.689926 56.798182 
L 145.994595 109.305 
L 146.299263 235.939091 
L 146.603931 81.507273 
L 146.9086 121.659545 
L 147.213268 103.127727 
L 147.517936 75.33 
L 147.822604 90.773182 
L 148.127273 118.570909 
L 148.431941 205.052727 
L 148.736609 121.659545 
L 149.041278 229.761818 
L 149.345946 177.255 
L 149.650614 180.343636 
L 149.955283 226.673182 
L 150.259951 137.102727 
L 150.564619 201.964091 
L 150.869287 69.152727 
L 151.173956 180.343636 
L 151.783292 96.950455 
L 152.087961 158.723182 
L 152.392629 121.659545 
L 152.697297 229.761818 
L 153.001966 192.698182 
L 153.306634 69.152727 
L 153.611302 96.950455 
L 153.915971 93.861818 
L 154.220639 50.620909 
L 154.525307 90.773182 
L 154.829975 232.850455 
L 155.134644 229.761818 
L 155.439312 205.052727 
L 155.74398 211.23 
L 156.048649 96.950455 
L 156.353317 109.305 
L 156.962654 232.850455 
L 157.267322 223.584545 
L 157.57199 177.255 
L 157.876658 112.393636 
L 158.181327 198.875455 
L 158.485995 201.964091 
L 158.790663 72.241364 
L 159.095332 211.23 
L 159.4 177.255 
L 159.704668 78.418636 
L 160.009337 242.116364 
L 160.314005 59.886818 
L 160.618673 72.241364 
L 160.923342 106.216364 
L 161.22801 226.673182 
L 161.532678 134.014091 
L 161.837346 183.432273 
L 162.142015 167.989091 
L 162.446683 177.255 
L 162.751351 100.039091 
L 163.05602 134.014091 
L 163.360688 87.684545 
L 163.665356 106.216364 
L 163.970025 217.407273 
L 164.274693 167.989091 
L 164.579361 100.039091 
L 165.188698 208.141364 
L 165.493366 177.255 
L 165.798034 217.407273 
L 166.102703 192.698182 
L 166.407371 235.939091 
L 166.712039 112.393636 
L 167.016708 69.152727 
L 167.321376 134.014091 
L 167.626044 149.457273 
L 167.930713 50.620909 
L 168.235381 50.620909 
L 168.540049 72.241364 
L 168.844717 211.23 
L 169.149386 158.723182 
L 169.454054 229.761818 
L 169.758722 198.875455 
L 170.063391 195.786818 
L 170.368059 186.520909 
L 170.977396 81.507273 
L 171.282064 226.673182 
L 171.586732 186.520909 
L 171.8914 183.432273 
L 172.196069 137.102727 
L 172.500737 124.748182 
L 172.805405 93.861818 
L 173.110074 44.443636 
L 173.71941 167.989091 
L 174.024079 44.443636 
L 174.328747 167.989091 
L 174.633415 214.318636 
L 174.938084 149.457273 
L 175.242752 112.393636 
L 175.54742 118.570909 
L 175.852088 214.318636 
L 176.156757 90.773182 
L 176.461425 118.570909 
L 177.070762 47.532273 
L 177.37543 75.33 
L 177.680098 180.343636 
L 178.289435 152.545909 
L 178.594103 177.255 
L 178.898771 93.861818 
L 179.20344 75.33 
L 179.508108 220.495909 
L 179.812776 205.052727 
L 180.117445 143.28 
L 180.422113 198.875455 
L 180.726781 103.127727 
L 181.03145 124.748182 
L 181.336118 93.861818 
L 181.640786 84.595909 
L 181.945455 93.861818 
L 182.250123 72.241364 
L 182.554791 127.836818 
L 182.859459 146.368636 
L 183.164128 143.28 
L 183.468796 161.811818 
L 183.773464 124.748182 
L 184.078133 192.698182 
L 184.382801 75.33 
L 184.687469 155.634545 
L 184.992138 72.241364 
L 185.296806 208.141364 
L 185.601474 149.457273 
L 186.210811 220.495909 
L 186.515479 100.039091 
L 186.820147 62.975455 
L 187.124816 118.570909 
L 187.429484 124.748182 
L 187.734152 192.698182 
L 188.038821 167.989091 
L 188.343489 214.318636 
L 188.648157 232.850455 
L 188.952826 109.305 
L 189.257494 72.241364 
L 189.562162 152.545909 
L 189.86683 192.698182 
L 190.171499 53.709545 
L 190.476167 81.507273 
L 190.780835 69.152727 
L 191.085504 152.545909 
L 191.390172 183.432273 
L 191.69484 134.014091 
L 191.999509 186.520909 
L 192.304177 180.343636 
L 192.608845 75.33 
L 192.913514 177.255 
L 193.218182 226.673182 
L 193.52285 93.861818 
L 193.827518 220.495909 
L 194.132187 174.166364 
L 194.436855 229.761818 
L 194.741523 161.811818 
L 195.046192 214.318636 
L 195.35086 149.457273 
L 195.655528 183.432273 
L 195.960197 171.077727 
L 196.264865 242.116364 
L 196.569533 127.836818 
L 196.874201 226.673182 
L 197.17887 242.116364 
L 197.483538 137.102727 
L 198.092875 183.432273 
L 198.397543 47.532273 
L 198.702211 192.698182 
L 199.00688 130.925455 
L 199.311548 115.482273 
L 199.616216 167.989091 
L 199.920885 134.014091 
L 200.225553 149.457273 
L 200.530221 47.532273 
L 200.834889 118.570909 
L 201.139558 140.191364 
L 201.444226 192.698182 
L 201.748894 75.33 
L 202.053563 195.786818 
L 202.358231 198.875455 
L 202.662899 167.989091 
L 202.967568 59.886818 
L 203.272236 93.861818 
L 203.576904 208.141364 
L 204.490909 78.418636 
L 204.795577 106.216364 
L 205.100246 106.216364 
L 205.404914 109.305 
L 205.709582 44.443636 
L 206.014251 146.368636 
L 206.623587 239.027727 
L 206.928256 53.709545 
L 207.232924 186.520909 
L 207.537592 235.939091 
L 207.84226 211.23 
L 208.146929 232.850455 
L 208.451597 226.673182 
L 209.060934 109.305 
L 209.365602 127.836818 
L 209.67027 90.773182 
L 210.279607 96.950455 
L 210.584275 44.443636 
L 210.888943 134.014091 
L 211.193612 171.077727 
L 211.49828 158.723182 
L 211.802948 50.620909 
L 212.107617 201.964091 
L 212.716953 50.620909 
L 213.021622 164.900455 
L 213.32629 235.939091 
L 213.630958 198.875455 
L 213.935627 47.532273 
L 214.240295 198.875455 
L 214.849631 47.532273 
L 215.1543 72.241364 
L 215.458968 84.595909 
L 215.763636 72.241364 
L 216.068305 53.709545 
L 216.677641 239.027727 
L 216.98231 47.532273 
L 217.286978 201.964091 
L 217.591646 106.216364 
L 217.896314 146.368636 
L 218.200983 164.900455 
L 218.505651 56.798182 
L 218.810319 56.798182 
L 219.114988 103.127727 
L 219.419656 93.861818 
L 219.724324 232.850455 
L 220.028993 109.305 
L 220.333661 229.761818 
L 220.942998 44.443636 
L 221.247666 81.507273 
L 221.552334 232.850455 
L 221.857002 112.393636 
L 222.161671 66.064091 
L 222.466339 62.975455 
L 222.771007 56.798182 
L 223.075676 143.28 
L 223.380344 161.811818 
L 223.685012 239.027727 
L 223.989681 235.939091 
L 224.294349 134.014091 
L 224.599017 72.241364 
L 224.903686 201.964091 
L 225.208354 118.570909 
L 225.513022 214.318636 
L 225.81769 50.620909 
L 226.122359 217.407273 
L 226.427027 177.255 
L 226.731695 152.545909 
L 227.036364 44.443636 
L 227.341032 161.811818 
L 227.6457 50.620909 
L 227.950369 47.532273 
L 228.255037 62.975455 
L 228.559705 56.798182 
L 228.864373 56.798182 
L 229.169042 59.886818 
L 229.47371 100.039091 
L 229.778378 174.166364 
L 230.083047 112.393636 
L 230.387715 134.014091 
L 230.692383 183.432273 
L 231.30172 124.748182 
L 231.606388 220.495909 
L 231.911057 106.216364 
L 232.215725 96.950455 
L 232.520393 47.532273 
L 232.825061 53.709545 
L 233.739066 201.964091 
L 234.043735 183.432273 
L 234.348403 223.584545 
L 234.95774 50.620909 
L 235.262408 69.152727 
L 235.567076 226.673182 
L 235.871744 66.064091 
L 236.176413 72.241364 
L 236.481081 161.811818 
L 237.090418 66.064091 
L 237.395086 232.850455 
L 238.004423 56.798182 
L 238.309091 62.975455 
L 238.613759 140.191364 
L 238.918428 109.305 
L 239.223096 183.432273 
L 239.527764 167.989091 
L 239.832432 164.900455 
L 240.137101 174.166364 
L 240.441769 100.039091 
L 240.746437 183.432273 
L 241.051106 149.457273 
L 241.355774 44.443636 
L 241.660442 96.950455 
L 241.965111 232.850455 
L 242.269779 211.23 
L 242.574447 201.964091 
L 242.879115 59.886818 
L 243.183784 44.443636 
L 243.79312 143.28 
L 244.097789 93.861818 
L 244.402457 140.191364 
L 244.707125 149.457273 
L 245.011794 192.698182 
L 245.316462 84.595909 
L 245.925799 208.141364 
L 246.230467 186.520909 
L 246.535135 53.709545 
L 246.839803 232.850455 
L 247.144472 208.141364 
L 247.44914 155.634545 
L 247.753808 161.811818 
L 248.058477 242.116364 
L 248.363145 186.520909 
L 248.667813 59.886818 
L 248.972482 96.950455 
L 249.27715 223.584545 
L 249.581818 115.482273 
L 249.886486 186.520909 
L 250.191155 143.28 
L 250.495823 158.723182 
L 250.800491 50.620909 
L 251.409828 195.786818 
L 251.714496 214.318636 
L 252.019165 195.786818 
L 252.628501 47.532273 
L 252.93317 143.28 
L 253.237838 158.723182 
L 253.542506 155.634545 
L 253.847174 62.975455 
L 254.151843 121.659545 
L 254.456511 47.532273 
L 254.761179 47.532273 
L 255.065848 158.723182 
L 255.370516 47.532273 
L 255.675184 177.255 
L 255.979853 177.255 
L 256.284521 81.507273 
L 256.589189 235.939091 
L 256.893857 220.495909 
L 257.198526 229.761818 
L 257.503194 124.748182 
L 257.807862 103.127727 
L 258.112531 192.698182 
L 258.417199 130.925455 
L 259.026536 161.811818 
L 259.331204 208.141364 
L 259.635872 66.064091 
L 260.245209 143.28 
L 260.549877 69.152727 
L 260.854545 53.709545 
L 261.159214 81.507273 
L 261.463882 208.141364 
L 261.76855 242.116364 
L 262.073219 211.23 
L 262.682555 189.609545 
L 263.291892 242.116364 
L 263.59656 155.634545 
L 263.901229 226.673182 
L 264.205897 56.798182 
L 264.510565 56.798182 
L 264.815233 229.761818 
L 265.119902 158.723182 
L 265.42457 155.634545 
L 265.729238 62.975455 
L 266.033907 62.975455 
L 266.338575 106.216364 
L 266.643243 56.798182 
L 267.25258 232.850455 
L 267.557248 242.116364 
L 267.861916 146.368636 
L 268.166585 130.925455 
L 268.471253 62.975455 
L 268.775921 62.975455 
L 269.08059 167.989091 
L 269.385258 226.673182 
L 269.689926 143.28 
L 269.994595 143.28 
L 270.299263 124.748182 
L 270.603931 223.584545 
L 270.9086 229.761818 
L 271.517936 103.127727 
L 271.822604 134.014091 
L 272.127273 183.432273 
L 272.431941 158.723182 
L 272.736609 217.407273 
L 273.041278 242.116364 
L 273.345946 223.584545 
L 273.650614 220.495909 
L 273.955283 75.33 
L 274.259951 183.432273 
L 274.564619 84.595909 
L 274.869287 205.052727 
L 275.173956 106.216364 
L 275.478624 211.23 
L 275.783292 87.684545 
L 276.087961 134.014091 
L 276.392629 103.127727 
L 276.697297 211.23 
L 277.306634 198.875455 
L 277.611302 130.925455 
L 277.915971 152.545909 
L 278.220639 53.709545 
L 278.525307 239.027727 
L 278.829975 50.620909 
L 279.439312 44.443636 
L 279.74398 192.698182 
L 280.048649 152.545909 
L 280.353317 189.609545 
L 280.962654 118.570909 
L 281.267322 56.798182 
L 281.57199 149.457273 
L 281.876658 124.748182 
L 282.181327 59.886818 
L 282.485995 198.875455 
L 282.790663 62.975455 
L 283.095332 140.191364 
L 283.4 174.166364 
L 283.704668 164.900455 
L 284.009337 121.659545 
L 284.314005 96.950455 
L 284.923342 229.761818 
L 285.22801 121.659545 
L 285.532678 118.570909 
L 285.837346 87.684545 
L 286.142015 189.609545 
L 286.446683 180.343636 
L 286.751351 180.343636 
L 287.05602 62.975455 
L 287.360688 59.886818 
L 287.665356 47.532273 
L 287.970025 177.255 
L 288.274693 90.773182 
L 288.579361 93.861818 
L 288.884029 214.318636 
L 289.188698 242.116364 
L 289.493366 167.989091 
L 289.798034 220.495909 
L 290.102703 93.861818 
L 290.407371 47.532273 
L 290.712039 72.241364 
L 291.016708 81.507273 
L 291.321376 75.33 
L 291.626044 164.900455 
L 291.930713 214.318636 
L 292.235381 192.698182 
L 292.540049 192.698182 
L 292.844717 177.255 
L 293.758722 66.064091 
L 294.063391 239.027727 
L 294.368059 171.077727 
L 294.672727 201.964091 
L 294.977396 211.23 
L 295.282064 232.850455 
L 295.586732 72.241364 
L 295.8914 223.584545 
L 296.196069 90.773182 
L 296.500737 180.343636 
L 296.805405 106.216364 
L 297.110074 226.673182 
L 297.414742 100.039091 
L 297.71941 235.939091 
L 298.024079 164.900455 
L 298.328747 223.584545 
L 298.633415 180.343636 
L 298.938084 87.684545 
L 299.242752 155.634545 
L 299.54742 143.28 
L 299.852088 214.318636 
L 300.156757 242.116364 
L 300.766093 69.152727 
L 301.070762 59.886818 
L 301.37543 161.811818 
L 301.680098 208.141364 
L 302.594103 127.836818 
L 302.898771 137.102727 
L 303.20344 198.875455 
L 303.508108 118.570909 
L 303.812776 180.343636 
L 304.117445 118.570909 
L 304.422113 134.014091 
L 304.726781 87.684545 
L 305.03145 217.407273 
L 305.336118 118.570909 
L 305.640786 180.343636 
L 305.945455 205.052727 
L 306.250123 220.495909 
L 306.554791 226.673182 
L 307.468796 171.077727 
L 307.773464 134.014091 
L 308.078133 167.989091 
L 308.382801 47.532273 
L 308.687469 72.241364 
L 308.992138 189.609545 
L 309.296806 180.343636 
L 309.601474 161.811818 
L 309.906143 186.520909 
L 310.210811 118.570909 
L 310.515479 220.495909 
L 310.820147 155.634545 
L 311.124816 239.027727 
L 311.429484 140.191364 
L 311.734152 124.748182 
L 312.038821 75.33 
L 312.343489 235.939091 
L 312.648157 69.152727 
L 312.952826 167.989091 
L 313.257494 183.432273 
L 313.86683 103.127727 
L 314.171499 93.861818 
L 314.476167 232.850455 
L 314.780835 100.039091 
L 315.085504 96.950455 
L 315.390172 72.241364 
L 315.69484 66.064091 
L 315.999509 127.836818 
L 316.304177 53.709545 
L 316.608845 103.127727 
L 316.913514 220.495909 
L 317.218182 124.748182 
L 317.52285 87.684545 
L 317.827518 220.495909 
L 318.132187 232.850455 
L 318.436855 81.507273 
L 318.741523 87.684545 
L 319.046192 220.495909 
L 319.35086 158.723182 
L 319.655528 239.027727 
L 319.960197 152.545909 
L 320.264865 115.482273 
L 320.569533 124.748182 
L 320.874201 96.950455 
L 321.17887 81.507273 
L 321.483538 124.748182 
L 321.788206 66.064091 
L 322.092875 205.052727 
L 322.397543 121.659545 
L 322.702211 81.507273 
L 323.00688 198.875455 
L 323.311548 198.875455 
L 323.616216 146.368636 
L 323.920885 223.584545 
L 324.225553 56.798182 
L 324.530221 47.532273 
L 324.834889 90.773182 
L 325.444226 53.709545 
L 326.053563 69.152727 
L 326.358231 226.673182 
L 326.967568 177.255 
L 327.272236 220.495909 
L 327.576904 84.595909 
L 327.881572 66.064091 
L 328.186241 235.939091 
L 328.490909 112.393636 
L 328.795577 44.443636 
L 329.100246 53.709545 
L 329.404914 146.368636 
L 329.709582 186.520909 
L 330.014251 201.964091 
L 330.318919 192.698182 
L 330.623587 81.507273 
L 330.928256 192.698182 
L 331.232924 208.141364 
L 331.537592 96.950455 
L 331.84226 217.407273 
L 332.146929 198.875455 
L 332.451597 235.939091 
L 333.060934 214.318636 
L 333.365602 189.609545 
L 333.67027 109.305 
L 333.974939 127.836818 
L 334.279607 189.609545 
L 334.584275 50.620909 
L 334.888943 205.052727 
L 335.193612 155.634545 
L 335.49828 66.064091 
L 335.802948 198.875455 
L 336.107617 59.886818 
L 336.412285 62.975455 
L 336.716953 93.861818 
L 337.021622 152.545909 
L 337.32629 109.305 
L 337.630958 90.773182 
L 337.935627 161.811818 
L 338.240295 192.698182 
L 338.544963 121.659545 
L 338.849631 177.255 
L 339.1543 103.127727 
L 339.458968 66.064091 
L 340.068305 220.495909 
L 340.372973 186.520909 
L 340.677641 183.432273 
L 340.98231 201.964091 
L 341.286978 103.127727 
L 341.591646 208.141364 
L 341.896314 242.116364 
L 342.200983 84.595909 
L 342.505651 112.393636 
L 342.810319 205.052727 
L 343.114988 137.102727 
L 343.419656 220.495909 
L 343.724324 183.432273 
L 344.333661 75.33 
L 344.638329 96.950455 
L 344.942998 72.241364 
L 345.247666 164.900455 
L 345.552334 124.748182 
L 345.857002 56.798182 
L 346.161671 93.861818 
L 346.466339 96.950455 
L 346.771007 205.052727 
L 347.075676 118.570909 
L 347.380344 134.014091 
L 347.685012 84.595909 
L 347.989681 229.761818 
L 348.294349 109.305 
L 348.599017 69.152727 
L 348.903686 186.520909 
L 349.208354 186.520909 
L 349.513022 96.950455 
L 349.81769 109.305 
L 350.122359 81.507273 
L 350.427027 130.925455 
L 350.731695 75.33 
L 351.036364 75.33 
L 351.341032 121.659545 
L 351.6457 78.418636 
L 351.950369 174.166364 
L 352.255037 152.545909 
L 352.559705 220.495909 
L 352.864373 201.964091 
L 353.169042 146.368636 
L 353.47371 201.964091 
L 353.778378 201.964091 
L 354.083047 239.027727 
L 354.387715 198.875455 
L 354.692383 242.116364 
L 355.30172 201.964091 
L 355.606388 75.33 
L 355.911057 174.166364 
L 356.215725 192.698182 
L 356.520393 106.216364 
L 356.825061 201.964091 
L 357.12973 171.077727 
L 357.434398 208.141364 
L 357.739066 140.191364 
L 358.043735 189.609545 
L 358.348403 44.443636 
L 358.653071 158.723182 
L 358.95774 109.305 
L 359.262408 232.850455 
L 359.567076 174.166364 
L 359.871744 161.811818 
L 360.176413 226.673182 
L 360.481081 140.191364 
L 360.785749 130.925455 
L 361.090418 214.318636 
L 361.395086 232.850455 
L 361.699754 167.989091 
L 362.004423 78.418636 
L 362.309091 62.975455 
L 362.613759 87.684545 
L 362.918428 180.343636 
L 363.223096 158.723182 
L 363.832432 217.407273 
L 364.137101 134.014091 
L 364.441769 239.027727 
L 364.746437 66.064091 
L 365.051106 214.318636 
L 365.355774 158.723182 
L 365.660442 174.166364 
L 365.965111 100.039091 
L 366.269779 115.482273 
L 366.574447 96.950455 
L 366.879115 235.939091 
L 367.183784 208.141364 
L 368.097789 56.798182 
L 368.402457 56.798182 
L 368.707125 50.620909 
L 369.011794 174.166364 
L 369.316462 96.950455 
L 369.62113 239.027727 
L 369.925799 171.077727 
L 370.230467 143.28 
L 370.535135 127.836818 
L 370.839803 223.584545 
L 371.44914 100.039091 
L 371.753808 115.482273 
L 372.058477 109.305 
L 372.363145 44.443636 
L 372.667813 53.709545 
L 372.972482 232.850455 
L 373.27715 69.152727 
L 373.581818 158.723182 
L 373.581818 158.723182 
" style="fill:none;stroke:#1f77b4;stroke-linecap:square;stroke-width:1.5;"/>
   </g>
   <g id="patch_3">
    <path d="M 54 252 
L 54 34.56 
" style="fill:none;stroke:#000000;stroke-linecap:square;stroke-linejoin:miter;stroke-width:0.8;"/>
   </g>
   <g id="patch_4">
    <path d="M 388.8 252 
L 388.8 34.56 
" style="fill:none;stroke:#000000;stroke-linecap:square;stroke-linejoin:miter;stroke-width:0.8;"/>
   </g>
   <g id="patch_5">
    <path d="M 54 252 
L 388.8 252 
" style="fill:none;stroke:#000000;stroke-linecap:square;stroke-linejoin:miter;stroke-width:0.8;"/>
   </g>
   <g id="patch_6">
    <path d="M 54 34.56 
L 388.8 34.56 
" style="fill:none;stroke:#000000;stroke-linecap:square;stroke-linejoin:miter;stroke-width:0.8;"/>
   </g>
  </g>
 </g>
 <defs>
  <clipPath id="p30fd5dfc9e">
   <rect height="217.44" width="334.8" x="54" y="34.56"/>
  </clipPath>
 </defs>
</svg>
