<?xml version="1.0" encoding="utf-8" standalone="no"?>
<!DOCTYPE svg PUBLIC "-//W3C//DTD SVG 1.1//EN"
  "http://www.w3.org/Graphics/SVG/1.1/DTD/svg11.dtd">
<!-- Created with matplotlib (http://matplotlib.org/) -->
<svg height="288pt" version="1.1" viewBox="0 0 432 288" width="432pt" xmlns="http://www.w3.org/2000/svg" xmlns:xlink="http://www.w3.org/1999/xlink">
 <defs>
  <style type="text/css">
*{stroke-linecap:butt;stroke-linejoin:round;}
  </style>
 </defs>
 <g id="figure_1">
  <g id="patch_1">
   <path d="M 0 288 
L 432 288 
L 432 0 
L 0 0 
z
" style="fill:#ffffff;"/>
  </g>
  <g id="axes_1">
   <g id="patch_2">
    <path d="M 54 252 
L 388.8 252 
L 388.8 34.56 
L 54 34.56 
z
" style="fill:#ffffff;"/>
   </g>
   <g id="matplotlib.axis_1">
    <g id="xtick_1">
     <g id="line2d_1">
      <defs>
       <path d="M 0 0 
L 0 3.5 
" id="m0fa920893c" style="stroke:#000000;stroke-width:0.8;"/>
      </defs>
      <g>
       <use style="stroke:#000000;stroke-width:0.8;" x="69.218182" xlink:href="#m0fa920893c" y="252"/>
      </g>
     </g>
     <g id="text_1">
      <!-- 20 -->
      <defs>
       <path d="M 19.1875 8.296875 
L 53.609375 8.296875 
L 53.609375 0 
L 7.328125 0 
L 7.328125 8.296875 
Q 12.9375 14.109375 22.625 23.890625 
Q 32.328125 33.6875 34.8125 36.53125 
Q 39.546875 41.84375 41.421875 45.53125 
Q 43.3125 49.21875 43.3125 52.78125 
Q 43.3125 58.59375 39.234375 62.25 
Q 35.15625 65.921875 28.609375 65.921875 
Q 23.96875 65.921875 18.8125 64.3125 
Q 13.671875 62.703125 7.8125 59.421875 
L 7.8125 69.390625 
Q 13.765625 71.78125 18.9375 73 
Q 24.125 74.21875 28.421875 74.21875 
Q 39.75 74.21875 46.484375 68.546875 
Q 53.21875 62.890625 53.21875 53.421875 
Q 53.21875 48.921875 51.53125 44.890625 
Q 49.859375 40.875 45.40625 35.40625 
Q 44.1875 33.984375 37.640625 27.21875 
Q 31.109375 20.453125 19.1875 8.296875 
z
" id="DejaVuSans-32"/>
       <path d="M 31.78125 66.40625 
Q 24.171875 66.40625 20.328125 58.90625 
Q 16.5 51.421875 16.5 36.375 
Q 16.5 21.390625 20.328125 13.890625 
Q 24.171875 6.390625 31.78125 6.390625 
Q 39.453125 6.390625 43.28125 13.890625 
Q 47.125 21.390625 47.125 36.375 
Q 47.125 51.421875 43.28125 58.90625 
Q 39.453125 66.40625 31.78125 66.40625 
z
M 31.78125 74.21875 
Q 44.046875 74.21875 50.515625 64.515625 
Q 56.984375 54.828125 56.984375 36.375 
Q 56.984375 17.96875 50.515625 8.265625 
Q 44.046875 -1.421875 31.78125 -1.421875 
Q 19.53125 -1.421875 13.0625 8.265625 
Q 6.59375 17.96875 6.59375 36.375 
Q 6.59375 54.828125 13.0625 64.515625 
Q 19.53125 74.21875 31.78125 74.21875 
z
" id="DejaVuSans-30"/>
      </defs>
      <g transform="translate(62.855682 266.598437)scale(0.1 -0.1)">
       <use xlink:href="#DejaVuSans-32"/>
       <use x="63.623047" xlink:href="#DejaVuSans-30"/>
      </g>
     </g>
    </g>
    <g id="xtick_2">
     <g id="line2d_2">
      <g>
       <use style="stroke:#000000;stroke-width:0.8;" x="136.854545" xlink:href="#m0fa920893c" y="252"/>
      </g>
     </g>
     <g id="text_2">
      <!-- 30 -->
      <defs>
       <path d="M 40.578125 39.3125 
Q 47.65625 37.796875 51.625 33 
Q 55.609375 28.21875 55.609375 21.1875 
Q 55.609375 10.40625 48.1875 4.484375 
Q 40.765625 -1.421875 27.09375 -1.421875 
Q 22.515625 -1.421875 17.65625 -0.515625 
Q 12.796875 0.390625 7.625 2.203125 
L 7.625 11.71875 
Q 11.71875 9.328125 16.59375 8.109375 
Q 21.484375 6.890625 26.8125 6.890625 
Q 36.078125 6.890625 40.9375 10.546875 
Q 45.796875 14.203125 45.796875 21.1875 
Q 45.796875 27.640625 41.28125 31.265625 
Q 36.765625 34.90625 28.71875 34.90625 
L 20.21875 34.90625 
L 20.21875 43.015625 
L 29.109375 43.015625 
Q 36.375 43.015625 40.234375 45.921875 
Q 44.09375 48.828125 44.09375 54.296875 
Q 44.09375 59.90625 40.109375 62.90625 
Q 36.140625 65.921875 28.71875 65.921875 
Q 24.65625 65.921875 20.015625 65.03125 
Q 15.375 64.15625 9.8125 62.3125 
L 9.8125 71.09375 
Q 15.4375 72.65625 20.34375 73.4375 
Q 25.25 74.21875 29.59375 74.21875 
Q 40.828125 74.21875 47.359375 69.109375 
Q 53.90625 64.015625 53.90625 55.328125 
Q 53.90625 49.265625 50.4375 45.09375 
Q 46.96875 40.921875 40.578125 39.3125 
z
" id="DejaVuSans-33"/>
      </defs>
      <g transform="translate(130.492045 266.598437)scale(0.1 -0.1)">
       <use xlink:href="#DejaVuSans-33"/>
       <use x="63.623047" xlink:href="#DejaVuSans-30"/>
      </g>
     </g>
    </g>
    <g id="xtick_3">
     <g id="line2d_3">
      <g>
       <use style="stroke:#000000;stroke-width:0.8;" x="204.490909" xlink:href="#m0fa920893c" y="252"/>
      </g>
     </g>
     <g id="text_3">
      <!-- 40 -->
      <defs>
       <path d="M 37.796875 64.3125 
L 12.890625 25.390625 
L 37.796875 25.390625 
z
M 35.203125 72.90625 
L 47.609375 72.90625 
L 47.609375 25.390625 
L 58.015625 25.390625 
L 58.015625 17.1875 
L 47.609375 17.1875 
L 47.609375 0 
L 37.796875 0 
L 37.796875 17.1875 
L 4.890625 17.1875 
L 4.890625 26.703125 
z
" id="DejaVuSans-34"/>
      </defs>
      <g transform="translate(198.128409 266.598437)scale(0.1 -0.1)">
       <use xlink:href="#DejaVuSans-34"/>
       <use x="63.623047" xlink:href="#DejaVuSans-30"/>
      </g>
     </g>
    </g>
    <g id="xtick_4">
     <g id="line2d_4">
      <g>
       <use style="stroke:#000000;stroke-width:0.8;" x="272.127273" xlink:href="#m0fa920893c" y="252"/>
      </g>
     </g>
     <g id="text_4">
      <!-- 50 -->
      <defs>
       <path d="M 10.796875 72.90625 
L 49.515625 72.90625 
L 49.515625 64.59375 
L 19.828125 64.59375 
L 19.828125 46.734375 
Q 21.96875 47.46875 24.109375 47.828125 
Q 26.265625 48.1875 28.421875 48.1875 
Q 40.625 48.1875 47.75 41.5 
Q 54.890625 34.8125 54.890625 23.390625 
Q 54.890625 11.625 47.5625 5.09375 
Q 40.234375 -1.421875 26.90625 -1.421875 
Q 22.3125 -1.421875 17.546875 -0.640625 
Q 12.796875 0.140625 7.71875 1.703125 
L 7.71875 11.625 
Q 12.109375 9.234375 16.796875 8.0625 
Q 21.484375 6.890625 26.703125 6.890625 
Q 35.15625 6.890625 40.078125 11.328125 
Q 45.015625 15.765625 45.015625 23.390625 
Q 45.015625 31 40.078125 35.4375 
Q 35.15625 39.890625 26.703125 39.890625 
Q 22.75 39.890625 18.8125 39.015625 
Q 14.890625 38.140625 10.796875 36.28125 
z
" id="DejaVuSans-35"/>
      </defs>
      <g transform="translate(265.764773 266.598437)scale(0.1 -0.1)">
       <use xlink:href="#DejaVuSans-35"/>
       <use x="63.623047" xlink:href="#DejaVuSans-30"/>
      </g>
     </g>
    </g>
    <g id="xtick_5">
     <g id="line2d_5">
      <g>
       <use style="stroke:#000000;stroke-width:0.8;" x="339.763636" xlink:href="#m0fa920893c" y="252"/>
      </g>
     </g>
     <g id="text_5">
      <!-- 60 -->
      <defs>
       <path d="M 33.015625 40.375 
Q 26.375 40.375 22.484375 35.828125 
Q 18.609375 31.296875 18.609375 23.390625 
Q 18.609375 15.53125 22.484375 10.953125 
Q 26.375 6.390625 33.015625 6.390625 
Q 39.65625 6.390625 43.53125 10.953125 
Q 47.40625 15.53125 47.40625 23.390625 
Q 47.40625 31.296875 43.53125 35.828125 
Q 39.65625 40.375 33.015625 40.375 
z
M 52.59375 71.296875 
L 52.59375 62.3125 
Q 48.875 64.0625 45.09375 64.984375 
Q 41.3125 65.921875 37.59375 65.921875 
Q 27.828125 65.921875 22.671875 59.328125 
Q 17.53125 52.734375 16.796875 39.40625 
Q 19.671875 43.65625 24.015625 45.921875 
Q 28.375 48.1875 33.59375 48.1875 
Q 44.578125 48.1875 50.953125 41.515625 
Q 57.328125 34.859375 57.328125 23.390625 
Q 57.328125 12.15625 50.6875 5.359375 
Q 44.046875 -1.421875 33.015625 -1.421875 
Q 20.359375 -1.421875 13.671875 8.265625 
Q 6.984375 17.96875 6.984375 36.375 
Q 6.984375 53.65625 15.1875 63.9375 
Q 23.390625 74.21875 37.203125 74.21875 
Q 40.921875 74.21875 44.703125 73.484375 
Q 48.484375 72.75 52.59375 71.296875 
z
" id="DejaVuSans-36"/>
      </defs>
      <g transform="translate(333.401136 266.598437)scale(0.1 -0.1)">
       <use xlink:href="#DejaVuSans-36"/>
       <use x="63.623047" xlink:href="#DejaVuSans-30"/>
      </g>
     </g>
    </g>
    <g id="text_6">
     <!-- Mean # Crossings -->
     <defs>
      <path d="M 9.8125 72.90625 
L 24.515625 72.90625 
L 43.109375 23.296875 
L 61.8125 72.90625 
L 76.515625 72.90625 
L 76.515625 0 
L 66.890625 0 
L 66.890625 64.015625 
L 48.09375 14.015625 
L 38.1875 14.015625 
L 19.390625 64.015625 
L 19.390625 0 
L 9.8125 0 
z
" id="DejaVuSans-4d"/>
      <path d="M 56.203125 29.59375 
L 56.203125 25.203125 
L 14.890625 25.203125 
Q 15.484375 15.921875 20.484375 11.0625 
Q 25.484375 6.203125 34.421875 6.203125 
Q 39.59375 6.203125 44.453125 7.46875 
Q 49.3125 8.734375 54.109375 11.28125 
L 54.109375 2.78125 
Q 49.265625 0.734375 44.1875 -0.34375 
Q 39.109375 -1.421875 33.890625 -1.421875 
Q 20.796875 -1.421875 13.15625 6.1875 
Q 5.515625 13.8125 5.515625 26.8125 
Q 5.515625 40.234375 12.765625 48.109375 
Q 20.015625 56 32.328125 56 
Q 43.359375 56 49.78125 48.890625 
Q 56.203125 41.796875 56.203125 29.59375 
z
M 47.21875 32.234375 
Q 47.125 39.59375 43.09375 43.984375 
Q 39.0625 48.390625 32.421875 48.390625 
Q 24.90625 48.390625 20.390625 44.140625 
Q 15.875 39.890625 15.1875 32.171875 
z
" id="DejaVuSans-65"/>
      <path d="M 34.28125 27.484375 
Q 23.390625 27.484375 19.1875 25 
Q 14.984375 22.515625 14.984375 16.5 
Q 14.984375 11.71875 18.140625 8.90625 
Q 21.296875 6.109375 26.703125 6.109375 
Q 34.1875 6.109375 38.703125 11.40625 
Q 43.21875 16.703125 43.21875 25.484375 
L 43.21875 27.484375 
z
M 52.203125 31.203125 
L 52.203125 0 
L 43.21875 0 
L 43.21875 8.296875 
Q 40.140625 3.328125 35.546875 0.953125 
Q 30.953125 -1.421875 24.3125 -1.421875 
Q 15.921875 -1.421875 10.953125 3.296875 
Q 6 8.015625 6 15.921875 
Q 6 25.140625 12.171875 29.828125 
Q 18.359375 34.515625 30.609375 34.515625 
L 43.21875 34.515625 
L 43.21875 35.40625 
Q 43.21875 41.609375 39.140625 45 
Q 35.0625 48.390625 27.6875 48.390625 
Q 23 48.390625 18.546875 47.265625 
Q 14.109375 46.140625 10.015625 43.890625 
L 10.015625 52.203125 
Q 14.9375 54.109375 19.578125 55.046875 
Q 24.21875 56 28.609375 56 
Q 40.484375 56 46.34375 49.84375 
Q 52.203125 43.703125 52.203125 31.203125 
z
" id="DejaVuSans-61"/>
      <path d="M 54.890625 33.015625 
L 54.890625 0 
L 45.90625 0 
L 45.90625 32.71875 
Q 45.90625 40.484375 42.875 44.328125 
Q 39.84375 48.1875 33.796875 48.1875 
Q 26.515625 48.1875 22.3125 43.546875 
Q 18.109375 38.921875 18.109375 30.90625 
L 18.109375 0 
L 9.078125 0 
L 9.078125 54.6875 
L 18.109375 54.6875 
L 18.109375 46.1875 
Q 21.34375 51.125 25.703125 53.5625 
Q 30.078125 56 35.796875 56 
Q 45.21875 56 50.046875 50.171875 
Q 54.890625 44.34375 54.890625 33.015625 
z
" id="DejaVuSans-6e"/>
      <path id="DejaVuSans-20"/>
      <path d="M 51.125 44 
L 36.921875 44 
L 32.8125 27.6875 
L 47.125 27.6875 
z
M 43.796875 71.78125 
L 38.71875 51.515625 
L 52.984375 51.515625 
L 58.109375 71.78125 
L 65.921875 71.78125 
L 60.890625 51.515625 
L 76.125 51.515625 
L 76.125 44 
L 58.984375 44 
L 54.984375 27.6875 
L 70.515625 27.6875 
L 70.515625 20.21875 
L 53.078125 20.21875 
L 48 0 
L 40.1875 0 
L 45.21875 20.21875 
L 30.90625 20.21875 
L 25.875 0 
L 18.015625 0 
L 23.09375 20.21875 
L 7.71875 20.21875 
L 7.71875 27.6875 
L 24.90625 27.6875 
L 29 44 
L 13.28125 44 
L 13.28125 51.515625 
L 30.90625 51.515625 
L 35.890625 71.78125 
z
" id="DejaVuSans-23"/>
      <path d="M 64.40625 67.28125 
L 64.40625 56.890625 
Q 59.421875 61.53125 53.78125 63.8125 
Q 48.140625 66.109375 41.796875 66.109375 
Q 29.296875 66.109375 22.65625 58.46875 
Q 16.015625 50.828125 16.015625 36.375 
Q 16.015625 21.96875 22.65625 14.328125 
Q 29.296875 6.6875 41.796875 6.6875 
Q 48.140625 6.6875 53.78125 8.984375 
Q 59.421875 11.28125 64.40625 15.921875 
L 64.40625 5.609375 
Q 59.234375 2.09375 53.4375 0.328125 
Q 47.65625 -1.421875 41.21875 -1.421875 
Q 24.65625 -1.421875 15.125 8.703125 
Q 5.609375 18.84375 5.609375 36.375 
Q 5.609375 53.953125 15.125 64.078125 
Q 24.65625 74.21875 41.21875 74.21875 
Q 47.75 74.21875 53.53125 72.484375 
Q 59.328125 70.75 64.40625 67.28125 
z
" id="DejaVuSans-43"/>
      <path d="M 41.109375 46.296875 
Q 39.59375 47.171875 37.8125 47.578125 
Q 36.03125 48 33.890625 48 
Q 26.265625 48 22.1875 43.046875 
Q 18.109375 38.09375 18.109375 28.8125 
L 18.109375 0 
L 9.078125 0 
L 9.078125 54.6875 
L 18.109375 54.6875 
L 18.109375 46.1875 
Q 20.953125 51.171875 25.484375 53.578125 
Q 30.03125 56 36.53125 56 
Q 37.453125 56 38.578125 55.875 
Q 39.703125 55.765625 41.0625 55.515625 
z
" id="DejaVuSans-72"/>
      <path d="M 30.609375 48.390625 
Q 23.390625 48.390625 19.1875 42.75 
Q 14.984375 37.109375 14.984375 27.296875 
Q 14.984375 17.484375 19.15625 11.84375 
Q 23.34375 6.203125 30.609375 6.203125 
Q 37.796875 6.203125 41.984375 11.859375 
Q 46.1875 17.53125 46.1875 27.296875 
Q 46.1875 37.015625 41.984375 42.703125 
Q 37.796875 48.390625 30.609375 48.390625 
z
M 30.609375 56 
Q 42.328125 56 49.015625 48.375 
Q 55.71875 40.765625 55.71875 27.296875 
Q 55.71875 13.875 49.015625 6.21875 
Q 42.328125 -1.421875 30.609375 -1.421875 
Q 18.84375 -1.421875 12.171875 6.21875 
Q 5.515625 13.875 5.515625 27.296875 
Q 5.515625 40.765625 12.171875 48.375 
Q 18.84375 56 30.609375 56 
z
" id="DejaVuSans-6f"/>
      <path d="M 44.28125 53.078125 
L 44.28125 44.578125 
Q 40.484375 46.53125 36.375 47.5 
Q 32.28125 48.484375 27.875 48.484375 
Q 21.1875 48.484375 17.84375 46.4375 
Q 14.5 44.390625 14.5 40.28125 
Q 14.5 37.15625 16.890625 35.375 
Q 19.28125 33.59375 26.515625 31.984375 
L 29.59375 31.296875 
Q 39.15625 29.25 43.1875 25.515625 
Q 47.21875 21.78125 47.21875 15.09375 
Q 47.21875 7.46875 41.1875 3.015625 
Q 35.15625 -1.421875 24.609375 -1.421875 
Q 20.21875 -1.421875 15.453125 -0.5625 
Q 10.6875 0.296875 5.421875 2 
L 5.421875 11.28125 
Q 10.40625 8.6875 15.234375 7.390625 
Q 20.0625 6.109375 24.8125 6.109375 
Q 31.15625 6.109375 34.5625 8.28125 
Q 37.984375 10.453125 37.984375 14.40625 
Q 37.984375 18.0625 35.515625 20.015625 
Q 33.0625 21.96875 24.703125 23.78125 
L 21.578125 24.515625 
Q 13.234375 26.265625 9.515625 29.90625 
Q 5.8125 33.546875 5.8125 39.890625 
Q 5.8125 47.609375 11.28125 51.796875 
Q 16.75 56 26.8125 56 
Q 31.78125 56 36.171875 55.265625 
Q 40.578125 54.546875 44.28125 53.078125 
z
" id="DejaVuSans-73"/>
      <path d="M 9.421875 54.6875 
L 18.40625 54.6875 
L 18.40625 0 
L 9.421875 0 
z
M 9.421875 75.984375 
L 18.40625 75.984375 
L 18.40625 64.59375 
L 9.421875 64.59375 
z
" id="DejaVuSans-69"/>
      <path d="M 45.40625 27.984375 
Q 45.40625 37.75 41.375 43.109375 
Q 37.359375 48.484375 30.078125 48.484375 
Q 22.859375 48.484375 18.828125 43.109375 
Q 14.796875 37.75 14.796875 27.984375 
Q 14.796875 18.265625 18.828125 12.890625 
Q 22.859375 7.515625 30.078125 7.515625 
Q 37.359375 7.515625 41.375 12.890625 
Q 45.40625 18.265625 45.40625 27.984375 
z
M 54.390625 6.78125 
Q 54.390625 -7.171875 48.1875 -13.984375 
Q 42 -20.796875 29.203125 -20.796875 
Q 24.46875 -20.796875 20.265625 -20.09375 
Q 16.0625 -19.390625 12.109375 -17.921875 
L 12.109375 -9.1875 
Q 16.0625 -11.328125 19.921875 -12.34375 
Q 23.78125 -13.375 27.78125 -13.375 
Q 36.625 -13.375 41.015625 -8.765625 
Q 45.40625 -4.15625 45.40625 5.171875 
L 45.40625 9.625 
Q 42.625 4.78125 38.28125 2.390625 
Q 33.9375 0 27.875 0 
Q 17.828125 0 11.671875 7.65625 
Q 5.515625 15.328125 5.515625 27.984375 
Q 5.515625 40.671875 11.671875 48.328125 
Q 17.828125 56 27.875 56 
Q 33.9375 56 38.28125 53.609375 
Q 42.625 51.21875 45.40625 46.390625 
L 45.40625 54.6875 
L 54.390625 54.6875 
z
" id="DejaVuSans-67"/>
     </defs>
     <g transform="translate(176.257812 280.276563)scale(0.1 -0.1)">
      <use xlink:href="#DejaVuSans-4d"/>
      <use x="86.279297" xlink:href="#DejaVuSans-65"/>
      <use x="147.802734" xlink:href="#DejaVuSans-61"/>
      <use x="209.082031" xlink:href="#DejaVuSans-6e"/>
      <use x="272.460938" xlink:href="#DejaVuSans-20"/>
      <use x="304.248047" xlink:href="#DejaVuSans-23"/>
      <use x="388.037109" xlink:href="#DejaVuSans-20"/>
      <use x="419.824219" xlink:href="#DejaVuSans-43"/>
      <use x="489.648438" xlink:href="#DejaVuSans-72"/>
      <use x="530.730469" xlink:href="#DejaVuSans-6f"/>
      <use x="591.912109" xlink:href="#DejaVuSans-73"/>
      <use x="644.011719" xlink:href="#DejaVuSans-73"/>
      <use x="696.111328" xlink:href="#DejaVuSans-69"/>
      <use x="723.894531" xlink:href="#DejaVuSans-6e"/>
      <use x="787.273438" xlink:href="#DejaVuSans-67"/>
      <use x="850.75" xlink:href="#DejaVuSans-73"/>
     </g>
    </g>
   </g>
   <g id="matplotlib.axis_2">
    <g id="ytick_1">
     <g id="line2d_6">
      <defs>
       <path d="M 0 0 
L -3.5 0 
" id="m45d903fb0b" style="stroke:#000000;stroke-width:0.8;"/>
      </defs>
      <g>
       <use style="stroke:#000000;stroke-width:0.8;" x="54" xlink:href="#m45d903fb0b" y="245.416703"/>
      </g>
     </g>
     <g id="text_7">
      <!-- 0.00 -->
      <defs>
       <path d="M 10.6875 12.40625 
L 21 12.40625 
L 21 0 
L 10.6875 0 
z
" id="DejaVuSans-2e"/>
      </defs>
      <g transform="translate(24.734375 249.215922)scale(0.1 -0.1)">
       <use xlink:href="#DejaVuSans-30"/>
       <use x="63.623047" xlink:href="#DejaVuSans-2e"/>
       <use x="95.410156" xlink:href="#DejaVuSans-30"/>
       <use x="159.033203" xlink:href="#DejaVuSans-30"/>
      </g>
     </g>
    </g>
    <g id="ytick_2">
     <g id="line2d_7">
      <g>
       <use style="stroke:#000000;stroke-width:0.8;" x="54" xlink:href="#m45d903fb0b" y="200.054002"/>
      </g>
     </g>
     <g id="text_8">
      <!-- 0.02 -->
      <g transform="translate(24.734375 203.853221)scale(0.1 -0.1)">
       <use xlink:href="#DejaVuSans-30"/>
       <use x="63.623047" xlink:href="#DejaVuSans-2e"/>
       <use x="95.410156" xlink:href="#DejaVuSans-30"/>
       <use x="159.033203" xlink:href="#DejaVuSans-32"/>
      </g>
     </g>
    </g>
    <g id="ytick_3">
     <g id="line2d_8">
      <g>
       <use style="stroke:#000000;stroke-width:0.8;" x="54" xlink:href="#m45d903fb0b" y="154.691302"/>
      </g>
     </g>
     <g id="text_9">
      <!-- 0.04 -->
      <g transform="translate(24.734375 158.490521)scale(0.1 -0.1)">
       <use xlink:href="#DejaVuSans-30"/>
       <use x="63.623047" xlink:href="#DejaVuSans-2e"/>
       <use x="95.410156" xlink:href="#DejaVuSans-30"/>
       <use x="159.033203" xlink:href="#DejaVuSans-34"/>
      </g>
     </g>
    </g>
    <g id="ytick_4">
     <g id="line2d_9">
      <g>
       <use style="stroke:#000000;stroke-width:0.8;" x="54" xlink:href="#m45d903fb0b" y="109.328601"/>
      </g>
     </g>
     <g id="text_10">
      <!-- 0.06 -->
      <g transform="translate(24.734375 113.12782)scale(0.1 -0.1)">
       <use xlink:href="#DejaVuSans-30"/>
       <use x="63.623047" xlink:href="#DejaVuSans-2e"/>
       <use x="95.410156" xlink:href="#DejaVuSans-30"/>
       <use x="159.033203" xlink:href="#DejaVuSans-36"/>
      </g>
     </g>
    </g>
    <g id="ytick_5">
     <g id="line2d_10">
      <g>
       <use style="stroke:#000000;stroke-width:0.8;" x="54" xlink:href="#m45d903fb0b" y="63.9659"/>
      </g>
     </g>
     <g id="text_11">
      <!-- 0.08 -->
      <defs>
       <path d="M 31.78125 34.625 
Q 24.75 34.625 20.71875 30.859375 
Q 16.703125 27.09375 16.703125 20.515625 
Q 16.703125 13.921875 20.71875 10.15625 
Q 24.75 6.390625 31.78125 6.390625 
Q 38.8125 6.390625 42.859375 10.171875 
Q 46.921875 13.96875 46.921875 20.515625 
Q 46.921875 27.09375 42.890625 30.859375 
Q 38.875 34.625 31.78125 34.625 
z
M 21.921875 38.8125 
Q 15.578125 40.375 12.03125 44.71875 
Q 8.5 49.078125 8.5 55.328125 
Q 8.5 64.0625 14.71875 69.140625 
Q 20.953125 74.21875 31.78125 74.21875 
Q 42.671875 74.21875 48.875 69.140625 
Q 55.078125 64.0625 55.078125 55.328125 
Q 55.078125 49.078125 51.53125 44.71875 
Q 48 40.375 41.703125 38.8125 
Q 48.828125 37.15625 52.796875 32.3125 
Q 56.78125 27.484375 56.78125 20.515625 
Q 56.78125 9.90625 50.3125 4.234375 
Q 43.84375 -1.421875 31.78125 -1.421875 
Q 19.734375 -1.421875 13.25 4.234375 
Q 6.78125 9.90625 6.78125 20.515625 
Q 6.78125 27.484375 10.78125 32.3125 
Q 14.796875 37.15625 21.921875 38.8125 
z
M 18.3125 54.390625 
Q 18.3125 48.734375 21.84375 45.5625 
Q 25.390625 42.390625 31.78125 42.390625 
Q 38.140625 42.390625 41.71875 45.5625 
Q 45.3125 48.734375 45.3125 54.390625 
Q 45.3125 60.0625 41.71875 63.234375 
Q 38.140625 66.40625 31.78125 66.40625 
Q 25.390625 66.40625 21.84375 63.234375 
Q 18.3125 60.0625 18.3125 54.390625 
z
" id="DejaVuSans-38"/>
      </defs>
      <g transform="translate(24.734375 67.765119)scale(0.1 -0.1)">
       <use xlink:href="#DejaVuSans-30"/>
       <use x="63.623047" xlink:href="#DejaVuSans-2e"/>
       <use x="95.410156" xlink:href="#DejaVuSans-30"/>
       <use x="159.033203" xlink:href="#DejaVuSans-38"/>
      </g>
     </g>
    </g>
    <g id="text_12">
     <!-- Probability -->
     <defs>
      <path d="M 19.671875 64.796875 
L 19.671875 37.40625 
L 32.078125 37.40625 
Q 38.96875 37.40625 42.71875 40.96875 
Q 46.484375 44.53125 46.484375 51.125 
Q 46.484375 57.671875 42.71875 61.234375 
Q 38.96875 64.796875 32.078125 64.796875 
z
M 9.8125 72.90625 
L 32.078125 72.90625 
Q 44.34375 72.90625 50.609375 67.359375 
Q 56.890625 61.8125 56.890625 51.125 
Q 56.890625 40.328125 50.609375 34.8125 
Q 44.34375 29.296875 32.078125 29.296875 
L 19.671875 29.296875 
L 19.671875 0 
L 9.8125 0 
z
" id="DejaVuSans-50"/>
      <path d="M 48.6875 27.296875 
Q 48.6875 37.203125 44.609375 42.84375 
Q 40.53125 48.484375 33.40625 48.484375 
Q 26.265625 48.484375 22.1875 42.84375 
Q 18.109375 37.203125 18.109375 27.296875 
Q 18.109375 17.390625 22.1875 11.75 
Q 26.265625 6.109375 33.40625 6.109375 
Q 40.53125 6.109375 44.609375 11.75 
Q 48.6875 17.390625 48.6875 27.296875 
z
M 18.109375 46.390625 
Q 20.953125 51.265625 25.265625 53.625 
Q 29.59375 56 35.59375 56 
Q 45.5625 56 51.78125 48.09375 
Q 58.015625 40.1875 58.015625 27.296875 
Q 58.015625 14.40625 51.78125 6.484375 
Q 45.5625 -1.421875 35.59375 -1.421875 
Q 29.59375 -1.421875 25.265625 0.953125 
Q 20.953125 3.328125 18.109375 8.203125 
L 18.109375 0 
L 9.078125 0 
L 9.078125 75.984375 
L 18.109375 75.984375 
z
" id="DejaVuSans-62"/>
      <path d="M 9.421875 75.984375 
L 18.40625 75.984375 
L 18.40625 0 
L 9.421875 0 
z
" id="DejaVuSans-6c"/>
      <path d="M 18.3125 70.21875 
L 18.3125 54.6875 
L 36.8125 54.6875 
L 36.8125 47.703125 
L 18.3125 47.703125 
L 18.3125 18.015625 
Q 18.3125 11.328125 20.140625 9.421875 
Q 21.96875 7.515625 27.59375 7.515625 
L 36.8125 7.515625 
L 36.8125 0 
L 27.59375 0 
Q 17.1875 0 13.234375 3.875 
Q 9.28125 7.765625 9.28125 18.015625 
L 9.28125 47.703125 
L 2.6875 47.703125 
L 2.6875 54.6875 
L 9.28125 54.6875 
L 9.28125 70.21875 
z
" id="DejaVuSans-74"/>
      <path d="M 32.171875 -5.078125 
Q 28.375 -14.84375 24.75 -17.8125 
Q 21.140625 -20.796875 15.09375 -20.796875 
L 7.90625 -20.796875 
L 7.90625 -13.28125 
L 13.1875 -13.28125 
Q 16.890625 -13.28125 18.9375 -11.515625 
Q 21 -9.765625 23.484375 -3.21875 
L 25.09375 0.875 
L 2.984375 54.6875 
L 12.5 54.6875 
L 29.59375 11.921875 
L 46.6875 54.6875 
L 56.203125 54.6875 
z
" id="DejaVuSans-79"/>
     </defs>
     <g transform="translate(18.654687 169.906563)rotate(-90)scale(0.1 -0.1)">
      <use xlink:href="#DejaVuSans-50"/>
      <use x="60.287109" xlink:href="#DejaVuSans-72"/>
      <use x="101.369141" xlink:href="#DejaVuSans-6f"/>
      <use x="162.550781" xlink:href="#DejaVuSans-62"/>
      <use x="226.027344" xlink:href="#DejaVuSans-61"/>
      <use x="287.306641" xlink:href="#DejaVuSans-62"/>
      <use x="350.783203" xlink:href="#DejaVuSans-69"/>
      <use x="378.566406" xlink:href="#DejaVuSans-6c"/>
      <use x="406.349609" xlink:href="#DejaVuSans-69"/>
      <use x="434.132812" xlink:href="#DejaVuSans-74"/>
      <use x="473.341797" xlink:href="#DejaVuSans-79"/>
     </g>
    </g>
   </g>
   <g id="line2d_11">
    <path clip-path="url(#pfe1f9e5c86)" d="M 69.218182 153.805889 
L 89.509091 139.045073 
L 109.8 138.620482 
L 130.090909 125.603249 
L 150.381818 122.526069 
L 170.672727 99.584613 
L 190.963636 93.999137 
L 211.254545 84.778614 
L 231.545455 90.542394 
L 251.836364 78.132317 
L 272.127273 73.137817 
L 292.418182 67.449575 
L 312.709091 60.696745 
L 333 48.655891 
L 353.290909 47.924122 
L 373.581818 44.443636 
" style="fill:none;stroke:#1f77b4;stroke-linecap:square;stroke-width:1.5;"/>
    <defs>
     <path d="M 0 3 
C 0.795609 3 1.55874 2.683901 2.12132 2.12132 
C 2.683901 1.55874 3 0.795609 3 0 
C 3 -0.795609 2.683901 -1.55874 2.12132 -2.12132 
C 1.55874 -2.683901 0.795609 -3 0 -3 
C -0.795609 -3 -1.55874 -2.683901 -2.12132 -2.12132 
C -2.683901 -1.55874 -3 -0.795609 -3 0 
C -3 0.795609 -2.683901 1.55874 -2.12132 2.12132 
C -1.55874 2.683901 -0.795609 3 0 3 
z
" id="m788c74dc0e" style="stroke:#1f77b4;"/>
    </defs>
    <g clip-path="url(#pfe1f9e5c86)">
     <use style="fill:#1f77b4;stroke:#1f77b4;" x="69.218182" xlink:href="#m788c74dc0e" y="153.805889"/>
     <use style="fill:#1f77b4;stroke:#1f77b4;" x="89.509091" xlink:href="#m788c74dc0e" y="139.045073"/>
     <use style="fill:#1f77b4;stroke:#1f77b4;" x="109.8" xlink:href="#m788c74dc0e" y="138.620482"/>
     <use style="fill:#1f77b4;stroke:#1f77b4;" x="130.090909" xlink:href="#m788c74dc0e" y="125.603249"/>
     <use style="fill:#1f77b4;stroke:#1f77b4;" x="150.381818" xlink:href="#m788c74dc0e" y="122.526069"/>
     <use style="fill:#1f77b4;stroke:#1f77b4;" x="170.672727" xlink:href="#m788c74dc0e" y="99.584613"/>
     <use style="fill:#1f77b4;stroke:#1f77b4;" x="190.963636" xlink:href="#m788c74dc0e" y="93.999137"/>
     <use style="fill:#1f77b4;stroke:#1f77b4;" x="211.254545" xlink:href="#m788c74dc0e" y="84.778614"/>
     <use style="fill:#1f77b4;stroke:#1f77b4;" x="231.545455" xlink:href="#m788c74dc0e" y="90.542394"/>
     <use style="fill:#1f77b4;stroke:#1f77b4;" x="251.836364" xlink:href="#m788c74dc0e" y="78.132317"/>
     <use style="fill:#1f77b4;stroke:#1f77b4;" x="272.127273" xlink:href="#m788c74dc0e" y="73.137817"/>
     <use style="fill:#1f77b4;stroke:#1f77b4;" x="292.418182" xlink:href="#m788c74dc0e" y="67.449575"/>
     <use style="fill:#1f77b4;stroke:#1f77b4;" x="312.709091" xlink:href="#m788c74dc0e" y="60.696745"/>
     <use style="fill:#1f77b4;stroke:#1f77b4;" x="333" xlink:href="#m788c74dc0e" y="48.655891"/>
     <use style="fill:#1f77b4;stroke:#1f77b4;" x="353.290909" xlink:href="#m788c74dc0e" y="47.924122"/>
     <use style="fill:#1f77b4;stroke:#1f77b4;" x="373.581818" xlink:href="#m788c74dc0e" y="44.443636"/>
    </g>
   </g>
   <g id="line2d_12">
    <path clip-path="url(#pfe1f9e5c86)" d="M 69.218182 242.116364 
L 89.509091 240.600285 
L 109.8 239.973984 
L 130.090909 238.703129 
L 150.381818 237.928877 
L 170.672727 235.48495 
L 190.963636 234.080204 
L 211.254545 231.87425 
L 231.545455 230.14589 
L 251.836364 226.661048 
L 272.127273 225.076722 
L 292.418182 223.464317 
L 312.709091 221.77005 
L 333 220.945589 
L 353.290909 219.864857 
L 373.581818 220.782526 
" style="fill:none;stroke:#ff7f0e;stroke-linecap:square;stroke-width:1.5;"/>
    <defs>
     <path d="M 0 3 
C 0.795609 3 1.55874 2.683901 2.12132 2.12132 
C 2.683901 1.55874 3 0.795609 3 0 
C 3 -0.795609 2.683901 -1.55874 2.12132 -2.12132 
C 1.55874 -2.683901 0.795609 -3 0 -3 
C -0.795609 -3 -1.55874 -2.683901 -2.12132 -2.12132 
C -2.683901 -1.55874 -3 -0.795609 -3 0 
C -3 0.795609 -2.683901 1.55874 -2.12132 2.12132 
C -1.55874 2.683901 -0.795609 3 0 3 
z
" id="mdf9ec871ed" style="stroke:#ff7f0e;"/>
    </defs>
    <g clip-path="url(#pfe1f9e5c86)">
     <use style="fill:#ff7f0e;stroke:#ff7f0e;" x="69.218182" xlink:href="#mdf9ec871ed" y="242.116364"/>
     <use style="fill:#ff7f0e;stroke:#ff7f0e;" x="89.509091" xlink:href="#mdf9ec871ed" y="240.600285"/>
     <use style="fill:#ff7f0e;stroke:#ff7f0e;" x="109.8" xlink:href="#mdf9ec871ed" y="239.973984"/>
     <use style="fill:#ff7f0e;stroke:#ff7f0e;" x="130.090909" xlink:href="#mdf9ec871ed" y="238.703129"/>
     <use style="fill:#ff7f0e;stroke:#ff7f0e;" x="150.381818" xlink:href="#mdf9ec871ed" y="237.928877"/>
     <use style="fill:#ff7f0e;stroke:#ff7f0e;" x="170.672727" xlink:href="#mdf9ec871ed" y="235.48495"/>
     <use style="fill:#ff7f0e;stroke:#ff7f0e;" x="190.963636" xlink:href="#mdf9ec871ed" y="234.080204"/>
     <use style="fill:#ff7f0e;stroke:#ff7f0e;" x="211.254545" xlink:href="#mdf9ec871ed" y="231.87425"/>
     <use style="fill:#ff7f0e;stroke:#ff7f0e;" x="231.545455" xlink:href="#mdf9ec871ed" y="230.14589"/>
     <use style="fill:#ff7f0e;stroke:#ff7f0e;" x="251.836364" xlink:href="#mdf9ec871ed" y="226.661048"/>
     <use style="fill:#ff7f0e;stroke:#ff7f0e;" x="272.127273" xlink:href="#mdf9ec871ed" y="225.076722"/>
     <use style="fill:#ff7f0e;stroke:#ff7f0e;" x="292.418182" xlink:href="#mdf9ec871ed" y="223.464317"/>
     <use style="fill:#ff7f0e;stroke:#ff7f0e;" x="312.709091" xlink:href="#mdf9ec871ed" y="221.77005"/>
     <use style="fill:#ff7f0e;stroke:#ff7f0e;" x="333" xlink:href="#mdf9ec871ed" y="220.945589"/>
     <use style="fill:#ff7f0e;stroke:#ff7f0e;" x="353.290909" xlink:href="#mdf9ec871ed" y="219.864857"/>
     <use style="fill:#ff7f0e;stroke:#ff7f0e;" x="373.581818" xlink:href="#mdf9ec871ed" y="220.782526"/>
    </g>
   </g>
   <g id="line2d_13">
    <path clip-path="url(#pfe1f9e5c86)" d="M 69.218182 220.175191 
L 89.509091 213.847021 
L 109.8 210.211285 
L 130.090909 206.317846 
L 150.381818 200.040905 
L 170.672727 189.639998 
L 190.963636 185.799166 
L 211.254545 180.262963 
L 231.545455 175.901187 
L 251.836364 165.440279 
L 272.127273 160.186126 
L 292.418182 164.238043 
L 312.709091 151.707047 
L 333 149.81896 
L 353.290909 140.988379 
L 373.581818 149.149293 
" style="fill:none;stroke:#2ca02c;stroke-linecap:square;stroke-width:1.5;"/>
    <defs>
     <path d="M 0 3 
C 0.795609 3 1.55874 2.683901 2.12132 2.12132 
C 2.683901 1.55874 3 0.795609 3 0 
C 3 -0.795609 2.683901 -1.55874 2.12132 -2.12132 
C 1.55874 -2.683901 0.795609 -3 0 -3 
C -0.795609 -3 -1.55874 -2.683901 -2.12132 -2.12132 
C -2.683901 -1.55874 -3 -0.795609 -3 0 
C -3 0.795609 -2.683901 1.55874 -2.12132 2.12132 
C -1.55874 2.683901 -0.795609 3 0 3 
z
" id="maf1a60e3e8" style="stroke:#2ca02c;"/>
    </defs>
    <g clip-path="url(#pfe1f9e5c86)">
     <use style="fill:#2ca02c;stroke:#2ca02c;" x="69.218182" xlink:href="#maf1a60e3e8" y="220.175191"/>
     <use style="fill:#2ca02c;stroke:#2ca02c;" x="89.509091" xlink:href="#maf1a60e3e8" y="213.847021"/>
     <use style="fill:#2ca02c;stroke:#2ca02c;" x="109.8" xlink:href="#maf1a60e3e8" y="210.211285"/>
     <use style="fill:#2ca02c;stroke:#2ca02c;" x="130.090909" xlink:href="#maf1a60e3e8" y="206.317846"/>
     <use style="fill:#2ca02c;stroke:#2ca02c;" x="150.381818" xlink:href="#maf1a60e3e8" y="200.040905"/>
     <use style="fill:#2ca02c;stroke:#2ca02c;" x="170.672727" xlink:href="#maf1a60e3e8" y="189.639998"/>
     <use style="fill:#2ca02c;stroke:#2ca02c;" x="190.963636" xlink:href="#maf1a60e3e8" y="185.799166"/>
     <use style="fill:#2ca02c;stroke:#2ca02c;" x="211.254545" xlink:href="#maf1a60e3e8" y="180.262963"/>
     <use style="fill:#2ca02c;stroke:#2ca02c;" x="231.545455" xlink:href="#maf1a60e3e8" y="175.901187"/>
     <use style="fill:#2ca02c;stroke:#2ca02c;" x="251.836364" xlink:href="#maf1a60e3e8" y="165.440279"/>
     <use style="fill:#2ca02c;stroke:#2ca02c;" x="272.127273" xlink:href="#maf1a60e3e8" y="160.186126"/>
     <use style="fill:#2ca02c;stroke:#2ca02c;" x="292.418182" xlink:href="#maf1a60e3e8" y="164.238043"/>
     <use style="fill:#2ca02c;stroke:#2ca02c;" x="312.709091" xlink:href="#maf1a60e3e8" y="151.707047"/>
     <use style="fill:#2ca02c;stroke:#2ca02c;" x="333" xlink:href="#maf1a60e3e8" y="149.81896"/>
     <use style="fill:#2ca02c;stroke:#2ca02c;" x="353.290909" xlink:href="#maf1a60e3e8" y="140.988379"/>
     <use style="fill:#2ca02c;stroke:#2ca02c;" x="373.581818" xlink:href="#maf1a60e3e8" y="149.149293"/>
    </g>
   </g>
   <g id="line2d_14">
    <path clip-path="url(#pfe1f9e5c86)" d="M 69.218182 240.564664 
L 89.509091 236.394723 
L 109.8 233.168096 
L 130.090909 230.456815 
L 150.381818 229.504379 
L 170.672727 224.223471 
L 190.963636 221.978044 
L 211.254545 220.518292 
L 231.545455 219.19126 
L 251.836364 215.49099 
L 272.127273 211.262059 
L 292.418182 207.064721 
L 312.709091 204.733415 
L 333 201.994346 
L 353.290909 210.038549 
L 373.581818 207.071451 
" style="fill:none;stroke:#d62728;stroke-linecap:square;stroke-width:1.5;"/>
    <defs>
     <path d="M 0 3 
C 0.795609 3 1.55874 2.683901 2.12132 2.12132 
C 2.683901 1.55874 3 0.795609 3 0 
C 3 -0.795609 2.683901 -1.55874 2.12132 -2.12132 
C 1.55874 -2.683901 0.795609 -3 0 -3 
C -0.795609 -3 -1.55874 -2.683901 -2.12132 -2.12132 
C -2.683901 -1.55874 -3 -0.795609 -3 0 
C -3 0.795609 -2.683901 1.55874 -2.12132 2.12132 
C -1.55874 2.683901 -0.795609 3 0 3 
z
" id="me7e0f12bc5" style="stroke:#d62728;"/>
    </defs>
    <g clip-path="url(#pfe1f9e5c86)">
     <use style="fill:#d62728;stroke:#d62728;" x="69.218182" xlink:href="#me7e0f12bc5" y="240.564664"/>
     <use style="fill:#d62728;stroke:#d62728;" x="89.509091" xlink:href="#me7e0f12bc5" y="236.394723"/>
     <use style="fill:#d62728;stroke:#d62728;" x="109.8" xlink:href="#me7e0f12bc5" y="233.168096"/>
     <use style="fill:#d62728;stroke:#d62728;" x="130.090909" xlink:href="#me7e0f12bc5" y="230.456815"/>
     <use style="fill:#d62728;stroke:#d62728;" x="150.381818" xlink:href="#me7e0f12bc5" y="229.504379"/>
     <use style="fill:#d62728;stroke:#d62728;" x="170.672727" xlink:href="#me7e0f12bc5" y="224.223471"/>
     <use style="fill:#d62728;stroke:#d62728;" x="190.963636" xlink:href="#me7e0f12bc5" y="221.978044"/>
     <use style="fill:#d62728;stroke:#d62728;" x="211.254545" xlink:href="#me7e0f12bc5" y="220.518292"/>
     <use style="fill:#d62728;stroke:#d62728;" x="231.545455" xlink:href="#me7e0f12bc5" y="219.19126"/>
     <use style="fill:#d62728;stroke:#d62728;" x="251.836364" xlink:href="#me7e0f12bc5" y="215.49099"/>
     <use style="fill:#d62728;stroke:#d62728;" x="272.127273" xlink:href="#me7e0f12bc5" y="211.262059"/>
     <use style="fill:#d62728;stroke:#d62728;" x="292.418182" xlink:href="#me7e0f12bc5" y="207.064721"/>
     <use style="fill:#d62728;stroke:#d62728;" x="312.709091" xlink:href="#me7e0f12bc5" y="204.733415"/>
     <use style="fill:#d62728;stroke:#d62728;" x="333" xlink:href="#me7e0f12bc5" y="201.994346"/>
     <use style="fill:#d62728;stroke:#d62728;" x="353.290909" xlink:href="#me7e0f12bc5" y="210.038549"/>
     <use style="fill:#d62728;stroke:#d62728;" x="373.581818" xlink:href="#me7e0f12bc5" y="207.071451"/>
    </g>
   </g>
   <g id="line2d_15">
    <path clip-path="url(#pfe1f9e5c86)" d="M 69.218182 239.082064 
L 89.509091 235.726143 
L 109.8 232.883646 
L 130.090909 230.308618 
L 150.381818 227.966694 
L 170.672727 225.215635 
L 190.963636 224.577873 
L 211.254545 221.406416 
L 231.545455 220.893483 
L 251.836364 214.866908 
L 272.127273 214.532536 
L 292.418182 210.974864 
L 312.709091 210.508564 
L 333 207.279613 
L 353.290909 206.860545 
L 373.581818 206.327169 
" style="fill:none;stroke:#9467bd;stroke-linecap:square;stroke-width:1.5;"/>
    <defs>
     <path d="M 0 3 
C 0.795609 3 1.55874 2.683901 2.12132 2.12132 
C 2.683901 1.55874 3 0.795609 3 0 
C 3 -0.795609 2.683901 -1.55874 2.12132 -2.12132 
C 1.55874 -2.683901 0.795609 -3 0 -3 
C -0.795609 -3 -1.55874 -2.683901 -2.12132 -2.12132 
C -2.683901 -1.55874 -3 -0.795609 -3 0 
C -3 0.795609 -2.683901 1.55874 -2.12132 2.12132 
C -1.55874 2.683901 -0.795609 3 0 3 
z
" id="m7d8fd5e217" style="stroke:#9467bd;"/>
    </defs>
    <g clip-path="url(#pfe1f9e5c86)">
     <use style="fill:#9467bd;stroke:#9467bd;" x="69.218182" xlink:href="#m7d8fd5e217" y="239.082064"/>
     <use style="fill:#9467bd;stroke:#9467bd;" x="89.509091" xlink:href="#m7d8fd5e217" y="235.726143"/>
     <use style="fill:#9467bd;stroke:#9467bd;" x="109.8" xlink:href="#m7d8fd5e217" y="232.883646"/>
     <use style="fill:#9467bd;stroke:#9467bd;" x="130.090909" xlink:href="#m7d8fd5e217" y="230.308618"/>
     <use style="fill:#9467bd;stroke:#9467bd;" x="150.381818" xlink:href="#m7d8fd5e217" y="227.966694"/>
     <use style="fill:#9467bd;stroke:#9467bd;" x="170.672727" xlink:href="#m7d8fd5e217" y="225.215635"/>
     <use style="fill:#9467bd;stroke:#9467bd;" x="190.963636" xlink:href="#m7d8fd5e217" y="224.577873"/>
     <use style="fill:#9467bd;stroke:#9467bd;" x="211.254545" xlink:href="#m7d8fd5e217" y="221.406416"/>
     <use style="fill:#9467bd;stroke:#9467bd;" x="231.545455" xlink:href="#m7d8fd5e217" y="220.893483"/>
     <use style="fill:#9467bd;stroke:#9467bd;" x="251.836364" xlink:href="#m7d8fd5e217" y="214.866908"/>
     <use style="fill:#9467bd;stroke:#9467bd;" x="272.127273" xlink:href="#m7d8fd5e217" y="214.532536"/>
     <use style="fill:#9467bd;stroke:#9467bd;" x="292.418182" xlink:href="#m7d8fd5e217" y="210.974864"/>
     <use style="fill:#9467bd;stroke:#9467bd;" x="312.709091" xlink:href="#m7d8fd5e217" y="210.508564"/>
     <use style="fill:#9467bd;stroke:#9467bd;" x="333" xlink:href="#m7d8fd5e217" y="207.279613"/>
     <use style="fill:#9467bd;stroke:#9467bd;" x="353.290909" xlink:href="#m7d8fd5e217" y="206.860545"/>
     <use style="fill:#9467bd;stroke:#9467bd;" x="373.581818" xlink:href="#m7d8fd5e217" y="206.327169"/>
    </g>
   </g>
   <g id="line2d_16">
    <path clip-path="url(#pfe1f9e5c86)" d="M 69.218182 236.828708 
L 89.509091 236.027243 
L 109.8 231.405443 
L 130.090909 229.263963 
L 150.381818 228.917522 
L 170.672727 229.768499 
L 190.963636 229.615183 
L 211.254545 226.153606 
L 231.545455 225.001829 
L 251.836364 225.173909 
L 272.127273 224.367925 
L 292.418182 226.154017 
L 312.709091 222.091955 
L 333 217.875293 
L 353.290909 214.788048 
L 373.581818 211.279178 
" style="fill:none;stroke:#8c564b;stroke-linecap:square;stroke-width:1.5;"/>
    <defs>
     <path d="M 0 3 
C 0.795609 3 1.55874 2.683901 2.12132 2.12132 
C 2.683901 1.55874 3 0.795609 3 0 
C 3 -0.795609 2.683901 -1.55874 2.12132 -2.12132 
C 1.55874 -2.683901 0.795609 -3 0 -3 
C -0.795609 -3 -1.55874 -2.683901 -2.12132 -2.12132 
C -2.683901 -1.55874 -3 -0.795609 -3 0 
C -3 0.795609 -2.683901 1.55874 -2.12132 2.12132 
C -1.55874 2.683901 -0.795609 3 0 3 
z
" id="m0d1c29827b" style="stroke:#8c564b;"/>
    </defs>
    <g clip-path="url(#pfe1f9e5c86)">
     <use style="fill:#8c564b;stroke:#8c564b;" x="69.218182" xlink:href="#m0d1c29827b" y="236.828708"/>
     <use style="fill:#8c564b;stroke:#8c564b;" x="89.509091" xlink:href="#m0d1c29827b" y="236.027243"/>
     <use style="fill:#8c564b;stroke:#8c564b;" x="109.8" xlink:href="#m0d1c29827b" y="231.405443"/>
     <use style="fill:#8c564b;stroke:#8c564b;" x="130.090909" xlink:href="#m0d1c29827b" y="229.263963"/>
     <use style="fill:#8c564b;stroke:#8c564b;" x="150.381818" xlink:href="#m0d1c29827b" y="228.917522"/>
     <use style="fill:#8c564b;stroke:#8c564b;" x="170.672727" xlink:href="#m0d1c29827b" y="229.768499"/>
     <use style="fill:#8c564b;stroke:#8c564b;" x="190.963636" xlink:href="#m0d1c29827b" y="229.615183"/>
     <use style="fill:#8c564b;stroke:#8c564b;" x="211.254545" xlink:href="#m0d1c29827b" y="226.153606"/>
     <use style="fill:#8c564b;stroke:#8c564b;" x="231.545455" xlink:href="#m0d1c29827b" y="225.001829"/>
     <use style="fill:#8c564b;stroke:#8c564b;" x="251.836364" xlink:href="#m0d1c29827b" y="225.173909"/>
     <use style="fill:#8c564b;stroke:#8c564b;" x="272.127273" xlink:href="#m0d1c29827b" y="224.367925"/>
     <use style="fill:#8c564b;stroke:#8c564b;" x="292.418182" xlink:href="#m0d1c29827b" y="226.154017"/>
     <use style="fill:#8c564b;stroke:#8c564b;" x="312.709091" xlink:href="#m0d1c29827b" y="222.091955"/>
     <use style="fill:#8c564b;stroke:#8c564b;" x="333" xlink:href="#m0d1c29827b" y="217.875293"/>
     <use style="fill:#8c564b;stroke:#8c564b;" x="353.290909" xlink:href="#m0d1c29827b" y="214.788048"/>
     <use style="fill:#8c564b;stroke:#8c564b;" x="373.581818" xlink:href="#m0d1c29827b" y="211.279178"/>
    </g>
   </g>
   <g id="patch_3">
    <path d="M 54 252 
L 54 34.56 
" style="fill:none;stroke:#000000;stroke-linecap:square;stroke-linejoin:miter;stroke-width:0.8;"/>
   </g>
   <g id="patch_4">
    <path d="M 388.8 252 
L 388.8 34.56 
" style="fill:none;stroke:#000000;stroke-linecap:square;stroke-linejoin:miter;stroke-width:0.8;"/>
   </g>
   <g id="patch_5">
    <path d="M 54 252 
L 388.8 252 
" style="fill:none;stroke:#000000;stroke-linecap:square;stroke-linejoin:miter;stroke-width:0.8;"/>
   </g>
   <g id="patch_6">
    <path d="M 54 34.56 
L 388.8 34.56 
" style="fill:none;stroke:#000000;stroke-linecap:square;stroke-linejoin:miter;stroke-width:0.8;"/>
   </g>
   <g id="text_13">
    <!-- Steady State Probabilities (stdd=3) -->
    <defs>
     <path d="M 53.515625 70.515625 
L 53.515625 60.890625 
Q 47.90625 63.578125 42.921875 64.890625 
Q 37.9375 66.21875 33.296875 66.21875 
Q 25.25 66.21875 20.875 63.09375 
Q 16.5 59.96875 16.5 54.203125 
Q 16.5 49.359375 19.40625 46.890625 
Q 22.3125 44.4375 30.421875 42.921875 
L 36.375 41.703125 
Q 47.40625 39.59375 52.65625 34.296875 
Q 57.90625 29 57.90625 20.125 
Q 57.90625 9.515625 50.796875 4.046875 
Q 43.703125 -1.421875 29.984375 -1.421875 
Q 24.8125 -1.421875 18.96875 -0.25 
Q 13.140625 0.921875 6.890625 3.21875 
L 6.890625 13.375 
Q 12.890625 10.015625 18.65625 8.296875 
Q 24.421875 6.59375 29.984375 6.59375 
Q 38.421875 6.59375 43.015625 9.90625 
Q 47.609375 13.234375 47.609375 19.390625 
Q 47.609375 24.75 44.3125 27.78125 
Q 41.015625 30.8125 33.5 32.328125 
L 27.484375 33.5 
Q 16.453125 35.6875 11.515625 40.375 
Q 6.59375 45.0625 6.59375 53.421875 
Q 6.59375 63.09375 13.40625 68.65625 
Q 20.21875 74.21875 32.171875 74.21875 
Q 37.3125 74.21875 42.625 73.28125 
Q 47.953125 72.359375 53.515625 70.515625 
z
" id="DejaVuSans-53"/>
     <path d="M 45.40625 46.390625 
L 45.40625 75.984375 
L 54.390625 75.984375 
L 54.390625 0 
L 45.40625 0 
L 45.40625 8.203125 
Q 42.578125 3.328125 38.25 0.953125 
Q 33.9375 -1.421875 27.875 -1.421875 
Q 17.96875 -1.421875 11.734375 6.484375 
Q 5.515625 14.40625 5.515625 27.296875 
Q 5.515625 40.1875 11.734375 48.09375 
Q 17.96875 56 27.875 56 
Q 33.9375 56 38.25 53.625 
Q 42.578125 51.265625 45.40625 46.390625 
z
M 14.796875 27.296875 
Q 14.796875 17.390625 18.875 11.75 
Q 22.953125 6.109375 30.078125 6.109375 
Q 37.203125 6.109375 41.296875 11.75 
Q 45.40625 17.390625 45.40625 27.296875 
Q 45.40625 37.203125 41.296875 42.84375 
Q 37.203125 48.484375 30.078125 48.484375 
Q 22.953125 48.484375 18.875 42.84375 
Q 14.796875 37.203125 14.796875 27.296875 
z
" id="DejaVuSans-64"/>
     <path d="M 31 75.875 
Q 24.46875 64.65625 21.28125 53.65625 
Q 18.109375 42.671875 18.109375 31.390625 
Q 18.109375 20.125 21.3125 9.0625 
Q 24.515625 -2 31 -13.1875 
L 23.1875 -13.1875 
Q 15.875 -1.703125 12.234375 9.375 
Q 8.59375 20.453125 8.59375 31.390625 
Q 8.59375 42.28125 12.203125 53.3125 
Q 15.828125 64.359375 23.1875 75.875 
z
" id="DejaVuSans-28"/>
     <path d="M 10.59375 45.40625 
L 73.1875 45.40625 
L 73.1875 37.203125 
L 10.59375 37.203125 
z
M 10.59375 25.484375 
L 73.1875 25.484375 
L 73.1875 17.1875 
L 10.59375 17.1875 
z
" id="DejaVuSans-3d"/>
     <path d="M 8.015625 75.875 
L 15.828125 75.875 
Q 23.140625 64.359375 26.78125 53.3125 
Q 30.421875 42.28125 30.421875 31.390625 
Q 30.421875 20.453125 26.78125 9.375 
Q 23.140625 -1.703125 15.828125 -13.1875 
L 8.015625 -13.1875 
Q 14.5 -2 17.703125 9.0625 
Q 20.90625 20.125 20.90625 31.390625 
Q 20.90625 42.671875 17.703125 53.65625 
Q 14.5 64.65625 8.015625 75.875 
z
" id="DejaVuSans-29"/>
    </defs>
    <g transform="translate(115.39875 28.56)scale(0.12 -0.12)">
     <use xlink:href="#DejaVuSans-53"/>
     <use x="63.476562" xlink:href="#DejaVuSans-74"/>
     <use x="102.685547" xlink:href="#DejaVuSans-65"/>
     <use x="164.208984" xlink:href="#DejaVuSans-61"/>
     <use x="225.488281" xlink:href="#DejaVuSans-64"/>
     <use x="288.964844" xlink:href="#DejaVuSans-79"/>
     <use x="348.144531" xlink:href="#DejaVuSans-20"/>
     <use x="379.931641" xlink:href="#DejaVuSans-53"/>
     <use x="443.408203" xlink:href="#DejaVuSans-74"/>
     <use x="482.617188" xlink:href="#DejaVuSans-61"/>
     <use x="543.896484" xlink:href="#DejaVuSans-74"/>
     <use x="583.105469" xlink:href="#DejaVuSans-65"/>
     <use x="644.628906" xlink:href="#DejaVuSans-20"/>
     <use x="676.416016" xlink:href="#DejaVuSans-50"/>
     <use x="736.703125" xlink:href="#DejaVuSans-72"/>
     <use x="777.785156" xlink:href="#DejaVuSans-6f"/>
     <use x="838.966797" xlink:href="#DejaVuSans-62"/>
     <use x="902.443359" xlink:href="#DejaVuSans-61"/>
     <use x="963.722656" xlink:href="#DejaVuSans-62"/>
     <use x="1027.199219" xlink:href="#DejaVuSans-69"/>
     <use x="1054.982422" xlink:href="#DejaVuSans-6c"/>
     <use x="1082.765625" xlink:href="#DejaVuSans-69"/>
     <use x="1110.548828" xlink:href="#DejaVuSans-74"/>
     <use x="1149.757812" xlink:href="#DejaVuSans-69"/>
     <use x="1177.541016" xlink:href="#DejaVuSans-65"/>
     <use x="1239.064453" xlink:href="#DejaVuSans-73"/>
     <use x="1291.164062" xlink:href="#DejaVuSans-20"/>
     <use x="1322.951172" xlink:href="#DejaVuSans-28"/>
     <use x="1361.964844" xlink:href="#DejaVuSans-73"/>
     <use x="1414.064453" xlink:href="#DejaVuSans-74"/>
     <use x="1453.273438" xlink:href="#DejaVuSans-64"/>
     <use x="1516.75" xlink:href="#DejaVuSans-64"/>
     <use x="1580.226562" xlink:href="#DejaVuSans-3d"/>
     <use x="1664.015625" xlink:href="#DejaVuSans-33"/>
     <use x="1727.638672" xlink:href="#DejaVuSans-29"/>
    </g>
   </g>
   <g id="legend_1">
    <g id="patch_7">
     <path d="M 61 130.62875 
L 119.884375 130.62875 
Q 121.884375 130.62875 121.884375 128.62875 
L 121.884375 41.56 
Q 121.884375 39.56 119.884375 39.56 
L 61 39.56 
Q 59 39.56 59 41.56 
L 59 128.62875 
Q 59 130.62875 61 130.62875 
z
" style="fill:#ffffff;opacity:0.8;stroke:#cccccc;stroke-linejoin:miter;"/>
    </g>
    <g id="line2d_17">
     <path d="M 63 47.658437 
L 83 47.658437 
" style="fill:none;stroke:#1f77b4;stroke-linecap:square;stroke-width:1.5;"/>
    </g>
    <g id="line2d_18">
     <g>
      <use style="fill:#1f77b4;stroke:#1f77b4;" x="73" xlink:href="#m788c74dc0e" y="47.658437"/>
     </g>
    </g>
    <g id="text_14">
     <!-- (4, 1) -->
     <defs>
      <path d="M 11.71875 12.40625 
L 22.015625 12.40625 
L 22.015625 4 
L 14.015625 -11.625 
L 7.71875 -11.625 
L 11.71875 4 
z
" id="DejaVuSans-2c"/>
      <path d="M 12.40625 8.296875 
L 28.515625 8.296875 
L 28.515625 63.921875 
L 10.984375 60.40625 
L 10.984375 69.390625 
L 28.421875 72.90625 
L 38.28125 72.90625 
L 38.28125 8.296875 
L 54.390625 8.296875 
L 54.390625 0 
L 12.40625 0 
z
" id="DejaVuSans-31"/>
     </defs>
     <g transform="translate(91 51.158437)scale(0.1 -0.1)">
      <use xlink:href="#DejaVuSans-28"/>
      <use x="39.013672" xlink:href="#DejaVuSans-34"/>
      <use x="102.636719" xlink:href="#DejaVuSans-2c"/>
      <use x="134.423828" xlink:href="#DejaVuSans-20"/>
      <use x="166.210938" xlink:href="#DejaVuSans-31"/>
      <use x="229.833984" xlink:href="#DejaVuSans-29"/>
     </g>
    </g>
    <g id="line2d_19">
     <path d="M 63 62.336562 
L 83 62.336562 
" style="fill:none;stroke:#ff7f0e;stroke-linecap:square;stroke-width:1.5;"/>
    </g>
    <g id="line2d_20">
     <g>
      <use style="fill:#ff7f0e;stroke:#ff7f0e;" x="73" xlink:href="#mdf9ec871ed" y="62.336562"/>
     </g>
    </g>
    <g id="text_15">
     <!-- (5, 1) -->
     <g transform="translate(91 65.836562)scale(0.1 -0.1)">
      <use xlink:href="#DejaVuSans-28"/>
      <use x="39.013672" xlink:href="#DejaVuSans-35"/>
      <use x="102.636719" xlink:href="#DejaVuSans-2c"/>
      <use x="134.423828" xlink:href="#DejaVuSans-20"/>
      <use x="166.210938" xlink:href="#DejaVuSans-31"/>
      <use x="229.833984" xlink:href="#DejaVuSans-29"/>
     </g>
    </g>
    <g id="line2d_21">
     <path d="M 63 77.014687 
L 83 77.014687 
" style="fill:none;stroke:#2ca02c;stroke-linecap:square;stroke-width:1.5;"/>
    </g>
    <g id="line2d_22">
     <g>
      <use style="fill:#2ca02c;stroke:#2ca02c;" x="73" xlink:href="#maf1a60e3e8" y="77.014687"/>
     </g>
    </g>
    <g id="text_16">
     <!-- (5, 2) -->
     <g transform="translate(91 80.514687)scale(0.1 -0.1)">
      <use xlink:href="#DejaVuSans-28"/>
      <use x="39.013672" xlink:href="#DejaVuSans-35"/>
      <use x="102.636719" xlink:href="#DejaVuSans-2c"/>
      <use x="134.423828" xlink:href="#DejaVuSans-20"/>
      <use x="166.210938" xlink:href="#DejaVuSans-32"/>
      <use x="229.833984" xlink:href="#DejaVuSans-29"/>
     </g>
    </g>
    <g id="line2d_23">
     <path d="M 63 91.692813 
L 83 91.692813 
" style="fill:none;stroke:#d62728;stroke-linecap:square;stroke-width:1.5;"/>
    </g>
    <g id="line2d_24">
     <g>
      <use style="fill:#d62728;stroke:#d62728;" x="73" xlink:href="#me7e0f12bc5" y="91.692813"/>
     </g>
    </g>
    <g id="text_17">
     <!-- (6, 1) -->
     <g transform="translate(91 95.192813)scale(0.1 -0.1)">
      <use xlink:href="#DejaVuSans-28"/>
      <use x="39.013672" xlink:href="#DejaVuSans-36"/>
      <use x="102.636719" xlink:href="#DejaVuSans-2c"/>
      <use x="134.423828" xlink:href="#DejaVuSans-20"/>
      <use x="166.210938" xlink:href="#DejaVuSans-31"/>
      <use x="229.833984" xlink:href="#DejaVuSans-29"/>
     </g>
    </g>
    <g id="line2d_25">
     <path d="M 63 106.370937 
L 83 106.370937 
" style="fill:none;stroke:#9467bd;stroke-linecap:square;stroke-width:1.5;"/>
    </g>
    <g id="line2d_26">
     <g>
      <use style="fill:#9467bd;stroke:#9467bd;" x="73" xlink:href="#m7d8fd5e217" y="106.370937"/>
     </g>
    </g>
    <g id="text_18">
     <!-- (6, 2) -->
     <g transform="translate(91 109.870937)scale(0.1 -0.1)">
      <use xlink:href="#DejaVuSans-28"/>
      <use x="39.013672" xlink:href="#DejaVuSans-36"/>
      <use x="102.636719" xlink:href="#DejaVuSans-2c"/>
      <use x="134.423828" xlink:href="#DejaVuSans-20"/>
      <use x="166.210938" xlink:href="#DejaVuSans-32"/>
      <use x="229.833984" xlink:href="#DejaVuSans-29"/>
     </g>
    </g>
    <g id="line2d_27">
     <path d="M 63 121.049062 
L 83 121.049062 
" style="fill:none;stroke:#8c564b;stroke-linecap:square;stroke-width:1.5;"/>
    </g>
    <g id="line2d_28">
     <g>
      <use style="fill:#8c564b;stroke:#8c564b;" x="73" xlink:href="#m0d1c29827b" y="121.049062"/>
     </g>
    </g>
    <g id="text_19">
     <!-- (6, 3) -->
     <g transform="translate(91 124.549062)scale(0.1 -0.1)">
      <use xlink:href="#DejaVuSans-28"/>
      <use x="39.013672" xlink:href="#DejaVuSans-36"/>
      <use x="102.636719" xlink:href="#DejaVuSans-2c"/>
      <use x="134.423828" xlink:href="#DejaVuSans-20"/>
      <use x="166.210938" xlink:href="#DejaVuSans-33"/>
      <use x="229.833984" xlink:href="#DejaVuSans-29"/>
     </g>
    </g>
   </g>
  </g>
 </g>
 <defs>
  <clipPath id="pfe1f9e5c86">
   <rect height="217.44" width="334.8" x="54" y="34.56"/>
  </clipPath>
 </defs>
</svg>
