<svg baseProfile="full" height="330.0" version="1.1" width="438.0" xmlns="http://www.w3.org/2000/svg" xmlns:ev="http://www.w3.org/2001/xml-events" xmlns:xlink="http://www.w3.org/1999/xlink"><defs/><polyline fill="none" points="114.0,129.0 114.0,180.0 168.0,180.0 168.0,171.0" stroke="rgb(68,1,84)" stroke-width="3.5999999999999996"/><polyline fill="none" points="168.0,165.0 168.0,162.0 165.0,162.0" stroke="rgb(68,2,85)" stroke-width="3.5999999999999996"/><polyline fill="none" points="159.0,162.0 150.0,162.0 150.0,174.0 162.0,174.0 162.0,171.0" stroke="rgb(69,5,88)" stroke-width="3.5999999999999996"/><polyline fill="none" points="162.0,165.0 162.0,153.0" stroke="rgb(69,5,88)" stroke-width="3.5999999999999996"/><polyline fill="none" points="162.0,147.0 162.0,144.0 159.0,144.0" stroke="rgb(70,11,94)" stroke-width="3.5999999999999996"/><polyline fill="none" points="153.0,144.0 153.0,144.0" stroke="rgb(70,12,95)" stroke-width="3.5999999999999996"/><polyline fill="none" points="147.0,144.0 135.0,144.0" stroke="rgb(70,12,95)" stroke-width="3.5999999999999996"/><polyline fill="none" points="129.0,144.0 129.0,144.0" stroke="rgb(71,18,101)" stroke-width="3.5999999999999996"/><polyline fill="none" points="123.0,144.0 120.0,144.0 120.0,156.0 150.0,156.0 150.0,132.0 141.0,132.0" stroke="rgb(71,21,103)" stroke-width="3.5999999999999996"/><polyline fill="none" points="135.0,132.0 126.0,132.0 126.0,150.0 132.0,150.0 132.0,135.0" stroke="rgb(71,22,105)" stroke-width="3.5999999999999996"/><polyline fill="none" points="132.0,129.0 132.0,126.0 108.0,126.0 108.0,168.0 111.0,168.0" stroke="rgb(72,25,107)" stroke-width="3.5999999999999996"/><polyline fill="none" points="117.0,168.0 147.0,168.0" stroke="rgb(72,28,110)" stroke-width="3.5999999999999996"/><polyline fill="none" points="153.0,168.0 171.0,168.0" stroke="rgb(72,28,110)" stroke-width="3.5999999999999996"/><polyline fill="none" points="177.0,168.0 198.0,168.0 198.0,75.0" stroke="rgb(72,32,113)" stroke-width="3.5999999999999996"/><polyline fill="none" points="198.0,69.0 198.0,12.0 195.0,12.0" stroke="rgb(72,34,115)" stroke-width="3.5999999999999996"/><polyline fill="none" points="189.0,12.0 33.0,12.0" stroke="rgb(71,37,117)" stroke-width="3.5999999999999996"/><polyline fill="none" points="27.0,12.0 15.0,12.0" stroke="rgb(71,39,119)" stroke-width="3.5999999999999996"/><polyline fill="none" points="9.0,12.0 6.0,12.0 6.0,318.0 423.0,318.0" stroke="rgb(71,40,120)" stroke-width="3.5999999999999996"/><polyline fill="none" points="429.0,318.0 432.0,318.0 432.0,114.0 405.0,114.0" stroke="rgb(71,43,122)" stroke-width="3.5999999999999996"/><polyline fill="none" points="399.0,114.0 390.0,114.0 390.0,117.0" stroke="rgb(70,45,124)" stroke-width="3.5999999999999996"/><polyline fill="none" points="390.0,123.0 390.0,279.0" stroke="rgb(70,48,125)" stroke-width="3.5999999999999996"/><polyline fill="none" points="390.0,285.0 390.0,288.0 384.0,288.0 384.0,285.0" stroke="rgb(70,49,126)" stroke-width="3.5999999999999996"/><polyline fill="none" points="384.0,279.0 384.0,150.0 336.0,150.0 336.0,153.0" stroke="rgb(69,52,127)" stroke-width="3.5999999999999996"/><polyline fill="none" points="336.0,159.0 336.0,207.0" stroke="rgb(69,54,129)" stroke-width="3.5999999999999996"/><polyline fill="none" points="336.0,213.0 336.0,225.0" stroke="rgb(69,54,129)" stroke-width="3.5999999999999996"/><polyline fill="none" points="336.0,231.0 336.0,246.0 309.0,246.0" stroke="rgb(67,58,131)" stroke-width="3.5999999999999996"/><polyline fill="none" points="303.0,246.0 300.0,246.0 300.0,249.0" stroke="rgb(67,60,132)" stroke-width="3.5999999999999996"/><polyline fill="none" points="300.0,255.0 300.0,270.0 303.0,270.0" stroke="rgb(66,62,133)" stroke-width="3.5999999999999996"/><polyline fill="none" points="309.0,270.0 363.0,270.0" stroke="rgb(65,65,134)" stroke-width="3.5999999999999996"/><polyline fill="none" points="369.0,270.0 378.0,270.0 378.0,156.0 366.0,156.0 366.0,159.0" stroke="rgb(65,66,134)" stroke-width="3.5999999999999996"/><polyline fill="none" points="366.0,165.0 366.0,261.0" stroke="rgb(64,68,135)" stroke-width="3.5999999999999996"/><polyline fill="none" points="366.0,267.0 366.0,276.0 306.0,276.0 306.0,267.0" stroke="rgb(63,71,136)" stroke-width="3.5999999999999996"/><polyline fill="none" points="306.0,261.0 306.0,258.0 354.0,258.0 354.0,228.0 324.0,228.0 324.0,216.0 315.0,216.0" stroke="rgb(62,73,137)" stroke-width="3.5999999999999996"/><polyline fill="none" points="309.0,216.0 267.0,216.0" stroke="rgb(61,74,137)" stroke-width="3.5999999999999996"/><polyline fill="none" points="261.0,216.0 261.0,216.0" stroke="rgb(61,76,137)" stroke-width="3.5999999999999996"/><polyline fill="none" points="255.0,216.0 219.0,216.0" stroke="rgb(60,78,138)" stroke-width="3.5999999999999996"/><polyline fill="none" points="213.0,216.0 48.0,216.0 48.0,204.0 57.0,204.0" stroke="rgb(59,81,138)" stroke-width="3.5999999999999996"/><polyline fill="none" points="63.0,204.0 93.0,204.0" stroke="rgb(58,82,139)" stroke-width="3.5999999999999996"/><polyline fill="none" points="99.0,204.0 177.0,204.0" stroke="rgb(57,84,139)" stroke-width="3.5999999999999996"/><polyline fill="none" points="183.0,204.0 186.0,204.0 186.0,171.0" stroke="rgb(56,86,139)" stroke-width="3.5999999999999996"/><polyline fill="none" points="186.0,165.0 186.0,102.0 102.0,102.0 102.0,186.0 174.0,186.0 174.0,153.0" stroke="rgb(55,88,140)" stroke-width="3.5999999999999996"/><polyline fill="none" points="174.0,147.0 174.0,120.0 156.0,120.0 156.0,150.0 183.0,150.0" stroke="rgb(55,89,140)" stroke-width="3.5999999999999996"/><polyline fill="none" points="189.0,150.0 192.0,150.0 192.0,117.0" stroke="rgb(54,91,140)" stroke-width="3.5999999999999996"/><polyline fill="none" points="192.0,111.0 192.0,75.0" stroke="rgb(53,93,140)" stroke-width="3.5999999999999996"/><polyline fill="none" points="192.0,69.0 192.0,6.0 210.0,6.0 210.0,63.0" stroke="rgb(52,95,141)" stroke-width="3.5999999999999996"/><polyline fill="none" points="210.0,69.0 210.0,69.0" stroke="rgb(51,96,141)" stroke-width="3.5999999999999996"/><polyline fill="none" points="210.0,75.0 210.0,84.0 204.0,84.0 204.0,75.0" stroke="rgb(50,98,141)" stroke-width="3.5999999999999996"/><polyline fill="none" points="204.0,69.0 204.0,66.0 222.0,66.0 222.0,120.0 228.0,120.0 228.0,102.0 237.0,102.0" stroke="rgb(49,100,141)" stroke-width="3.5999999999999996"/><polyline fill="none" points="243.0,102.0 243.0,102.0" stroke="rgb(49,100,141)" stroke-width="3.5999999999999996"/><polyline fill="none" points="249.0,102.0 258.0,102.0 258.0,105.0" stroke="rgb(48,103,141)" stroke-width="3.5999999999999996"/><polyline fill="none" points="258.0,111.0 258.0,117.0" stroke="rgb(47,105,141)" stroke-width="3.5999999999999996"/><polyline fill="none" points="258.0,123.0 258.0,126.0 255.0,126.0" stroke="rgb(46,107,142)" stroke-width="3.5999999999999996"/><polyline fill="none" points="249.0,126.0 234.0,126.0 234.0,105.0" stroke="rgb(46,109,142)" stroke-width="3.5999999999999996"/><polyline fill="none" points="234.0,99.0 234.0,78.0 246.0,78.0 246.0,81.0" stroke="rgb(45,110,142)" stroke-width="3.5999999999999996"/><polyline fill="none" points="246.0,87.0 246.0,93.0" stroke="rgb(44,112,142)" stroke-width="3.5999999999999996"/><polyline fill="none" points="246.0,99.0 246.0,105.0" stroke="rgb(44,114,142)" stroke-width="3.5999999999999996"/><polyline fill="none" points="246.0,111.0 246.0,120.0 357.0,120.0" stroke="rgb(43,116,142)" stroke-width="3.5999999999999996"/><polyline fill="none" points="363.0,120.0 396.0,120.0 396.0,117.0" stroke="rgb(42,117,142)" stroke-width="3.5999999999999996"/><polyline fill="none" points="396.0,111.0 396.0,111.0" stroke="rgb(42,119,142)" stroke-width="3.5999999999999996"/><polyline fill="none" points="396.0,105.0 396.0,96.0 240.0,96.0 240.0,108.0 360.0,108.0 360.0,147.0" stroke="rgb(41,121,142)" stroke-width="3.5999999999999996"/><polyline fill="none" points="360.0,153.0 360.0,168.0 354.0,168.0 354.0,156.0 315.0,156.0" stroke="rgb(40,122,142)" stroke-width="3.5999999999999996"/><polyline fill="none" points="309.0,156.0 306.0,156.0 306.0,147.0" stroke="rgb(40,123,142)" stroke-width="3.5999999999999996"/><polyline fill="none" points="306.0,141.0 306.0,138.0 312.0,138.0 312.0,141.0" stroke="rgb(39,125,142)" stroke-width="3.5999999999999996"/><polyline fill="none" points="312.0,147.0 312.0,147.0" stroke="rgb(38,127,142)" stroke-width="3.5999999999999996"/><polyline fill="none" points="312.0,153.0 312.0,159.0" stroke="rgb(38,129,142)" stroke-width="3.5999999999999996"/><polyline fill="none" points="312.0,165.0 312.0,240.0 309.0,240.0" stroke="rgb(37,130,142)" stroke-width="3.5999999999999996"/><polyline fill="none" points="303.0,240.0 297.0,240.0" stroke="rgb(36,132,141)" stroke-width="3.5999999999999996"/><polyline fill="none" points="291.0,240.0 288.0,240.0 288.0,234.0 300.0,234.0 300.0,228.0 276.0,228.0 276.0,222.0 294.0,222.0 294.0,225.0" stroke="rgb(36,134,141)" stroke-width="3.5999999999999996"/><polyline fill="none" points="294.0,231.0 294.0,231.0" stroke="rgb(35,136,141)" stroke-width="3.5999999999999996"/><polyline fill="none" points="294.0,237.0 294.0,258.0 282.0,258.0 282.0,255.0" stroke="rgb(35,137,141)" stroke-width="3.5999999999999996"/><polyline fill="none" points="282.0,249.0 282.0,231.0" stroke="rgb(34,138,141)" stroke-width="3.5999999999999996"/><polyline fill="none" points="282.0,225.0 282.0,225.0" stroke="rgb(33,140,141)" stroke-width="3.5999999999999996"/><polyline fill="none" points="282.0,219.0 282.0,219.0" stroke="rgb(33,142,140)" stroke-width="3.5999999999999996"/><polyline fill="none" points="282.0,213.0 282.0,210.0 306.0,210.0 306.0,213.0" stroke="rgb(32,144,140)" stroke-width="3.5999999999999996"/><polyline fill="none" points="306.0,219.0 306.0,252.0 297.0,252.0" stroke="rgb(32,145,140)" stroke-width="3.5999999999999996"/><polyline fill="none" points="291.0,252.0 270.0,252.0 270.0,219.0" stroke="rgb(31,147,139)" stroke-width="3.5999999999999996"/><polyline fill="none" points="270.0,213.0 270.0,162.0 333.0,162.0" stroke="rgb(31,149,139)" stroke-width="3.5999999999999996"/><polyline fill="none" points="339.0,162.0 351.0,162.0" stroke="rgb(30,151,138)" stroke-width="3.5999999999999996"/><polyline fill="none" points="357.0,162.0 357.0,162.0" stroke="rgb(30,152,138)" stroke-width="3.5999999999999996"/><polyline fill="none" points="363.0,162.0 372.0,162.0 372.0,264.0 348.0,264.0 348.0,261.0" stroke="rgb(30,153,138)" stroke-width="3.5999999999999996"/><polyline fill="none" points="348.0,255.0 348.0,231.0" stroke="rgb(30,155,137)" stroke-width="3.5999999999999996"/><polyline fill="none" points="348.0,225.0 348.0,210.0 318.0,210.0 318.0,213.0" stroke="rgb(30,155,137)" stroke-width="3.5999999999999996"/><polyline fill="none" points="318.0,219.0 318.0,222.0 321.0,222.0" stroke="rgb(30,158,136)" stroke-width="3.5999999999999996"/><polyline fill="none" points="327.0,222.0 333.0,222.0" stroke="rgb(30,160,135)" stroke-width="3.5999999999999996"/><polyline fill="none" points="339.0,222.0 342.0,222.0 342.0,216.0 339.0,216.0" stroke="rgb(31,162,134)" stroke-width="3.5999999999999996"/><polyline fill="none" points="333.0,216.0 330.0,216.0 330.0,219.0" stroke="rgb(32,164,133)" stroke-width="3.5999999999999996"/><polyline fill="none" points="330.0,225.0 330.0,225.0" stroke="rgb(32,165,133)" stroke-width="3.5999999999999996"/><polyline fill="none" points="330.0,231.0 330.0,243.0" stroke="rgb(33,167,132)" stroke-width="3.5999999999999996"/><polyline fill="none" points="330.0,249.0 330.0,255.0" stroke="rgb(35,168,131)" stroke-width="3.5999999999999996"/><polyline fill="none" points="330.0,261.0 330.0,264.0 303.0,264.0" stroke="rgb(36,170,130)" stroke-width="3.5999999999999996"/><polyline fill="none" points="297.0,264.0 264.0,264.0 264.0,126.0 318.0,126.0 318.0,150.0 309.0,150.0" stroke="rgb(37,171,129)" stroke-width="3.5999999999999996"/><polyline fill="none" points="303.0,150.0 300.0,150.0 300.0,144.0 315.0,144.0" stroke="rgb(39,173,128)" stroke-width="3.5999999999999996"/><polyline fill="none" points="321.0,144.0 324.0,144.0 324.0,132.0 321.0,132.0" stroke="rgb(41,175,127)" stroke-width="3.5999999999999996"/><polyline fill="none" points="315.0,132.0 267.0,132.0" stroke="rgb(43,177,125)" stroke-width="3.5999999999999996"/><polyline fill="none" points="261.0,132.0 258.0,132.0 258.0,279.0" stroke="rgb(44,177,125)" stroke-width="3.5999999999999996"/><polyline fill="none" points="258.0,285.0 258.0,288.0 216.0,288.0 216.0,84.0 219.0,84.0" stroke="rgb(47,179,123)" stroke-width="3.5999999999999996"/><polyline fill="none" points="225.0,84.0 231.0,84.0" stroke="rgb(47,179,123)" stroke-width="3.5999999999999996"/><polyline fill="none" points="237.0,84.0 252.0,84.0 252.0,72.0 225.0,72.0" stroke="rgb(53,183,120)" stroke-width="3.5999999999999996"/><polyline fill="none" points="219.0,72.0 96.0,72.0 96.0,189.0" stroke="rgb(54,184,119)" stroke-width="3.5999999999999996"/><polyline fill="none" points="96.0,195.0 96.0,210.0 180.0,210.0 180.0,195.0" stroke="rgb(57,185,118)" stroke-width="3.5999999999999996"/><polyline fill="none" points="180.0,189.0 180.0,186.0 183.0,186.0" stroke="rgb(61,187,116)" stroke-width="3.5999999999999996"/><polyline fill="none" points="189.0,186.0 192.0,186.0 192.0,192.0 189.0,192.0" stroke="rgb(64,189,114)" stroke-width="3.5999999999999996"/><polyline fill="none" points="183.0,192.0 51.0,192.0" stroke="rgb(66,190,113)" stroke-width="3.5999999999999996"/><polyline fill="none" points="45.0,192.0 42.0,192.0 42.0,60.0 45.0,60.0" stroke="rgb(69,191,111)" stroke-width="3.5999999999999996"/><polyline fill="none" points="51.0,60.0 57.0,60.0" stroke="rgb(73,193,109)" stroke-width="3.5999999999999996"/><polyline fill="none" points="63.0,60.0 75.0,60.0" stroke="rgb(77,194,107)" stroke-width="3.5999999999999996"/><polyline fill="none" points="81.0,60.0 81.0,60.0" stroke="rgb(79,195,105)" stroke-width="3.5999999999999996"/><polyline fill="none" points="87.0,60.0 87.0,60.0" stroke="rgb(83,197,103)" stroke-width="3.5999999999999996"/><polyline fill="none" points="93.0,60.0 96.0,60.0 96.0,30.0 66.0,30.0 66.0,33.0" stroke="rgb(87,198,101)" stroke-width="3.5999999999999996"/><polyline fill="none" points="66.0,39.0 66.0,57.0" stroke="rgb(91,200,98)" stroke-width="3.5999999999999996"/><polyline fill="none" points="66.0,63.0 66.0,72.0 90.0,72.0 90.0,54.0 84.0,54.0 84.0,66.0 78.0,66.0 78.0,33.0" stroke="rgb(94,201,97)" stroke-width="3.5999999999999996"/><polyline fill="none" points="78.0,27.0 78.0,24.0 33.0,24.0" stroke="rgb(94,201,97)" stroke-width="3.5999999999999996"/><polyline fill="none" points="27.0,24.0 24.0,24.0 24.0,48.0 63.0,48.0" stroke="rgb(103,204,92)" stroke-width="3.5999999999999996"/><polyline fill="none" points="69.0,48.0 72.0,48.0 72.0,36.0 36.0,36.0 36.0,45.0" stroke="rgb(107,205,89)" stroke-width="3.5999999999999996"/><polyline fill="none" points="36.0,51.0 36.0,198.0 48.0,198.0 48.0,54.0 60.0,54.0 60.0,189.0" stroke="rgb(109,206,88)" stroke-width="3.5999999999999996"/><polyline fill="none" points="60.0,195.0 60.0,195.0" stroke="rgb(114,207,85)" stroke-width="3.5999999999999996"/><polyline fill="none" points="60.0,201.0 60.0,210.0 54.0,210.0 54.0,207.0" stroke="rgb(119,208,82)" stroke-width="3.5999999999999996"/><polyline fill="none" points="54.0,201.0 54.0,198.0 66.0,198.0 66.0,201.0" stroke="rgb(124,210,79)" stroke-width="3.5999999999999996"/><polyline fill="none" points="66.0,207.0 66.0,213.0" stroke="rgb(126,210,78)" stroke-width="3.5999999999999996"/><polyline fill="none" points="66.0,219.0 66.0,306.0 402.0,306.0 402.0,303.0" stroke="rgb(131,211,75)" stroke-width="3.5999999999999996"/><polyline fill="none" points="402.0,297.0 402.0,90.0 390.0,90.0 390.0,93.0" stroke="rgb(136,213,71)" stroke-width="3.5999999999999996"/><polyline fill="none" points="390.0,99.0 390.0,108.0 399.0,108.0" stroke="rgb(141,214,68)" stroke-width="3.5999999999999996"/><polyline fill="none" points="405.0,108.0 426.0,108.0 426.0,111.0" stroke="rgb(144,214,67)" stroke-width="3.5999999999999996"/><polyline fill="none" points="426.0,117.0 426.0,324.0 12.0,324.0 12.0,321.0" stroke="rgb(149,215,63)" stroke-width="3.5999999999999996"/><polyline fill="none" points="12.0,315.0 12.0,6.0 30.0,6.0 30.0,15.0" stroke="rgb(154,216,60)" stroke-width="3.5999999999999996"/><polyline fill="none" points="30.0,21.0 30.0,42.0 33.0,42.0" stroke="rgb(154,216,60)" stroke-width="3.5999999999999996"/><polyline fill="none" points="39.0,42.0 42.0,42.0 42.0,39.0" stroke="rgb(162,218,55)" stroke-width="3.5999999999999996"/><polyline fill="none" points="42.0,33.0 42.0,27.0" stroke="rgb(167,219,51)" stroke-width="3.5999999999999996"/><polyline fill="none" points="42.0,21.0 42.0,18.0 18.0,18.0 18.0,312.0 414.0,312.0 414.0,288.0 408.0,288.0 408.0,300.0 390.0,300.0 390.0,294.0 399.0,294.0" stroke="rgb(173,220,48)" stroke-width="3.5999999999999996"/><polyline fill="none" points="405.0,294.0 405.0,294.0" stroke="rgb(178,221,44)" stroke-width="3.5999999999999996"/><polyline fill="none" points="411.0,294.0 411.0,294.0" stroke="rgb(181,221,43)" stroke-width="3.5999999999999996"/><polyline fill="none" points="417.0,294.0 420.0,294.0 420.0,282.0 405.0,282.0" stroke="rgb(186,222,39)" stroke-width="3.5999999999999996"/><polyline fill="none" points="399.0,282.0 252.0,282.0 252.0,219.0" stroke="rgb(191,223,36)" stroke-width="3.5999999999999996"/><polyline fill="none" points="252.0,213.0 252.0,123.0" stroke="rgb(197,223,33)" stroke-width="3.5999999999999996"/><polyline fill="none" points="252.0,117.0 252.0,114.0 249.0,114.0" stroke="rgb(199,224,31)" stroke-width="3.5999999999999996"/><polyline fill="none" points="243.0,114.0 237.0,114.0" stroke="rgb(205,224,29)" stroke-width="3.5999999999999996"/><polyline fill="none" points="231.0,114.0 231.0,114.0" stroke="rgb(210,225,27)" stroke-width="3.5999999999999996"/><polyline fill="none" points="225.0,114.0 225.0,114.0" stroke="rgb(215,226,25)" stroke-width="3.5999999999999996"/><polyline fill="none" points="219.0,114.0 219.0,114.0" stroke="rgb(218,226,24)" stroke-width="3.5999999999999996"/><polyline fill="none" points="213.0,114.0 201.0,114.0" stroke="rgb(223,227,24)" stroke-width="3.5999999999999996"/><polyline fill="none" points="195.0,114.0 189.0,114.0" stroke="rgb(228,227,24)" stroke-width="3.5999999999999996"/><polyline fill="none" points="183.0,114.0 153.0,114.0" stroke="rgb(233,228,25)" stroke-width="3.5999999999999996"/><polyline fill="none" points="147.0,114.0 147.0,114.0" stroke="rgb(236,228,26)" stroke-width="3.5999999999999996"/><polyline fill="none" points="141.0,114.0 138.0,114.0 138.0,138.0 144.0,138.0 144.0,135.0" stroke="rgb(241,229,28)" stroke-width="3.5999999999999996"/><polyline fill="none" points="144.0,129.0 144.0,123.0" stroke="rgb(246,230,31)" stroke-width="3.5999999999999996"/><polyline fill="none" points="144.0,117.0 144.0,108.0 150.0,108.0 150.0,120.0 141.0,120.0" stroke="rgb(250,230,34)" stroke-width="3.5999999999999996"/><polyline fill="none" points="135.0,120.0 114.0,120.0 114.0,123.0" stroke="rgb(253,231,36)" stroke-width="3.5999999999999996"/></svg>